<?xml version='1.0' encoding='UTF-8' standalone='no'?>
<!-- Created with Inkscape (http://www.inkscape.org/) -->
<svg xmlns:inkscape="http://www.inkscape.org/namespaces/inkscape" sodipodi:docname="arduino.svg" xmlns="http://www.w3.org/2000/svg" version="1.1" xmlns:svg="http://www.w3.org/2000/svg" height="32" inkscape:output_extension="org.inkscape.output.svg.inkscape" xmlns:sodipodi="http://sodipodi.sourceforge.net/DTD/sodipodi-0.dtd" xmlns:dc="http://purl.org/dc/elements/1.1/" xmlns:rdf="http://www.w3.org/1999/02/22-rdf-syntax-ns#" xmlns:cc="http://creativecommons.org/ns#" width="32" id="svg2816" sodipodi:version="0.32" inkscape:version="0.91 r13725">
  <defs id="defs2818">
    <style type="text/css" id="current-color-scheme"><![CDATA[
.ColorScheme-Text{ color:#c8c8c8; }
]]></style>
    <inkscape:perspective inkscape:vp_z="64 : 32 : 1" inkscape:vp_x="0 : 32 : 1" inkscape:persp3d-origin="32 : 21.333333 : 1" inkscape:vp_y="0 : 1000 : 0" sodipodi:type="inkscape:persp3d" id="perspective2824"/>
    <inkscape:perspective inkscape:vp_z="64 : 32 : 1" inkscape:vp_x="0 : 32 : 1" inkscape:persp3d-origin="32 : 21.333333 : 1" inkscape:vp_y="0 : 1000 : 0" sodipodi:type="inkscape:persp3d" id="perspective2824-8"/>
    <inkscape:perspective inkscape:vp_z="1 : 0.5 : 1" inkscape:vp_x="0 : 0.5 : 1" inkscape:persp3d-origin="0.5 : 0.33333333 : 1" inkscape:vp_y="0 : 1000 : 0" sodipodi:type="inkscape:persp3d" id="perspective2824-5"/>
  </defs>
  <sodipodi:namedview inkscape:window-width="1882" inkscape:object-nodes="true" inkscape:pageshadow="2" pagecolor="#ffffff" inkscape:window-maximized="1" bordercolor="#666666" inkscape:current-layer="layer1" inkscape:document-units="px" inkscape:window-x="38" inkscape:grid-bbox="true" inkscape:object-paths="false" borderopacity="1.0" inkscape:window-height="1080" showgrid="false" inkscape:snap-global="true" inkscape:zoom="1" inkscape:window-y="0" inkscape:snap-intersection-paths="false" inkscape:cx="-116.21367" inkscape:cy="-38.721005" inkscape:pageopacity="0.0" id="base">
    <inkscape:grid type="xygrid" visible="true" empspacing="4" snapvisiblegridlinesonly="true" id="grid2826" enabled="true"/>
  </sodipodi:namedview>
  <metadata id="metadata2821">
    <rdf:RDF>
      <cc:Work rdf:about="">
        <dc:format>image/svg+xml</dc:format>
        <dc:type rdf:resource="http://purl.org/dc/dcmitype/StillImage"/>
        <dc:title/>
      </cc:Work>
    </rdf:RDF>
  </metadata>
  <g transform="translate(0,-32)" inkscape:groupmode="layer" id="layer1" inkscape:label="Layer 1">
    <path d="M 16,33 C 7.7157283,33 1,39.715728 1,48 1,56.284272 7.7157283,63 16,63 24.284272,63 31,56.284272 31,48 31,39.715728 24.284272,33 16,33 Z m 6.899414,7.866211 c 3.685924,0 6.37207,3.077007 6.37207,7.294922 0,4.293912 -2.503984,7.382813 -5.961914,7.382813 -2.697944,0 -4.713732,-1.529354 -7.221679,-5.405275 -3.153936,3.913921 -4.816271,5.097657 -7.3242192,5.097657 -3.4199298,0 -6.0498047,-3.006088 -6.0498047,-6.958007 0,-3.837922 2.6207388,-6.870118 5.888672,-6.870118 2.2799529,0 4.3022739,1.625079 6.2402349,5.083008 3.305931,-4.179915 5.358696,-5.625 8.05664,-5.625 z m 1.245118,2.739257 c -2.127957,0 -3.267004,0.842612 -7.294923,5.478516 2.013959,2.507949 3.719961,3.530274 5.961915,3.530274 3.115935,0 5.024414,-1.790858 5.024414,-4.716797 0,-2.469949 -1.56345,-4.291993 -3.691406,-4.291993 z m -15.4980477,0.38086 c -2.621946,0 -4.5703124,1.827989 -4.5703124,4.335938 0,2.279954 1.6774476,4.174805 3.6914062,4.174805 1.9379602,0 3.6855849,-1.399839 6.2695309,-5.009767 C 12.213147,44.903358 10.81244,43.986328 8.6464843,43.986328 Z M 22,45 l 2,0 0,2 2,0 0,2 -2,0 0,2 -2,0 0,-2 -2,0 0,-2 2,0 z m -16,2 5,0 0,2 -5,0 z" style="color:#c8c8c8;fill:currentColor;fill-opacity:1;stroke:none" inkscape:connector-curvature="0" sodipodi:nodetypes="sssssssscssscsscsssssscscccccccccccccccccc" id="path2996" class="ColorScheme-Text"/>
  </g>
</svg>
