<?xml version='1.0' encoding='UTF-8' standalone='no'?>
<!-- Created with Inkscape (http://www.inkscape.org/) -->
<svg xmlns:svg="http://www.w3.org/2000/svg" version="1.1" width="32" inkscape:export-filename="/home/rob/.kde4/share/icons/nmfnms/48x48/apps/utilities-terminal.png" xmlns:rdf="http://www.w3.org/1999/02/22-rdf-syntax-ns#" sodipodi:version="0.32" xmlns:dc="http://purl.org/dc/elements/1.1/" xmlns:cc="http://creativecommons.org/ns#" xmlns:inkscape="http://www.inkscape.org/namespaces/inkscape" height="32" inkscape:version="0.91 r13725" inkscape:export-xdpi="67.5" xmlns="http://www.w3.org/2000/svg" xmlns:sodipodi="http://sodipodi.sourceforge.net/DTD/sodipodi-0.dtd" inkscape:export-ydpi="67.5" inkscape:output_extension="org.inkscape.output.svg.inkscape" sodipodi:docname="audacity.svg" id="svg2816">
  <defs id="defs2818">
    <style type="text/css" id="current-color-scheme"><![CDATA[
.ColorScheme-Text{ color:#c8c8c8; }
]]></style>
    <inkscape:perspective inkscape:vp_z="64 : 32 : 1" inkscape:vp_x="0 : 32 : 1" inkscape:persp3d-origin="32 : 21.333333 : 1" inkscape:vp_y="0 : 1000 : 0" sodipodi:type="inkscape:persp3d" id="perspective2824"/>
  </defs>
  <sodipodi:namedview inkscape:window-width="1882" inkscape:pageshadow="2" pagecolor="#ffffff" inkscape:window-maximized="1" bordercolor="#666666" inkscape:current-layer="g4140" inkscape:document-units="px" showborder="false" inkscape:window-x="38" inkscape:grid-bbox="true" borderopacity="1.0" inkscape:window-height="1080" showgrid="false" inkscape:snap-global="true" inkscape:zoom="1" inkscape:window-y="0" inkscape:snap-nodes="false" inkscape:cx="20.584169" inkscape:cy="12.463634" inkscape:pageopacity="0.0" id="base">
    <inkscape:grid type="xygrid" visible="true" empspacing="4" snapvisiblegridlinesonly="true" id="grid2826" enabled="true"/>
  </sodipodi:namedview>
  <metadata id="metadata2821">
    <rdf:RDF>
      <cc:Work rdf:about="">
        <dc:format>image/svg+xml</dc:format>
        <dc:type rdf:resource="http://purl.org/dc/dcmitype/StillImage"/>
        <dc:title/>
      </cc:Work>
    </rdf:RDF>
  </metadata>
  <g style="opacity:1" transform="translate(0,-32)" inkscape:groupmode="layer" id="layer1" inkscape:label="Layer 1">
    <g transform="matrix(1.4999993,0,0,1.4999993,-0.49999675,-30.499954)" id="g4140">
      <path d="M 11,1 C 6.0294373,1 2,5.0294373 2,10 2,10 1.99576,10.802007 2.00391,11.019531 1.3663431,11.777201 1.0011975,12.861271 1,14 c 0,2.209139 1.6977922,4.054561 3.3546464,4.054561 l 0,-8 C 4.3546464,6.1885678 7.1340068,3 11,3 c 3.865993,0 6.645354,3.1885678 6.645354,7.054561 l 0,8 C 19.302208,18.054561 21,16.209139 21,14 20.9988,12.861271 20.633657,11.777201 19.996094,11.019531 20.002338,11.020986 20,10 20,10 20,5.0294373 15.970563,1 11,1 Z" style="color:#c8c8c8;opacity:1;fill:currentColor;fill-opacity:0.64806866;stroke:currentColor;stroke-width:0;stroke-linecap:round;stroke-linejoin:round;stroke-miterlimit:4;stroke-dasharray:none" transform="translate(0,42)" inkscape:connector-curvature="0" sodipodi:nodetypes="sccccsssccccs" id="path4164" class="ColorScheme-Text"/>
      <rect y="52" height="8" style="color:#c8c8c8;opacity:1;fill:currentColor;fill-opacity:0.64806866;stroke:currentColor;stroke-width:0;stroke-linecap:round;stroke-linejoin:round;stroke-miterlimit:4;stroke-dasharray:none" x="5" width="2" id="rect4169" class="ColorScheme-Text"/>
      <rect y="52" height="8" style="color:#c8c8c8;opacity:1;fill:currentColor;fill-opacity:0.64806866;stroke:currentColor;stroke-width:0;stroke-linecap:round;stroke-linejoin:round;stroke-miterlimit:4;stroke-dasharray:none" transform="scale(-1,1)" x="-17" width="2" id="rect4173" class="ColorScheme-Text"/>
      <path d="M 7.6180731,55.054561 9,53 l 1,3 1,-2 1,2 1,-4 1.327366,3.163683 0,3 L 13,56 l -1,4 -1,-2 -1,3 -1,-3 -1.3819269,1.054561 0,-4" style="color:#c8c8c8;fill:currentColor;fill-rule:evenodd;stroke:none;stroke-width:1px;stroke-linecap:butt;stroke-linejoin:miter;stroke-opacity:1" inkscape:connector-curvature="0" sodipodi:nodetypes="ccccccccccccccc" id="path4185" class="ColorScheme-Text"/>
    </g>
  </g>
</svg>
