<?xml version='1.0' encoding='UTF-8' standalone='no'?>
<!-- Created with Inkscape (http://www.inkscape.org/) -->
<svg xmlns:inkscape="http://www.inkscape.org/namespaces/inkscape" sodipodi:docname="cadence.svg" xmlns="http://www.w3.org/2000/svg" version="1.0" xmlns:svg="http://www.w3.org/2000/svg" height="22" inkscape:output_extension="org.inkscape.output.svg.inkscape" xmlns:sodipodi="http://sodipodi.sourceforge.net/DTD/sodipodi-0.dtd" xmlns:dc="http://purl.org/dc/elements/1.1/" xmlns:rdf="http://www.w3.org/1999/02/22-rdf-syntax-ns#" xmlns:cc="http://creativecommons.org/ns#" width="22" id="svg2" sodipodi:version="0.32" inkscape:version="0.91 r13725">
  <defs id="defs4">
    <style type="text/css" id="current-color-scheme"><![CDATA[
.ColorScheme-Text{ color:#c8c8c8; }
]]></style>
    <inkscape:perspective inkscape:vp_z="744.09448 : 526.18109 : 1" inkscape:vp_x="0 : 526.18109 : 1" inkscape:persp3d-origin="372.04724 : 350.78739 : 1" inkscape:vp_y="0 : 1000 : 0" sodipodi:type="inkscape:persp3d" id="perspective10"/>
  </defs>
  <sodipodi:namedview inkscape:window-width="1882" inkscape:pageshadow="2" pagecolor="#ffffff" inkscape:window-maximized="1" inkscape:current-layer="g3338" bordercolor="#666666" inkscape:document-units="px" inkscape:window-x="38" inkscape:window-height="1080" borderopacity="1.0" showgrid="true" inkscape:zoom="16" inkscape:window-y="0" inkscape:cx="17.54331" inkscape:cy="6.1470381" inkscape:pageopacity="0.0" showguides="false" id="base">
    <inkscape:grid type="xygrid" visible="true" empspacing="5" snapvisiblegridlinesonly="true" id="grid2383" enabled="true"/>
  </sodipodi:namedview>
  <metadata id="metadata7">
    <rdf:RDF>
      <cc:Work rdf:about="">
        <dc:format>image/svg+xml</dc:format>
        <dc:type rdf:resource="http://purl.org/dc/dcmitype/StillImage"/>
        <dc:title/>
      </cc:Work>
    </rdf:RDF>
  </metadata>
  <g transform="translate(0,-106)" inkscape:groupmode="layer" id="layer1" inkscape:label="Capa 1"/>
  <g style="opacity:1" transform="translate(0,-106)" inkscape:groupmode="layer" id="layer2">
    <g transform="matrix(0.15625,0,0,0.15625,1,107)" id="g3338">
      <path d="M 64,0 C 28.653775,0 0,28.653779 0,64 0,99.346214 28.653775,128 64,128 99.346222,128 128,99.346214 128,64 128,28.653779 99.346222,0 64,0 Z m 0,12.799997 c 28.276985,0 51.2,22.923024 51.2,51.200003 0,28.276975 -22.923015,51.2 -51.2,51.2 C 35.723018,115.2 12.799997,92.276975 12.799997,64 12.799997,35.723021 35.723018,12.799997 64,12.799997 Z" style="color:#c8c8c8;opacity:1;fill:currentColor;fill-opacity:1;stroke:none" inkscape:connector-curvature="0" sodipodi:nodetypes="ssssssssss" id="path4139"/>
      <path d="m 64,26 c -20.986823,0 -38,17.013181 -38,38 0,20.986815 17.013177,38 38,38 20.986823,0 38,-17.013185 38,-38 C 102,43.013181 84.986823,26 64,26 Z m 0,15.2 c 10.061165,0 18.497298,6.557933 21.523435,15.600781 a 7.6,7.6 0 0 1 1.514065,-0.163277 7.6,7.6 0 0 1 7.6,7.6 7.6,7.6 0 0 1 -7.6,7.6 7.6,7.6 0 0 1 -1.647657,-0.178122 C 83.093511,78.068018 78.05501,83.097371 71.644531,85.389843 a 7.6,7.6 0 0 1 0.192973,1.647657 7.6,7.6 0 0 1 -7.6,7.6 7.6,7.6 0 0 1 -7.6,-7.6 7.6,7.6 0 0 1 0.148435,-1.514065 C 50.205114,83.316616 45.002145,78.256323 42.639844,71.748438 a 7.6,7.6 0 0 1 -1.202344,0.08906 7.6,7.6 0 0 1 -7.6,-7.6 7.6,7.6 0 0 1 7.6,-7.6 7.6,7.6 0 0 1 1.053906,0.08906 C 45.538475,47.720762 53.965287,41.2 64,41.2 Z" style="color:#c8c8c8;opacity:1;fill:#c8c8c8;fill-opacity:1;stroke:none" inkscape:connector-curvature="0" id="path4143"/>
    </g>
  </g>
</svg>
