<?xml version='1.0' encoding='UTF-8' standalone='no'?>
<!-- Created with Inkscape (http://www.inkscape.org/) -->
<svg xmlns:inkscape="http://www.inkscape.org/namespaces/inkscape" sodipodi:docname="catia.svg" xmlns="http://www.w3.org/2000/svg" version="1.0" xmlns:svg="http://www.w3.org/2000/svg" height="22" inkscape:output_extension="org.inkscape.output.svg.inkscape" xmlns:sodipodi="http://sodipodi.sourceforge.net/DTD/sodipodi-0.dtd" xmlns:dc="http://purl.org/dc/elements/1.1/" xmlns:rdf="http://www.w3.org/1999/02/22-rdf-syntax-ns#" xmlns:cc="http://creativecommons.org/ns#" width="22" id="svg2" sodipodi:version="0.32" inkscape:version="0.91 r13725">
  <defs id="defs4">
    <style type="text/css" id="current-color-scheme"><![CDATA[
.ColorScheme-Text{ color:#c8c8c8; }
]]></style>
    <inkscape:perspective inkscape:vp_z="744.09448 : 526.18109 : 1" inkscape:vp_x="0 : 526.18109 : 1" inkscape:persp3d-origin="372.04724 : 350.78739 : 1" inkscape:vp_y="0 : 1000 : 0" sodipodi:type="inkscape:persp3d" id="perspective10"/>
  </defs>
  <sodipodi:namedview inkscape:window-width="1890" inkscape:pageshadow="2" pagecolor="#ffffff" inkscape:window-maximized="1" inkscape:current-layer="layer2" bordercolor="#666666" inkscape:document-units="px" inkscape:window-x="30" inkscape:window-height="1080" borderopacity="1.0" showgrid="true" inkscape:zoom="22.627417" inkscape:window-y="0" inkscape:cx="-6.7194557" inkscape:cy="9.022779" inkscape:pageopacity="0.0" showguides="false" id="base">
    <inkscape:grid type="xygrid" visible="true" id="grid2383" enabled="true"/>
  </sodipodi:namedview>
  <metadata id="metadata7">
    <rdf:RDF>
      <cc:Work rdf:about="">
        <dc:format>image/svg+xml</dc:format>
        <dc:type rdf:resource="http://purl.org/dc/dcmitype/StillImage"/>
        <dc:title/>
      </cc:Work>
    </rdf:RDF>
  </metadata>
  <g transform="translate(0,-106)" inkscape:groupmode="layer" id="layer1" inkscape:label="Capa 1"/>
  <g style="opacity:1" transform="translate(0,-106)" inkscape:groupmode="layer" id="layer2">
    <path d="M 4 2 C 2.892 2 2 2.892 2 4 L 2 18 C 2 19.108 2.892 20 4 20 L 18 20 C 19.108 20 20 19.108 20 18 L 20 4 C 20 2.892 19.108 2 18 2 L 4 2 z M 4 3 L 18 3 C 18.554 3 19 3.446 19 4 L 19 18 C 19 18.554 18.554 19 18 19 L 4 19 C 3.446 19 3 18.554 3 18 L 3 4 C 3 3.446 3.446 3 4 3 z " style="fill:currentColor;fill-rule:evenodd;stroke:none;stroke-width:1px;stroke-linecap:butt;stroke-linejoin:miter;stroke-opacity:1" transform="translate(0,106)" id="rect3337" class="ColorScheme-Text"/>
    <rect y="111" height="5" style="fill:currentColor;stroke:none;fill-opacity:0.50196081" x="5" width="3" id="rect3341" ry="0" class="ColorScheme-Text"/>
    <rect y="115" height="9" style="fill:currentColor;stroke:none;fill-opacity:0.50196081" x="14" width="3" id="rect3343" class="ColorScheme-Text"/>
    <rect y="119" height="4" style="fill:currentColor;stroke:none;fill-opacity:0.50196081" x="5" width="3" id="rect3345" class="ColorScheme-Text"/>
    <path d="m 8,113 2,0 1.707107,1.83969 0,2.16031 1,1 L 14,118" style="fill:none;fill-rule:evenodd;stroke:currentColor;stroke-width:1px;stroke-linecap:butt;stroke-linejoin:miter;stroke-opacity:1" inkscape:connector-curvature="0" sodipodi:nodetypes="cccccc" id="path3349" class="ColorScheme-Text"/>
    <path d="m 8,115 1,0 1,1 0.08839,2.11612 1.972272,1.79549 1.939338,0" style="fill:none;fill-rule:evenodd;stroke:currentColor;stroke-width:1px;stroke-linecap:butt;stroke-linejoin:miter;stroke-opacity:1" inkscape:connector-curvature="0" sodipodi:nodetypes="cccccc" id="path3351" class="ColorScheme-Text"/>
    <path d="m 8,122 6,0" style="fill:none;fill-rule:evenodd;stroke:currentColor;stroke-width:1px;stroke-linecap:butt;stroke-linejoin:miter;stroke-opacity:1" inkscape:connector-curvature="0" id="path3353" class="ColorScheme-Text"/>
    <rect y="110.02859" height="3.0719223" style="fill:currentColor;fill-opacity:0.50196078;stroke:none" x="13.971417" width="3.0883882" id="rect4155" class="ColorScheme-Text"/>
  </g>
</svg>
