<?xml version='1.0' encoding='UTF-8' standalone='no'?>
<!-- Created with Inkscape (http://www.inkscape.org/) -->
<svg xmlns:inkscape="http://www.inkscape.org/namespaces/inkscape" sodipodi:docname="dragonplayer.svg" xmlns="http://www.w3.org/2000/svg" version="1.1" xmlns:svg="http://www.w3.org/2000/svg" height="22" inkscape:output_extension="org.inkscape.output.svg.inkscape" xmlns:sodipodi="http://sodipodi.sourceforge.net/DTD/sodipodi-0.dtd" xmlns:dc="http://purl.org/dc/elements/1.1/" xmlns:rdf="http://www.w3.org/1999/02/22-rdf-syntax-ns#" xmlns:cc="http://creativecommons.org/ns#" width="22" id="svg2816" sodipodi:version="0.32" inkscape:version="0.91 r13725">
  <defs id="defs2818">
    <style type="text/css" id="current-color-scheme"><![CDATA[
.ColorScheme-Text{ color:#c8c8c8; }
]]></style>
    <inkscape:perspective inkscape:vp_z="64 : 32 : 1" inkscape:vp_x="0 : 32 : 1" inkscape:persp3d-origin="32 : 21.333333 : 1" inkscape:vp_y="0 : 1000 : 0" sodipodi:type="inkscape:persp3d" id="perspective2824"/>
    <inkscape:perspective inkscape:vp_z="64 : 32 : 1" inkscape:vp_x="0 : 32 : 1" inkscape:persp3d-origin="32 : 21.333333 : 1" inkscape:vp_y="0 : 1000 : 0" sodipodi:type="inkscape:persp3d" id="perspective2824-8"/>
    <inkscape:perspective inkscape:vp_z="1 : 0.5 : 1" inkscape:vp_x="0 : 0.5 : 1" inkscape:persp3d-origin="0.5 : 0.33333333 : 1" inkscape:vp_y="0 : 1000 : 0" sodipodi:type="inkscape:persp3d" id="perspective2824-5"/>
  </defs>
  <sodipodi:namedview inkscape:window-width="1882" inkscape:object-nodes="true" inkscape:snap-midpoints="true" inkscape:pageshadow="2" pagecolor="#ffffff" inkscape:window-maximized="1" bordercolor="#666666" inkscape:current-layer="layer1" inkscape:document-units="px" inkscape:window-x="38" inkscape:grid-bbox="true" inkscape:object-paths="true" borderopacity="1.0" inkscape:window-height="1080" showgrid="true" inkscape:snap-smooth-nodes="true" inkscape:snap-global="true" inkscape:zoom="22.627417" inkscape:window-y="0" inkscape:snap-intersection-paths="true" inkscape:cx="7.3212643" inkscape:cy="9.3419133" inkscape:pageopacity="0.0" id="base">
    <inkscape:grid type="xygrid" visible="true" empspacing="4" snapvisiblegridlinesonly="true" id="grid2826" enabled="true"/>
  </sodipodi:namedview>
  <metadata id="metadata2821">
    <rdf:RDF>
      <cc:Work rdf:about="">
        <dc:format>image/svg+xml</dc:format>
        <dc:type rdf:resource="http://purl.org/dc/dcmitype/StillImage"/>
        <dc:title/>
      </cc:Work>
    </rdf:RDF>
  </metadata>
  <g transform="translate(0,-42)" inkscape:groupmode="layer" id="layer1" inkscape:label="Layer 1">
    <path d="m 1,47 0,12 20,0 0,-12 z m 1,1 18,0 0,10 -18,0 z m 6,1 0,8 7,-4 z" style="color:#c8c8c8;opacity:1;fill:currentColor;fill-opacity:1;stroke:currentColor;stroke-width:0;stroke-linecap:round;stroke-linejoin:round;stroke-miterlimit:4;stroke-dasharray:none" inkscape:connector-curvature="0" sodipodi:nodetypes="cccccccccccccc" id="rect4144" class="ColorScheme-Text"/>
    <path d="M 1 1 L 1 4 L 20 4 L 21 4 L 21 3 L 20 3 L 20 2 L 21 2 L 21 1 L 20 1 L 1 1 z M 2 2 L 3 2 L 3 3 L 2 3 L 2 2 z M 5 2 L 6 2 L 6 3 L 5 3 L 5 2 z M 8 2 L 9 2 L 9 3 L 8 3 L 8 2 z M 11 2 L 12 2 L 12 3 L 11 3 L 11 2 z M 14 2 L 15 2 L 15 3 L 14 3 L 14 2 z M 17 2 L 18 2 L 18 3 L 17 3 L 17 2 z " style="opacity:1;fill:currentColor;fill-opacity:0.37768244;stroke:none;stroke-width:2;stroke-linecap:square;stroke-linejoin:round;stroke-miterlimit:4;stroke-dasharray:none" transform="translate(0,42)" id="rect4139" class="ColorScheme-Text"/>
    <path d="m 1,60 0,3 19,0 1,0 0,-1 -1,0 0,-1 1,0 0,-1 -1,0 -19,0 z m 1,1 1,0 0,1 -1,0 0,-1 z m 3,0 1,0 0,1 -1,0 0,-1 z m 3,0 1,0 0,1 -1,0 0,-1 z m 3,0 1,0 0,1 -1,0 0,-1 z m 3,0 1,0 0,1 -1,0 0,-1 z m 3,0 1,0 0,1 -1,0 0,-1 z" style="opacity:1;fill:currentColor;fill-opacity:0.37768244;stroke:none;stroke-width:2;stroke-linecap:square;stroke-linejoin:round;stroke-miterlimit:4;stroke-dasharray:none" inkscape:connector-curvature="0" id="path4160" class="ColorScheme-Text"/>
  </g>
</svg>
