<?xml version='1.0' encoding='UTF-8' standalone='no'?>
<!-- Created with Inkscape (http://www.inkscape.org/) -->
<svg xmlns:inkscape="http://www.inkscape.org/namespaces/inkscape" sodipodi:docname="filelight.svg" xmlns="http://www.w3.org/2000/svg" version="1.1" xmlns:svg="http://www.w3.org/2000/svg" height="22" inkscape:output_extension="org.inkscape.output.svg.inkscape" xmlns:sodipodi="http://sodipodi.sourceforge.net/DTD/sodipodi-0.dtd" xmlns:dc="http://purl.org/dc/elements/1.1/" xmlns:rdf="http://www.w3.org/1999/02/22-rdf-syntax-ns#" xmlns:cc="http://creativecommons.org/ns#" width="22" id="svg2" sodipodi:version="0.32" inkscape:version="0.91 r13725">
  <defs id="defs4">
    <style type="text/css" id="current-color-scheme"><![CDATA[
.ColorScheme-Text{ color:#c8c8c8; }

.ColorScheme-{ color:#eff0f1; }

.ColorScheme-NegativeText{ color:#da4453; }

.ColorScheme-PositiveText{ color:#27ae60; }

.ColorScheme-NeutralText{ color:#f67400; }
]]></style>
    <inkscape:perspective inkscape:vp_z="744.09448 : 526.18109 : 1" inkscape:vp_x="0 : 526.18109 : 1" inkscape:persp3d-origin="372.04724 : 350.78739 : 1" inkscape:vp_y="0 : 1000 : 0" sodipodi:type="inkscape:persp3d" id="perspective10"/>
    <inkscape:perspective inkscape:vp_z="64 : 32 : 1" inkscape:vp_x="0 : 32 : 1" inkscape:persp3d-origin="32 : 21.333333 : 1" inkscape:vp_y="0 : 1000 : 0" sodipodi:type="inkscape:persp3d" id="perspective2391"/>
  </defs>
  <sodipodi:namedview inkscape:cx="2.031164" inkscape:window-y="0" pagecolor="#ffffff" inkscape:window-height="1080" inkscape:current-layer="layer1" inkscape:window-x="38" bordercolor="#666666" inkscape:window-maximized="1" inkscape:cy="3.4365723" inkscape:window-width="1882" inkscape:pageopacity="0.0" id="base" borderopacity="1.0" inkscape:document-units="px" inkscape:zoom="22.627417" inkscape:pageshadow="2" showgrid="true">
    <inkscape:grid type="xygrid" visible="true" empspacing="4" snapvisiblegridlinesonly="true" id="grid2816" enabled="true"/>
  </sodipodi:namedview>
  <metadata id="metadata7">
    <rdf:RDF>
      <cc:Work rdf:about="">
        <dc:format>image/svg+xml</dc:format>
        <dc:type rdf:resource="http://purl.org/dc/dcmitype/StillImage"/>
        <dc:title/>
      </cc:Work>
    </rdf:RDF>
  </metadata>
  <g transform="translate(0,-1030.3622)" inkscape:groupmode="layer" id="layer1" inkscape:label="Layer 1">
    <path inkscape:flatsided="false" inkscape:randomized="0" sodipodi:r1="9.9433469" d="m 18.031008,1048.3932 -4.507811,-3.9565 3.001031,5.1931 -3.649324,-4.7599 1.93025,5.6787 -2.650594,-5.3803 0.785291,5.9462 -1.550004,-5.7941 -0.389847,5.9851 -0.389847,-5.9851 -1.5500037,5.7941 0.7852903,-5.9462 -2.6505937,5.3803 1.9302497,-5.6787 -3.6493232,4.7599 3.0010307,-5.1931 -4.5078112,3.9565 3.9564838,-4.5078 -5.1930665,3.001 4.7598914,-3.6493 -5.6787553,1.9302 5.380379,-2.6506 -5.9462126,0.7853 5.7941017,-1.55 -5.9851604,-0.3898 5.9851604,-0.3899 -5.7941018,-1.55 5.9462127,0.7853 -5.3803791,-2.6506 5.6787553,1.9303 -4.7598914,-3.6493 5.1930666,3.001 -3.9564838,-4.5078 4.5078112,3.9565 -3.0010307,-5.1931 3.6493232,4.7599 -1.9302498,-5.6788 2.6505937,5.3804 -0.7852903,-5.9462 1.5500038,5.7941 0.389847,-5.9852 0.389847,5.9852 1.550004,-5.7941 -0.785291,5.9462 2.650594,-5.3804 -1.93025,5.6788 3.649324,-4.7599 -3.001031,5.1931 4.507811,-3.9565 -3.956484,4.5078 5.193067,-3.001 -4.759892,3.6493 5.678756,-1.9303 -5.380379,2.6506 5.946212,-0.7853 -5.794101,1.55 5.98516,0.3899 -5.98516,0.3898 5.794101,1.55 -5.946212,-0.7853 5.380379,2.6506 -5.678756,-1.9302 4.759892,3.6493 -5.193067,-3.001 z" sodipodi:sides="32" style="opacity:1;fill:#c8c8c8;fill-opacity:0.50196078;stroke:none;stroke-width:2;stroke-linecap:square;stroke-linejoin:bevel;stroke-miterlimit:4;stroke-dasharray:none" inkscape:rounded="0" sodipodi:arg1="0.78539816" sodipodi:arg2="0.88357293" sodipodi:r2="3.9773386" sodipodi:cx="11" sodipodi:type="star" id="path4140" sodipodi:cy="1041.3622"/>
    <g transform="matrix(0.25321176,0,0,0.25321176,2.8678129,783.11444)" id="g3295">
      <path d="m 38.537109,1.9726562 c -2.230796,-0.095306 -4.439948,0.5612675 -6.271484,1.8828126 l 1.041016,1.578125 c 1.709613,-1.2335766 3.845512,-1.7622667 5.945312,-1.46875 L 39.494141,2.0605469 C 39.17565,2.0160276 38.855795,1.9862714 38.537109,1.9726562 Z m -0.25,2.8007813 c -1.274542,-0.031458 -2.55744,0.2814011 -3.710937,0.9414063 l 1.164062,2.25 c 1.536142,-0.8789706 3.454452,-0.8310747 4.94336,0.1210937 1.488906,0.9521998 2.296473,2.6131165 2.154297,4.3300785 l 2.427734,0.222656 C 45.489674,9.9330528 44.191003,7.3301695 41.949219,5.8964844 40.828328,5.1796481 39.561653,4.8048959 38.287109,4.7734375 Z M 30.900391,5.0410156 C 30.48984,5.46908 30.118153,5.9328718 29.789062,6.4277344 l 1.503907,1.0976562 c 0.265893,-0.399809 0.568873,-0.775365 0.902343,-1.1230468 L 30.900391,5.0410156 Z m 14.58789,0.1757813 -1.326172,1.328125 c 0.781702,0.8551051 1.367058,1.865005 1.722657,2.9589843 L 47.623047,8.8847656 C 47.179947,7.5215777 46.451338,6.270271 45.488281,5.2167969 Z M 28.802734,8.3222656 c -0.414148,1.0556691 -0.647031,2.1715244 -0.6875,3.3066404 l 1.835938,0.07422 C 29.983547,10.795045 30.167229,9.8970248 30.5,9.0488281 L 28.802734,8.3222656 Z M 38.074219,8.4375 c -1.954818,0 -3.56836,1.611575 -3.56836,3.566406 0,1.9548 1.613542,3.56836 3.56836,3.56836 1.954817,0 3.566406,-1.61356 3.566406,-3.56836 0,-1.954831 -1.611589,-3.566406 -3.566406,-3.566406 z m -6.298828,0.1835938 c -1.668671,3.1708072 -0.757793,7.1497212 2.083984,9.2617182 l 1.40625,-2.09375 C 33.378026,14.386214 32.82723,11.913637 33.90625,9.8632812 L 31.775391,8.6210938 Z m 6.298828,2.3886722 c 0.564288,0 0.99414,0.429848 0.99414,0.99414 0,0.564261 -0.429852,0.996094 -0.99414,0.996094 -0.564289,0 -0.996094,-0.431833 -0.996094,-0.996094 0,-0.564292 0.431805,-0.99414 0.996094,-0.99414 z m 8.207031,0.978515 c 0,2.556052 -1.213889,4.969019 -3.296875,6.50586 l 1.058594,1.566406 c 2.550258,-1.881602 4.072265,-4.879069 4.072265,-8.072266 l -1.833984,0 z m -3.886719,2.060547 c -0.625957,1.303524 -1.835275,2.266675 -3.287109,2.576172 l 0.486328,2.511719 c 2.157596,-0.459944 3.999349,-1.902645 4.974609,-3.933594 l -2.173828,-1.154297 z m -10.851562,2.759766 -1.445313,1.177734 c 1.045661,1.403194 2.436711,2.507096 4.033203,3.201172 l 0.705079,-1.777344 c -1.310442,-0.569693 -2.446737,-1.465975 -3.292969,-2.601562 z m 5.205078,3.171875 -0.291016,1.894531 c 1.07651,0.181063 2.172435,0.184329 3.25,0.0098 l -0.279297,-1.896485 c -0.887674,0.14379 -1.792928,0.141221 -2.679687,-0.0078 z" style="color:#c8c8c8;font-style:normal;font-variant:normal;font-weight:normal;font-stretch:normal;font-size:medium;line-height:normal;font-family:sans-serif;text-indent:0;text-align:start;text-decoration:none;text-decoration-line:none;text-decoration-style:solid;text-decoration-color:#000000;letter-spacing:normal;word-spacing:normal;text-transform:none;direction:ltr;block-progression:tb;writing-mode:lr-tb;baseline-shift:baseline;text-anchor:start;white-space:normal;clip-rule:nonzero;display:inline;overflow:visible;visibility:visible;opacity:1;isolation:auto;mix-blend-mode:normal;color-interpolation:sRGB;color-interpolation-filters:linearRGB;solid-color:#000000;solid-opacity:1;fill:currentColor;fill-opacity:1;fill-rule:nonzero;stroke:none;stroke-width:2.06862187;stroke-linecap:butt;stroke-linejoin:miter;stroke-miterlimit:4;stroke-dasharray:none;stroke-dashoffset:0;stroke-opacity:1;marker:none;color-rendering:auto;image-rendering:auto;shape-rendering:auto;text-rendering:auto;enable-background:accumulate" transform="matrix(3.1845207,0,0,3.1845207,-89.531398,982.12847)" inkscape:connector-curvature="0" id="path2395" class="ColorScheme-Text"/>
    </g>
  </g>
</svg>
