<?xml version='1.0' encoding='UTF-8' standalone='no'?>
<!-- Created with Inkscape (http://www.inkscape.org/) -->
<svg xmlns:inkscape="http://www.inkscape.org/namespaces/inkscape" sodipodi:docname="freewheeling.svg" xmlns="http://www.w3.org/2000/svg" version="1.1" xmlns:svg="http://www.w3.org/2000/svg" height="22" inkscape:output_extension="org.inkscape.output.svg.inkscape" xmlns:sodipodi="http://sodipodi.sourceforge.net/DTD/sodipodi-0.dtd" xmlns:dc="http://purl.org/dc/elements/1.1/" xmlns:rdf="http://www.w3.org/1999/02/22-rdf-syntax-ns#" xmlns:cc="http://creativecommons.org/ns#" width="22" id="svg2" sodipodi:version="0.32" inkscape:version="0.91 r13725">
  <defs id="defs4">
    <style type="text/css" id="current-color-scheme"><![CDATA[
.ColorScheme-Text{ color:#c8c8c8; }

.ColorScheme-NegativeText{ color:#da4453; }

.ColorScheme-PositiveText{ color:#27ae60; }

.ColorScheme-NeutralText{ color:#f67400; }
]]></style>
    <inkscape:perspective inkscape:vp_z="744.09448 : 526.18109 : 1" inkscape:vp_x="0 : 526.18109 : 1" inkscape:persp3d-origin="372.04724 : 350.78739 : 1" inkscape:vp_y="0 : 1000 : 0" sodipodi:type="inkscape:persp3d" id="perspective10"/>
  </defs>
  <sodipodi:namedview inkscape:cx="16.032863" inkscape:window-y="0" pagecolor="#202020" inkscape:window-height="1080" inkscape:current-layer="layer2" inkscape:window-x="30" bordercolor="#666666" inkscape:window-maximized="1" inkscape:cy="8.4998776" inkscape:window-width="1890" inkscape:pageopacity="0" id="base" borderopacity="1.0" inkscape:document-units="px" inkscape:zoom="38.822334" inkscape:pageshadow="2" showgrid="true">
    <inkscape:grid type="xygrid" visible="true" empspacing="8" snapvisiblegridlinesonly="true" id="grid2816" enabled="true"/>
  </sodipodi:namedview>
  <metadata id="metadata7">
    <rdf:RDF>
      <cc:Work rdf:about="">
        <dc:format>image/svg+xml</dc:format>
        <dc:type rdf:resource="http://purl.org/dc/dcmitype/StillImage"/>
        <dc:title/>
      </cc:Work>
    </rdf:RDF>
  </metadata>
  <g style="opacity:1" transform="translate(0,-1030.3622)" inkscape:groupmode="layer" id="layer1" inkscape:label="Layer 1"/>
  <g style="opacity:0.66000001" transform="translate(0,-106)" inkscape:groupmode="layer" id="layer2">
    <g transform="matrix(0.15625,0,0,0.15625,0.94628906,106.96582)" id="g4148">
      <g style="opacity:1" transform="translate(0,-924.3622)" id="g10" class="ColorScheme-Text">
        <path d="m 63.28125,19.78125 c -5.22447,0.0082 -10.403098,0.934034 -15.3125,2.71875 -23.349254,8.488161 -35.373432,34.272717 -26.875,57.59375 8.498432,23.32103 34.306996,35.36316 57.65625,26.875 23.34925,-8.488161 35.37343,-34.272717 26.875,-57.59375 l -7.78125,2.8125 c 0.704614,0.381577 1.535098,1.098094 1.84375,2.25 0.37871,1.413383 -0.280225,2.699841 -0.78125,3.3125 -0.501025,0.612659 -0.964935,0.933589 -1.4375,1.25 -0.466516,0.312361 -0.955455,0.523181 -1.4375,0.78125 0.534367,0.124838 1.060308,0.224602 1.59375,0.40625 0.538356,0.183321 1.076229,0.381642 1.71875,0.84375 0.642521,0.462108 1.59375,1.505509 1.59375,2.96875 0,1.463241 -0.951229,2.506642 -1.59375,2.96875 -0.642521,0.462108 -1.180394,0.660429 -1.71875,0.84375 -0.533442,0.181648 -1.059383,0.281412 -1.59375,0.40625 0.482045,0.258069 0.970984,0.468889 1.4375,0.78125 0.472565,0.316411 0.936475,0.637341 1.4375,1.25 0.501025,0.612659 1.15997,1.899117 0.78125,3.3125 -0.378714,1.413383 -1.57227,2.188684 -2.3125,2.46875 -0.74023,0.28007 -1.338791,0.33726 -1.90625,0.375 -0.546053,0.03631 -1.060649,-0.01502 -1.59375,-0.03125 0.39031,0.367025 0.794128,0.711283 1.15625,1.125 0.374569,0.427938 0.737114,0.872292 1.0625,1.59375 0.325386,0.721458 0.637871,2.107796 -0.09375,3.375 -0.731621,1.267204 -2.087506,1.70231 -2.875,1.78125 -0.787494,0.07894 -1.37961,-0.01458 -1.9375,-0.125 -0.547822,-0.108425 -1.041812,-0.311369 -1.5625,-0.46875 0.288393,0.464467 0.595944,0.902538 0.84375,1.40625 0.251047,0.510302 0.497429,1.031409 0.625,1.8125 0.127571,0.781091 0.06592,2.215332 -0.96875,3.25 -1.034668,1.03467 -2.468909,1.096321 -3.25,0.96875 -0.781091,-0.127571 -1.302198,-0.373953 -1.8125,-0.625 -0.503712,-0.247806 -0.941783,-0.555357 -1.40625,-0.84375 0.157381,0.520688 0.360325,1.014678 0.46875,1.5625 0.11042,0.55789 0.20394,1.150006 0.125,1.9375 -0.07894,0.787494 -0.514046,2.143379 -1.78125,2.875 -1.267205,0.73162 -2.653542,0.419136 -3.375,0.09375 C 78.372292,95.768364 77.927938,95.405819 77.5,95.03125 77.086283,94.669128 76.742025,94.26531 76.375,93.875 c 0.01623,0.533101 0.06756,1.047697 0.03125,1.59375 -0.03774,0.567458 -0.09493,1.16602 -0.375,1.90625 -0.280066,0.74023 -1.055368,1.933786 -2.46875,2.3125 -1.413383,0.37871 -2.699841,-0.280225 -3.3125,-0.78125 -0.612659,-0.501025 -0.933589,-0.964935 -1.25,-1.4375 -0.312361,-0.466516 -0.523181,-0.955455 -0.78125,-1.4375 -0.124838,0.534367 -0.224602,1.060308 -0.40625,1.59375 -0.183321,0.538356 -0.381642,1.076229 -0.84375,1.71875 -0.462108,0.642521 -1.505509,1.59375 -2.96875,1.59375 -1.463241,0 -2.506642,-0.951229 -2.96875,-1.59375 C 60.569142,98.701229 60.370821,98.163356 60.1875,97.625 60.005852,97.091558 59.906088,96.565617 59.78125,96.03125 59.523181,96.513295 59.312361,97.002234 59,97.46875 c -0.316411,0.472565 -0.637341,0.936475 -1.25,1.4375 -0.612659,0.501025 -1.899117,1.15997 -3.3125,0.78125 -1.413383,-0.378714 -2.188684,-1.57227 -2.46875,-2.3125 -0.28007,-0.74023 -0.33726,-1.338791 -0.375,-1.90625 -0.03631,-0.546053 0.01502,-1.060649 0.03125,-1.59375 -0.367025,0.39031 -0.711283,0.794128 -1.125,1.15625 -0.427938,0.374569 -0.872292,0.737114 -1.59375,1.0625 C 48.184792,96.419136 46.798454,96.731621 45.53125,96 44.264046,95.268379 43.82894,93.912494 43.75,93.125 c -0.07894,-0.787494 0.01458,-1.37961 0.125,-1.9375 0.108425,-0.547822 0.311369,-1.041812 0.46875,-1.5625 -0.464467,0.288393 -0.902538,0.595944 -1.40625,0.84375 -0.510302,0.251047 -1.031409,0.497429 -1.8125,0.625 -0.781091,0.127571 -2.215332,0.06592 -3.25,-0.96875 -1.03467,-1.034668 -1.096321,-2.468909 -0.96875,-3.25 0.127571,-0.781091 0.373953,-1.302198 0.625,-1.8125 0.247806,-0.503712 0.555357,-0.941783 0.84375,-1.40625 -0.520688,0.157381 -1.014678,0.360325 -1.5625,0.46875 -0.55789,0.11042 -1.150006,0.20394 -1.9375,0.125 -0.787494,-0.07894 -2.143379,-0.514046 -2.875,-1.78125 -0.73162,-1.267205 -0.419136,-2.653542 -0.09375,-3.375 0.325386,-0.721458 0.687931,-1.165812 1.0625,-1.59375 0.362122,-0.413717 0.76594,-0.757975 1.15625,-1.125 -0.533101,0.01623 -1.047697,0.06756 -1.59375,0.03125 -0.567458,-0.03774 -1.16602,-0.09493 -1.90625,-0.375 -0.74023,-0.280066 -1.933786,-1.055368 -2.3125,-2.46875 -0.378715,-1.413383 0.280225,-2.699841 0.78125,-3.3125 0.501025,-0.612659 0.964935,-0.933589 1.4375,-1.25 0.466516,-0.312361 0.955455,-0.523181 1.4375,-0.78125 C 31.434383,68.093912 30.908442,67.994148 30.375,67.8125 29.836644,67.629179 29.298771,67.430858 28.65625,66.96875 28.013729,66.506642 27.0625,65.463241 27.0625,64 c 0,-1.463241 0.951229,-2.506642 1.59375,-2.96875 0.642521,-0.462108 1.180394,-0.660429 1.71875,-0.84375 0.533442,-0.181648 1.059383,-0.281412 1.59375,-0.40625 C 31.486705,59.523181 30.997766,59.312361 30.53125,59 c -0.472565,-0.316411 -0.936475,-0.637341 -1.4375,-1.25 -0.501025,-0.612659 -1.159966,-1.899117 -0.78125,-3.3125 0.378714,-1.413383 1.57227,-2.188684 2.3125,-2.46875 0.74023,-0.28007 1.338791,-0.33726 1.90625,-0.375 0.546053,-0.03631 1.060649,0.01502 1.59375,0.03125 -0.39031,-0.367025 -0.794128,-0.711283 -1.15625,-1.125 -0.374569,-0.427938 -0.737114,-0.872292 -1.0625,-1.59375 -0.325386,-0.721458 -0.637871,-2.107796 0.09375,-3.375 0.731621,-1.267204 2.087506,-1.70231 2.875,-1.78125 0.787494,-0.07894 1.37961,0.01458 1.9375,0.125 0.547822,0.108425 1.041812,0.311369 1.5625,0.46875 -0.288393,-0.464467 -0.595944,-0.902538 -0.84375,-1.40625 -0.251047,-0.510302 -0.497429,-1.031409 -0.625,-1.8125 -0.127571,-0.781091 -0.06592,-2.215332 0.96875,-3.25 1.034668,-1.03467 2.468909,-1.096321 3.25,-0.96875 0.781091,0.127571 1.302198,0.373953 1.8125,0.625 0.503712,0.247806 0.941783,0.555357 1.40625,0.84375 C 44.186369,37.854312 43.983425,37.360322 43.875,36.8125 43.76458,36.25461 43.67106,35.662494 43.75,34.875 43.82894,34.087506 44.264046,32.731621 45.53125,32 c 1.267205,-0.73162 2.653542,-0.419136 3.375,-0.09375 0.721458,0.325386 1.165812,0.687931 1.59375,1.0625 0.413717,0.362122 0.757975,0.76594 1.125,1.15625 -0.01623,-0.533101 -0.06756,-1.047697 -0.03125,-1.59375 0.03774,-0.567458 0.09493,-1.16602 0.375,-1.90625 0.280066,-0.74023 1.055368,-1.933786 2.46875,-2.3125 1.413383,-0.378715 2.699841,0.280225 3.3125,0.78125 0.612659,0.501025 0.933589,0.964935 1.25,1.4375 0.312361,0.466516 0.523181,0.955455 0.78125,1.4375 0.124838,-0.534367 0.224602,-1.060308 0.40625,-1.59375 0.183321,-0.538356 0.381642,-1.076229 0.84375,-1.71875 0.383108,-0.532678 1.159828,-1.292142 2.25,-1.53125 l 0,-7.34375 z m -5.71875,20.1875 c -0.04412,0.232674 -0.03785,0.422986 -0.125,0.6875 -0.233236,0.707941 -0.784786,1.819865 -2.125,2.375 -1.340215,0.555135 -2.521987,0.148167 -3.1875,-0.1875 -0.260809,-0.131545 -0.390569,-0.297315 -0.59375,-0.4375 0.01957,0.24498 0.0789,0.42859 0.0625,0.71875 -0.04206,0.744185 -0.255382,1.991907 -1.40625,2.875 -1.150868,0.883092 -2.395287,0.776982 -3.125,0.625 -0.285602,-0.05948 -0.455205,-0.16731 -0.6875,-0.25 0.08269,0.232295 0.19052,0.401898 0.25,0.6875 0.151982,0.729713 0.258093,1.974132 -0.625,3.125 -0.883092,1.150868 -2.130815,1.36419 -2.875,1.40625 -0.29016,0.0164 -0.47377,-0.04293 -0.71875,-0.0625 0.140185,0.203181 0.305955,0.332941 0.4375,0.59375 0.335667,0.665513 0.742635,1.847285 0.1875,3.1875 -0.555135,1.340215 -1.667059,1.891764 -2.375,2.125 -0.264514,0.08715 -0.454827,0.08088 -0.6875,0.125 0.177312,0.153175 0.348,0.232295 0.53125,0.4375 0.496477,0.555959 1.189346,1.593023 1,3.03125 -0.189346,1.438228 -1.126547,2.247733 -1.75,2.65625 -0.249381,0.163407 -0.460227,0.20533 -0.6875,0.3125 0.227273,0.10717 0.438119,0.149093 0.6875,0.3125 0.623453,0.408517 1.560654,1.218022 1.75,2.65625 0.189346,1.438227 -0.503523,2.475291 -1,3.03125 -0.18325,0.205205 -0.353938,0.284325 -0.53125,0.4375 0.232674,0.04412 0.422986,0.03785 0.6875,0.125 0.707941,0.233236 1.819865,0.784786 2.375,2.125 0.555135,1.340215 0.148167,2.521987 -0.1875,3.1875 -0.131545,0.260809 -0.297315,0.390569 -0.4375,0.59375 0.24498,-0.01957 0.42859,-0.0789 0.71875,-0.0625 0.744185,0.04206 1.991907,0.255382 2.875,1.40625 0.883092,1.150868 0.776982,2.395287 0.625,3.125 -0.05948,0.285602 -0.16731,0.455205 -0.25,0.6875 0.232295,-0.08269 0.401898,-0.19052 0.6875,-0.25 0.729713,-0.151982 1.974132,-0.258093 3.125,0.625 1.150868,0.883092 1.36419,2.130815 1.40625,2.875 0.0164,0.29016 -0.04293,0.47377 -0.0625,0.71875 0.203181,-0.140185 0.332941,-0.305955 0.59375,-0.4375 0.665513,-0.335667 1.847285,-0.742635 3.1875,-0.1875 1.340215,0.555135 1.891764,1.667059 2.125,2.375 0.08715,0.264514 0.08088,0.454827 0.125,0.6875 0.153175,-0.177312 0.232295,-0.348 0.4375,-0.53125 0.555959,-0.496477 1.593023,-1.189346 3.03125,-1 1.438228,0.189346 2.247733,1.126547 2.65625,1.75 0.163407,0.249381 0.20533,0.460227 0.3125,0.6875 0.10717,-0.227273 0.149093,-0.438119 0.3125,-0.6875 0.408517,-0.623453 1.218022,-1.560654 2.65625,-1.75 1.438227,-0.189346 2.475291,0.503523 3.03125,1 0.205205,0.18325 0.284325,0.353938 0.4375,0.53125 0.04412,-0.232674 0.03785,-0.422986 0.125,-0.6875 0.233236,-0.707941 0.784786,-1.819865 2.125,-2.375 1.340215,-0.555135 2.521987,-0.148167 3.1875,0.1875 0.260809,0.131545 0.390569,0.297315 0.59375,0.4375 -0.01957,-0.24498 -0.0789,-0.42859 -0.0625,-0.71875 0.04206,-0.744185 0.255382,-1.991907 1.40625,-2.875 1.150868,-0.883092 2.395287,-0.776982 3.125,-0.625 0.285602,0.05948 0.455205,0.16731 0.6875,0.25 -0.08269,-0.232295 -0.19052,-0.401898 -0.25,-0.6875 -0.151982,-0.729713 -0.258093,-1.974132 0.625,-3.125 0.883092,-1.150868 2.130815,-1.36419 2.875,-1.40625 0.29016,-0.0164 0.47377,0.04293 0.71875,0.0625 -0.140185,-0.203181 -0.305955,-0.332941 -0.4375,-0.59375 -0.335667,-0.665513 -0.742635,-1.847285 -0.1875,-3.1875 0.555135,-1.340215 1.667059,-1.891764 2.375,-2.125 0.264514,-0.08715 0.454827,-0.08088 0.6875,-0.125 C 87.853938,70.284325 87.68325,70.205205 87.5,70 87.003523,69.444041 86.310654,68.406977 86.5,66.96875 86.689346,65.530522 87.626547,64.721017 88.25,64.3125 88.499381,64.149093 88.710227,64.10717 88.9375,64 88.710227,63.89283 88.499381,63.850907 88.25,63.6875 87.626547,63.278983 86.689346,62.469478 86.5,61.03125 86.310654,59.593023 87.003523,58.555959 87.5,58 c 0.18325,-0.205205 0.353938,-0.284325 0.53125,-0.4375 -0.232674,-0.04412 -0.422986,-0.03785 -0.6875,-0.125 -0.423885,-0.139652 -0.992691,-0.406145 -1.5,-0.875 l -22.5,8.15625 L 63.3125,40.25 C 62.845067,40.785483 62.109921,41.35799 61.03125,41.5 59.593023,41.689346 58.555959,40.996477 58,40.5 57.794795,40.31675 57.715675,40.146062 57.5625,39.96875 Z" style="opacity:1;fill:currentColor;fill-opacity:1;stroke:none" transform="translate(0,924.36218)" inkscape:connector-curvature="0" id="path2433" class="ColorScheme-NeutralText"/>
      </g>
      <g style="opacity:1" transform="translate(0,-924.3622)" id="g13" class="ColorScheme-NeutralText">
        <path d="m 62.625106,100.5133 c -0.975097,-0.48973 -1.928012,-1.716161 -2.305615,-2.967391 -0.458681,-1.519894 -0.584211,-1.628448 -0.985577,-0.852289 -0.471333,0.911455 -1.711863,2.243948 -2.439285,2.620113 -0.82073,0.424415 -2.462381,0.389786 -3.23786,-0.0683 -0.342726,-0.202455 -0.852563,-0.699157 -1.13297,-1.103785 -0.564867,-0.815104 -1.022498,-2.846665 -0.843193,-3.74319 0.06363,-0.318124 0.05807,-0.578407 -0.01234,-0.578407 -0.07041,0 -0.580074,0.422837 -1.132577,0.939638 -1.178754,1.102582 -2.09976,1.533165 -3.279408,1.533165 -1.281813,0 -2.356881,-0.699416 -2.971792,-1.93338 -0.594956,-1.193921 -0.633547,-1.850405 -0.205405,-3.494153 0.170005,-0.652695 0.309101,-1.220045 0.309101,-1.260776 0,-0.04073 -0.636839,0.252682 -1.415198,0.652031 -2.223976,1.141048 -3.977224,0.955168 -5.249233,-0.556529 -1.003705,-1.192835 -0.973635,-3.022452 0.08041,-4.892303 0.334446,-0.593302 0.608083,-1.117425 0.608083,-1.164718 0,-0.04729 -0.432023,0.04403 -0.960052,0.202945 -2.906692,0.874785 -5.453385,-0.33816 -5.777085,-2.751523 -0.14297,-1.06592 0.541488,-2.637305 1.598198,-3.669154 0.446343,-0.435844 0.811533,-0.854158 0.811533,-0.929589 0,-0.07543 -0.685674,-0.181151 -1.523719,-0.234932 -1.89948,-0.121901 -3.101912,-0.758525 -3.809034,-2.016679 -1.012625,-1.801721 -0.235524,-3.791322 2.049364,-5.246961 L 32.05455,68.19882 30.957509,67.856466 c -2.196944,-0.685603 -3.265225,-1.577951 -3.664588,-3.061073 -0.521885,-1.938134 0.862682,-3.797441 3.391816,-4.554797 0.453347,-0.135756 0.948289,-0.286352 1.09987,-0.334658 0.155611,-0.04959 -0.291443,-0.468931 -1.026822,-0.963166 -1.420661,-0.954801 -2.154482,-1.875784 -2.357701,-2.959034 -0.453199,-2.41576 1.359251,-4.187271 4.293805,-4.19682 0.765024,-0.0025 1.390952,-0.07991 1.390952,-0.172039 0,-0.09213 -0.286463,-0.43987 -0.636585,-0.772751 -0.875643,-0.832525 -1.582613,-2.089605 -1.744443,-3.101837 -0.170316,-1.06531 0.419681,-2.507302 1.27509,-3.116407 1.257867,-0.89568 2.694491,-0.992624 4.997282,-0.337218 0.27094,0.07711 0.452137,0.05649 0.404047,-0.04599 -0.04796,-0.102189 -0.384852,-0.788544 -0.74866,-1.525234 -0.79272,-1.605212 -0.845002,-2.640364 -0.198143,-3.923125 0.967525,-1.918662 3.251416,-2.338126 5.651802,-1.038022 0.641938,0.347689 1.18646,0.609334 1.21005,0.581434 0.02359,-0.0279 -0.09773,-0.746202 -0.269594,-1.596228 -0.256802,-1.270113 -0.267416,-1.708518 -0.05956,-2.460357 0.316389,-1.144422 1.309876,-2.1582 2.449656,-2.499686 1.222705,-0.366331 2.673987,0.113032 4.084631,1.349165 0.584972,0.512604 1.094988,0.931144 1.133368,0.93009 0.03838,-0.0011 0.08667,-0.599383 0.107315,-1.329618 0.04751,-1.680829 0.603484,-2.962602 1.621992,-3.739456 1.101148,-0.839886 2.729639,-0.847637 3.981867,-0.01895 0.76199,0.504262 1.113749,0.940895 2.215712,2.750334 0.204602,0.33596 0.262719,0.270268 0.482461,-0.545328 0.778692,-2.890229 2.755478,-4.5359 4.735828,-3.942572 1.582279,0.474062 2.64345,1.779999 3.203637,3.942572 l 0.240204,0.927301 0.436864,-0.848268 c 1.35491,-2.630868 3.67583,-3.643131 5.710683,-2.490701 1.173585,0.664653 1.793648,1.88766 1.914892,3.776918 l 0.09676,1.507684 0.952103,-0.838973 c 1.843112,-1.624112 3.390543,-1.989765 4.961394,-1.172362 1.371643,0.713745 1.926746,1.88279 1.792459,3.774908 -0.05631,0.793357 -0.164726,1.686262 -0.240934,1.984232 l -0.138559,0.541763 1.383504,-0.696314 c 2.722143,-1.370047 5.232172,-0.557658 5.849297,1.893168 0.277461,1.101903 0.128996,1.92704 -0.624687,3.471845 -0.327035,0.670314 -0.571086,1.242274 -0.542338,1.271023 0.02875,0.02875 0.562163,-0.08444 1.185363,-0.251541 1.324646,-0.355173 2.492563,-0.27993 3.566712,0.229787 1.101045,0.52248 1.650372,1.397549 1.751048,2.789396 0.09604,1.327719 -0.271681,2.233268 -1.463269,3.603461 l -0.716825,0.824268 1.624187,0.232456 c 1.78413,0.255345 2.776705,0.824848 3.497321,2.006632 0.465266,0.763019 0.514652,2.132645 0.110831,3.073754 -0.351771,0.819809 -1.38016,1.808846 -2.592489,2.493289 -0.565221,0.319107 -0.803362,0.551375 -0.618201,0.60296 2.88591,0.803976 4.073226,1.632899 4.529566,3.162297 0.65901,2.208673 -0.840459,4.103438 -3.872736,4.893682 l -0.880753,0.229534 1.395113,0.925711 c 1.666504,1.10579 2.315632,2.102513 2.320639,3.563297 0.0078,2.272615 -1.759707,3.643231 -4.702147,3.646305 l -1.099363,0.0012 0.870293,0.978818 c 1.710906,1.924255 2.086086,3.911142 1.020983,5.406943 -0.934561,1.312469 -3.225675,1.815796 -5.159557,1.133481 -0.485278,-0.171214 -0.920916,-0.272707 -0.968086,-0.225536 -0.04717,0.04717 0.135268,0.442265 0.405418,0.877986 0.832471,1.342684 1.035771,2.059787 0.943924,3.329539 -0.213411,2.950394 -2.86753,4.040758 -5.966099,2.450985 -0.778358,-0.39935 -1.414195,-0.711422 -1.412968,-0.693494 0.0012,0.01793 0.140323,0.487802 0.3091,1.044164 0.912963,3.009496 -0.327455,5.430383 -2.891369,5.643003 -1.306038,0.108307 -2.180297,-0.263825 -3.583296,-1.525243 l -0.995449,-0.894995 -0.09682,1.508705 c -0.151896,2.366877 -1.169113,3.850746 -2.908701,4.243088 -1.627844,0.367139 -3.496773,-0.697399 -4.480759,-2.55223 -0.275081,-0.518619 -0.555171,-0.942874 -0.622425,-0.942874 -0.06725,0 -0.290952,0.557094 -0.49711,1.237986 -0.826707,2.730427 -3.172374,4.182377 -5.151193,3.188527 z m 1.904841,-12.3578 c 0.981996,-1.516078 3.099536,-1.975183 4.722713,-1.023938 0.491638,0.28812 0.893889,0.612676 0.893889,0.721234 0,0.500279 0.371022,0.116862 0.58813,-0.607776 0.291082,-0.971546 1.369562,-1.970645 2.489387,-2.306153 0.642775,-0.19258 1.019195,-0.188522 1.760294,0.01898 0.518475,0.145164 0.99213,0.343944 1.052568,0.441733 0.256473,0.414984 0.451583,0.112016 0.543429,-0.843846 0.06562,-0.682894 0.282823,-1.263745 0.65507,-1.751786 0.830024,-1.088216 1.59629,-1.407107 3.144306,-1.308537 1.241393,0.07905 1.301012,0.06183 1.173094,-0.338663 -0.383765,-1.201512 0.02417,-2.874145 0.892667,-3.660122 0.553636,-0.501041 1.798889,-0.986197 2.531257,-0.986197 0.343651,0 0.624819,-0.02676 0.624819,-0.05946 0,-0.0327 -0.18546,-0.42323 -0.412133,-0.867838 -0.753484,-1.477915 -0.429611,-3.005347 0.881298,-4.15634 0.405145,-0.355721 1.020384,-0.709089 1.367201,-0.785261 l 0.630577,-0.138498 -0.654021,-0.813845 c -0.526755,-0.655474 -0.668978,-1.043378 -0.730876,-1.993421 -0.0919,-1.410463 0.347453,-2.374654 1.411696,-3.098081 0.774134,-0.526223 0.989635,-0.863404 0.551825,-0.863404 -0.326008,0 -1.439341,-1.116516 -1.784439,-1.789539 -0.320453,-0.624962 -0.288687,-2.240312 0.05721,-2.909204 0.158402,-0.306316 0.480771,-0.731389 0.716376,-0.944608 0.473865,-0.428842 0.405426,-0.744724 -0.161355,-0.744724 -0.607015,0 -2.08991,-1.211167 -2.404379,-1.963794 -0.400987,-0.959697 -0.367881,-2.130081 0.0854,-3.019169 l 0.37865,-0.7427 -0.972022,-0.128943 c -1.322296,-0.175414 -2.26307,-0.851482 -2.85984,-2.055177 -0.433942,-0.875263 -0.473407,-1.129529 -0.303808,-1.957337 l 0.194921,-0.951399 -1.46309,0 c -1.294667,0 -1.552797,-0.06836 -2.242377,-0.593848 -0.876885,-0.668222 -1.353759,-1.618125 -1.353759,-2.696605 0,-0.805383 -0.0376,-0.832515 -0.678418,-0.489559 -0.819905,0.438801 -1.875597,0.57574 -2.714217,0.352077 -1.006619,-0.268469 -2.331922,-1.548667 -2.506411,-2.421109 -0.135553,-0.677771 -0.37225,-0.831482 -0.553409,-0.359386 -0.164569,0.428859 -1.828649,1.160376 -2.628034,1.155264 -1.06633,-0.0068 -2.370691,-0.689257 -2.910883,-1.522965 -0.261623,-0.403779 -0.530342,-0.735292 -0.597151,-0.736695 -0.06681,-0.0014 -0.225384,0.225507 -0.352387,0.504245 -0.407106,0.893503 -1.79683,1.642188 -3.048258,1.642188 -0.9081,0 -1.266747,-0.116371 -2.041346,-0.662358 -0.516833,-0.364297 -0.971758,-0.662358 -1.010946,-0.662358 -0.03919,0 -0.124298,0.265243 -0.189137,0.589429 -0.145246,0.726235 -1.021987,1.796234 -1.802546,2.199876 -0.820193,0.424139 -2.327118,0.377096 -3.266152,-0.101963 l -0.791244,-0.403663 -0.09399,1.133443 c -0.109803,1.324087 -0.572226,2.049888 -1.72658,2.70998 -0.864858,0.494551 -1.987243,0.59491 -2.875669,0.257131 -0.486575,-0.184995 -0.535002,-0.166652 -0.408017,0.15455 0.305829,0.773581 0.352026,1.688823 0.120634,2.389947 -0.509673,1.544326 -1.641871,2.411872 -3.227475,2.473049 -0.498007,0.0192 -0.905468,0.05588 -0.905471,0.08147 -2e-6,0.0256 0.18511,0.350151 0.41136,0.721234 0.453976,0.744588 0.539745,2.063726 0.193727,2.979536 -0.403828,1.068822 -1.203794,1.718671 -2.706739,2.198809 -0.303496,0.09696 -0.274332,0.192924 0.219177,0.721228 1.524991,1.632508 1.180255,4.229613 -0.717085,5.402233 l -0.72418,0.447567 0.598294,0.363844 c 1.994217,1.212758 2.378688,3.710143 0.840821,5.461677 -0.348478,0.396895 -0.512081,0.718528 -0.365489,0.718528 0.145963,0 0.666895,0.194367 1.157628,0.431927 1.720653,0.832954 2.422581,3.060844 1.504216,4.774316 l -0.412534,0.769699 0.728253,0 c 2.255352,0 4.027148,2.221641 3.461598,4.340475 l -0.200432,0.750922 1.354279,-0.09288 c 1.17556,-0.08063 1.448809,-0.02841 2.070608,0.395659 1.061624,0.724035 1.65344,1.71763 1.65344,2.775945 0,0.493256 0.03458,0.896828 0.07684,0.896828 0.04226,0 0.518386,-0.195317 1.058055,-0.434039 1.126605,-0.49835 2.245011,-0.421296 3.293879,0.226941 0.65456,0.404541 1.547169,1.758794 1.547169,2.34734 0,0.465305 0.154773,0.420292 0.947208,-0.275477 1.572315,-1.38051 3.987832,-1.017191 5.131767,0.771872 0.226674,0.354507 0.458499,0.646982 0.515168,0.649945 0.05667,0.003 0.311101,-0.315843 0.565406,-0.708456 z" style="opacity:1;fill:currentColor;fill-opacity:1;stroke:none;stroke-width:1.39999998;stroke-miterlimit:4;stroke-dasharray:none" transform="translate(0,924.36218)" inkscape:connector-curvature="0" id="path4142" class="ColorScheme-Text"/>
      </g>
      <path d="m 64.34375,0.21875 c -35.327999,0 -64,28.672 -64,64 0,35.327997 28.672001,64 64,64 35.327999,0 64,-28.672003 64,-64 -1.06862,-31.325463 -28.8973,-63.74039885 -64,-64 z m -1.0625,19.625 0,7.28125 c 0.224803,-0.04931 0.4686,-0.0625 0.71875,-0.0625 1.463241,0 2.506642,0.951229 2.96875,1.59375 0.462108,0.642521 0.660429,1.180394 0.84375,1.71875 0.181648,0.533442 0.281412,1.059383 0.40625,1.59375 0.258069,-0.482045 0.468889,-0.970984 0.78125,-1.4375 0.316411,-0.472565 0.637341,-0.936475 1.25,-1.4375 0.612659,-0.501025 1.899117,-1.159966 3.3125,-0.78125 1.413383,0.378714 2.188684,1.57227 2.46875,2.3125 0.28007,0.74023 0.33726,1.338791 0.375,1.90625 0.03631,0.546053 -0.01502,1.060649 -0.03125,1.59375 0.367025,-0.39031 0.711283,-0.794128 1.125,-1.15625 0.427938,-0.374569 0.872292,-0.737114 1.59375,-1.0625 0.721458,-0.325386 2.107796,-0.637871 3.375,0.09375 1.267204,0.731621 1.70231,2.087506 1.78125,2.875 0.07894,0.787494 -0.01458,1.37961 -0.125,1.9375 -0.108425,0.547822 -0.311369,1.041812 -0.46875,1.5625 0.464467,-0.288393 0.902538,-0.595944 1.40625,-0.84375 0.510302,-0.251047 1.031409,-0.497429 1.8125,-0.625 0.781091,-0.127571 2.215332,-0.06592 3.25,0.96875 1.03467,1.034668 1.096321,2.468909 0.96875,3.25 -0.127571,0.781091 -0.373953,1.302198 -0.625,1.8125 -0.247806,0.503712 -0.555357,0.941783 -0.84375,1.40625 0.520688,-0.157381 1.014678,-0.360325 1.5625,-0.46875 0.55789,-0.11042 1.150006,-0.20394 1.9375,-0.125 0.787494,0.07894 2.143379,0.514046 2.875,1.78125 0.73162,1.267205 0.419136,2.653542 0.09375,3.375 -0.325386,0.721458 -0.687931,1.165812 -1.0625,1.59375 -0.362122,0.413717 -0.76594,0.757975 -1.15625,1.125 0.533101,-0.01623 1.047697,-0.06756 1.59375,-0.03125 0.567458,0.03774 1.16602,0.09493 1.90625,0.375 0.148046,0.05601 0.325833,0.153225 0.5,0.25 l 7.75,-2.8125 C 114.11905,72.715258 102.05597,98.51622 78.71875,107 55.381532,115.48378 29.556551,103.46526 21.0625,80.15625 c -8.494051,-23.309008 3.569034,-49.141216 26.90625,-57.625 5.162671,-1.876788 9.818505,-2.678867 15.3125,-2.6875 z M 64,39.0625 c -0.10717,0.227273 -0.149093,0.438119 -0.3125,0.6875 -0.102129,0.155863 -0.219189,0.321506 -0.375,0.5 l 0.03125,24.53125 22.53125,-8.1875 c -0.352873,-0.317976 -0.676222,-0.725913 -0.90625,-1.28125 -0.555135,-1.340215 -0.148167,-2.521987 0.1875,-3.1875 0.131545,-0.260809 0.297315,-0.390569 0.4375,-0.59375 -0.24498,0.01957 -0.42859,0.0789 -0.71875,0.0625 C 84.130815,51.55169 82.883093,51.338368 82,50.1875 c -0.883092,-1.150868 -0.776982,-2.395287 -0.625,-3.125 0.05948,-0.285602 0.16731,-0.455205 0.25,-0.6875 -0.232295,0.08269 -0.401898,0.19052 -0.6875,0.25 -0.729713,0.151982 -1.974132,0.258093 -3.125,-0.625 -1.150868,-0.883092 -1.36419,-2.130815 -1.40625,-2.875 -0.0164,-0.29016 0.04293,-0.47377 0.0625,-0.71875 -0.203181,0.140185 -0.332941,0.305955 -0.59375,0.4375 -0.665513,0.335667 -1.847285,0.742635 -3.1875,0.1875 -1.340215,-0.555135 -1.891764,-1.667059 -2.125,-2.375 -0.08715,-0.264514 -0.08088,-0.454827 -0.125,-0.6875 -0.153175,0.177312 -0.232295,0.348 -0.4375,0.53125 -0.555959,0.496477 -1.593023,1.189346 -3.03125,1 C 65.530522,41.310654 64.721017,40.373453 64.3125,39.75 64.149093,39.500619 64.10717,39.289773 64,39.0625 Z" style="fill:currentColor;fill-opacity:0.25098039;stroke:none" inkscape:connector-curvature="0" id="path2435" class="ColorScheme-Text"/>
    </g>
  </g>
</svg>
