<?xml version='1.0' encoding='UTF-8' standalone='no'?>
<!-- Created with Inkscape (http://www.inkscape.org/) -->
<svg xmlns:svg="http://www.w3.org/2000/svg" version="1.1" width="22" inkscape:export-filename="/home/rob/.kde4/share/icons/nmfnms/48x48/apps/utilities-terminal.png" xmlns:rdf="http://www.w3.org/1999/02/22-rdf-syntax-ns#" sodipodi:version="0.32" xmlns:dc="http://purl.org/dc/elements/1.1/" xmlns:cc="http://creativecommons.org/ns#" xmlns:inkscape="http://www.inkscape.org/namespaces/inkscape" height="22" inkscape:version="0.91 r13725" inkscape:export-xdpi="67.5" xmlns="http://www.w3.org/2000/svg" xmlns:sodipodi="http://sodipodi.sourceforge.net/DTD/sodipodi-0.dtd" inkscape:export-ydpi="67.5" inkscape:output_extension="org.inkscape.output.svg.inkscape" sodipodi:docname="handbreak.svg" id="svg2816">
  <defs id="defs2818">
    <style type="text/css" id="current-color-scheme"><![CDATA[
.ColorScheme-Text{ color:#c8c8c8; }
]]></style>
    <inkscape:perspective inkscape:vp_z="64 : 32 : 1" inkscape:vp_x="0 : 32 : 1" inkscape:persp3d-origin="32 : 21.333333 : 1" inkscape:vp_y="0 : 1000 : 0" sodipodi:type="inkscape:persp3d" id="perspective2824"/>
  </defs>
  <sodipodi:namedview inkscape:window-width="1882" inkscape:pageshadow="2" pagecolor="#ffffff" inkscape:window-maximized="1" inkscape:current-layer="layer1" bordercolor="#666666" inkscape:document-units="px" inkscape:window-x="38" inkscape:grid-bbox="true" inkscape:window-height="1080" borderopacity="1.0" showgrid="true" inkscape:zoom="1.5273438" inkscape:window-y="0" inkscape:cx="-190.00362" inkscape:cy="-14.898111" inkscape:pageopacity="0.0" id="base">
    <inkscape:grid type="xygrid" visible="true" empspacing="4" snapvisiblegridlinesonly="true" id="grid2826" enabled="true"/>
  </sodipodi:namedview>
  <metadata id="metadata2821">
    <rdf:RDF>
      <cc:Work rdf:about="">
        <dc:format>image/svg+xml</dc:format>
        <dc:type rdf:resource="http://purl.org/dc/dcmitype/StillImage"/>
        <dc:title/>
      </cc:Work>
    </rdf:RDF>
  </metadata>
  <g style="opacity:1" transform="translate(0,-42)" inkscape:groupmode="layer" id="layer1" inkscape:label="Layer 1">
    <path d="m 16.315074,43.136267 -0.238082,0.955241 a 3.3956553,3.5512308 0 0 0 -0.592522,0.160848 l -0.663853,-0.733405 a 4.4544531,4.4981416 42.147231 0 0 -0.608411,0.327793 l 0.262323,0.997982 a 3.3956553,3.5512308 0 0 0 -0.437954,0.447828 l -1.013869,-0.316568 a 4.4544531,4.4981416 42.147231 0 0 -0.353167,0.556745 l 0.777994,0.804071 a 3.3956553,3.5512308 0 0 0 -0.164789,0.614265 l -1.118326,0.279162 a 4.4544531,4.4981416 42.147231 0 0 -0.0076,0.628835 l 1.11252,0.302952 a 3.3956553,3.5512308 0 0 0 0.153796,0.619669 l -0.822309,0.812781 a 4.4544531,4.4981416 42.147231 0 0 0.319917,0.549489 l 1.068812,-0.306057 a 3.3956553,3.5512308 0 0 0 0.428214,0.458019 l -0.296074,1.038629 a 4.4544531,4.4981416 42.147231 0 0 0.5898,0.323236 l 0.704775,-0.745837 a 3.3956553,3.5512308 0 0 0 0.587355,0.172339 l 0.221838,0.972381 a 4.4544531,4.4981416 42.147231 0 0 0.697979,-0.0031 l 0.238082,-0.955242 a 3.3956553,3.5512308 0 0 0 0.59252,-0.160849 l 0.663853,0.733405 a 4.4544531,4.4981416 42.147231 0 0 0.608411,-0.327793 l -0.262321,-0.997982 a 3.3956553,3.5512308 0 0 0 0.437952,-0.447833 l 1.01387,0.316568 a 4.4544531,4.4981416 42.147231 0 0 0.353167,-0.556746 l -0.778006,-0.804072 a 3.3956553,3.5512308 0 0 0 0.164789,-0.614263 l 1.118326,-0.279162 a 4.4544531,4.4981416 42.147231 0 0 0.0076,-0.628836 L 19.969169,47.027818 A 3.3956553,3.5512308 0 0 0 19.815367,46.40815 l 0.822315,-0.812782 a 4.4544531,4.4981416 42.147231 0 0 -0.319919,-0.549489 l -1.06881,0.306057 a 3.3956553,3.5512308 0 0 0 -0.428214,-0.458017 l 0.296074,-1.03863 a 4.4544531,4.4981416 42.147231 0 0 -0.589801,-0.323235 l -0.704775,0.745835 A 3.3956553,3.5512308 0 0 0 17.234883,44.10555 l -0.221836,-0.97238 a 4.4544531,4.4981416 42.147231 0 0 -0.697981,0.0031 z" style="opacity:1;fill:currentColor;fill-opacity:1;stroke:none;stroke-width:2;stroke-linecap:square;stroke-linejoin:round;stroke-miterlimit:4;stroke-dasharray:none" inkscape:connector-curvature="0" id="circle4173" class="ColorScheme-Text"/>
    <path d="m 4.3112623,52.548431 -0.187223,0.739007 A 2.6702872,2.7473526 0 0 0 3.6580906,53.411875 L 3.1360486,52.844488 A 3.4597893,3.5232846 73.861952 0 0 2.6576041,53.09808 l 0.2062857,0.772073 A 2.6702872,2.7473526 0 0 0 2.5194907,54.216608 L 1.7222008,53.9717 a 3.4597893,3.5232846 73.861952 0 0 -0.277725,0.430717 l 0.6118019,0.622056 a 2.6702872,2.7473526 0 0 0 -0.1295872,0.475216 l -0.8794333,0.21597 a 3.4597893,3.5232846 73.861952 0 0 -0.00596,0.486488 l 0.8748671,0.234374 a 2.6702872,2.7473526 0 0 0 0.1209427,0.479396 l -0.6466501,0.628795 a 3.4597893,3.5232846 73.861952 0 0 0.2515775,0.425104 L 2.4825305,57.73304 a 2.6702872,2.7473526 0 0 0 0.3367401,0.354338 l -0.2328277,0.80352 a 3.4597893,3.5232846 73.861952 0 0 0.4638081,0.250065 l 0.5542233,-0.577004 a 2.6702872,2.7473526 0 0 0 0.461886,0.133327 l 0.17445,0.752267 a 3.4597893,3.5232846 73.861952 0 0 0.548879,-0.0024 l 0.187224,-0.739007 a 2.6702872,2.7473526 0 0 0 0.465944,-0.124419 l 0.522043,0.567387 a 3.4597893,3.5232846 73.861952 0 0 0.478444,-0.253592 l -0.206294,-0.772073 a 2.6702872,2.7473526 0 0 0 0.344399,-0.346458 l 0.7972902,0.244907 A 3.4597893,3.5232846 73.861952 0 0 7.6564649,57.593181 L 7.0446625,56.971124 a 2.6702872,2.7473526 0 0 0 0.129587,-0.475215 l 0.8794334,-0.21597 a 3.4597893,3.5232846 73.861952 0 0 0.006,-0.486488 L 7.1848185,55.559084 A 2.6702872,2.7473526 0 0 0 7.0638715,55.079689 L 7.7105269,54.450893 A 3.4597893,3.5232846 73.861952 0 0 7.4589479,54.02579 l -0.8404956,0.236776 a 2.6702872,2.7473526 0 0 0 -0.33674,-0.354338 l 0.232828,-0.80352 a 3.4597893,3.5232846 73.861952 0 0 -0.46381,-0.250065 l -0.554223,0.577003 a 2.6702872,2.7473526 0 0 0 -0.461922,-0.133327 l -0.174448,-0.752266 a 3.4597893,3.5232846 73.861952 0 0 -0.548881,0.0024 z" style="opacity:1;fill:currentColor;fill-opacity:1;stroke:none;stroke-width:2;stroke-linecap:square;stroke-linejoin:round;stroke-miterlimit:4;stroke-dasharray:none" inkscape:connector-curvature="0" id="path4177" class="ColorScheme-Text"/>
    <rect y="59" height="4" style="opacity:1;fill:currentColor;fill-opacity:1;stroke:none;stroke-width:2;stroke-linecap:square;stroke-linejoin:round;stroke-miterlimit:4;stroke-dasharray:none" x="12" width="9" id="rect4179" class="ColorScheme-Text"/>
    <path d="m 1.4313371,48.179673 0.9504581,0.492532 3.4939427,1.810576 0.8991763,0.465957 1.8933809,2.739319 0.7818328,0.853429 2.8933611,1.809742 0.682436,0.934818 1.232387,2.514574 0,0.961249 5,0 0,-1.01912 L 16.996077,54.244453 16.450128,53.496598 13.117379,51.142645 12.45282,50.417231 9.0497107,46.496082 8.2019154,46.056752 4.7079719,44.246175 3.7318238,43.740331 Z m 1.3479727,-0.427749 1.3802919,-2.663606 3.5514739,1.840389 -1.3802921,2.663605 z m 4.4393356,2.300464 1.3802918,-2.663605 3.1282978,3.7168 -2.2120785,2.026502 z m 2.9720116,3.817057 2.212079,-2.026504 3.212442,2.205924 -2.423037,1.768866 z m 3.591106,2.755966 2.423038,-1.768867 2.053511,4.92095 -3,0 z" style="opacity:1;fill:currentColor;fill-opacity:1;stroke:none;stroke-width:2;stroke-linecap:square;stroke-linejoin:round;stroke-miterlimit:4;stroke-dasharray:none" inkscape:connector-curvature="0" sodipodi:nodetypes="ccccccccccccccccccccccccccccccccccccccccc" id="rect4181" class="ColorScheme-Text"/>
  </g>
</svg>
