<?xml version='1.0' encoding='UTF-8' standalone='no'?>
<!-- Created with Inkscape (http://www.inkscape.org/) -->
<svg xmlns:inkscape="http://www.inkscape.org/namespaces/inkscape" sodipodi:docname="instant_meshes.svg" xmlns="http://www.w3.org/2000/svg" version="1.1" xmlns:svg="http://www.w3.org/2000/svg" height="32" inkscape:output_extension="org.inkscape.output.svg.inkscape" xmlns:sodipodi="http://sodipodi.sourceforge.net/DTD/sodipodi-0.dtd" xmlns:dc="http://purl.org/dc/elements/1.1/" xmlns:rdf="http://www.w3.org/1999/02/22-rdf-syntax-ns#" xmlns:cc="http://creativecommons.org/ns#" width="32" id="svg2" sodipodi:version="0.32" inkscape:version="0.91 r13725">
  <defs id="defs4">
    <style type="text/css" id="current-color-scheme"><![CDATA[
.ColorScheme-Text{ color:#c8c8c8; }

.ColorScheme-{ color:#eff0f1; }

.ColorScheme-NegativeText{ color:#da4453; }

.ColorScheme-PositiveText{ color:#27ae60; }

.ColorScheme-NeutralText{ color:#f67400; }
]]></style>
    <inkscape:perspective inkscape:vp_z="744.09448 : 526.18109 : 1" inkscape:vp_x="0 : 526.18109 : 1" inkscape:persp3d-origin="372.04724 : 350.78739 : 1" inkscape:vp_y="0 : 1000 : 0" sodipodi:type="inkscape:persp3d" id="perspective10"/>
    <inkscape:perspective inkscape:vp_z="64 : 32 : 1" inkscape:vp_x="0 : 32 : 1" inkscape:persp3d-origin="32 : 21.333333 : 1" inkscape:vp_y="0 : 1000 : 0" sodipodi:type="inkscape:persp3d" id="perspective2391"/>
    <inkscape:perspective inkscape:vp_z="744.09448 : 526.18109 : 1" inkscape:vp_x="0 : 526.18109 : 1" inkscape:persp3d-origin="372.04724 : 350.78739 : 1" inkscape:vp_y="0 : 1000 : 0" sodipodi:type="inkscape:persp3d" id="perspective10-0"/>
  </defs>
  <sodipodi:namedview inkscape:window-width="1882" inkscape:pageshadow="2" pagecolor="#464646" inkscape:window-maximized="1" inkscape:current-layer="g4143" bordercolor="#666666" inkscape:document-units="px" inkscape:window-x="38" inkscape:window-height="1080" borderopacity="1.0" showgrid="true" inkscape:snap-global="false" inkscape:zoom="16" inkscape:window-y="0" inkscape:cx="9.4853737" inkscape:cy="11.165565" inkscape:pageopacity="0" id="base">
    <inkscape:grid type="xygrid" visible="true" empspacing="4" snapvisiblegridlinesonly="true" id="grid2816" enabled="true"/>
  </sodipodi:namedview>
  <metadata id="metadata7">
    <rdf:RDF>
      <cc:Work rdf:about="">
        <dc:format>image/svg+xml</dc:format>
        <dc:type rdf:resource="http://purl.org/dc/dcmitype/StillImage"/>
        <dc:title/>
      </cc:Work>
    </rdf:RDF>
  </metadata>
  <g transform="translate(0,-1020.3622)" inkscape:groupmode="layer" id="layer1" inkscape:label="Layer 1">
    <g style="color:#c8c8c8;fill:currentColor" transform="translate(-2.8175781,2.3467192)" id="g4189" class="ColorScheme-Text"/>
    <g transform="matrix(1.5595308,0,0,1.5595308,-2.0029455,-586.83208)" id="g4143">
      <g style="opacity:0.506" id="g4227">
        <path d="M 16.67357,1045.3107 Z" style="fill:none;fill-rule:evenodd;stroke:currentColor;stroke-width:0.64121848px;stroke-linecap:butt;stroke-linejoin:miter;stroke-opacity:1" inkscape:connector-curvature="0" id="path4161" class="ColorScheme-Text"/>
        <path d="m 16.67357,1037.6161 0,7.6946" style="fill:none;fill-rule:evenodd;stroke:currentColor;stroke-width:0;stroke-linecap:butt;stroke-linejoin:miter;stroke-opacity:1;stroke-miterlimit:4;stroke-dasharray:none" inkscape:connector-curvature="0" id="path4163" class="ColorScheme-Text"/>
        <path d="M 13.1875,2.2324219 C 9.3776457,4.4166191 0.99218751,9.3203205 1,9.3144531 L 1,24.591797 12,30.59375 13.944544,30.494487 25,23.548828 25,9.3144531 C 21.053061,7.1609573 17.083258,4.6043805 13.1875,2.2324219 Z M 13.169922,4.5625 22.875,10.474609 13,15.859375 3.1210938,10.470703 Z M 2.9980469,12.683594 12,17.59375 12,28.314453 2.9980469,23.404297 Z m 20.0039061,0 0,9.767578 L 14,28.177734 14,17.59375 Z" style="font-style:normal;font-variant:normal;font-weight:normal;font-stretch:normal;font-size:medium;line-height:normal;font-family:sans-serif;text-indent:0;text-align:start;text-decoration:none;text-decoration-line:none;text-decoration-style:solid;text-decoration-color:#000000;letter-spacing:normal;word-spacing:normal;text-transform:none;direction:ltr;block-progression:tb;writing-mode:lr-tb;baseline-shift:baseline;text-anchor:start;white-space:normal;clip-rule:nonzero;display:inline;overflow:visible;visibility:visible;opacity:1;isolation:auto;mix-blend-mode:normal;color-interpolation:sRGB;color-interpolation-filters:linearRGB;solid-color:#000000;solid-opacity:1;fill:currentColor;fill-opacity:1;fill-rule:evenodd;stroke:none;stroke-width:1.28243697;stroke-linecap:butt;stroke-linejoin:miter;stroke-miterlimit:4;stroke-dasharray:none;stroke-dashoffset:0;stroke-opacity:1;color-rendering:auto;image-rendering:auto;shape-rendering:auto;text-rendering:auto;enable-background:accumulate" transform="matrix(0.6412185,0,0,0.6412185,1.2843257,1030.5627)" inkscape:connector-curvature="0" sodipodi:nodetypes="ccccccccccccccccccccccc" id="path4165" class="ColorScheme-Text"/>
        <path d="M 22.005859 14.253906 L 18.998047 15.929688 L 18.998047 19.498047 L 22.03125 17.941406 L 22.005859 14.253906 z M 18 16.484375 L 15.029297 18.138672 L 15.017578 21.539062 L 18 20.009766 L 18 16.484375 z M 22.039062 19.060547 L 18.998047 20.619141 L 18.998047 23.921875 L 22.060547 22.033203 L 22.039062 19.060547 z M 18 21.130859 L 15.013672 22.660156 L 15.001953 26.384766 L 18 24.537109 L 18 21.130859 z " style="fill:currentColor;fill-rule:evenodd;stroke:none;stroke-width:0.64121848px;stroke-linecap:butt;stroke-linejoin:miter;stroke-opacity:1" transform="matrix(0.6412185,0,0,0.6412185,1.2843257,1030.5627)" id="path4191" class="ColorScheme-Text"/>
        <path d="m 3.8454428,1039.8826 1.9286665,1.0745 0,2.2881 -1.9449475,-0.9981 0.01628,-2.3645 z m 2.568633,1.4302 1.9048715,1.0608 0.0075,2.1803 -1.9123865,-0.9806 0,-2.2605 z m -2.589923,1.6519 1.9499565,0.9994 0,2.1177 -1.9637335,-1.211 0.01378,-1.9061 z m 2.589923,1.3275 1.9148905,0.9806 0.0075,2.3883 -1.9224055,-1.1848 0,-2.1841 z" style="fill:currentColor;fill-rule:evenodd;stroke:none;stroke-width:0.64121848px;stroke-linecap:butt;stroke-linejoin:miter;stroke-opacity:1" inkscape:connector-curvature="0" id="path4208" class="ColorScheme-Text"/>
        <path d="M 13.123047 5.6464844 L 9.8769531 7.5957031 L 13.058594 9.7519531 L 16.349609 7.6210938 L 13.123047 5.6464844 z M 8.9355469 8.1621094 L 5.1210938 10.453125 L 8.8085938 12.505859 L 12.148438 10.341797 L 8.9355469 8.1621094 z M 17.294922 8.2011719 L 13.957031 10.361328 L 17.115234 12.503906 L 20.912109 10.414062 L 17.294922 8.2011719 z M 13.046875 10.951172 L 9.796875 13.054688 L 12.9375 14.802734 L 16.132812 13.044922 L 13.046875 10.951172 z " style="fill:currentColor;fill-rule:evenodd;stroke:none;stroke-width:0.64121848px;stroke-linecap:butt;stroke-linejoin:miter;stroke-opacity:1" transform="matrix(0.6412185,0,0,0.6412185,1.2843257,1030.5627)" id="path4212" class="ColorScheme-Text"/>
      </g>
      <path d="m 18.05775,1031.3678 2.535479,0.026 -7.465169,7.5739 -0.685261,-0.5092 z" style="color:#c8c8c8;opacity:1;fill:currentColor;fill-opacity:1;stroke:none;stroke-width:21.40000343;stroke-miterlimit:4;stroke-dasharray:none" inkscape:connector-curvature="0" sodipodi:nodetypes="ccccc" id="rect4194" class="ColorScheme-Text"/>
      <path d="m 20.988472,1034.7967 -0.03116,2.1459 -7.077879,3.9356 -0.455705,-0.722 z" style="color:#c8c8c8;opacity:1;fill:currentColor;fill-opacity:1;stroke:none;stroke-width:21.40000343;stroke-miterlimit:4;stroke-dasharray:none" inkscape:connector-curvature="0" sodipodi:nodetypes="ccccc" id="path4197" class="ColorScheme-Text"/>
    </g>
  </g>
</svg>
