<?xml version='1.0' encoding='UTF-8' standalone='no'?>
<!-- Created with Inkscape (http://www.inkscape.org/) -->
<svg xmlns:svg="http://www.w3.org/2000/svg" version="1.1" width="22" inkscape:export-filename="/home/rob/.kde4/share/icons/nmfnms/48x48/actions/view-refresh.png" xmlns:rdf="http://www.w3.org/1999/02/22-rdf-syntax-ns#" sodipodi:version="0.32" xmlns:dc="http://purl.org/dc/elements/1.1/" xmlns:cc="http://creativecommons.org/ns#" xmlns:inkscape="http://www.inkscape.org/namespaces/inkscape" height="22" inkscape:version="0.91 r13725" inkscape:export-xdpi="67.5" xmlns="http://www.w3.org/2000/svg" xmlns:sodipodi="http://sodipodi.sourceforge.net/DTD/sodipodi-0.dtd" inkscape:export-ydpi="67.5" inkscape:output_extension="org.inkscape.output.svg.inkscape" sodipodi:docname="k3b.svg" id="svg2383">
  <defs id="defs2385">
    <style type="text/css" id="current-color-scheme"><![CDATA[
.ColorScheme-Text{ color:#c8c8c8; }

.ColorScheme-{ color:#eff0f1; }

.ColorScheme-NegativeText{ color:#da4453; }

.ColorScheme-PositiveText{ color:#27ae60; }

.ColorScheme-NeutralText{ color:#f67400; }
]]></style>
    <inkscape:perspective inkscape:vp_z="64 : 32 : 1" inkscape:vp_x="0 : 32 : 1" inkscape:persp3d-origin="32 : 21.333333 : 1" inkscape:vp_y="0 : 1000 : 0" sodipodi:type="inkscape:persp3d" id="perspective2391"/>
    <inkscape:perspective inkscape:vp_z="744.09448 : 526.18109 : 1" inkscape:vp_x="0 : 526.18109 : 1" inkscape:persp3d-origin="372.04724 : 350.78739 : 1" inkscape:vp_y="0 : 1000 : 0" sodipodi:type="inkscape:persp3d" id="perspective10"/>
    <pattern patternUnits="userSpaceOnUse" height="46.406551" width="52.00226" id="pattern2834" patternTransform="translate(11.69844,8.7393398)">
      <path d="M 5.9999993,17.203293 C 11.433191,6.9833594 24.249858,3.0362863 34.626824,8.3872582 45.003791,13.738231 49.011513,26.360943 43.578321,36.580877 c -0.726471,1.366504 -1.604396,2.649552 -2.617718,3.825675" style="fill:none;stroke:currentColor;stroke-width:11.99999809;stroke-linecap:round;stroke-linejoin:miter;stroke-miterlimit:4;stroke-opacity:1" id="path2526" class="ColorScheme-Text"/>
    </pattern>
  </defs>
  <sodipodi:namedview inkscape:window-width="1493" inkscape:pageshadow="2" pagecolor="#ffffff" inkscape:window-maximized="0" inkscape:current-layer="layer1" bordercolor="#666666" inkscape:document-units="px" inkscape:window-x="160" inkscape:grid-bbox="true" inkscape:window-height="945" borderopacity="1.0" showgrid="true" inkscape:zoom="22.15625" inkscape:window-y="44" inkscape:cx="15.306706" inkscape:cy="9.664451" inkscape:pageopacity="0.0" id="base">
    <inkscape:grid type="xygrid" visible="true" empspacing="4" snapvisiblegridlinesonly="true" id="grid3165" enabled="true"/>
  </sodipodi:namedview>
  <metadata id="metadata2388">
    <rdf:RDF>
      <cc:Work rdf:about="">
        <dc:format>image/svg+xml</dc:format>
        <dc:type rdf:resource="http://purl.org/dc/dcmitype/StillImage"/>
        <dc:title/>
      </cc:Work>
    </rdf:RDF>
  </metadata>
  <g transform="translate(0,-42)" inkscape:groupmode="layer" id="layer1" inkscape:label="Layer 1">
    <g transform="translate(-4.5,-1)" id="g4144">
      <g style="color:#eeeeee" transform="matrix(0.3125,0,0,0.3125,5.5,44)" id="g13" class="ColorScheme-Text">
        <path d="m 27,0 c -1,3 2,11 -4,13 L 18,4 C 17,7 19.498412,14.095984 13,16 12,10 10.305791,11.986027 8,9 9.2904566,14.384274 10.873988,19.684813 8.90625,26 13.641705,18.206484 22.214205,13 32,13 41.785795,13 50.358295,18.206484 55.09375,26 52.09288,20.46437 50.869753,10.764825 52,9 51.170838,11.461462 49.719157,14.206034 48,16 45.276073,15.68812 43.498277,7.4588148 43,3 40,5 41,11 39,13 36,11 36.166762,10.008591 38,1 37,3 34,3 32,8 31.208435,6.3360541 29.798404,4.7536687 27,0 Z" style="color:#da4453;fill:currentColor;fill-opacity:1;stroke:none" inkscape:connector-curvature="0" sodipodi:nodetypes="ccccccscccccccc" id="rect3883" class="ColorScheme-NegativeText"/>
      </g>
      <path d="M 15.5,49 C 11.357864,49 8,52.357864 8,56.5 8,60.642136 11.357864,64 15.5,64 19.642136,64 23,60.642136 23,56.5 23,52.357864 19.642136,49 15.5,49 Z m 0,5 C 16.880712,54 18,55.119288 18,56.5 18,57.880712 16.880712,59 15.5,59 14.119288,59 13,57.880712 13,56.5 13,55.119288 14.119288,54 15.5,54 Z" style="color:#eeeeee;opacity:1;fill:currentColor;fill-opacity:1;stroke:none" inkscape:connector-curvature="0" id="path3856" class="ColorScheme-Text"/>
      <path d="M 15.5,54 C 14.119288,54 13,55.119288 13,56.5 13,57.880712 14.119288,59 15.5,59 16.880712,59 18,57.880712 18,56.5 18,55.119288 16.880712,54 15.5,54 Z m 0,1.25 c 0.690356,0 1.25,0.559644 1.25,1.25 0,0.690356 -0.559644,1.25 -1.25,1.25 -0.690356,0 -1.25,-0.559644 -1.25,-1.25 0,-0.690356 0.559644,-1.25 1.25,-1.25 z" style="color:#eeeeee;opacity:0.6;fill:currentColor;fill-opacity:1;stroke:none" inkscape:connector-curvature="0" id="path3878" class="ColorScheme-Text"/>
    </g>
  </g>
</svg>
