<?xml version='1.0' encoding='UTF-8' standalone='no'?>
<!-- Created with Inkscape (http://www.inkscape.org/) -->
<svg xmlns:inkscape="http://www.inkscape.org/namespaces/inkscape" sodipodi:docname="meshlab.svg" xmlns="http://www.w3.org/2000/svg" version="1.1" xmlns:svg="http://www.w3.org/2000/svg" height="22" inkscape:output_extension="org.inkscape.output.svg.inkscape" xmlns:sodipodi="http://sodipodi.sourceforge.net/DTD/sodipodi-0.dtd" xmlns:dc="http://purl.org/dc/elements/1.1/" xmlns:rdf="http://www.w3.org/1999/02/22-rdf-syntax-ns#" xmlns:cc="http://creativecommons.org/ns#" width="22" id="svg2816" sodipodi:version="0.32" inkscape:version="0.91 r13725">
  <defs id="defs2818">
    <style type="text/css" id="current-color-scheme"><![CDATA[
.ColorScheme-Text{ color:#c8c8c8; }
]]></style>
    <inkscape:perspective inkscape:vp_z="64 : 32 : 1" inkscape:vp_x="0 : 32 : 1" inkscape:persp3d-origin="32 : 21.333333 : 1" inkscape:vp_y="0 : 1000 : 0" sodipodi:type="inkscape:persp3d" id="perspective2824"/>
    <inkscape:perspective inkscape:vp_z="64 : 32 : 1" inkscape:vp_x="0 : 32 : 1" inkscape:persp3d-origin="32 : 21.333333 : 1" inkscape:vp_y="0 : 1000 : 0" sodipodi:type="inkscape:persp3d" id="perspective2824-8"/>
    <inkscape:perspective inkscape:vp_z="1 : 0.5 : 1" inkscape:vp_x="0 : 0.5 : 1" inkscape:persp3d-origin="0.5 : 0.33333333 : 1" inkscape:vp_y="0 : 1000 : 0" sodipodi:type="inkscape:persp3d" id="perspective2824-5"/>
  </defs>
  <sodipodi:namedview inkscape:window-width="1890" inkscape:pageshadow="2" pagecolor="#ffffff" inkscape:window-maximized="1" inkscape:current-layer="layer1" bordercolor="#666666" inkscape:document-units="px" inkscape:window-x="30" inkscape:grid-bbox="true" inkscape:window-height="1080" borderopacity="1.0" showgrid="true" inkscape:snap-global="false" inkscape:zoom="1.3671875" inkscape:window-y="0" inkscape:cx="-77.03463" inkscape:cy="-67.828031" inkscape:pageopacity="0.0" id="base">
    <inkscape:grid type="xygrid" visible="true" empspacing="4" snapvisiblegridlinesonly="true" id="grid2826" enabled="true"/>
  </sodipodi:namedview>
  <metadata id="metadata2821">
    <rdf:RDF>
      <cc:Work rdf:about="">
        <dc:format>image/svg+xml</dc:format>
        <dc:type rdf:resource="http://purl.org/dc/dcmitype/StillImage"/>
        <dc:title/>
      </cc:Work>
    </rdf:RDF>
  </metadata>
  <g transform="translate(0,-42)" inkscape:groupmode="layer" id="layer1" inkscape:label="Layer 1">
    <g transform="matrix(0.31387935,0,0,0.31387935,0.95095644,42.901913)" id="g4148">
      <path d="M 29.46875,0.21875 C 14.065968,1.4506424 1.7256096,13.56977 0.15625,28.875 2.0250645,23.146716 8.1597591,18.326496 16.5,15.59375 19.28482,7.7528905 23.959641,2.0140645 29.46875,0.21875 Z" style="opacity:0.50431064;fill:currentColor;fill-opacity:1;stroke:none" inkscape:connector-curvature="0" id="path3841" class="ColorScheme-Text"/>
      <path d="m 38.0625,0.6875 c 5.173925,2.2739932 9.517206,8.0478549 12.0625,15.71875 6.822445,2.700904 11.843561,6.891257 13.75,11.78125 C 62.151215,14.351182 51.619549,3.2531482 38.0625,0.6875 Z" style="opacity:0.50431064;fill:currentColor;fill-opacity:1;stroke:none" inkscape:connector-curvature="0" id="path3839" class="ColorScheme-Text"/>
      <path d="m 33.15625,4.65625 c -5.053104,0 -9.557356,3.8073728 -12.5625,9.8125 3.59418,-0.815491 7.46278,-1.28125 11.53125,-1.28125 4.958851,0 9.663356,0.688889 13.875,1.875 C 42.999097,8.7188914 38.372442,4.65625 33.15625,4.65625 Z" style="fill:currentColor;fill-opacity:1;stroke:none" inkscape:connector-curvature="0" id="path3837" class="ColorScheme-Text"/>
      <path d="M 15.25,19.625 C 8.7696795,22.621857 4.59375,27.281182 4.59375,32.5625 c 0,5.349524 4.2818355,10.102589 10.90625,13.09375 -1.119515,-4.112999 -1.75,-8.659772 -1.75,-13.46875 0,-4.453399 0.531746,-8.692239 1.5,-12.5625 z" style="fill:currentColor;fill-opacity:1;stroke:none" inkscape:connector-curvature="0" id="path3833" class="ColorScheme-Text"/>
      <path d="m 51.3125,20.8125 c 0.791587,3.54769 1.25,7.369573 1.25,11.375 0,4.347038 -0.512613,8.485918 -1.4375,12.28125 5.262857,-2.984629 8.53125,-7.221302 8.53125,-11.90625 0,-4.628039 -3.192756,-8.772158 -8.34375,-11.75 z" style="fill:currentColor;fill-opacity:1;stroke:none" inkscape:connector-curvature="0" id="path3831" class="ColorScheme-Text"/>
      <path d="M 0.34375,36.75 C 2.439972,51.433489 14.459384,62.899372 29.40625,64.125 24.135773,62.376189 19.617107,57.033735 16.8125,49.6875 8.545393,47.049942 2.4165191,42.352261 0.34375,36.75 Z" style="opacity:0.50431064;fill:currentColor;fill-opacity:1;stroke:none" inkscape:connector-curvature="0" id="path3829" class="ColorScheme-Text"/>
      <path d="M 63.65625,37.5 C 61.562663,42.226521 56.528647,46.247643 49.8125,48.84375 47.229924,56.082478 43.011184,61.504797 38.03125,63.6875 51.169435,61.214103 61.446315,50.729281 63.65625,37.5 Z" style="opacity:0.50431064;fill:currentColor;fill-opacity:1;stroke:none" inkscape:connector-curvature="0" id="path3827" class="ColorScheme-Text"/>
      <path d="m 45.53125,50.21875 c -4.090174,1.104548 -8.631482,1.75 -13.40625,1.75 -3.88262,0 -7.575126,-0.441564 -11.03125,-1.1875 2.994992,5.480134 7.268145,8.9375 12.0625,8.9375 4.959591,0 9.371165,-3.68636 12.375,-9.5 z" style="fill:currentColor;fill-opacity:1;stroke:none" inkscape:connector-curvature="0" id="path3038" class="ColorScheme-Text"/>
      <circle cx="24.56691" cy="26.244539" style="opacity:1;fill:currentColor;fill-opacity:1;stroke:none;stroke-width:4;stroke-miterlimit:4;stroke-dasharray:none" transform="translate(7.8872711,5.4305801)" id="path3843" r="8.9216671" class="ColorScheme-Text"/>
      <circle cx="24.56691" cy="26.244539" style="fill:currentColor;fill-opacity:0.48958333;stroke:none" transform="matrix(1.6521739,0,0,1.5362319,-8.1346269,-8.6425789)" id="path3845" r="8.9216671" class="ColorScheme-Text"/>
    </g>
  </g>
</svg>
