<?xml version='1.0' encoding='UTF-8' standalone='no'?>
<!-- Created with Inkscape (http://www.inkscape.org/) -->
<svg xmlns:inkscape="http://www.inkscape.org/namespaces/inkscape" sodipodi:docname="musescore.svg" xmlns="http://www.w3.org/2000/svg" version="1.1" xmlns:svg="http://www.w3.org/2000/svg" height="22" inkscape:output_extension="org.inkscape.output.svg.inkscape" xmlns:sodipodi="http://sodipodi.sourceforge.net/DTD/sodipodi-0.dtd" xmlns:dc="http://purl.org/dc/elements/1.1/" xmlns:rdf="http://www.w3.org/1999/02/22-rdf-syntax-ns#" xmlns:cc="http://creativecommons.org/ns#" width="22" id="svg2816" sodipodi:version="0.32" inkscape:version="0.91 r13725">
  <defs id="defs2818">
    <style type="text/css" id="current-color-scheme"><![CDATA[
.ColorScheme-Text{ color:#c8c8c8; }
]]></style>
    <inkscape:perspective inkscape:vp_z="64 : 32 : 1" inkscape:vp_x="0 : 32 : 1" inkscape:persp3d-origin="32 : 21.333333 : 1" inkscape:vp_y="0 : 1000 : 0" sodipodi:type="inkscape:persp3d" id="perspective2824"/>
    <inkscape:perspective inkscape:vp_z="64 : 32 : 1" inkscape:vp_x="0 : 32 : 1" inkscape:persp3d-origin="32 : 21.333333 : 1" inkscape:vp_y="0 : 1000 : 0" sodipodi:type="inkscape:persp3d" id="perspective2824-8"/>
    <inkscape:perspective inkscape:vp_z="1 : 0.5 : 1" inkscape:vp_x="0 : 0.5 : 1" inkscape:persp3d-origin="0.5 : 0.33333333 : 1" inkscape:vp_y="0 : 1000 : 0" sodipodi:type="inkscape:persp3d" id="perspective2824-5"/>
  </defs>
  <sodipodi:namedview inkscape:window-width="1882" inkscape:object-nodes="false" inkscape:snap-midpoints="false" inkscape:pageshadow="2" pagecolor="#ffffff" inkscape:window-maximized="1" bordercolor="#666666" inkscape:current-layer="layer1" inkscape:document-units="px" inkscape:window-x="38" inkscape:grid-bbox="true" inkscape:object-paths="false" borderopacity="1.0" inkscape:window-height="1080" showgrid="true" inkscape:snap-smooth-nodes="false" inkscape:snap-global="true" inkscape:zoom="8" inkscape:window-y="0" inkscape:snap-intersection-paths="false" inkscape:cx="-1.9687631" inkscape:cy="-1.1780697" inkscape:pageopacity="0.0" id="base">
    <inkscape:grid type="xygrid" visible="true" empspacing="4" snapvisiblegridlinesonly="true" id="grid2826" enabled="true"/>
  </sodipodi:namedview>
  <metadata id="metadata2821">
    <rdf:RDF>
      <cc:Work rdf:about="">
        <dc:format>image/svg+xml</dc:format>
        <dc:type rdf:resource="http://purl.org/dc/dcmitype/StillImage"/>
        <dc:title/>
      </cc:Work>
    </rdf:RDF>
  </metadata>
  <g transform="translate(0,-42)" inkscape:groupmode="layer" id="layer1" inkscape:label="Layer 1">
    <path d="M 11 1 C 5.4787881 1 1 5.478788 1 11 C 1 16.521212 5.4787878 21 11 21 C 16.521212 21 21 16.521212 21 11 C 21 5.478788 16.521212 1 11 1 z M 14.921875 4.0117188 C 15.736031 4.0117188 16.413059 4.206593 16.925781 4.609375 C 17.438504 5.012156 17.772538 5.6141839 17.941406 6.3886719 C 17.999816 6.6565089 18.055533 6.8170306 17.970703 7.0097656 C 17.928291 7.1061266 17.827031 7.1838175 17.738281 7.2109375 C 17.649533 7.2379275 17.567709 7.2402344 17.474609 7.2402344 C 17.309525 7.2402344 17.14611 7.2007796 17.029297 7.0878906 C 16.912483 6.9749996 16.873047 6.8160039 16.873047 6.6542969 C 16.873048 6.1601729 16.677402 5.7923764 16.363281 5.5214844 C 16.049158 5.2505924 15.609763 5.0840119 15.148438 5.0449219 C 14.225788 4.9667399 13.253143 5.3784463 12.957031 6.3476562 C 12.828024 6.7699103 12.658485 7.0655505 12.394531 7.1953125 C 12.328542 7.2277725 12.249443 7.2480181 12.164062 7.2363281 C 12.07869 7.2246371 11.996339 7.1774244 11.943359 7.1152344 C 11.837419 6.9908634 11.8125 6.8377704 11.8125 6.6464844 C 11.8125 5.1834844 13.237989 4.0117188 14.921875 4.0117188 z M 15.078125 5.9765625 C 15.19956 5.9940775 15.311587 6.0445431 15.398438 6.1269531 C 15.572125 6.2917701 15.629292 6.5498435 15.576172 6.8203125 C 15.525768 7.0769655 15.335301 7.2614294 15.121094 7.3496094 C 14.906886 7.4378084 14.632151 7.435139 14.443359 7.25 C 14.255457 7.065748 14.220018 6.8019166 14.267578 6.5722656 C 14.31513 6.3426116 14.451933 6.1145244 14.699219 6.0214844 C 14.825822 5.9738744 14.956691 5.9590525 15.078125 5.9765625 z M 6.0898438 8.1074219 C 6.4789651 8.1071289 6.7558057 8.1293895 7.0097656 8.2265625 C 7.2637256 8.3237345 7.4700382 8.488555 7.7207031 8.734375 C 7.9471692 8.956459 8.0812241 9.0535479 8.1210938 9.0761719 C 8.1278997 9.0669019 8.1217294 9.0745937 8.1308594 9.0585938 C 8.3980019 8.5904717 9.0007651 8.317035 9.6621094 8.1875 C 10.323456 8.057965 11.05925 8.0816126 11.632812 8.3378906 C 12.106805 8.5496766 12.448656 8.8578154 12.642578 9.3652344 C 12.836496 9.8726524 12.905983 10.563518 12.939453 11.619141 C 12.979211 12.87325 13.018886 13.546106 13.119141 13.916016 C 13.219391 14.285928 13.337417 14.366059 13.685547 14.574219 C 14.402887 15.003124 15.08695 15.002494 15.816406 14.566406 C 16.266546 14.297273 16.499496 14.040174 16.658203 13.486328 C 16.816908 12.932482 16.873047 12.075013 16.873047 10.699219 C 16.873047 9.6006748 16.878814 9.0041437 16.927734 8.6523438 C 16.952189 8.4764457 16.976469 8.3505605 17.082031 8.2421875 C 17.134811 8.1879995 17.21383 8.150965 17.28125 8.140625 C 17.34866 8.130245 17.401652 8.1370844 17.451172 8.1464844 C 17.556218 8.1666694 17.693358 8.2384889 17.767578 8.3574219 C 17.841791 8.4763569 17.874077 8.6135851 17.898438 8.8144531 C 17.947137 9.2161881 17.955078 9.883128 17.955078 11.078125 C 17.955078 12.252259 17.942539 12.940612 17.886719 13.421875 C 17.830899 13.903139 17.717983 14.187017 17.541016 14.482422 C 17.18891 15.070183 16.584001 15.516707 15.908203 15.771484 C 15.232403 16.026264 14.481772 16.093414 13.824219 15.886719 C 13.030208 15.637127 12.489514 15.313952 12.1875 14.707031 C 11.885488 14.10011 11.8125 13.262338 11.8125 11.945312 C 11.8125 11.123257 11.798057 10.630923 11.748047 10.314453 C 11.698029 9.9979841 11.627607 9.8650786 11.480469 9.6816406 C 11.030449 9.1206006 10.358666 8.9853004 9.609375 9.3339844 C 9.1167443 9.5632314 8.8753137 9.7786644 8.7089844 10.318359 C 8.5426551 10.858054 8.4902344 11.734993 8.4902344 13.181641 C 8.4902344 14.242616 8.5419831 14.836533 8.5332031 15.207031 C 8.5288147 15.392279 8.5162812 15.536784 8.4160156 15.667969 C 8.3157507 15.799149 8.1528917 15.83595 8.0078125 15.84375 C 7.9230176 15.84828 7.8400834 15.84576 7.7558594 15.8125 C 7.6716354 15.779238 7.593437 15.712299 7.546875 15.636719 C 7.4537497 15.485524 7.44358 15.319249 7.4375 15.095703 C 7.425333 14.648608 7.4764013 13.947558 7.4570312 12.814453 C 7.4377039 11.683691 7.4087368 10.974249 7.3554688 10.509766 C 7.3022014 10.045284 7.2291392 9.8413671 7.1171875 9.6738281 C 6.8244699 9.2357611 6.3160067 9.0718738 5.7792969 9.1523438 C 5.2425871 9.2328227 4.7008011 9.5672898 4.3964844 10.121094 C 4.1726887 10.528362 4.0831939 11.163269 4.0449219 13.099609 C 4.0248069 14.117477 4.0298775 14.748046 3.9921875 15.150391 C 3.9733425 15.351562 3.947838 15.497007 3.875 15.626953 C 3.8021631 15.756907 3.6378737 15.847656 3.5 15.847656 C 3.3563026 15.847656 3.1869295 15.81313 3.0839844 15.681641 C 2.9810401 15.55015 2.9719869 15.40455 2.9667969 15.216797 C 2.9563999 14.841291 3.0060525 14.236319 3.0078125 13.15625 C 3.0095015 12.100815 3.0268592 11.427338 3.0820312 10.925781 C 3.137204 10.424223 3.2359446 10.090328 3.3925781 9.7519531 C 3.8856979 8.6866751 4.8385521 8.1083699 6.0898438 8.1074219 z " style="color:#c8c8c8;opacity:1;fill:currentColor;fill-opacity:1;stroke:none;stroke-width:3;stroke-miterlimit:4;stroke-dasharray:none;stroke-dashoffset:0;stroke-opacity:1" transform="translate(0,42)" id="path2385"/>
  </g>
</svg>
