<?xml version="1.0" encoding="UTF-8" standalone="no"?>
<!-- Created with Inkscape (http://www.inkscape.org/) -->

<svg
   xmlns:dc="http://purl.org/dc/elements/1.1/"
   xmlns:cc="http://creativecommons.org/ns#"
   xmlns:rdf="http://www.w3.org/1999/02/22-rdf-syntax-ns#"
   xmlns:svg="http://www.w3.org/2000/svg"
   xmlns="http://www.w3.org/2000/svg"
   xmlns:sodipodi="http://sodipodi.sourceforge.net/DTD/sodipodi-0.dtd"
   xmlns:inkscape="http://www.inkscape.org/namespaces/inkscape"
   sodipodi:docname="absynth.svg"
   version="1.1"
   inkscape:version="0.91 r13725"
   id="svg2"
   inkscape:output_extension="org.inkscape.output.svg.inkscape"
   height="22"
   sodipodi:version="0.32"
   width="22">
  <metadata
     id="metadata10">
    <rdf:RDF>
      <cc:Work
         rdf:about="">
        <dc:format>image/svg+xml</dc:format>
        <dc:type
           rdf:resource="http://purl.org/dc/dcmitype/StillImage" />
        <dc:title></dc:title>
      </cc:Work>
    </rdf:RDF>
  </metadata>
  <sodipodi:namedview
     inkscape:window-x="30"
     inkscape:current-layer="layer4"
     inkscape:window-y="0"
     inkscape:window-height="1080"
     gridtolerance="10.0"
     guidetolerance="10.0"
     bordercolor="#666666"
     inkscape:window-width="1890"
     borderopacity="1.0"
     inkscape:window-maximized="1"
     inkscape:pageshadow="2"
     id="base"
     pagecolor="#ffffff"
     inkscape:zoom="21.831922"
     inkscape:cx="12.836197"
     inkscape:cy="15.487462"
     showgrid="true"
     inkscape:pageopacity="0.0"
     objecttolerance="10.0">
    <inkscape:grid
       type="xygrid"
       id="grid4160" />
  </sodipodi:namedview>
  <defs
     id="defs4">
    <style
       type="text/css"
       id="current-color-scheme"><![CDATA[
.ColorScheme-Text{ color:#c8c8c8; }

.ColorScheme-{ color:#eff0f1; }

.ColorScheme-NegativeText{ color:#da4453; }

.ColorScheme-PositiveText{ color:#27ae60; }

.ColorScheme-NeutralText{ color:#f67400; }
]]></style>
    <inkscape:perspective
       sodipodi:type="inkscape:persp3d"
       inkscape:vp_z="128 : 64 : 1"
       inkscape:persp3d-origin="64 : 42.666667 : 1"
       inkscape:vp_x="0 : 64 : 1"
       id="perspective12"
       inkscape:vp_y="0 : 1000 : 0" />
  </defs>
  <g
     id="layer1"
     inkscape:groupmode="layer"
     transform="translate(0,-106)" />
  <g
     id="layer2"
     inkscape:groupmode="layer"
     style="opacity:1"
     transform="translate(0,-106)" />
  <g
     id="layer3"
     inkscape:groupmode="layer"
     style="opacity:1"
     transform="translate(0,-106)" />
  <g
     id="layer4"
     inkscape:groupmode="layer"
     style="opacity:1"
     transform="translate(0,-106)">
    <path class="ColorScheme-Text"
       style="fill:currentColor"
       d="m 9.671987,126.916 c -0.9175672,-0.0732 -2.4623954,-0.39861 -2.7486962,-0.57905 -0.080654,-0.0508 -0.2086473,-0.0924 -0.2844295,-0.0924 -0.3145359,0 -2.7264619,-1.1994 -2.7280514,-1.35661 -9.516e-4,-0.0939 0.156045,-0.0506 0.7659517,0.21072 0.9309358,0.39897 1.4515543,0.58067 2.0214525,0.70551 0.2862256,0.0627 0.6375026,0.1451 0.7806154,0.18312 0.1431127,0.038 0.8289392,0.0846 1.5240586,0.10375 1.2375309,0.0339 1.2832079,0.0302 2.1931579,-0.1785 0.873523,-0.20035 2.055507,-0.59962 2.304673,-0.77852 0.06133,-0.044 0.287156,-0.15939 0.501824,-0.25632 0.21467,-0.097 0.390308,-0.20105 0.390308,-0.23137 0,-0.0303 0.08227,-0.0889 0.182811,-0.13016 0.234433,-0.0962 1.216663,-0.85607 1.76888,-1.36834 0.8119,-0.75316 1.148869,-1.30968 1.593204,-2.63122 0.197539,-0.58753 0.192992,-2.35594 -0.0078,-3.01471 -0.2945,-0.96647 -0.721414,-1.64541 -1.410858,-2.24378 -0.797066,-0.69177 -1.977598,-1.25682 -1.977598,-0.94656 0,0.028 0.134993,0.21398 0.299982,0.41325 1.270344,1.5343 1.430389,3.79601 0.39903,5.63892 -0.687499,1.22849 -2.242787,2.35923 -3.972046,2.88781 -0.591163,0.1807 -2.2072026,0.38136 -2.7116831,0.33671 -1.3535068,-0.1198 -2.140376,-0.32203 -3.157749,-0.81152 -0.826616,-0.39772 -1.3527046,-0.76598 -2.0065941,-1.40462 -1.084503,-1.05921 -1.7364023,-2.1687 -2.1952785,-3.73622 -0.25767807,-0.88024 -0.25485376,-2.97745 0.0051,-3.78515 0.065223,-0.20264 0.1718691,-0.53427 0.2369903,-0.73693 0.1760303,-0.54779 0.7686147,-1.60273 1.23182,-2.19292 0.4567127,-0.58191 1.7252587,-1.71909 2.3739954,-2.12816 0.5595168,-0.3528 1.9200788,-1.03727 2.0631047,-1.0379 0.061939,-2.7e-4 0.2298013,-0.0571 0.3730264,-0.12627 0.1432242,-0.0692 0.5107335,-0.17646 0.8166865,-0.23841 0.3059529,-0.0619 0.7517676,-0.16173 0.9906998,-0.2217 0.3315362,-0.0832 0.7805251,-0.10969 1.8957801,-0.11171 1.345414,-0.002 1.53185,0.0122 2.349832,0.18495 0.48866,0.10315 1.007211,0.22739 1.152336,0.276 0.145125,0.0486 0.380957,0.12515 0.52407,0.17004 0.143112,0.0449 0.49796,0.18376 0.788551,0.30859 0.290591,0.12484 0.547623,0.22697 0.571182,0.22697 0.02356,0 0.321082,0.152 0.661162,0.33777 1.128762,0.61661 1.202816,0.8473 0.121956,0.37991 -0.381225,-0.16486 -0.776775,-0.3221 -0.878998,-0.34943 -0.102227,-0.0273 -0.223815,-0.0769 -0.270203,-0.11026 -0.04639,-0.0333 -0.263844,-0.10506 -0.483237,-0.15943 -1.626458,-0.40307 -3.16397,-0.52473 -4.264801,-0.33748 -2.2314622,0.37958 -3.7733226,1.13105 -5.5073681,2.68418 -0.8908011,0.79786 -1.0011556,0.92431 -1.3156187,1.50736 -0.5907711,1.09536 -0.7483678,1.78467 -0.7045707,3.0817 0.02906,0.86059 0.058666,1.04031 0.2595159,1.57537 0.3144653,0.83773 0.6940726,1.3926 1.3305046,1.94477 0.4903327,0.42541 1.5517637,1.03542 1.8016625,1.03542 0.1563223,0 0.08542,-0.26196 -0.1310259,-0.4841 -0.2568069,-0.26357 -0.6246663,-0.89968 -0.8314454,-1.43774 -0.2411514,-0.62752 -0.3378533,-1.64137 -0.2302994,-2.41454 0.2277547,-1.63723 0.9513196,-2.68579 2.6831075,-3.88821 0.120301,-0.0835 0.3467285,-0.20412 0.5031712,-0.26797 0.1564435,-0.0639 0.4105896,-0.18687 0.5647701,-0.27335 0.1541804,-0.0865 0.4383924,-0.19759 0.6315834,-0.24688 0.193192,-0.0493 0.493936,-0.13681 0.668321,-0.19448 0.71713,-0.23715 3.047889,-0.23318 3.771875,0.006 0.163556,0.0542 0.448698,0.13716 0.633647,0.18449 0.409608,0.10484 1.37612,0.5727 1.931231,0.93486 1.208375,0.78836 2.467957,2.35822 2.963402,3.69342 0.459386,1.23801 0.486378,1.39499 0.483821,2.81373 -0.0025,1.39621 -0.07738,1.82416 -0.50984,2.91422 -0.76177,1.92014 -2.648987,3.76558 -4.919164,4.81024 -1.653978,0.76112 -3.829741,1.11476 -5.8615448,0.95274 z"
       id="path4163"
       inkscape:connector-curvature="0" />
  </g>
</svg>
