<?xml version='1.0' encoding='UTF-8' standalone='no'?>
<!-- Created with Inkscape (http://www.inkscape.org/) -->
<svg xmlns:sodipodi="http://sodipodi.sourceforge.net/DTD/sodipodi-0.dtd" height="22" inkscape:export-filename="/home/rob/.kde4/share/icons/nmfnms/48x48/actions/document-open.png" width="22" version="1.1" inkscape:version="0.91 r13725" xmlns:svg="http://www.w3.org/2000/svg" sodipodi:docname="ark.svgz" xmlns:rdf="http://www.w3.org/1999/02/22-rdf-syntax-ns#" sodipodi:version="0.32" inkscape:export-ydpi="67.5" id="svg2816" inkscape:export-xdpi="67.5" xmlns:cc="http://creativecommons.org/ns#" inkscape:output_extension="org.inkscape.output.svgz.inkscape" xmlns:inkscape="http://www.inkscape.org/namespaces/inkscape" xmlns="http://www.w3.org/2000/svg" xmlns:dc="http://purl.org/dc/elements/1.1/">
  <defs id="defs2818">
    <style type="text/css" id="current-color-scheme"><![CDATA[
.ColorScheme-Text{ color:#c8c8c8; }
]]></style>
    <inkscape:perspective sodipodi:type="inkscape:persp3d" inkscape:vp_z="64 : 32 : 1" inkscape:persp3d-origin="32 : 21.333333 : 1" inkscape:vp_x="0 : 32 : 1" id="perspective2824" inkscape:vp_y="0 : 1000 : 0"/>
  </defs>
  <sodipodi:namedview inkscape:window-x="120" inkscape:current-layer="layer1" inkscape:window-y="128" inkscape:window-height="841" bordercolor="#666666" inkscape:grid-bbox="true" inkscape:window-width="1337" borderopacity="1.0" inkscape:window-maximized="0" inkscape:pageshadow="2" id="base" pagecolor="#ffffff" inkscape:zoom="2.5155973" inkscape:cx="-103.77449" inkscape:document-units="px" inkscape:cy="-5.4497883" showgrid="true" inkscape:pageopacity="0.0">
    <inkscape:grid enabled="true" visible="true" empspacing="4" type="xygrid" id="grid2826" snapvisiblegridlinesonly="true"/>
  </sodipodi:namedview>
  <metadata id="metadata2821">
    <rdf:RDF>
      <cc:Work rdf:about="">
        <dc:format>image/svg+xml</dc:format>
        <dc:type rdf:resource="http://purl.org/dc/dcmitype/StillImage"/>
        <dc:title/>
      </cc:Work>
    </rdf:RDF>
  </metadata>
  <g inkscape:label="Layer 1" id="layer1" inkscape:groupmode="layer" style="opacity:1" transform="translate(0,-42)">
    <path class="ColorScheme-Text" id="path3680" d="M 5.3313745,43.334338 C 3.603417,44.32669 2.1662848,45.765305 1.187715,47.502662 l 15.04543,15.045429 c 1.737356,-0.97857 3.175972,-2.415702 4.168323,-4.143659 L 5.3313745,43.334338 Z m 11.3334015,0.197317 -1.849848,1.849848 c -2.215745,-1.553256 -4.303836,-2.161208 -5.2782335,-1.405884 -0.04381,0.02898 -0.08467,0.06001 -0.123323,0.09866 -0.309185,0.309186 -0.309185,0.813055 0,1.122241 l 3.9093455,3.909345 4.62462,-4.624619 c -0.406429,-0.343656 -0.82898,-0.66673 -1.282561,-0.949589 z m 3.40372,3.342058 c -0.06015,0.07398 -0.126044,0.126019 -0.20965,0.160321 l -4.303979,4.303979 3.909345,3.897013 c 0.309186,0.309185 0.813055,0.309185 1.122241,0 0.05797,-0.05797 0.09942,-0.116236 0.135656,-0.184985 0.686269,-0.997952 0.06419,-3.035996 -1.455214,-5.204239 l 1.578537,-1.578536 C 20.620802,47.784244 20.35826,47.315823 20.068496,46.873713 Z M 1.9893158,50.84472 c -0.2032638,0 -0.4126937,0.07972 -0.5672867,0.234314 -0.038648,0.03865 -0.069672,0.07952 -0.098658,0.123323 -0.75532398,0.974397 -0.1473718,3.062488 1.4058843,5.278233 l -1.6525307,1.652531 c 0.2560382,0.476934 0.5424661,0.937141 0.8632623,1.368887 L 6.4536155,54.988379 2.5442701,51.079034 C 2.3896773,50.924441 2.1925796,50.84472 1.9893158,50.84472 Z m 6.6964487,6.375809 -4.513628,4.513629 c 0.426041,0.321716 0.873282,0.617336 1.344223,0.875594 l 1.677195,-1.677195 c 2.168242,1.519401 4.2062865,2.141483 5.2042385,1.455214 0.06875,-0.03623 0.127013,-0.07768 0.184985,-0.135656 0.309186,-0.309186 0.309186,-0.813055 0,-1.122241 L 8.6857645,57.220529 Z M 2.38395,60.04463 c 0.013248,0.01567 0.023662,0.03375 0.036997,0.04933 0.00649,-0.0097 0.00499,-0.01448 0.012332,-0.02466 C 2.417332,60.0603 2.400015,60.05337 2.38395,60.04464 Z m 0.061662,0.037 c -0.00507,0.0073 -0.00727,0.01735 -0.012332,0.02466 0.00562,0.0065 0.019029,0.0058 0.024665,0.01233 0.00761,0.0088 0.017024,0.01588 0.024665,0.02466 0.012916,-0.0066 0.024566,-0.0059 0.036997,-0.01233 -0.025438,-0.01545 -0.04822,-0.0346 -0.073994,-0.04933 z" inkscape:connector-curvature="0" style="opacity:1;fill:currentColor;fill-opacity:1;fill-rule:nonzero;stroke:none"/>
  </g>
</svg>
