<?xml version='1.0' encoding='UTF-8' standalone='no'?>
<!-- Created with Inkscape (http://www.inkscape.org/) -->
<svg xmlns:sodipodi="http://sodipodi.sourceforge.net/DTD/sodipodi-0.dtd" height="22" inkscape:export-filename="/home/rob/.kde4/share/icons/nmfnms/48x48/apps/utilities-terminal.png" width="22" version="1.1" inkscape:version="0.91 r13725" xmlns:svg="http://www.w3.org/2000/svg" sodipodi:docname="audacity.svg" xmlns:rdf="http://www.w3.org/1999/02/22-rdf-syntax-ns#" sodipodi:version="0.32" inkscape:export-ydpi="67.5" id="svg2816" inkscape:export-xdpi="67.5" xmlns:cc="http://creativecommons.org/ns#" inkscape:output_extension="org.inkscape.output.svg.inkscape" xmlns:inkscape="http://www.inkscape.org/namespaces/inkscape" xmlns="http://www.w3.org/2000/svg" xmlns:dc="http://purl.org/dc/elements/1.1/">
  <defs id="defs2818">
    <style type="text/css" id="current-color-scheme"><![CDATA[
.ColorScheme-Text{ color:#c8c8c8; }
]]></style>
    <inkscape:perspective sodipodi:type="inkscape:persp3d" inkscape:vp_z="64 : 32 : 1" inkscape:persp3d-origin="32 : 21.333333 : 1" inkscape:vp_x="0 : 32 : 1" id="perspective2824" inkscape:vp_y="0 : 1000 : 0"/>
  </defs>
  <sodipodi:namedview inkscape:object-paths="true" inkscape:snap-smooth-nodes="true" inkscape:window-x="38" inkscape:current-layer="layer1" inkscape:window-y="0" inkscape:snap-intersection-paths="true" inkscape:window-height="1080" bordercolor="#666666" inkscape:grid-bbox="true" inkscape:window-width="1882" inkscape:snap-midpoints="true" borderopacity="1.0" inkscape:snap-global="true" inkscape:window-maximized="1" inkscape:pageshadow="2" id="base" pagecolor="#ffffff" inkscape:zoom="16" inkscape:cx="21.162885" inkscape:document-units="px" inkscape:cy="4.9165709" inkscape:object-nodes="true" showgrid="true" inkscape:pageopacity="0.0">
    <inkscape:grid enabled="true" visible="true" empspacing="4" type="xygrid" id="grid2826" snapvisiblegridlinesonly="true"/>
  </sodipodi:namedview>
  <metadata id="metadata2821">
    <rdf:RDF>
      <cc:Work rdf:about="">
        <dc:format>image/svg+xml</dc:format>
        <dc:type rdf:resource="http://purl.org/dc/dcmitype/StillImage"/>
        <dc:title/>
      </cc:Work>
    </rdf:RDF>
  </metadata>
  <g inkscape:label="Layer 1" id="layer1" inkscape:groupmode="layer" style="opacity:1" transform="translate(0,-42)">
    <path class="ColorScheme-Text" id="path4164" d="M 11 1 C 6.0294373 1 2 5.0294373 2 10 C 2.0016 10.334199 1.9202514 10.687581 1.9589844 11.019531 L 2.0039062 11.019531 A 3 4 0 0 0 1 14 A 3 4 0 0 0 4 18 L 4 10 C 4 6.1340068 7.1340068 3 11 3 C 14.865993 3 18 6.1340068 18 10 L 18 18 A 3 4 0 0 0 21 14 A 3 4 0 0 0 19.996094 11.019531 L 20.035156 11.019531 C 20.075852 10.68769 19.996456 10.334308 20 10 C 20 5.0294373 15.970563 1 11 1 z " style="opacity:1;fill:currentColor;fill-opacity:0.64806866;stroke:currentColor;stroke-width:0;stroke-linecap:round;stroke-linejoin:round;stroke-miterlimit:4;stroke-dasharray:none" transform="translate(0,42)"/>
    <rect x="5" class="ColorScheme-Text" id="rect4169" height="8" width="2" style="opacity:1;fill:currentColor;fill-opacity:0.64806866;stroke:currentColor;stroke-width:0;stroke-linecap:round;stroke-linejoin:round;stroke-miterlimit:4;stroke-dasharray:none" y="52"/>
    <rect x="-17" class="ColorScheme-Text" id="rect4173" height="8" width="2" style="opacity:1;fill:currentColor;fill-opacity:0.64806866;stroke:currentColor;stroke-width:0;stroke-linecap:round;stroke-linejoin:round;stroke-miterlimit:4;stroke-dasharray:none" transform="scale(-1,1)" y="52"/>
  </g>
</svg>
