<?xml version="1.0" encoding="UTF-8" standalone="no"?>
<!-- Created with Inkscape (http://www.inkscape.org/) -->

<svg
   xmlns:dc="http://purl.org/dc/elements/1.1/"
   xmlns:cc="http://creativecommons.org/ns#"
   xmlns:rdf="http://www.w3.org/1999/02/22-rdf-syntax-ns#"
   xmlns:svg="http://www.w3.org/2000/svg"
   xmlns="http://www.w3.org/2000/svg"
   xmlns:sodipodi="http://sodipodi.sourceforge.net/DTD/sodipodi-0.dtd"
   xmlns:inkscape="http://www.inkscape.org/namespaces/inkscape"
   sodipodi:docname="battery.svg"
   version="1.1"
   inkscape:version="0.91 r13725"
   id="svg2"
   inkscape:output_extension="org.inkscape.output.svg.inkscape"
   height="22"
   sodipodi:version="0.32"
   width="22">
  <metadata
     id="metadata10">
    <rdf:RDF>
      <cc:Work
         rdf:about="">
        <dc:format>image/svg+xml</dc:format>
        <dc:type
           rdf:resource="http://purl.org/dc/dcmitype/StillImage" />
        <dc:title></dc:title>
      </cc:Work>
    </rdf:RDF>
  </metadata>
  <sodipodi:namedview
     inkscape:window-x="30"
     inkscape:current-layer="layer4"
     inkscape:window-y="0"
     inkscape:window-height="1080"
     gridtolerance="10.0"
     guidetolerance="10.0"
     bordercolor="#666666"
     inkscape:window-width="1890"
     borderopacity="1.0"
     inkscape:window-maximized="1"
     inkscape:pageshadow="2"
     id="base"
     pagecolor="#ffffff"
     inkscape:zoom="21.831922"
     inkscape:cx="16.198995"
     inkscape:cy="7.9283006"
     showgrid="true"
     inkscape:pageopacity="0.0"
     objecttolerance="10.0">
    <inkscape:grid
       type="xygrid"
       id="grid4160" />
  </sodipodi:namedview>
  <defs
     id="defs4">
    <style
       type="text/css"
       id="current-color-scheme"><![CDATA[
.ColorScheme-Text{ color:#c8c8c8; }

.ColorScheme-{ color:#eff0f1; }

.ColorScheme-NegativeText{ color:#da4453; }

.ColorScheme-PositiveText{ color:#27ae60; }

.ColorScheme-NeutralText{ color:#f67400; }
]]></style>
    <inkscape:perspective
       sodipodi:type="inkscape:persp3d"
       inkscape:vp_z="128 : 64 : 1"
       inkscape:persp3d-origin="64 : 42.666667 : 1"
       inkscape:vp_x="0 : 64 : 1"
       id="perspective12"
       inkscape:vp_y="0 : 1000 : 0" />
  </defs>
  <g
     id="layer1"
     inkscape:groupmode="layer"
     transform="translate(0,-106)" />
  <g
     id="layer2"
     inkscape:groupmode="layer"
     style="opacity:1"
     transform="translate(0,-106)" />
  <g
     id="layer3"
     inkscape:groupmode="layer"
     style="opacity:1"
     transform="translate(0,-106)" />
  <g
     id="layer4"
     inkscape:groupmode="layer"
     style="opacity:1"
     transform="translate(0,-106)">
    <path
       class="ColorScheme-Text"
       style="fill:currentColor"
       d="m 9.5117473,126.86704 c -0.8291588,-0.12886 -1.369445,-0.2739 -2.1247678,-0.57041 -3.1923784,-1.25317 -5.5627632,-4.13147 -6.1897617,-7.51608 -0.1666714,-0.89971 -0.1804982,-2.63609 -0.027562,-3.46243 0.2207413,-1.19273 0.576434,-2.17451 1.1967366,-3.3032 0.9073713,-1.65103 2.6245705,-3.24384 4.3712846,-4.05465 3.2629326,-1.51463 6.9852426,-1.22297 9.8710936,0.77343 2.222529,1.53753 3.626129,3.65423 4.194762,6.32591 0.118672,0.55759 0.134401,0.78395 0.133743,1.92447 -7.69e-4,1.3253 -0.01156,1.42091 -0.285483,2.52766 -0.6742,2.72409 -2.647366,5.13606 -5.281754,6.45631 -1.737996,0.87103 -3.901731,1.20306 -5.858291,0.89899 z m 2.9410627,-2.10611 c 3.230169,-0.61457 5.69155,-3.13314 6.309006,-6.45557 0.119562,-0.64335 0.120712,-1.83008 0.0025,-2.52766 -0.576177,-3.3987 -3.110128,-5.93147 -6.53185,-6.52883 -0.387391,-0.0677 -0.757472,-0.083 -1.489213,-0.0619 -0.8411925,0.0243 -1.0633655,0.0516 -1.632405,0.20055 -2.8765165,0.75332 -5.0608303,2.94923 -5.7278943,5.75832 -0.2088047,0.8793 -0.2439558,1.22658 -0.2155004,2.12911 0.04136,1.31172 0.2909405,2.25861 0.9065123,3.4392 0.3788784,0.72664 0.7584041,1.2327 1.426035,1.90148 1.296783,1.299 2.8438565,2.0172 4.8709494,2.26123 0.357084,0.043 1.614868,-0.0271 2.081902,-0.11588 z m -3.045502,-1.5295 c 0.05748,-0.25418 0.3115203,-1.46383 0.648454,-3.08777 0.108169,-0.52134 0.262909,-1.25809 0.343871,-1.63723 0.08096,-0.37916 0.184793,-0.89618 0.230742,-1.14894 0.04595,-0.25277 0.09958,-0.51774 0.119189,-0.58884 l 0.03565,-0.12925 -1.8075369,0 c -0.9941473,0 -1.8206594,-0.0213 -1.8366973,-0.0473 -0.016039,-0.026 0.022544,-0.21345 0.085738,-0.4165 0.063194,-0.20304 0.1616543,-0.5372 0.2188112,-0.74257 0.27441,-0.98605 1.3203245,-4.58527 1.3720401,-4.72152 0.078516,-0.20682 0.1612299,-0.24352 0.8824614,-0.39154 0.5268261,-0.10811 0.7462381,-0.12293 1.4892121,-0.10062 0.924612,0.0277 1.472762,0.12376 1.472762,0.25791 0,0.088 -0.24741,0.95706 -0.65259,2.29224 -0.145118,0.47819 -0.263849,0.89828 -0.263849,0.93351 0,0.0459 0.591155,0.0641 2.090626,0.0641 2.159644,0 2.201198,0.005 2.013437,0.22527 -0.04245,0.0499 -0.66558,0.96963 -1.384726,2.04388 -3.126579,4.67045 -4.8601933,7.24529 -4.9411663,7.33884 -0.1398603,0.16157 -0.1755041,0.1176 -0.1164279,-0.14362 z"
       id="path4160"
       inkscape:connector-curvature="0" />
  </g>
</svg>
