<?xml version='1.0' encoding='UTF-8' standalone='no'?>
<!-- Created with Inkscape (http://www.inkscape.org/) -->
<svg xmlns="http://www.w3.org/2000/svg" xmlns:cc="http://creativecommons.org/ns#" xmlns:inkscape="http://www.inkscape.org/namespaces/inkscape" sodipodi:docname="blender.svg" xmlns:sodipodi="http://sodipodi.sourceforge.net/DTD/sodipodi-0.dtd" version="1.1" xmlns:dc="http://purl.org/dc/elements/1.1/" inkscape:version="0.91 r13725" id="svg2" xmlns:svg="http://www.w3.org/2000/svg" inkscape:output_extension="org.inkscape.output.svg.inkscape" xmlns:rdf="http://www.w3.org/1999/02/22-rdf-syntax-ns#" height="22" sodipodi:version="0.32" width="22">
  <defs id="defs4">
    <style type="text/css" id="current-color-scheme"><![CDATA[
.ColorScheme-Text{ color:#c8c8c8; }
]]></style>
    <inkscape:perspective sodipodi:type="inkscape:persp3d" inkscape:vp_z="744.09448 : 526.18109 : 1" inkscape:persp3d-origin="372.04724 : 350.78739 : 1" inkscape:vp_x="0 : 526.18109 : 1" id="perspective10" inkscape:vp_y="0 : 1000 : 0"/>
    <inkscape:perspective sodipodi:type="inkscape:persp3d" inkscape:vp_z="744.09448 : 526.18109 : 1" inkscape:persp3d-origin="372.04724 : 350.78739 : 1" inkscape:vp_x="0 : 526.18109 : 1" id="perspective2525" inkscape:vp_y="0 : 1000 : 0"/>
  </defs>
  <sodipodi:namedview showborder="true" inkscape:window-x="30" inkscape:current-layer="layer1" inkscape:window-y="0" inkscape:window-height="1080" bordercolor="#666666" inkscape:window-width="1890" borderopacity="1.0" inkscape:window-maximized="1" inkscape:pageshadow="2" id="base" pagecolor="#ffffff" inkscape:zoom="22.627417" inkscape:cx="20.61276" inkscape:document-units="px" inkscape:cy="7.7798265" showgrid="true" inkscape:pageopacity="0.0">
    <inkscape:grid enabled="true" visible="true" empspacing="2" type="xygrid" id="grid2816" snapvisiblegridlinesonly="true"/>
  </sodipodi:namedview>
  <metadata id="metadata7">
    <rdf:RDF>
      <cc:Work rdf:about="">
        <dc:format>image/svg+xml</dc:format>
        <dc:type rdf:resource="http://purl.org/dc/dcmitype/StillImage"/>
        <dc:title/>
      </cc:Work>
    </rdf:RDF>
  </metadata>
  <g inkscape:label="Layer 1" id="layer1" inkscape:groupmode="layer" transform="translate(0,-1030.3622)">
    <g id="g3789" transform="matrix(0.15624993,0,0,0.15624993,-2.931515,892.73545)">
      <g id="g4145">
        <path class="ColorScheme-Text" id="path18" d="M 11.576172 2.2421875 C 11.296253 2.2426562 11.010519 2.3290782 10.785156 2.5019531 C 10.329305 2.850192 10.278055 3.4274533 10.683594 3.7910156 L 13.287109 6.1054688 L 5.3457031 6.1152344 L 5.3339844 6.1152344 C 4.677664 6.1152344 4.0464379 6.5866862 3.921875 7.1816406 C 3.7933277 7.7875982 4.2393451 8.2884875 4.921875 8.2910156 L 4.921875 8.2949219 L 8.9472656 8.2871094 L 1.7636719 14.310547 C 1.7545813 14.318062 1.7447381 14.324522 1.7363281 14.332031 C 1.0584973 14.898811 0.83886425 15.842817 1.265625 16.439453 C 1.6987414 17.046125 2.6199709 17.045654 3.3046875 16.441406 L 7.2246094 12.935547 C 7.2246094 12.935547 7.167323 13.409295 7.171875 13.693359 C 7.1764156 13.978601 7.260064 14.531997 7.3847656 14.964844 C 7.6472596 15.880879 8.0931872 16.729403 8.7128906 17.476562 C 9.3485364 18.243833 10.131054 18.861188 11.035156 19.298828 C 11.985539 19.75875 13.0144 19.991984 14.083984 19.990234 C 15.151804 19.987109 16.182569 19.750312 17.132812 19.287109 C 18.036915 18.845266 18.818149 18.225256 19.453125 17.457031 C 20.071979 16.707277 20.516378 15.857492 20.779297 14.941406 C 20.911723 14.478497 20.995817 14.008587 21.029297 13.537109 C 21.062247 13.072664 21.048791 12.609233 20.988281 12.144531 C 20.870461 11.2385 20.584097 10.388112 20.142578 9.6132812 C 18.14506 6.7815356 15.047491 4.7736443 12.351562 2.5117188 C 12.346163 2.5070937 12.341967 2.5043125 12.335938 2.5 C 12.130898 2.3280829 11.856091 2.2416547 11.576172 2.2421875 z M 14.09375 7.9003906 A 5.0000001 5.0000001 0 0 1 19.09375 12.900391 A 5.0000001 5.0000001 0 0 1 14.09375 17.900391 A 5.0000001 5.0000001 0 0 1 9.09375 12.900391 A 5.0000001 5.0000001 0 0 1 14.09375 7.9003906 z M 14.09375 9.8886719 A 3.0112623 3.0112623 0 0 0 11.082031 12.900391 A 3.0112623 3.0112623 0 0 0 14.09375 15.912109 A 3.0112623 3.0112623 0 0 0 17.105469 12.900391 A 3.0112623 3.0112623 0 0 0 14.09375 9.8886719 z " style="fill:currentColor;fill-opacity:1;fill-rule:nonzero;stroke:none" transform="matrix(6.4000029,0,0,6.4000029,18.761704,880.81159)"/>
      </g>
    </g>
  </g>
</svg>
