<?xml version="1.0" encoding="UTF-8" standalone="no"?>
<!-- Created with Inkscape (http://www.inkscape.org/) -->

<svg
   xmlns:dc="http://purl.org/dc/elements/1.1/"
   xmlns:cc="http://creativecommons.org/ns#"
   xmlns:rdf="http://www.w3.org/1999/02/22-rdf-syntax-ns#"
   xmlns:svg="http://www.w3.org/2000/svg"
   xmlns="http://www.w3.org/2000/svg"
   xmlns:sodipodi="http://sodipodi.sourceforge.net/DTD/sodipodi-0.dtd"
   xmlns:inkscape="http://www.inkscape.org/namespaces/inkscape"
   sodipodi:docname="cadence.svg"
   version="1.0"
   inkscape:version="0.91 r13725"
   id="svg2"
   inkscape:output_extension="org.inkscape.output.svg.inkscape"
   height="22"
   sodipodi:version="0.32"
   width="22">
  <defs
     id="defs4">
    <style
       type="text/css"
       id="current-color-scheme"><![CDATA[
.ColorScheme-Text{ color:#c8c8c8; }
]]></style>
    <inkscape:perspective
       sodipodi:type="inkscape:persp3d"
       inkscape:vp_z="744.09448 : 526.18109 : 1"
       inkscape:persp3d-origin="372.04724 : 350.78739 : 1"
       inkscape:vp_x="0 : 526.18109 : 1"
       id="perspective10"
       inkscape:vp_y="0 : 1000 : 0" />
  </defs>
  <sodipodi:namedview
     inkscape:window-x="30"
     inkscape:current-layer="g3338"
     inkscape:window-y="0"
     inkscape:window-height="1080"
     bordercolor="#666666"
     showguides="false"
     inkscape:window-width="1890"
     borderopacity="1.0"
     inkscape:window-maximized="1"
     inkscape:pageshadow="2"
     id="base"
     pagecolor="#ffffff"
     inkscape:zoom="22.627417"
     inkscape:cx="14.935932"
     inkscape:document-units="px"
     inkscape:cy="13.384318"
     showgrid="true"
     inkscape:pageopacity="0.0">
    <inkscape:grid
       enabled="true"
       visible="true"
       empspacing="5"
       type="xygrid"
       id="grid2383"
       snapvisiblegridlinesonly="true" />
  </sodipodi:namedview>
  <metadata
     id="metadata7">
    <rdf:RDF>
      <cc:Work
         rdf:about="">
        <dc:format>image/svg+xml</dc:format>
        <dc:type
           rdf:resource="http://purl.org/dc/dcmitype/StillImage" />
        <dc:title />
      </cc:Work>
    </rdf:RDF>
  </metadata>
  <g
     inkscape:label="Capa 1"
     id="layer1"
     inkscape:groupmode="layer"
     transform="translate(0,-106)" />
  <g
     id="layer2"
     inkscape:groupmode="layer"
     style="opacity:1"
     transform="translate(0,-106)">
    <g
       id="g3338"
       transform="matrix(0.15625,0,0,0.15625,1,107)">
      <path
         sodipodi:nodetypes="ssssssssss"
         id="path4139"
         d="M 64,0 C 28.653775,0 0,28.653779 0,64 0,99.346214 28.653775,128 64,128 99.346222,128 128,99.346214 128,64 128,28.653779 99.346222,0 64,0 Z m 0,6.399997 c 31.811609,0 57.6,25.788402 57.6,57.600003 0,31.811597 -25.788391,57.6 -57.6,57.6 C 32.188396,121.6 6.399997,95.811597 6.399997,64 6.399997,32.188399 32.188396,6.399997 64,6.399997 Z"
         inkscape:connector-curvature="0"
         style="color:#c8c8c8;opacity:1;fill:currentColor;fill-opacity:1;stroke:none" />
      <path
         id="path4143"
         d="m 64,19.2 c -24.74236,0 -44.8,20.057645 -44.8,44.8 0,24.74235 20.05764,44.8 44.8,44.8 24.74236,0 44.8,-20.05765 44.8,-44.8 C 108.8,39.257645 88.74236,19.2 64,19.2 Z m -0.03183,18.418866 c 11.40967,0 20.976504,7.436898 24.408236,17.691766 0.56469,-0.11905 1.139909,-0.181081 1.716997,-0.185162 4.759939,0 8.618633,3.858694 8.618633,8.618634 0,4.75994 -3.858694,8.618633 -8.618633,8.618633 -0.628333,9.8e-4 -1.254888,-0.06675 -1.868494,-0.201995 -2.604111,7.26759 -8.317926,12.971031 -15.587606,15.570764 0.140906,0.61298 0.214288,1.239544 0.218837,1.868494 0,4.75994 -3.858694,8.618634 -8.618633,8.618634 -4.75994,0 -8.618634,-3.858694 -8.618634,-8.618634 -0.0015,-0.576522 0.05493,-1.151735 0.16833,-1.716996 -7.462858,-2.502601 -13.363185,-8.241129 -16.042107,-15.62127 -0.451107,0.06972 -0.907039,0.103492 -1.363495,0.100997 -4.759939,0 -8.618633,-4.555771 -8.618633,-8.618634 0,-4.062863 3.858694,-8.618633 8.618633,-8.618633 0.40025,0.0059 0.799603,0.03961 1.195162,0.100996 3.45547,-10.212849 13.011734,-17.607594 24.391407,-17.607594 z"
         inkscape:connector-curvature="0"
         style="color:#c8c8c8;opacity:1;fill:#c8c8c8;fill-opacity:1;stroke:none"
         sodipodi:nodetypes="ssssssccsccccsccccaccs" />
    </g>
  </g>
</svg>
