<?xml version='1.0' encoding='UTF-8' standalone='no'?>
<!-- Created with Inkscape (http://www.inkscape.org/) -->
<svg xmlns="http://www.w3.org/2000/svg" xmlns:cc="http://creativecommons.org/ns#" xmlns:inkscape="http://www.inkscape.org/namespaces/inkscape" sodipodi:docname="claudia-launcher.svg" xmlns:sodipodi="http://sodipodi.sourceforge.net/DTD/sodipodi-0.dtd" version="1.0" xmlns:dc="http://purl.org/dc/elements/1.1/" inkscape:version="0.91 r13725" id="svg2" xmlns:svg="http://www.w3.org/2000/svg" inkscape:output_extension="org.inkscape.output.svg.inkscape" xmlns:rdf="http://www.w3.org/1999/02/22-rdf-syntax-ns#" height="22" sodipodi:version="0.32" width="22">
  <defs id="defs4">
    <style type="text/css" id="current-color-scheme"><![CDATA[
.ColorScheme-Text{ color:#c8c8c8; }
]]></style>
    <inkscape:perspective sodipodi:type="inkscape:persp3d" inkscape:vp_z="744.09448 : 526.18109 : 1" inkscape:persp3d-origin="372.04724 : 350.78739 : 1" inkscape:vp_x="0 : 526.18109 : 1" id="perspective10" inkscape:vp_y="0 : 1000 : 0"/>
  </defs>
  <sodipodi:namedview inkscape:window-x="38" inkscape:current-layer="layer2" inkscape:window-y="0" inkscape:window-height="1080" bordercolor="#666666" showguides="false" inkscape:window-width="1882" borderopacity="1.0" inkscape:window-maximized="1" inkscape:pageshadow="2" id="base" pagecolor="#ffffff" inkscape:zoom="22.627417" inkscape:cx="4.8794858" inkscape:document-units="px" inkscape:cy="3.4028392" showgrid="true" inkscape:pageopacity="0.0">
    <inkscape:grid enabled="true" visible="true" type="xygrid" id="grid2383"/>
  </sodipodi:namedview>
  <metadata id="metadata7">
    <rdf:RDF>
      <cc:Work rdf:about="">
        <dc:format>image/svg+xml</dc:format>
        <dc:type rdf:resource="http://purl.org/dc/dcmitype/StillImage"/>
        <dc:title/>
      </cc:Work>
    </rdf:RDF>
  </metadata>
  <g inkscape:label="Capa 1" id="layer1" inkscape:groupmode="layer" transform="translate(0,-106)"/>
  <g id="layer2" inkscape:groupmode="layer" style="opacity:1" transform="translate(0,-106)">
    <path id="path4150" d="m 5.8311048,120.45797 a 8.5878021,2.8626007 0 0 0 -3.4189069,2.28113 8.5878021,2.8626007 0 0 0 5.74477,2.69487 l 0,1.50678 1.4145271,-1.01197 1.411732,-1.01478 -1.411732,-1.01476 -1.4145271,-1.01478 0,1.16853 a 7.1565018,1.4313004 0 0 1 -4.3134697,-1.31389 7.1565018,1.4313004 0 0 1 3.0750594,-1.17411 c -0.419459,-0.30557 -0.8021097,-0.66939 -1.0874528,-1.10702 z m 10.3545632,0.003 c -0.28518,0.43674 -0.668664,0.79915 -1.087453,1.10423 a 7.1565018,1.4313004 0 0 1 3.058287,1.17404 7.1565018,1.4313004 0 0 1 -4.279923,1.30829 l 0,-1.16293 -1.436893,1.01478 -1.434095,1.01476 1.434095,1.01478 1.436893,1.01197 0,-1.50957 a 8.5878021,2.8626007 0 0 0 5.711223,-2.69208 8.5878021,2.8626007 0 0 0 -3.402134,-2.27834 z" inkscape:connector-curvature="0" style="opacity:1;fill:#c8c8c8;fill-opacity:1;stroke:none;stroke-width:0;stroke-linecap:round;stroke-linejoin:round;stroke-miterlimit:4;stroke-dasharray:none"/>
    <path sodipodi:nodetypes="cccccccc" class="ColorScheme-Text" id="path4191" d="m 8.1373993,121.35253 5.7252017,0 0,-10.06383 2.8626,0 L 11,106.9948 l -5.7252014,4.2939 2.8626007,0 z" inkscape:connector-curvature="0" style="color:#c8c8c8;fill:currentColor;fill-rule:evenodd;stroke:none;stroke-width:1px;stroke-linecap:butt;stroke-linejoin:miter;stroke-opacity:1"/>
  </g>
</svg>
