<?xml version='1.0' encoding='UTF-8' standalone='no'?>
<!-- Created with Inkscape (http://www.inkscape.org/) -->
<svg xmlns="http://www.w3.org/2000/svg" xmlns:cc="http://creativecommons.org/ns#" xmlns:inkscape="http://www.inkscape.org/namespaces/inkscape" sodipodi:docname="claudia.svg" xmlns:sodipodi="http://sodipodi.sourceforge.net/DTD/sodipodi-0.dtd" version="1.0" xmlns:dc="http://purl.org/dc/elements/1.1/" inkscape:version="0.91 r13725" id="svg2" xmlns:svg="http://www.w3.org/2000/svg" inkscape:output_extension="org.inkscape.output.svg.inkscape" xmlns:rdf="http://www.w3.org/1999/02/22-rdf-syntax-ns#" height="22" sodipodi:version="0.32" width="22">
  <defs id="defs4">
    <style type="text/css" id="current-color-scheme"><![CDATA[
.ColorScheme-Text{ color:#c8c8c8; }
]]></style>
    <inkscape:perspective sodipodi:type="inkscape:persp3d" inkscape:vp_z="744.09448 : 526.18109 : 1" inkscape:persp3d-origin="372.04724 : 350.78739 : 1" inkscape:vp_x="0 : 526.18109 : 1" id="perspective10" inkscape:vp_y="0 : 1000 : 0"/>
  </defs>
  <sodipodi:namedview inkscape:window-x="38" inkscape:current-layer="layer2" inkscape:window-y="0" inkscape:window-height="1080" bordercolor="#666666" showguides="false" inkscape:window-width="1882" borderopacity="1.0" inkscape:window-maximized="1" inkscape:pageshadow="2" id="base" pagecolor="#ffffff" inkscape:zoom="22.627417" inkscape:cx="2.0998152" inkscape:document-units="px" inkscape:cy="10.731001" showgrid="true" inkscape:pageopacity="0.0">
    <inkscape:grid enabled="true" visible="true" type="xygrid" id="grid2383"/>
  </sodipodi:namedview>
  <metadata id="metadata7">
    <rdf:RDF>
      <cc:Work rdf:about="">
        <dc:format>image/svg+xml</dc:format>
        <dc:type rdf:resource="http://purl.org/dc/dcmitype/StillImage"/>
        <dc:title/>
      </cc:Work>
    </rdf:RDF>
  </metadata>
  <g inkscape:label="Capa 1" id="layer1" inkscape:groupmode="layer" transform="translate(0,-106)"/>
  <g id="layer2" inkscape:groupmode="layer" style="opacity:1" transform="translate(0,-106)">
    <path sodipodi:nodetypes="ccccsccc" class="ColorScheme-Text" id="path4145" d="m 13.883806,106.96707 0,9.49851 c -0.790169,-0.43855 -1.814298,-0.68159 -2.876322,-0.68257 -2.382294,0 -4.3137347,1.19333 -4.3144825,2.66566 7.478e-4,1.47233 1.9321885,2.66566 4.3144825,2.66566 2.382295,0 4.313735,-1.19333 4.314483,-2.66566 l 0,-11.4816 z" inkscape:connector-curvature="0" style="color:#c8c8c8;opacity:1;fill:currentColor;fill-opacity:1;stroke:none;stroke-width:2;stroke-linecap:round;stroke-linejoin:round;stroke-miterlimit:4;stroke-dasharray:none"/>
    <path sodipodi:nodetypes="ccccccccccccccccccccccccc" id="path4150" d="m 5.8063293,120.47109 c -2.1591116,0.54243 -3.4306804,1.39084 -3.4352944,2.29206 0.00807,1.21916 2.3210652,2.30418 5.7723058,2.70779 l 0,1.51401 1.4213072,-1.01682 1.4184981,-1.01965 -1.4184981,-1.01962 -1.4213072,-1.01965 0,1.17413 c -2.6317012,-0.22784 -4.3349086,-0.74665 -4.334145,-1.32019 0.00263,-0.47068 1.1566695,-0.9113 3.0897987,-1.17973 -0.4214695,-0.30704 -0.8059544,-0.6726 -1.0926651,-1.11233 z m 10.4041947,0.003 c -0.286547,0.43884 -0.67187,0.80299 -1.092665,1.10953 1.926633,0.26917 3.074037,0.70963 3.072945,1.17966 -0.0046,0.5699 -1.691274,1.0855 -4.300437,1.31457 l 0,-1.16851 -1.44378,1.01965 -1.44097,1.01962 1.44097,1.01965 1.44378,1.01682 0,-1.51682 c 3.43504,-0.40704 5.732027,-1.48976 5.738598,-2.70498 -0.0033,-0.89925 -1.268032,-1.74625 -3.418441,-2.28926 z" inkscape:connector-curvature="0" style="opacity:1;fill:#c8c8c8;fill-opacity:1;stroke:none;stroke-width:0;stroke-linecap:round;stroke-linejoin:round;stroke-miterlimit:4;stroke-dasharray:none"/>
  </g>
</svg>
