<?xml version='1.0' encoding='UTF-8' standalone='no'?>
<!-- Created with Inkscape (http://www.inkscape.org/) -->
<svg width="22" xmlns:cc="http://creativecommons.org/ns#" xmlns:rdf="http://www.w3.org/1999/02/22-rdf-syntax-ns#" viewBox="0 0 22 22" xmlns="http://www.w3.org/2000/svg" xmlns:inkscape="http://www.inkscape.org/namespaces/inkscape" version="1.1" xmlns:sodipodi="http://sodipodi.sourceforge.net/DTD/sodipodi-0.dtd" inkscape:version="0.91 r13725" xmlns:svg="http://www.w3.org/2000/svg" sodipodi:docname="crusader-kings.svg" xmlns:dc="http://purl.org/dc/elements/1.1/" id="svg2" height="22">
  <defs id="defs4">
    <style type="text/css" id="current-color-scheme"><![CDATA[
.ColorScheme-Text{ color:#c8c8c8; }
]]></style>
    <inkscape:perspective inkscape:persp3d-origin="372.04724 : 350.78739 : 1" inkscape:vp_z="744.09448 : 526.18109 : 1" inkscape:vp_x="0 : 526.18109 : 1" sodipodi:type="inkscape:persp3d" inkscape:vp_y="0 : 999.99998 : 0" id="perspective4164"/>
  </defs>
  <sodipodi:namedview pagecolor="#ffffff" inkscape:snap-intersection-paths="true" inkscape:window-x="1920" inkscape:snap-global="true" inkscape:pageopacity="0.0" inkscape:pageshadow="2" inkscape:current-layer="layer1" showgrid="true" borderopacity="1.0" units="px" inkscape:zoom="1" inkscape:window-maximized="1" inkscape:object-paths="true" inkscape:cx="1.0848634" inkscape:snap-midpoints="true" inkscape:window-y="0" id="base" inkscape:window-width="1600" inkscape:cy="50.659099" inkscape:document-units="px" bordercolor="#666666" inkscape:object-nodes="true" inkscape:window-height="1200">
    <inkscape:grid type="xygrid" id="grid4212"/>
  </sodipodi:namedview>
  <metadata id="metadata7">
    <rdf:RDF>
      <cc:Work rdf:about="">
        <dc:format>image/svg+xml</dc:format>
        <dc:type rdf:resource="http://purl.org/dc/dcmitype/StillImage"/>
        <dc:title/>
      </cc:Work>
    </rdf:RDF>
  </metadata>
  <g inkscape:label="Layer 1" transform="translate(0,-1030.3622)" inkscape:groupmode="layer" id="layer1">
    <path style="opacity:1;fill:currentColor;stroke:none;stroke-width:1;stroke-miterlimit:4;stroke-dasharray:none" d="M 0.9921875 1 L 0.9921875 8.4375 L 0.96289062 8.9921875 C 0.96264463 8.9921875 0.97265625 10 0.97265625 10 L 0.9921875 10 L 0.9921875 11 C 0.9969075 15.122 4.8566705 19.111356 10.970703 21.035156 C 17.085414 19.111556 20.987112 15.1222 20.992188 11 L 20.992188 1 L 12.962891 1 L 8.9628906 1 L 0.9921875 1 z M 1.9921875 2 L 8.9628906 2 L 8.9628906 6 C 6.6393383 5.9857809 4.3153481 5.9836564 1.9921875 6.0273438 L 1.9921875 2 z M 10 2 L 10.066406 2 L 12 2 L 12 7 L 19.992188 7 L 20 7 L 20 9 L 19.992188 9 L 12 9 L 11.992188 19.664062 L 11 20 L 10.046875 19.701172 L 10 19.6875 L 10 9 L 2 9 L 2 8.9824219 L 2 7.0175781 L 2 7 L 10 7 L 10 2 z M 12.962891 2 L 19.992188 2 L 19.992188 6 L 12.962891 6 L 12.962891 2 z M 1.9921875 10 L 8.9628906 10 L 8.9628906 19.255859 C 4.6811363 17.350127 1.996089 14.209833 1.9921875 11 L 1.9921875 10 z M 12.962891 10 L 19.992188 10 L 19.992188 11 C 19.987998 14.227606 17.287964 17.352631 12.962891 19.25 L 12.962891 10 z " transform="translate(0,1030.3622)" id="path4156" class="ColorScheme-Text"/>
    <path style="opacity:1;fill:currentColor;stroke:none;stroke-width:1;stroke-miterlimit:4;stroke-dasharray:none;fill-opacity:0.3764706" d="M 8.3141792,18.929546 C 6.7071049,18.12382 5.4234205,17.215385 4.3874379,16.150678 3.3932982,15.128974 2.7152401,14.058432 2.3312133,12.904238 2.081897,12.154917 2.0016792,11.596147 2.0016792,10.608814 l 0,-0.606064 3.46875,0 3.46875,0 0,4.609375 c 0,2.535156 -0.010547,4.608901 -0.023437,4.608323 C 8.9028511,19.21987 8.632148,19.088963 8.3141792,18.929546 Z" transform="translate(0,1030.3622)" inkscape:connector-curvature="0" id="path4243" class="ColorScheme-Text"/>
    <path style="opacity:1;fill:currentColor;stroke:none;stroke-width:1;stroke-miterlimit:4;stroke-dasharray:none;fill-opacity:0.3764706" d="m 2.0016792,4.0078443 0,-2.0050946 3.46875,0 3.46875,0 0,1.984375 0,1.984375 -2.0573696,0 c -1.1315535,0 -2.6924911,0.00932 -3.4687502,0.02072 l -1.4113802,0.020719 0,-2.0050944 z" transform="translate(0,1030.3622)" inkscape:connector-curvature="0" id="path4245" class="ColorScheme-Text"/>
    <path style="opacity:1;fill:currentColor;stroke:none;stroke-width:1;stroke-miterlimit:4;stroke-dasharray:none;fill-opacity:0.3764706" d="m 12.970429,3.9871247 0,-1.984375 3.5,0 3.5,0 0,1.984375 0,1.984375 -3.5,0 -3.5,0 0,-1.984375 z" transform="translate(0,1030.3622)" inkscape:connector-curvature="0" id="path4247" class="ColorScheme-Text"/>
    <path style="opacity:1;fill:currentColor;stroke:none;stroke-width:1;stroke-miterlimit:4;stroke-dasharray:none;fill-opacity:0.3764706" d="m 12.970429,14.612125 0,-4.609375 3.503578,0 3.503578,0 -0.01551,0.851562 c -0.01626,0.892782 -0.03752,1.075828 -0.196902,1.694575 -0.16051,0.623143 -0.539425,1.459894 -0.93799,2.071347 -0.87957,1.34938 -2.186543,2.555069 -3.895903,3.593988 -0.40858,0.248327 -1.868451,1.007336 -1.937418,1.007292 -0.01289,-8e-6 -0.02344,-2.074233 -0.02344,-4.609389 z" transform="translate(0,1030.3622)" inkscape:connector-curvature="0" id="path4249" class="ColorScheme-Text"/>
  </g>
</svg>
