<?xml version='1.0' encoding='UTF-8' standalone='no'?>
<!-- Created with Inkscape (http://www.inkscape.org/) -->
<svg xmlns="http://www.w3.org/2000/svg" xmlns:cc="http://creativecommons.org/ns#" xmlns:inkscape="http://www.inkscape.org/namespaces/inkscape" sodipodi:docname="darktable.svg" xmlns:sodipodi="http://sodipodi.sourceforge.net/DTD/sodipodi-0.dtd" version="1.1" xmlns:dc="http://purl.org/dc/elements/1.1/" inkscape:version="0.91 r13725" id="svg2" xmlns:svg="http://www.w3.org/2000/svg" viewBox="0 0 22 22" xmlns:rdf="http://www.w3.org/1999/02/22-rdf-syntax-ns#" height="22" width="22">
  <defs id="defs4">
    <style type="text/css" id="current-color-scheme"><![CDATA[
.ColorScheme-Text{ color:#c8c8c8; }
]]></style>
  </defs>
  <sodipodi:namedview inkscape:window-x="38" inkscape:current-layer="layer1" inkscape:window-y="0" inkscape:window-height="1080" bordercolor="#666666" inkscape:window-width="1882" borderopacity="1.0" inkscape:window-maximized="1" units="px" inkscape:pageshadow="2" id="base" pagecolor="#ffffff" inkscape:zoom="22.4" inkscape:cx="13.128371" inkscape:document-units="px" inkscape:cy="11.791547" showgrid="true" inkscape:pageopacity="0.0">
    <inkscape:grid type="xygrid" id="grid4173"/>
  </sodipodi:namedview>
  <metadata id="metadata7">
    <rdf:RDF>
      <cc:Work rdf:about="">
        <dc:format>image/svg+xml</dc:format>
        <dc:type rdf:resource="http://purl.org/dc/dcmitype/StillImage"/>
        <dc:title/>
      </cc:Work>
    </rdf:RDF>
  </metadata>
  <g inkscape:label="Layer 1" id="layer1" inkscape:groupmode="layer" transform="translate(0,-1030.3622)">
    <g id="g4164" transform="matrix(0.04332753,0,0,0.04332753,-20.808107,1002.7184)">
      <path class="ColorScheme-Text" id="circle4149" d="M 734.28516,678.07617 A 214.28572,214.28572 0 0 0 520,892.36133 214.28572,214.28572 0 0 0 734.28516,1106.6484 214.28572,214.28572 0 0 0 948.57227,892.36133 214.28572,214.28572 0 0 0 734.28516,678.07617 Z m 0,180.71485 a 33.57143,33.57143 0 0 1 33.57226,33.57031 33.57143,33.57143 0 0 1 -33.57226,33.57226 33.57143,33.57143 0 0 1 -33.57032,-33.57226 33.57143,33.57143 0 0 1 33.57032,-33.57031 z" inkscape:connector-curvature="0" style="opacity:1;fill:currentColor;fill-opacity:0.37768244;stroke:none;stroke-width:2;stroke-linecap:square;stroke-linejoin:round;stroke-miterlimit:4;stroke-dasharray:none"/>
      <path inkscape:transform-center-x="-143.65163" inkscape:transform-center-y="30.168206" sodipodi:nodetypes="ccscc" class="ColorScheme-Text" id="path4151" d="m 787.14286,852.3622 141.07143,172.5 c 0,0 33.59499,-51.526 36.07142,-115.35714 1.73025,-44.59783 -12.5,-88.21428 -12.5,-88.21428 z" inkscape:connector-curvature="0" style="fill:currentColor;fill-rule:evenodd;stroke:currentColor;stroke-width:1px;stroke-linecap:butt;stroke-linejoin:miter;stroke-opacity:1"/>
      <path inkscape:transform-center-x="-101.78439" inkscape:transform-center-y="-147.10021" sodipodi:nodetypes="ccscc" class="ColorScheme-Text" id="path4153" d="m 726.09845,827.06947 219.68372,-37.36928 c 0,0 -28.18607,-54.67264 -82.45041,-88.37616 -37.91367,-23.54813 -82.86324,-32.73672 -82.86324,-32.73672 z" inkscape:connector-curvature="0" style="fill:currentColor;fill-rule:evenodd;stroke:currentColor;stroke-width:1px;stroke-linecap:butt;stroke-linejoin:miter;stroke-opacity:1"/>
      <path inkscape:transform-center-x="78.234505" inkscape:transform-center-y="-131.57365" sodipodi:nodetypes="ccscc" class="ColorScheme-Text" id="path4155" d="m 672.48848,866.69154 78.39527,-208.5943 c 0,0 -61.42749,-3.19607 -117.8795,26.69902 -39.44216,20.88725 -70.02487,55.08655 -70.02487,55.08655 z" inkscape:connector-curvature="0" style="fill:currentColor;fill-rule:evenodd;stroke:currentColor;stroke-width:1px;stroke-linecap:butt;stroke-linejoin:miter;stroke-opacity:1"/>
      <path inkscape:transform-center-x="143.56425" inkscape:transform-center-y="-29.026093" sodipodi:nodetypes="ccscc" class="ColorScheme-Text" id="path4157" d="M 681.39248,931.73559 539.37575,760.013 c 0,0 -33.31148,51.70974 -35.4373,115.5535 -1.48527,44.60668 12.98432,88.1443 12.98432,88.1443 z" inkscape:connector-curvature="0" style="fill:currentColor;fill-rule:evenodd;stroke:currentColor;stroke-width:1px;stroke-linecap:butt;stroke-linejoin:miter;stroke-opacity:1"/>
      <path inkscape:transform-center-x="101.87729" inkscape:transform-center-y="147.07958" sodipodi:nodetypes="ccscc" class="ColorScheme-Text" id="path4159" d="m 743.15064,957.74559 -219.72373,37.1333 c 0,0 28.12733,54.70281 82.35543,88.46461 37.88837,23.5888 82.82804,32.8257 82.82804,32.8257 z" inkscape:connector-curvature="0" style="fill:currentColor;fill-rule:evenodd;stroke:currentColor;stroke-width:1px;stroke-linecap:butt;stroke-linejoin:miter;stroke-opacity:1"/>
      <path inkscape:transform-center-x="-78.31167" inkscape:transform-center-y="131.56329" sodipodi:nodetypes="ccscc" class="ColorScheme-Text" id="path4161" d="m 793.81381,917.07994 -78.31269,208.62526 c 0,0 61.42871,3.1718 117.86891,-26.7457 39.4339,-20.9029 70.0031,-55.1142 70.0031,-55.1142 z" inkscape:connector-curvature="0" style="fill:currentColor;fill-rule:evenodd;stroke:currentColor;stroke-width:1px;stroke-linecap:butt;stroke-linejoin:miter;stroke-opacity:1"/>
    </g>
  </g>
</svg>
