<?xml version='1.0' encoding='UTF-8' standalone='no'?>
<!-- Created with Inkscape (http://www.inkscape.org/) -->
<svg xmlns="http://www.w3.org/2000/svg" xmlns:cc="http://creativecommons.org/ns#" xmlns:inkscape="http://www.inkscape.org/namespaces/inkscape" sodipodi:docname="drive-harddrive.svg" xmlns:sodipodi="http://sodipodi.sourceforge.net/DTD/sodipodi-0.dtd" version="1.1" xmlns:dc="http://purl.org/dc/elements/1.1/" inkscape:version="0.91 r13725" id="svg2" xmlns:svg="http://www.w3.org/2000/svg" inkscape:output_extension="org.inkscape.output.svg.inkscape" xmlns:rdf="http://www.w3.org/1999/02/22-rdf-syntax-ns#" height="22" sodipodi:version="0.32" width="22">
  <defs id="defs4">
    <style type="text/css" id="current-color-scheme"><![CDATA[
.ColorScheme-Text{ color:#c8c8c8; }

.ColorScheme-{ color:#eff0f1; }

.ColorScheme-NegativeText{ color:#da4453; }

.ColorScheme-PositiveText{ color:#27ae60; }

.ColorScheme-NeutralText{ color:#f67400; }
]]></style>
    <inkscape:perspective sodipodi:type="inkscape:persp3d" inkscape:vp_z="744.09448 : 526.18109 : 1" inkscape:persp3d-origin="372.04724 : 350.78739 : 1" inkscape:vp_x="0 : 526.18109 : 1" id="perspective10" inkscape:vp_y="0 : 1000 : 0"/>
    <inkscape:perspective sodipodi:type="inkscape:persp3d" inkscape:vp_z="64 : 32 : 1" inkscape:persp3d-origin="32 : 21.333333 : 1" inkscape:vp_x="0 : 32 : 1" id="perspective2391" inkscape:vp_y="0 : 1000 : 0"/>
  </defs>
  <sodipodi:namedview inkscape:current-layer="layer1" inkscape:window-width="1882" inkscape:window-height="1080" inkscape:pageopacity="0.0" inkscape:cy="8.1163606" inkscape:document-units="px" inkscape:window-y="0" inkscape:pageshadow="2" id="base" borderopacity="1.0" inkscape:zoom="13.943262" pagecolor="#ffffff" inkscape:window-x="38" bordercolor="#666666" inkscape:cx="19.062829" inkscape:window-maximized="1" showgrid="true">
    <inkscape:grid enabled="true" visible="true" empspacing="4" type="xygrid" id="grid2816" snapvisiblegridlinesonly="true"/>
  </sodipodi:namedview>
  <metadata id="metadata7">
    <rdf:RDF>
      <cc:Work rdf:about="">
        <dc:format>image/svg+xml</dc:format>
        <dc:type rdf:resource="http://purl.org/dc/dcmitype/StillImage"/>
        <dc:title/>
      </cc:Work>
    </rdf:RDF>
  </metadata>
  <g inkscape:label="Layer 1" id="layer1" inkscape:groupmode="layer" transform="translate(0,-1030.3622)">
    <g id="g3295" transform="matrix(0.31162168,0,0,0.31162168,1.0093203,723.39714)">
      <path class="ColorScheme-Text" id="path2395" d="m 38.537109,1.9726562 c -2.230796,-0.095306 -4.439948,0.5612675 -6.271484,1.8828126 l 1.041016,1.578125 c 1.709613,-1.2335766 3.845512,-1.7622667 5.945312,-1.46875 L 39.494141,2.0605469 C 39.17565,2.0160276 38.855795,1.9862714 38.537109,1.9726562 Z m -0.25,2.8007813 c -1.274542,-0.031458 -2.55744,0.2814011 -3.710937,0.9414063 l 1.164062,2.25 c 1.536142,-0.8789706 3.454452,-0.8310747 4.94336,0.1210937 1.488906,0.9521998 2.296473,2.6131165 2.154297,4.3300785 l 2.427734,0.222656 C 45.489674,9.9330528 44.191003,7.3301695 41.949219,5.8964844 40.828328,5.1796481 39.561653,4.8048959 38.287109,4.7734375 Z M 30.900391,5.0410156 C 30.48984,5.46908 30.118153,5.9328718 29.789062,6.4277344 l 1.503907,1.0976562 c 0.265893,-0.399809 0.568873,-0.775365 0.902343,-1.1230468 L 30.900391,5.0410156 Z m 14.58789,0.1757813 -1.326172,1.328125 c 0.781702,0.8551051 1.367058,1.865005 1.722657,2.9589843 L 47.623047,8.8847656 C 47.179947,7.5215777 46.451338,6.270271 45.488281,5.2167969 Z M 28.802734,8.3222656 c -0.414148,1.0556691 -0.647031,2.1715244 -0.6875,3.3066404 l 1.835938,0.07422 C 29.983547,10.795045 30.167229,9.8970248 30.5,9.0488281 L 28.802734,8.3222656 Z M 38.074219,8.4375 c -1.954818,0 -3.56836,1.611575 -3.56836,3.566406 0,1.9548 1.613542,3.56836 3.56836,3.56836 1.954817,0 3.566406,-1.61356 3.566406,-3.56836 0,-1.954831 -1.611589,-3.566406 -3.566406,-3.566406 z m -6.298828,0.1835938 c -1.668671,3.1708072 -0.757793,7.1497212 2.083984,9.2617182 l 1.40625,-2.09375 C 33.378026,14.386214 32.82723,11.913637 33.90625,9.8632812 L 31.775391,8.6210938 Z m 6.298828,2.3886722 c 0.564288,0 0.99414,0.429848 0.99414,0.99414 0,0.564261 -0.429852,0.996094 -0.99414,0.996094 -0.564289,0 -0.996094,-0.431833 -0.996094,-0.996094 0,-0.564292 0.431805,-0.99414 0.996094,-0.99414 z m 8.207031,0.978515 c 0,2.556052 -1.213889,4.969019 -3.296875,6.50586 l 1.058594,1.566406 c 2.550258,-1.881602 4.072265,-4.879069 4.072265,-8.072266 l -1.833984,0 z m -3.886719,2.060547 c -0.625957,1.303524 -1.835275,2.266675 -3.287109,2.576172 l 0.486328,2.511719 c 2.157596,-0.459944 3.999349,-1.902645 4.974609,-3.933594 l -2.173828,-1.154297 z m -10.851562,2.759766 -1.445313,1.177734 c 1.045661,1.403194 2.436711,2.507096 4.033203,3.201172 l 0.705079,-1.777344 c -1.310442,-0.569693 -2.446737,-1.465975 -3.292969,-2.601562 z m 5.205078,3.171875 -0.291016,1.894531 c 1.07651,0.181063 2.172435,0.184329 3.25,0.0098 l -0.279297,-1.896485 c -0.887674,0.14379 -1.792928,0.141221 -2.679687,-0.0078 z" inkscape:connector-curvature="0" style="font-style:normal;font-variant:normal;font-weight:normal;font-stretch:normal;font-size:medium;line-height:normal;font-family:sans-serif;text-indent:0;text-align:start;text-decoration:none;text-decoration-line:none;text-decoration-style:solid;text-decoration-color:#000000;letter-spacing:normal;word-spacing:normal;text-transform:none;direction:ltr;block-progression:tb;writing-mode:lr-tb;baseline-shift:baseline;text-anchor:start;white-space:normal;clip-rule:nonzero;display:inline;overflow:visible;visibility:visible;opacity:1;isolation:auto;mix-blend-mode:normal;color-interpolation:sRGB;color-interpolation-filters:linearRGB;solid-color:#000000;solid-opacity:1;fill:currentColor;fill-opacity:1;fill-rule:nonzero;stroke:none;stroke-width:2.06862187;stroke-linecap:butt;stroke-linejoin:miter;stroke-miterlimit:4;stroke-dasharray:none;stroke-dashoffset:0;stroke-opacity:1;marker:none;color-rendering:auto;image-rendering:auto;shape-rendering:auto;text-rendering:auto;enable-background:accumulate" transform="matrix(3.1845207,0,0,3.1845207,-89.531398,982.12847)"/>
    </g>
  </g>
</svg>
