<?xml version='1.0' encoding='UTF-8' standalone='no'?>
<!-- Created with Inkscape (http://www.inkscape.org/) -->
<svg xmlns="http://www.w3.org/2000/svg" xmlns:cc="http://creativecommons.org/ns#" xmlns:inkscape="http://www.inkscape.org/namespaces/inkscape" sodipodi:docname="firefox.svg" xmlns:sodipodi="http://sodipodi.sourceforge.net/DTD/sodipodi-0.dtd" version="1.0" xmlns:dc="http://purl.org/dc/elements/1.1/" inkscape:version="0.91 r13725" id="svg2783" xmlns:svg="http://www.w3.org/2000/svg" inkscape:output_extension="org.inkscape.output.svg.inkscape" xmlns:rdf="http://www.w3.org/1999/02/22-rdf-syntax-ns#" height="22" sodipodi:version="0.32" width="22">
  <defs id="defs2785">
    <style type="text/css" id="current-color-scheme"><![CDATA[
.ColorScheme-Text{ color:#c8c8c8; }

.ColorScheme-{ color:#eff0f1; }

.ColorScheme-NegativeText{ color:#da4453; }

.ColorScheme-PositiveText{ color:#27ae60; }

.ColorScheme-NeutralText{ color:#f67400; }
]]></style>
    <inkscape:perspective sodipodi:type="inkscape:persp3d" inkscape:vp_z="744.09448 : 526.18109 : 1" inkscape:persp3d-origin="372.04724 : 350.78739 : 1" inkscape:vp_x="0 : 526.18109 : 1" id="perspective2791" inkscape:vp_y="0 : 1000 : 0"/>
  </defs>
  <sodipodi:namedview inkscape:window-x="30" inkscape:current-layer="layer1" inkscape:window-y="0" inkscape:window-height="1080" bordercolor="#666666" inkscape:window-width="1890" borderopacity="1.0" inkscape:window-maximized="1" inkscape:pageshadow="2" id="base" pagecolor="#ffffff" inkscape:zoom="11.2" inkscape:cx="21.307314" inkscape:document-units="px" borderlayer="true" inkscape:cy="6.4025133" showgrid="false" inkscape:pageopacity="0.0"/>
  <metadata id="metadata2788">
    <rdf:RDF>
      <cc:Work rdf:about="">
        <dc:format>image/svg+xml</dc:format>
        <dc:type rdf:resource="http://purl.org/dc/dcmitype/StillImage"/>
        <dc:title/>
      </cc:Work>
    </rdf:RDF>
  </metadata>
  <g inkscape:label="Capa 1" id="layer1" inkscape:groupmode="layer" transform="translate(0,-106)">
    <path class="ColorScheme-Text" id="path159" d="m 13.76116,108.09789 c -0.327582,0.01 -0.48926,0.049 -0.485938,0.0528 0.0089,0.0105 2.3882,0.41706 2.809996,0.99829 0,0 -1.0113,-1.1e-4 -2.017703,0.29051 -0.04556,0.0131 3.702122,0.472 4.468525,4.22556 0,0 -0.411216,-0.85805 -0.919058,-1.00357 0.33364,1.01863 0.249369,2.94779 -0.06866,3.90864 -0.04134,0.12316 -0.08627,-0.5304 -0.713064,-0.81342 0.200352,1.44212 -0.01047,3.72786 -1.008851,4.35761 -0.07803,0.0489 0.626835,-2.26013 0.142613,-1.36803 -2.799465,4.30297 -6.0974246,1.96954 -7.5690309,0.96132 0.4866636,0.1078 1.2535195,0.0633 1.9120649,-0.10564 0.03051,-0.008 0.05987,-0.0128 0.08979,-0.0211 0.02879,-0.008 0.05628,-0.0179 0.08451,-0.0264 0.03744,-0.0114 0.07455,-0.0193 0.110921,-0.0317 0.01979,-0.007 0.03867,-0.0142 0.0581,-0.0211 0.04356,-0.0158 0.08497,-0.0302 0.126767,-0.0475 0.01134,-0.005 0.02051,-0.0112 0.03169,-0.0158 0.105361,-0.0439 0.202673,-0.0904 0.290506,-0.14262 0.0022,-10e-4 0.0031,-0.004 0.0053,-0.005 0.04566,-0.0267 0.08999,-0.0557 0.132049,-0.0845 0.694277,-0.47579 1.104593,-0.8213 1.473664,-0.73947 0.36865,0.0827 0.61388,-0.28941 0.327481,-0.61799 -0.286822,-0.32942 -0.980759,-0.7798 -1.92263,-0.53348 -0.664328,0.17421 -1.490083,0.90906 -2.7466114,0.16374 -0.9378102,-0.55729 -1.0483917,-1.02388 -1.0616727,-1.35217 -7.49e-5,-0.002 7.04e-5,-0.003 0,-0.005 0.024334,-0.12363 0.05243,-0.24386 0.089794,-0.34861 0.1358186,-0.38046 0.6106057,-0.43096 0.7341901,-0.52291 0.476629,0.0738 0.2269919,-0.20668 0.7394737,0 0.1400352,0.0565 -0.017894,-0.67439 -0.2165605,-1.1409 0.3829905,-0.80057 1.6291198,-1.03919 1.7219148,-1.10921 0.167874,-0.12738 0.07469,-0.18838 0.132049,-0.3803 0.05357,-0.17842 0.08518,-0.66148 -1.3046417,-0.52819 -0.6398642,0.0616 -1.044586,-0.77026 -1.1778737,-0.97188 0.043444,-0.25688 0.111936,-0.49309 0.2059963,-0.70778 0.095326,-0.19572 0.1973085,-0.37696 0.3010707,-0.51235 0.032478,-0.0426 0.064063,-0.0763 0.089794,-0.11092 0.2071009,-0.24211 0.4605016,-0.45076 0.7658826,-0.62327 0.1594372,-0.0903 -1.7837035,-0.006 -2.6568212,1.13562 -0.2345174,0.0304 -0.5544057,-0.037 -0.913776,-0.037 -0.035101,0 -0.066416,0.005 -0.100358,0.005 0.068362,-0.0425 0.1342376,-0.0851 0.2059964,-0.1162 -0.1348531,0.004 -0.321474,0.0447 -0.5176311,0.13205 -0.2319959,0.018 -0.4381438,0.0445 -0.6338338,0.0898 0.045412,-0.0209 0.092634,-0.0368 0.1373309,-0.0528 -0.04987,-0.002 -0.1112423,0.005 -0.1795859,0.0159 0.1433644,-0.0642 0.3116347,-0.12677 0.3116347,-0.12677 0,0 -0.2760303,0.0785 -0.7922913,-0.037 -0.3563895,-0.36143 -0.9141588,-0.97651 -0.9454686,-1.79058 -1.5e-6,0 -1.1864288,0.91087 -1.0088535,3.40157 -0.00103,0.0906 -0.00106,0.17214 -0.00528,0.24825 -0.4124067,0.45786 -0.9197237,1.42052 -1.29407789,3.53363 0,0 0.16613629,-0.52762 0.49650279,-1.11977 -0.2436973,0.74417 -0.4397497,1.90177 -0.327481,3.64454 0,0 0.053024,-0.67684 0.2640977,-1.52648 -0.048615,1.23553 0.2004315,2.80494 1.2095662,4.53719 2.0469748,3.5144 5.4838031,5.06674 9.0479754,4.76431 0.623837,-0.0409 1.253585,-0.13338 1.880375,-0.28522 8.304733,-2.01365 7.400007,-12.06397 7.400007,-12.06397 l -0.232407,1.48951 c 0,0 -0.328845,-2.75629 -0.73419,-3.78715 -0.62257,-1.58005 -0.901526,-1.56557 -0.903213,-1.56346 0.416312,1.06124 0.343327,1.62684 0.343327,1.62684 0,0 -0.741724,-2.01527 -2.693794,-2.65682 -1.444386,-0.47452 -2.443611,-0.54438 -2.989582,-0.5282 z" inkscape:connector-curvature="0" style="opacity:1;fill:currentColor"/>
  </g>
</svg>
