<?xml version="1.0" encoding="UTF-8" standalone="no"?>
<!-- Created with Inkscape (http://www.inkscape.org/) -->

<svg
   xmlns:dc="http://purl.org/dc/elements/1.1/"
   xmlns:cc="http://creativecommons.org/ns#"
   xmlns:rdf="http://www.w3.org/1999/02/22-rdf-syntax-ns#"
   xmlns:svg="http://www.w3.org/2000/svg"
   xmlns="http://www.w3.org/2000/svg"
   xmlns:sodipodi="http://sodipodi.sourceforge.net/DTD/sodipodi-0.dtd"
   xmlns:inkscape="http://www.inkscape.org/namespaces/inkscape"
   sodipodi:docname="fm8.svg"
   version="1.1"
   inkscape:version="0.91 r13725"
   id="svg2"
   inkscape:output_extension="org.inkscape.output.svg.inkscape"
   height="22"
   sodipodi:version="0.32"
   width="22">
  <metadata
     id="metadata10">
    <rdf:RDF>
      <cc:Work
         rdf:about="">
        <dc:format>image/svg+xml</dc:format>
        <dc:type
           rdf:resource="http://purl.org/dc/dcmitype/StillImage" />
        <dc:title></dc:title>
      </cc:Work>
    </rdf:RDF>
  </metadata>
  <sodipodi:namedview
     inkscape:window-x="30"
     inkscape:current-layer="layer4"
     inkscape:window-y="0"
     inkscape:window-height="1080"
     gridtolerance="10.0"
     guidetolerance="10.0"
     bordercolor="#666666"
     inkscape:window-width="1890"
     borderopacity="1.0"
     inkscape:window-maximized="1"
     inkscape:pageshadow="2"
     id="base"
     pagecolor="#ffffff"
     inkscape:zoom="15.4375"
     inkscape:cx="3.2935359"
     inkscape:cy="23.088542"
     showgrid="true"
     inkscape:pageopacity="0.0"
     objecttolerance="10.0">
    <inkscape:grid
       type="xygrid"
       id="grid4160" />
  </sodipodi:namedview>
  <defs
     id="defs4">
    <style
       type="text/css"
       id="current-color-scheme"><![CDATA[
.ColorScheme-Text{ color:#c8c8c8; }

.ColorScheme-{ color:#eff0f1; }

.ColorScheme-NegativeText{ color:#da4453; }

.ColorScheme-PositiveText{ color:#27ae60; }

.ColorScheme-NeutralText{ color:#f67400; }
]]></style>
    <inkscape:perspective
       sodipodi:type="inkscape:persp3d"
       inkscape:vp_z="128 : 64 : 1"
       inkscape:persp3d-origin="64 : 42.666667 : 1"
       inkscape:vp_x="0 : 64 : 1"
       id="perspective12"
       inkscape:vp_y="0 : 1000 : 0" />
  </defs>
  <g
     id="layer1"
     inkscape:groupmode="layer"
     transform="translate(0,-106)" />
  <g
     id="layer2"
     inkscape:groupmode="layer"
     style="opacity:1"
     transform="translate(0,-106)" />
  <g
     id="layer3"
     inkscape:groupmode="layer"
     style="opacity:1"
     transform="translate(0,-106)" />
  <g
     id="layer4"
     inkscape:groupmode="layer"
     style="opacity:1"
     transform="translate(0,-106)">
    <path
       class="ColorScheme-Text"
       style="fill:currentColor"
       d="m 9.2480064,126.8805 c -1.937515,-0.31731 -3.6736758,-1.15849 -4.9616859,-2.40398 -0.2521905,-0.24385 -0.357739,-0.39291 -0.357739,-0.50519 0,-0.18973 0.2970105,-0.49197 1.255714,-1.27777 0.8218978,-0.67369 0.9124213,-0.68893 1.439903,-0.24259 0.3863893,0.32694 1.3342859,0.84956 1.9865346,1.09525 0.6557513,0.24701 1.5918709,0.40817 2.3704789,0.40807 1.702782,-1.8e-4 3.253435,-0.52925 4.509602,-1.53852 0.208038,-0.16719 0.395455,-0.26702 0.501097,-0.26702 0.239516,0 1.87169,1.30314 1.987541,1.58685 0.112012,0.27432 0.03613,0.40579 -0.519002,0.89918 -1.372218,1.21964 -3.058313,1.99321 -4.954112,2.27291 -0.885563,0.1306 -2.370093,0.11835 -3.2583316,-0.0272 z m -6.2614423,-3.99244 c -0.3065296,-0.11247 -1.0946319,-1.52552 -1.4797023,-2.65313 -0.3406484,-0.99753 -0.4442497,-1.57697 -0.4833086,-2.70323 -0.0664641,-1.91649 0.2507347,-3.41381 1.0679352,-5.04106 0.4012153,-0.7989 0.5661424,-1.06577 1.0344198,-1.67372 1.5488423,-2.01084 3.7503066,-3.33081 6.2305026,-3.73574 1.1544332,-0.18849 1.1673372,-0.17232 1.1661672,1.46143 -6.22e-4,0.65158 -0.01693,1.24465 -0.03658,1.31794 -0.04828,0.18008 -0.332175,0.31141 -0.9208576,0.426 -1.7067267,0.33221 -3.6463384,1.82147 -4.6038038,3.53488 -0.5996952,1.07317 -0.8643412,2.04171 -0.8718132,3.19064 -0.0056,0.86012 0.077831,1.34848 0.369224,2.16127 0.1551025,0.43263 0.6794803,1.52965 0.7808917,1.63365 0.1084107,0.11113 0.061954,0.4585 -0.082305,0.61535 -0.2089633,0.22721 -1.5811571,1.3455 -1.7754686,1.44695 -0.1916486,0.10005 -0.1757649,0.0994 -0.3953048,0.0188 z m 15.6559809,-0.0514 c -0.159832,-0.0695 -1.573417,-1.20312 -1.757587,-1.40957 -0.07699,-0.0863 -0.13999,-0.22386 -0.13999,-0.30567 0,-0.0817 0.151647,-0.43748 0.336997,-0.79037 0.963618,-1.83472 1.148764,-3.45808 0.591563,-5.18682 -0.09933,-0.30821 -0.278576,-0.7425 -0.39831,-0.96508 -0.119728,-0.2226 -0.252221,-0.47476 -0.294416,-0.56037 -0.151631,-0.30764 -0.580731,-0.84979 -1.072595,-1.35515 -1.028334,-1.05657 -2.21708,-1.73046 -3.549431,-2.01218 -0.855936,-0.18097 -0.839909,-0.14889 -0.839909,-1.68226 0,-1.23843 7.47e-4,-1.24538 0.152714,-1.39744 0.178926,-0.17907 0.426469,-0.19262 1.153811,-0.0631 3.001842,0.53415 5.610835,2.49859 7.029909,5.29316 0.763465,1.50348 1.11329,2.97309 1.123238,4.71872 0.004,0.71796 -0.11218,1.75945 -0.259008,2.31994 -0.279448,1.06673 -1.007656,2.62899 -1.500688,3.21949 -0.15683,0.18784 -0.38782,0.25871 -0.576303,0.17681 z m -8.529743,-6.19191 c -0.174552,-0.17468 -0.2119061,-0.25904 -0.213673,-0.48253 -0.013519,-1.71011 0.017483,-3.13164 0.070857,-3.24889 0.105076,-0.23078 0.305677,-0.31165 0.845303,-0.34076 0.639924,-0.0346 0.893937,0.0134 1.100406,0.20409 l 0.163117,0.15124 0,1.75041 c 0,1.08149 -0.02448,1.79621 -0.06406,1.87022 -0.123094,0.23017 -0.390333,0.30787 -1.058951,0.30787 l -0.631469,0 -0.211532,-0.2117 z"
       id="path4222"
       inkscape:connector-curvature="0" />
  </g>
</svg>
