<?xml version='1.0' encoding='UTF-8' standalone='no'?>
<!-- Created with Inkscape (http://www.inkscape.org/) -->
<svg xmlns="http://www.w3.org/2000/svg" xmlns:cc="http://creativecommons.org/ns#" xmlns:inkscape="http://www.inkscape.org/namespaces/inkscape" sodipodi:docname="freewheeling.svg" xmlns:sodipodi="http://sodipodi.sourceforge.net/DTD/sodipodi-0.dtd" version="1.1" xmlns:dc="http://purl.org/dc/elements/1.1/" inkscape:version="0.91 r13725" id="svg2" xmlns:svg="http://www.w3.org/2000/svg" inkscape:output_extension="org.inkscape.output.svg.inkscape" xmlns:rdf="http://www.w3.org/1999/02/22-rdf-syntax-ns#" height="22" sodipodi:version="0.32" width="22">
  <defs id="defs4">
    <style type="text/css" id="current-color-scheme"><![CDATA[
.ColorScheme-Text{ color:#c8c8c8; }

.ColorScheme-NegativeText{ color:#da4453; }

.ColorScheme-PositiveText{ color:#27ae60; }

.ColorScheme-NeutralText{ color:#f67400; }
]]></style>
    <inkscape:perspective sodipodi:type="inkscape:persp3d" inkscape:vp_z="744.09448 : 526.18109 : 1" inkscape:persp3d-origin="372.04724 : 350.78739 : 1" inkscape:vp_x="0 : 526.18109 : 1" id="perspective10" inkscape:vp_y="0 : 1000 : 0"/>
  </defs>
  <sodipodi:namedview inkscape:current-layer="layer2" inkscape:window-width="1882" inkscape:window-height="1080" inkscape:pageopacity="0" inkscape:cy="12.827284" inkscape:document-units="px" inkscape:window-y="0" inkscape:pageshadow="2" id="base" borderopacity="1.0" inkscape:zoom="38.822334" pagecolor="#202020" inkscape:window-x="38" bordercolor="#666666" inkscape:cx="11.228927" inkscape:window-maximized="1" showgrid="true">
    <inkscape:grid enabled="true" visible="true" empspacing="8" type="xygrid" id="grid2816" snapvisiblegridlinesonly="true"/>
  </sodipodi:namedview>
  <metadata id="metadata7">
    <rdf:RDF>
      <cc:Work rdf:about="">
        <dc:format>image/svg+xml</dc:format>
        <dc:type rdf:resource="http://purl.org/dc/dcmitype/StillImage"/>
        <dc:title/>
      </cc:Work>
    </rdf:RDF>
  </metadata>
  <g inkscape:label="Layer 1" id="layer1" inkscape:groupmode="layer" style="opacity:1" transform="translate(0,-1030.3622)"/>
  <g id="layer2" inkscape:groupmode="layer" style="opacity:0.66000001" transform="translate(0,-106)">
    <g class="ColorScheme-Text" id="g4148" style="fill:currentColor" transform="matrix(0.15625,0,0,0.15625,0.94628906,106.96582)">
      <g class="ColorScheme-Text" id="g10" style="opacity:1;fill:currentColor" transform="translate(0,-924.3622)">
        <g class="ColorScheme-NeutralText">
          <path class="ColorScheme-Text" id="path2433" d="m 63.28125,19.78125 c -5.22447,0.0082 -10.403098,0.934034 -15.3125,2.71875 -23.349254,8.488161 -35.373432,34.272717 -26.875,57.59375 8.498432,23.32103 34.306996,35.36316 57.65625,26.875 23.34925,-8.488161 35.37343,-34.272717 26.875,-57.59375 l -7.78125,2.8125 c 0.704614,0.381577 1.535098,1.098094 1.84375,2.25 0.37871,1.413383 -0.280225,2.699841 -0.78125,3.3125 -0.501025,0.612659 -0.964935,0.933589 -1.4375,1.25 -0.466516,0.312361 -0.955455,0.523181 -1.4375,0.78125 0.534367,0.124838 1.060308,0.224602 1.59375,0.40625 0.538356,0.183321 1.076229,0.381642 1.71875,0.84375 0.642521,0.462108 1.59375,1.505509 1.59375,2.96875 0,1.463241 -0.951229,2.506642 -1.59375,2.96875 -0.642521,0.462108 -1.180394,0.660429 -1.71875,0.84375 -0.533442,0.181648 -1.059383,0.281412 -1.59375,0.40625 0.482045,0.258069 0.970984,0.468889 1.4375,0.78125 0.472565,0.316411 0.936475,0.637341 1.4375,1.25 0.501025,0.612659 1.15997,1.899117 0.78125,3.3125 -0.378714,1.413383 -1.57227,2.188684 -2.3125,2.46875 -0.74023,0.28007 -1.338791,0.33726 -1.90625,0.375 -0.546053,0.03631 -1.060649,-0.01502 -1.59375,-0.03125 0.39031,0.367025 0.794128,0.711283 1.15625,1.125 0.374569,0.427938 0.737114,0.872292 1.0625,1.59375 0.325386,0.721458 0.637871,2.107796 -0.09375,3.375 -0.731621,1.267204 -2.087506,1.70231 -2.875,1.78125 -0.787494,0.07894 -1.37961,-0.01458 -1.9375,-0.125 -0.547822,-0.108425 -1.041812,-0.311369 -1.5625,-0.46875 0.288393,0.464467 0.595944,0.902538 0.84375,1.40625 0.251047,0.510302 0.497429,1.031409 0.625,1.8125 0.127571,0.781091 0.06592,2.215332 -0.96875,3.25 -1.034668,1.03467 -2.468909,1.096321 -3.25,0.96875 -0.781091,-0.127571 -1.302198,-0.373953 -1.8125,-0.625 -0.503712,-0.247806 -0.941783,-0.555357 -1.40625,-0.84375 0.157381,0.520688 0.360325,1.014678 0.46875,1.5625 0.11042,0.55789 0.20394,1.150006 0.125,1.9375 -0.07894,0.787494 -0.514046,2.143379 -1.78125,2.875 -1.267205,0.73162 -2.653542,0.419136 -3.375,0.09375 C 78.372292,95.768364 77.927938,95.405819 77.5,95.03125 77.086283,94.669128 76.742025,94.26531 76.375,93.875 c 0.01623,0.533101 0.06756,1.047697 0.03125,1.59375 -0.03774,0.567458 -0.09493,1.16602 -0.375,1.90625 -0.280066,0.74023 -1.055368,1.933786 -2.46875,2.3125 -1.413383,0.37871 -2.699841,-0.280225 -3.3125,-0.78125 -0.612659,-0.501025 -0.933589,-0.964935 -1.25,-1.4375 -0.312361,-0.466516 -0.523181,-0.955455 -0.78125,-1.4375 -0.124838,0.534367 -0.224602,1.060308 -0.40625,1.59375 -0.183321,0.538356 -0.381642,1.076229 -0.84375,1.71875 -0.462108,0.642521 -1.505509,1.59375 -2.96875,1.59375 -1.463241,0 -2.506642,-0.951229 -2.96875,-1.59375 C 60.569142,98.701229 60.370821,98.163356 60.1875,97.625 60.005852,97.091558 59.906088,96.565617 59.78125,96.03125 59.523181,96.513295 59.312361,97.002234 59,97.46875 c -0.316411,0.472565 -0.637341,0.936475 -1.25,1.4375 -0.612659,0.501025 -1.899117,1.15997 -3.3125,0.78125 -1.413383,-0.378714 -2.188684,-1.57227 -2.46875,-2.3125 -0.28007,-0.74023 -0.33726,-1.338791 -0.375,-1.90625 -0.03631,-0.546053 0.01502,-1.060649 0.03125,-1.59375 -0.367025,0.39031 -0.711283,0.794128 -1.125,1.15625 -0.427938,0.374569 -0.872292,0.737114 -1.59375,1.0625 C 48.184792,96.419136 46.798454,96.731621 45.53125,96 44.264046,95.268379 43.82894,93.912494 43.75,93.125 c -0.07894,-0.787494 0.01458,-1.37961 0.125,-1.9375 0.108425,-0.547822 0.311369,-1.041812 0.46875,-1.5625 -0.464467,0.288393 -0.902538,0.595944 -1.40625,0.84375 -0.510302,0.251047 -1.031409,0.497429 -1.8125,0.625 -0.781091,0.127571 -2.215332,0.06592 -3.25,-0.96875 -1.03467,-1.034668 -1.096321,-2.468909 -0.96875,-3.25 0.127571,-0.781091 0.373953,-1.302198 0.625,-1.8125 0.247806,-0.503712 0.555357,-0.941783 0.84375,-1.40625 -0.520688,0.157381 -1.014678,0.360325 -1.5625,0.46875 -0.55789,0.11042 -1.150006,0.20394 -1.9375,0.125 -0.787494,-0.07894 -2.143379,-0.514046 -2.875,-1.78125 -0.73162,-1.267205 -0.419136,-2.653542 -0.09375,-3.375 0.325386,-0.721458 0.687931,-1.165812 1.0625,-1.59375 0.362122,-0.413717 0.76594,-0.757975 1.15625,-1.125 -0.533101,0.01623 -1.047697,0.06756 -1.59375,0.03125 -0.567458,-0.03774 -1.16602,-0.09493 -1.90625,-0.375 -0.74023,-0.280066 -1.933786,-1.055368 -2.3125,-2.46875 -0.378715,-1.413383 0.280225,-2.699841 0.78125,-3.3125 0.501025,-0.612659 0.964935,-0.933589 1.4375,-1.25 0.466516,-0.312361 0.955455,-0.523181 1.4375,-0.78125 C 31.434383,68.093912 30.908442,67.994148 30.375,67.8125 29.836644,67.629179 29.298771,67.430858 28.65625,66.96875 28.013729,66.506642 27.0625,65.463241 27.0625,64 c 0,-1.463241 0.951229,-2.506642 1.59375,-2.96875 0.642521,-0.462108 1.180394,-0.660429 1.71875,-0.84375 0.533442,-0.181648 1.059383,-0.281412 1.59375,-0.40625 C 31.486705,59.523181 30.997766,59.312361 30.53125,59 c -0.472565,-0.316411 -0.936475,-0.637341 -1.4375,-1.25 -0.501025,-0.612659 -1.159966,-1.899117 -0.78125,-3.3125 0.378714,-1.413383 1.57227,-2.188684 2.3125,-2.46875 0.74023,-0.28007 1.338791,-0.33726 1.90625,-0.375 0.546053,-0.03631 1.060649,0.01502 1.59375,0.03125 -0.39031,-0.367025 -0.794128,-0.711283 -1.15625,-1.125 -0.374569,-0.427938 -0.737114,-0.872292 -1.0625,-1.59375 -0.325386,-0.721458 -0.637871,-2.107796 0.09375,-3.375 0.731621,-1.267204 2.087506,-1.70231 2.875,-1.78125 0.787494,-0.07894 1.37961,0.01458 1.9375,0.125 0.547822,0.108425 1.041812,0.311369 1.5625,0.46875 -0.288393,-0.464467 -0.595944,-0.902538 -0.84375,-1.40625 -0.251047,-0.510302 -0.497429,-1.031409 -0.625,-1.8125 -0.127571,-0.781091 -0.06592,-2.215332 0.96875,-3.25 1.034668,-1.03467 2.468909,-1.096321 3.25,-0.96875 0.781091,0.127571 1.302198,0.373953 1.8125,0.625 0.503712,0.247806 0.941783,0.555357 1.40625,0.84375 C 44.186369,37.854312 43.983425,37.360322 43.875,36.8125 43.76458,36.25461 43.67106,35.662494 43.75,34.875 43.82894,34.087506 44.264046,32.731621 45.53125,32 c 1.267205,-0.73162 2.653542,-0.419136 3.375,-0.09375 0.721458,0.325386 1.165812,0.687931 1.59375,1.0625 0.413717,0.362122 0.757975,0.76594 1.125,1.15625 -0.01623,-0.533101 -0.06756,-1.047697 -0.03125,-1.59375 0.03774,-0.567458 0.09493,-1.16602 0.375,-1.90625 0.280066,-0.74023 1.055368,-1.933786 2.46875,-2.3125 1.413383,-0.378715 2.699841,0.280225 3.3125,0.78125 0.612659,0.501025 0.933589,0.964935 1.25,1.4375 0.312361,0.466516 0.523181,0.955455 0.78125,1.4375 0.124838,-0.534367 0.224602,-1.060308 0.40625,-1.59375 0.183321,-0.538356 0.381642,-1.076229 0.84375,-1.71875 0.383108,-0.532678 1.159828,-1.292142 2.25,-1.53125 l 0,-7.34375 z m -5.71875,20.1875 c -0.04412,0.232674 -0.03785,0.422986 -0.125,0.6875 -0.233236,0.707941 -0.784786,1.819865 -2.125,2.375 -1.340215,0.555135 -2.521987,0.148167 -3.1875,-0.1875 -0.260809,-0.131545 -0.390569,-0.297315 -0.59375,-0.4375 0.01957,0.24498 0.0789,0.42859 0.0625,0.71875 -0.04206,0.744185 -0.255382,1.991907 -1.40625,2.875 -1.150868,0.883092 -2.395287,0.776982 -3.125,0.625 -0.285602,-0.05948 -0.455205,-0.16731 -0.6875,-0.25 0.08269,0.232295 0.19052,0.401898 0.25,0.6875 0.151982,0.729713 0.258093,1.974132 -0.625,3.125 -0.883092,1.150868 -2.130815,1.36419 -2.875,1.40625 -0.29016,0.0164 -0.47377,-0.04293 -0.71875,-0.0625 0.140185,0.203181 0.305955,0.332941 0.4375,0.59375 0.335667,0.665513 0.742635,1.847285 0.1875,3.1875 -0.555135,1.340215 -1.667059,1.891764 -2.375,2.125 -0.264514,0.08715 -0.454827,0.08088 -0.6875,0.125 0.177312,0.153175 0.348,0.232295 0.53125,0.4375 0.496477,0.555959 1.189346,1.593023 1,3.03125 -0.189346,1.438228 -1.126547,2.247733 -1.75,2.65625 -0.249381,0.163407 -0.460227,0.20533 -0.6875,0.3125 0.227273,0.10717 0.438119,0.149093 0.6875,0.3125 0.623453,0.408517 1.560654,1.218022 1.75,2.65625 0.189346,1.438227 -0.503523,2.475291 -1,3.03125 -0.18325,0.205205 -0.353938,0.284325 -0.53125,0.4375 0.232674,0.04412 0.422986,0.03785 0.6875,0.125 0.707941,0.233236 1.819865,0.784786 2.375,2.125 0.555135,1.340215 0.148167,2.521987 -0.1875,3.1875 -0.131545,0.260809 -0.297315,0.390569 -0.4375,0.59375 0.24498,-0.01957 0.42859,-0.0789 0.71875,-0.0625 0.744185,0.04206 1.991907,0.255382 2.875,1.40625 0.883092,1.150868 0.776982,2.395287 0.625,3.125 -0.05948,0.285602 -0.16731,0.455205 -0.25,0.6875 0.232295,-0.08269 0.401898,-0.19052 0.6875,-0.25 0.729713,-0.151982 1.974132,-0.258093 3.125,0.625 1.150868,0.883092 1.36419,2.130815 1.40625,2.875 0.0164,0.29016 -0.04293,0.47377 -0.0625,0.71875 0.203181,-0.140185 0.332941,-0.305955 0.59375,-0.4375 0.665513,-0.335667 1.847285,-0.742635 3.1875,-0.1875 1.340215,0.555135 1.891764,1.667059 2.125,2.375 0.08715,0.264514 0.08088,0.454827 0.125,0.6875 0.153175,-0.177312 0.232295,-0.348 0.4375,-0.53125 0.555959,-0.496477 1.593023,-1.189346 3.03125,-1 1.438228,0.189346 2.247733,1.126547 2.65625,1.75 0.163407,0.249381 0.20533,0.460227 0.3125,0.6875 0.10717,-0.227273 0.149093,-0.438119 0.3125,-0.6875 0.408517,-0.623453 1.218022,-1.560654 2.65625,-1.75 1.438227,-0.189346 2.475291,0.503523 3.03125,1 0.205205,0.18325 0.284325,0.353938 0.4375,0.53125 0.04412,-0.232674 0.03785,-0.422986 0.125,-0.6875 0.233236,-0.707941 0.784786,-1.819865 2.125,-2.375 1.340215,-0.555135 2.521987,-0.148167 3.1875,0.1875 0.260809,0.131545 0.390569,0.297315 0.59375,0.4375 -0.01957,-0.24498 -0.0789,-0.42859 -0.0625,-0.71875 0.04206,-0.744185 0.255382,-1.991907 1.40625,-2.875 1.150868,-0.883092 2.395287,-0.776982 3.125,-0.625 0.285602,0.05948 0.455205,0.16731 0.6875,0.25 -0.08269,-0.232295 -0.19052,-0.401898 -0.25,-0.6875 -0.151982,-0.729713 -0.258093,-1.974132 0.625,-3.125 0.883092,-1.150868 2.130815,-1.36419 2.875,-1.40625 0.29016,-0.0164 0.47377,0.04293 0.71875,0.0625 -0.140185,-0.203181 -0.305955,-0.332941 -0.4375,-0.59375 -0.335667,-0.665513 -0.742635,-1.847285 -0.1875,-3.1875 0.555135,-1.340215 1.667059,-1.891764 2.375,-2.125 0.264514,-0.08715 0.454827,-0.08088 0.6875,-0.125 C 87.853938,70.284325 87.68325,70.205205 87.5,70 87.003523,69.444041 86.310654,68.406977 86.5,66.96875 86.689346,65.530522 87.626547,64.721017 88.25,64.3125 88.499381,64.149093 88.710227,64.10717 88.9375,64 88.710227,63.89283 88.499381,63.850907 88.25,63.6875 87.626547,63.278983 86.689346,62.469478 86.5,61.03125 86.310654,59.593023 87.003523,58.555959 87.5,58 c 0.18325,-0.205205 0.353938,-0.284325 0.53125,-0.4375 -0.232674,-0.04412 -0.422986,-0.03785 -0.6875,-0.125 -0.423885,-0.139652 -0.992691,-0.406145 -1.5,-0.875 l -22.5,8.15625 L 63.3125,40.25 C 62.845067,40.785483 62.109921,41.35799 61.03125,41.5 59.593023,41.689346 58.555959,40.996477 58,40.5 57.794795,40.31675 57.715675,40.146062 57.5625,39.96875 Z" inkscape:connector-curvature="0" style="opacity:1;fill:currentColor;fill-opacity:1;stroke:none" transform="translate(0,924.36218)"/>
        </g>
      </g>
      <g class="ColorScheme-NeutralText">
        <g class="ColorScheme-Text" id="g13" style="opacity:1;fill:currentColor" transform="translate(0,-924.3622)"/>
      </g>
      <path class="ColorScheme-Text" id="path2435" d="m 64.34375,0.21875 c -35.327999,0 -64,28.672 -64,64 0,35.327997 28.672001,64 64,64 35.327999,0 64,-28.672003 64,-64 -1.06862,-31.325463 -28.8973,-63.74039885 -64,-64 z m -1.0625,19.625 0,7.28125 c 0.224803,-0.04931 0.4686,-0.0625 0.71875,-0.0625 1.463241,0 2.506642,0.951229 2.96875,1.59375 0.462108,0.642521 0.660429,1.180394 0.84375,1.71875 0.181648,0.533442 0.281412,1.059383 0.40625,1.59375 0.258069,-0.482045 0.468889,-0.970984 0.78125,-1.4375 0.316411,-0.472565 0.637341,-0.936475 1.25,-1.4375 0.612659,-0.501025 1.899117,-1.159966 3.3125,-0.78125 1.413383,0.378714 2.188684,1.57227 2.46875,2.3125 0.28007,0.74023 0.33726,1.338791 0.375,1.90625 0.03631,0.546053 -0.01502,1.060649 -0.03125,1.59375 0.367025,-0.39031 0.711283,-0.794128 1.125,-1.15625 0.427938,-0.374569 0.872292,-0.737114 1.59375,-1.0625 0.721458,-0.325386 2.107796,-0.637871 3.375,0.09375 1.267204,0.731621 1.70231,2.087506 1.78125,2.875 0.07894,0.787494 -0.01458,1.37961 -0.125,1.9375 -0.108425,0.547822 -0.311369,1.041812 -0.46875,1.5625 0.464467,-0.288393 0.902538,-0.595944 1.40625,-0.84375 0.510302,-0.251047 1.031409,-0.497429 1.8125,-0.625 0.781091,-0.127571 2.215332,-0.06592 3.25,0.96875 1.03467,1.034668 1.096321,2.468909 0.96875,3.25 -0.127571,0.781091 -0.373953,1.302198 -0.625,1.8125 -0.247806,0.503712 -0.555357,0.941783 -0.84375,1.40625 0.520688,-0.157381 1.014678,-0.360325 1.5625,-0.46875 0.55789,-0.11042 1.150006,-0.20394 1.9375,-0.125 0.787494,0.07894 2.143379,0.514046 2.875,1.78125 0.73162,1.267205 0.419136,2.653542 0.09375,3.375 -0.325386,0.721458 -0.687931,1.165812 -1.0625,1.59375 -0.362122,0.413717 -0.76594,0.757975 -1.15625,1.125 0.533101,-0.01623 1.047697,-0.06756 1.59375,-0.03125 0.567458,0.03774 1.16602,0.09493 1.90625,0.375 0.148046,0.05601 0.325833,0.153225 0.5,0.25 l 7.75,-2.8125 C 114.11905,72.715258 102.05597,98.51622 78.71875,107 55.381532,115.48378 29.556551,103.46526 21.0625,80.15625 c -8.494051,-23.309008 3.569034,-49.141216 26.90625,-57.625 5.162671,-1.876788 9.818505,-2.678867 15.3125,-2.6875 z M 64,39.0625 c -0.10717,0.227273 -0.149093,0.438119 -0.3125,0.6875 -0.102129,0.155863 -0.219189,0.321506 -0.375,0.5 l 0.03125,24.53125 22.53125,-8.1875 c -0.352873,-0.317976 -0.676222,-0.725913 -0.90625,-1.28125 -0.555135,-1.340215 -0.148167,-2.521987 0.1875,-3.1875 0.131545,-0.260809 0.297315,-0.390569 0.4375,-0.59375 -0.24498,0.01957 -0.42859,0.0789 -0.71875,0.0625 C 84.130815,51.55169 82.883093,51.338368 82,50.1875 c -0.883092,-1.150868 -0.776982,-2.395287 -0.625,-3.125 0.05948,-0.285602 0.16731,-0.455205 0.25,-0.6875 -0.232295,0.08269 -0.401898,0.19052 -0.6875,0.25 -0.729713,0.151982 -1.974132,0.258093 -3.125,-0.625 -1.150868,-0.883092 -1.36419,-2.130815 -1.40625,-2.875 -0.0164,-0.29016 0.04293,-0.47377 0.0625,-0.71875 -0.203181,0.140185 -0.332941,0.305955 -0.59375,0.4375 -0.665513,0.335667 -1.847285,0.742635 -3.1875,0.1875 -1.340215,-0.555135 -1.891764,-1.667059 -2.125,-2.375 -0.08715,-0.264514 -0.08088,-0.454827 -0.125,-0.6875 -0.153175,0.177312 -0.232295,0.348 -0.4375,0.53125 -0.555959,0.496477 -1.593023,1.189346 -3.03125,1 C 65.530522,41.310654 64.721017,40.373453 64.3125,39.75 64.149093,39.500619 64.10717,39.289773 64,39.0625 Z" inkscape:connector-curvature="0" style="fill:currentColor;fill-opacity:0.25098039;stroke:none"/>
    </g>
  </g>
</svg>
