<?xml version="1.0" encoding="UTF-8" standalone="no"?>
<!-- Created with Inkscape (http://www.inkscape.org/) -->

<svg
   xmlns:dc="http://purl.org/dc/elements/1.1/"
   xmlns:cc="http://creativecommons.org/ns#"
   xmlns:rdf="http://www.w3.org/1999/02/22-rdf-syntax-ns#"
   xmlns:svg="http://www.w3.org/2000/svg"
   xmlns="http://www.w3.org/2000/svg"
   xmlns:sodipodi="http://sodipodi.sourceforge.net/DTD/sodipodi-0.dtd"
   xmlns:inkscape="http://www.inkscape.org/namespaces/inkscape"
   sodipodi:docname="guitar_rig.svg"
   version="1.1"
   inkscape:version="0.91 r13725"
   id="svg2"
   inkscape:output_extension="org.inkscape.output.svg.inkscape"
   height="22"
   sodipodi:version="0.32"
   width="22">
  <metadata
     id="metadata10">
    <rdf:RDF>
      <cc:Work
         rdf:about="">
        <dc:format>image/svg+xml</dc:format>
        <dc:type
           rdf:resource="http://purl.org/dc/dcmitype/StillImage" />
        <dc:title></dc:title>
      </cc:Work>
    </rdf:RDF>
  </metadata>
  <sodipodi:namedview
     inkscape:window-x="30"
     inkscape:current-layer="layer4"
     inkscape:window-y="0"
     inkscape:window-height="1080"
     gridtolerance="10.0"
     guidetolerance="10.0"
     bordercolor="#666666"
     inkscape:window-width="1890"
     borderopacity="1.0"
     inkscape:window-maximized="1"
     inkscape:pageshadow="2"
     id="base"
     pagecolor="#ffffff"
     inkscape:zoom="15.4375"
     inkscape:cx="9.6375566"
     inkscape:cy="-1.7981204"
     showgrid="true"
     inkscape:pageopacity="0.0"
     objecttolerance="10.0">
    <inkscape:grid
       type="xygrid"
       id="grid4160" />
  </sodipodi:namedview>
  <defs
     id="defs4">
    <style
       type="text/css"
       id="current-color-scheme"><![CDATA[
.ColorScheme-Text{ color:#c8c8c8; }

.ColorScheme-{ color:#eff0f1; }

.ColorScheme-NegativeText{ color:#da4453; }

.ColorScheme-PositiveText{ color:#27ae60; }

.ColorScheme-NeutralText{ color:#f67400; }
]]></style>
    <inkscape:perspective
       sodipodi:type="inkscape:persp3d"
       inkscape:vp_z="128 : 64 : 1"
       inkscape:persp3d-origin="64 : 42.666667 : 1"
       inkscape:vp_x="0 : 64 : 1"
       id="perspective12"
       inkscape:vp_y="0 : 1000 : 0" />
  </defs>
  <g
     id="layer1"
     inkscape:groupmode="layer"
     transform="translate(0,-106)" />
  <g
     id="layer2"
     inkscape:groupmode="layer"
     style="opacity:1"
     transform="translate(0,-106)" />
  <g
     id="layer3"
     inkscape:groupmode="layer"
     style="opacity:1"
     transform="translate(0,-106)" />
  <g
     id="layer4"
     inkscape:groupmode="layer"
     style="opacity:1"
     transform="translate(0,-106)">
    <path
       class="ColorScheme-Text"
       style="fill:currentColor"
       d="m 9.9928544,126.99633 c -0.085146,-0.0153 -0.4195392,-0.0722 -0.7430952,-0.12642 -0.8357593,-0.14013 -1.8316149,-0.47208 -2.6937232,-0.8979 -2.7426169,-1.35465 -4.7481637,-3.97006 -5.3635949,-6.99461 -0.1829503,-0.89911 -0.22165953,-2.34431 -0.088125,-3.29042 0.2081596,-1.47487 0.7756306,-2.95169 1.6281533,-4.23717 0.5319944,-0.80217 1.8007864,-2.08375 2.5951681,-2.62132 1.8476943,-1.25037 3.8440103,-1.81692 6.0894837,-1.72819 1.063673,0.042 1.688443,0.15355 2.673651,0.47726 2.195482,0.72136 4.119511,2.23385 5.366958,4.219 0.223579,0.3558 0.32002,0.61292 0.229889,0.61292 -0.01507,0 -0.537556,0.1396 -1.161087,0.31023 -0.623525,0.17064 -1.398413,0.38192 -1.721969,0.46953 -0.323556,0.0876 -0.825146,0.22458 -1.114643,0.30436 -0.289498,0.0798 -1.836065,0.49819 -3.436817,0.9298 -1.600751,0.4316 -3.1473185,0.85068 -3.4368159,0.93129 -1.021753,0.28452 -3.7626665,1.02033 -3.800744,1.02033 -0.071034,0 -0.039661,-0.28185 0.090063,-0.8092 0.1626513,-0.66119 0.6906331,-1.77545 0.879875,-1.85689 0.075393,-0.0324 1.6279172,-0.46303 3.4500516,-0.95685 1.8221321,-0.49383 3.5080301,-0.95219 3.7464391,-1.0186 0.23841,-0.0664 0.767866,-0.20966 1.176568,-0.31832 1.040836,-0.27675 1.227984,-0.33729 1.250357,-0.40447 0.02107,-0.0632 -0.804431,-0.59789 -1.312281,-0.84991 -1.642736,-0.81521 -3.931557,-0.95531 -5.7418061,-0.35148 -1.4496513,0.48355 -2.7912046,1.45596 -3.714142,2.69215 -0.4798351,0.6427 -1.0576293,1.82591 -1.2542647,2.56849 -0.6419785,2.42444 -0.089159,4.95075 1.5040194,6.87317 1.1623936,1.4026 2.8173036,2.36749 4.5928087,2.67781 0.5997097,0.10482 1.9447677,0.10697 2.5389097,0.004 2.40706,-0.41692 4.449928,-1.91631 5.561785,-4.08216 0.174702,-0.34031 0.30439,-0.63201 0.288191,-0.64822 -0.01619,-0.0162 -0.412517,0.0758 -0.880717,0.20439 -2.090464,0.57427 -7.545472,2.06158 -8.2064986,2.23749 -0.6881151,0.18312 -0.7406519,0.18867 -0.9303519,0.0982 -0.6228872,-0.29721 -2.0056389,-1.58044 -1.8600232,-1.72615 0.066606,-0.0666 0.7630912,-0.2662 3.2410066,-0.92859 0.9025521,-0.24127 1.9335961,-0.51938 2.2912111,-0.61801 0.357615,-0.0986 2.085312,-0.56894 3.839327,-1.04512 3.416072,-0.9274 3.889745,-1.05612 4.706271,-1.27891 0.343725,-0.0938 0.547847,-0.12262 0.588284,-0.0831 0.100181,0.0979 0.06497,1.33475 -0.0571,2.00577 -0.570827,3.13772 -2.543597,5.77481 -5.396879,7.21425 -1.349864,0.68098 -2.620409,0.9909 -4.206261,1.02601 -0.578996,0.0129 -1.122384,0.0108 -1.2075306,-0.005 z M 5.3580978,119.33884 C 5.1802135,118.89627 4.9883399,118.12443 4.964976,117.75743 l -0.018982,-0.29808 0.4334721,-0.13534 c 0.2384104,-0.0744 1.0743928,-0.3068 1.8577386,-0.51637 0.7833463,-0.20958 1.8701263,-0.50217 2.4150629,-0.65021 0.5449366,-0.14803 1.7292446,-0.46757 2.6317956,-0.71008 0.902552,-0.24252 1.891798,-0.50889 2.198325,-0.59194 1.697533,-0.45994 3.162001,-0.8566 3.653552,-0.98958 1.339442,-0.36235 1.988245,-0.52675 2.079237,-0.52683 0.06648,-7e-5 0.14987,0.1532 0.261223,0.4801 0.285757,0.83889 0.485768,1.75042 0.384081,1.75042 -0.02822,0 -2.055265,0.54312 -3.684372,0.98719 -0.357615,0.0975 -1.235396,0.33427 -1.950626,0.5262 -0.715229,0.19193 -1.551211,0.41676 -1.857738,0.49961 -0.306527,0.0828 -1.351505,0.36339 -2.322174,0.62342 -0.970668,0.26003 -2.524041,0.67811 -3.4519344,0.92906 -2.3056519,0.62356 -2.0752795,0.60255 -2.2355408,0.20384 z"
       id="path4220"
       inkscape:connector-curvature="0" />
  </g>
</svg>
