<?xml version='1.0' encoding='UTF-8' standalone='no'?>
<!-- Created with Inkscape (http://www.inkscape.org/) -->
<svg xmlns:sodipodi="http://sodipodi.sourceforge.net/DTD/sodipodi-0.dtd" height="22" inkscape:export-filename="/home/rob/.kde4/share/icons/nmfnms/48x48/apps/utilities-terminal.png" width="22" version="1.1" inkscape:version="0.91 r13725" xmlns:svg="http://www.w3.org/2000/svg" sodipodi:docname="guitarix.svg" xmlns:rdf="http://www.w3.org/1999/02/22-rdf-syntax-ns#" sodipodi:version="0.32" inkscape:export-ydpi="67.5" id="svg2816" inkscape:export-xdpi="67.5" xmlns:cc="http://creativecommons.org/ns#" inkscape:output_extension="org.inkscape.output.svg.inkscape" xmlns:inkscape="http://www.inkscape.org/namespaces/inkscape" xmlns="http://www.w3.org/2000/svg" xmlns:dc="http://purl.org/dc/elements/1.1/">
  <defs id="defs2818">
    <style type="text/css" id="current-color-scheme"><![CDATA[
.ColorScheme-Text{ color:#c8c8c8; }
]]></style>
    <inkscape:perspective sodipodi:type="inkscape:persp3d" inkscape:vp_z="64 : 32 : 1" inkscape:persp3d-origin="32 : 21.333333 : 1" inkscape:vp_x="0 : 32 : 1" id="perspective2824" inkscape:vp_y="0 : 1000 : 0"/>
  </defs>
  <sodipodi:namedview inkscape:object-paths="true" showborder="false" inkscape:snap-smooth-nodes="true" inkscape:window-x="38" inkscape:current-layer="layer1" inkscape:window-y="0" inkscape:snap-intersection-paths="true" inkscape:window-height="1080" bordercolor="#666666" inkscape:grid-bbox="true" inkscape:window-width="1882" inkscape:snap-midpoints="true" borderopacity="1.0" inkscape:snap-global="true" inkscape:window-maximized="1" inkscape:pageshadow="2" id="base" pagecolor="#ffffff" inkscape:zoom="22.627417" inkscape:cx="11.850238" inkscape:document-units="px" inkscape:cy="7.1538935" inkscape:object-nodes="true" showgrid="false" inkscape:pageopacity="0.0">
    <inkscape:grid enabled="true" visible="true" empspacing="4" type="xygrid" id="grid2826" snapvisiblegridlinesonly="true"/>
  </sodipodi:namedview>
  <metadata id="metadata2821">
    <rdf:RDF>
      <cc:Work rdf:about="">
        <dc:format>image/svg+xml</dc:format>
        <dc:type rdf:resource="http://purl.org/dc/dcmitype/StillImage"/>
        <dc:title/>
      </cc:Work>
    </rdf:RDF>
  </metadata>
  <g inkscape:label="Layer 1" id="layer1" inkscape:groupmode="layer" style="opacity:1" transform="translate(0,-42)">
    <path id="rect4137" d="M 3 1 C 1.892 1 1 1.892 1 3 L 1 19 C 1 20.108 1.892 21 3 21 L 19 21 C 20.108 21 21 20.108 21 19 L 21 3 C 21 1.892 20.108 1 19 1 L 3 1 z M 4 2 A 1.5 1.5 0 0 1 5.5 3.5 A 1.5 1.5 0 0 1 4 5 A 1.5 1.5 0 0 1 2.5 3.5 A 1.5 1.5 0 0 1 4 2 z M 17 2 L 18 2 L 18 5 L 17 5 L 17 2 z M 8 3 A 1 1 0 0 1 9 4 A 1 1 0 0 1 8 5 A 1 1 0 0 1 7 4 A 1 1 0 0 1 8 3 z M 11 3 A 1 1 0 0 1 12 4 A 1 1 0 0 1 11 5 A 1 1 0 0 1 10 4 A 1 1 0 0 1 11 3 z M 14 3 A 1 1 0 0 1 15 4 A 1 1 0 0 1 14 5 A 1 1 0 0 1 13 4 A 1 1 0 0 1 14 3 z M 2 6 L 20 6 L 20 19 C 20 19.554 19.554 20 19 20 L 3 20 C 2.446 20 2 19.554 2 19 L 2 6 z " style="opacity:1;fill:#c8c8c8;fill-opacity:1;stroke:currentColor;stroke-width:0;stroke-linecap:round;stroke-linejoin:round;stroke-miterlimit:4;stroke-dasharray:none" transform="translate(0,42)"/>
    <path class="ColorScheme-Text" id="path4145" d="M 11 8 A 5 5 0 0 0 6 13 A 5 5 0 0 0 11 18 A 5 5 0 0 0 16 13 A 5 5 0 0 0 11 8 z M 11 9 A 4 4 0 0 1 15 13 A 4 4 0 0 1 11 17 A 4 4 0 0 1 7 13 A 4 4 0 0 1 11 9 z " style="opacity:1;fill:currentColor;fill-opacity:1;stroke:none;stroke-width:2;stroke-linecap:square;stroke-linejoin:round;stroke-miterlimit:4;stroke-dasharray:none" transform="translate(0,42)"/>
  </g>
</svg>
