<?xml version='1.0' encoding='UTF-8' standalone='no'?>
<!-- Created with Inkscape (http://www.inkscape.org/) -->
<svg xmlns:sodipodi="http://sodipodi.sourceforge.net/DTD/sodipodi-0.dtd" height="22" inkscape:export-filename="/home/rob/.kde4/share/icons/nmfnms/48x48/actions/view-refresh.png" width="22" version="1.1" inkscape:version="0.91 r13725" xmlns:svg="http://www.w3.org/2000/svg" sodipodi:docname="k3b.svg" xmlns:rdf="http://www.w3.org/1999/02/22-rdf-syntax-ns#" sodipodi:version="0.32" inkscape:export-ydpi="67.5" id="svg2383" inkscape:export-xdpi="67.5" xmlns:cc="http://creativecommons.org/ns#" inkscape:output_extension="org.inkscape.output.svg.inkscape" xmlns:inkscape="http://www.inkscape.org/namespaces/inkscape" xmlns="http://www.w3.org/2000/svg" xmlns:dc="http://purl.org/dc/elements/1.1/">
  <defs id="defs2385">
    <style type="text/css" id="current-color-scheme"><![CDATA[
.ColorScheme-Text{ color:#c8c8c8; }

.ColorScheme-{ color:#eff0f1; }

.ColorScheme-NegativeText{ color:#da4453; }

.ColorScheme-PositiveText{ color:#27ae60; }

.ColorScheme-NeutralText{ color:#f67400; }
]]></style>
    <inkscape:perspective sodipodi:type="inkscape:persp3d" inkscape:vp_z="64 : 32 : 1" inkscape:persp3d-origin="32 : 21.333333 : 1" inkscape:vp_x="0 : 32 : 1" id="perspective2391" inkscape:vp_y="0 : 1000 : 0"/>
    <inkscape:perspective sodipodi:type="inkscape:persp3d" inkscape:vp_z="744.09448 : 526.18109 : 1" inkscape:persp3d-origin="372.04724 : 350.78739 : 1" inkscape:vp_x="0 : 526.18109 : 1" id="perspective10" inkscape:vp_y="0 : 1000 : 0"/>
    <pattern patternUnits="userSpaceOnUse" patternTransform="translate(11.69844,8.7393398)" id="pattern2834" height="46.406551" width="52.00226">
      <path class="ColorScheme-Text" id="path2526" d="M 5.9999993,17.203293 C 11.433191,6.9833594 24.249858,3.0362863 34.626824,8.3872582 45.003791,13.738231 49.011513,26.360943 43.578321,36.580877 c -0.726471,1.366504 -1.604396,2.649552 -2.617718,3.825675" style="fill:none;stroke:currentColor;stroke-width:11.99999809;stroke-linecap:round;stroke-linejoin:miter;stroke-miterlimit:4;stroke-opacity:1"/>
    </pattern>
  </defs>
  <sodipodi:namedview inkscape:window-x="160" inkscape:current-layer="layer1" inkscape:window-y="44" inkscape:window-height="945" bordercolor="#666666" inkscape:grid-bbox="true" inkscape:window-width="1493" borderopacity="1.0" inkscape:window-maximized="0" inkscape:pageshadow="2" id="base" pagecolor="#ffffff" inkscape:zoom="22.15625" inkscape:cx="7.3405565" inkscape:document-units="px" inkscape:cy="9.664451" showgrid="true" inkscape:pageopacity="0.0">
    <inkscape:grid enabled="true" visible="true" empspacing="4" type="xygrid" id="grid3165" snapvisiblegridlinesonly="true"/>
  </sodipodi:namedview>
  <metadata id="metadata2388">
    <rdf:RDF>
      <cc:Work rdf:about="">
        <dc:format>image/svg+xml</dc:format>
        <dc:type rdf:resource="http://purl.org/dc/dcmitype/StillImage"/>
        <dc:title/>
      </cc:Work>
    </rdf:RDF>
  </metadata>
  <g inkscape:label="Layer 1" id="layer1" inkscape:groupmode="layer" transform="translate(0,-42)">
    <g class="ColorScheme-Text" id="g4144" style="fill:currentColor" transform="translate(-4.5,-1)">
      <g class="ColorScheme-Text" id="g13" style="fill:currentColor" transform="matrix(0.3125,0,0,0.3125,5.5,44)">
        <g class="ColorScheme-NegativeText">
          <path sodipodi:nodetypes="ccccccscccccccc" class="ColorScheme-Text" id="rect3883" d="m 27,0 c -1,3 2,11 -4,13 L 18,4 C 17,7 19.498412,14.095984 13,16 12,10 10.305791,11.986027 8,9 9.2904566,14.384274 10.873988,19.684813 8.90625,26 13.641705,18.206484 22.214205,13 32,13 41.785795,13 50.358295,18.206484 55.09375,26 52.09288,20.46437 50.869753,10.764825 52,9 51.170838,11.461462 49.719157,14.206034 48,16 45.276073,15.68812 43.498277,7.4588148 43,3 40,5 41,11 39,13 36,11 36.166762,10.008591 38,1 37,3 34,3 32,8 31.208435,6.3360541 29.798404,4.7536687 27,0 Z" inkscape:connector-curvature="0" style="fill:currentColor;fill-opacity:1;stroke:none"/>
        </g>
      </g>
      <path class="ColorScheme-Text" id="path3856" d="M 15.5,49 C 11.357864,49 8,52.357864 8,56.5 8,60.642136 11.357864,64 15.5,64 19.642136,64 23,60.642136 23,56.5 23,52.357864 19.642136,49 15.5,49 Z m 0,5 C 16.880712,54 18,55.119288 18,56.5 18,57.880712 16.880712,59 15.5,59 14.119288,59 13,57.880712 13,56.5 13,55.119288 14.119288,54 15.5,54 Z" inkscape:connector-curvature="0" style="opacity:1;fill:currentColor;fill-opacity:1;stroke:none"/>
      <path class="ColorScheme-Text" id="path3878" d="M 15.5,54 C 14.119288,54 13,55.119288 13,56.5 13,57.880712 14.119288,59 15.5,59 16.880712,59 18,57.880712 18,56.5 18,55.119288 16.880712,54 15.5,54 Z m 0,1.25 c 0.690356,0 1.25,0.559644 1.25,1.25 0,0.690356 -0.559644,1.25 -1.25,1.25 -0.690356,0 -1.25,-0.559644 -1.25,-1.25 0,-0.690356 0.559644,-1.25 1.25,-1.25 z" inkscape:connector-curvature="0" style="opacity:0.6;fill:currentColor;fill-opacity:1;stroke:none"/>
    </g>
  </g>
</svg>
