<?xml version='1.0' encoding='UTF-8' standalone='no'?>
<!-- Created with Inkscape (http://www.inkscape.org/) -->
<svg xmlns="http://www.w3.org/2000/svg" xmlns:cc="http://creativecommons.org/ns#" xmlns:inkscape="http://www.inkscape.org/namespaces/inkscape" sodipodi:docname="kmenuedit.svg" xmlns:sodipodi="http://sodipodi.sourceforge.net/DTD/sodipodi-0.dtd" version="1.1" xmlns:dc="http://purl.org/dc/elements/1.1/" inkscape:version="0.91 r13725" id="svg2" xmlns:svg="http://www.w3.org/2000/svg" viewBox="0 0 22 22" xmlns:rdf="http://www.w3.org/1999/02/22-rdf-syntax-ns#" height="22" width="22">
  <defs id="defs4">
    <style type="text/css" id="current-color-scheme"><![CDATA[
.ColorScheme-Text{ color:#c8c8c8; }
]]></style>
  </defs>
  <sodipodi:namedview inkscape:object-paths="true" inkscape:snap-object-midpoints="true" inkscape:window-x="38" inkscape:current-layer="layer1" inkscape:window-y="0" inkscape:snap-page="true" inkscape:window-height="1080" bordercolor="#666666" inkscape:window-width="1882" borderopacity="1.0" inkscape:snap-global="true" units="px" inkscape:window-maximized="1" inkscape:pageshadow="2" id="base" pagecolor="#ffffff" inkscape:zoom="22.627417" inkscape:cx="6.1380726" inkscape:document-units="px" inkscape:cy="14.816478" inkscape:object-nodes="true" showgrid="true" inkscape:pageopacity="0.0">
    <inkscape:grid type="xygrid" id="grid4149"/>
  </sodipodi:namedview>
  <metadata id="metadata7">
    <rdf:RDF>
      <cc:Work rdf:about="">
        <dc:format>image/svg+xml</dc:format>
        <dc:type rdf:resource="http://purl.org/dc/dcmitype/StillImage"/>
        <dc:title/>
      </cc:Work>
    </rdf:RDF>
  </metadata>
  <g inkscape:label="Layer 1" id="layer1" inkscape:groupmode="layer" transform="translate(0,-1030.3622)">
    <rect x="2" class="ColorScheme-Text" ry="1.7382812e-05" id="rect4189" height="17.999983" width="8" style="fill:none;fill-opacity:1;stroke:currentColor;stroke-width:0;stroke-miterlimit:4;stroke-dasharray:none" y="1032.3622"/>
    <path sodipodi:nodetypes="ccccccccccccccccccccccc" class="ColorScheme-Text" id="rect4191" d="m 1,1 0,20 8,0 0,-2 7,0 L 16,7 9,7 9,1 Z m 1,1 6,0 0,5 -1,0 0,12 1,0 0,1 -6,0 z m 6,6 7,0 0,10 -7,0 z" inkscape:connector-curvature="0" style="color:#c8c8c8;fill:currentColor;fill-opacity:1;stroke:currentColor;stroke-width:0;stroke-miterlimit:4;stroke-dasharray:none" transform="translate(0,1030.3622)"/>
    <rect x="2" class="ColorScheme-Text" ry="9.6405101e-06" id="rect4205" height="2" width="6" style="opacity:0.5;fill:currentColor;fill-opacity:1;stroke:currentColor;stroke-width:0;stroke-miterlimit:4;stroke-dasharray:none" y="1036.3622"/>
    <rect x="8" class="ColorScheme-Text" ry="9.6405056e-06" id="rect4207" height="2.0000174" width="7" style="color:#c8c8c8;opacity:0.5;fill:currentColor;fill-opacity:1;stroke:currentColor;stroke-width:0;stroke-miterlimit:4;stroke-dasharray:none" y="1039.3622"/>
    <path sodipodi:nodetypes="ccccccccccccccc" class="ColorScheme-Text" id="rect4209" d="m 16.004133,1031.3573 -0.0041,3.0045 1.999997,3.0004 0,1 1,0 0,-1 2.000003,-3.0004 0,-3 -4.994296,0 z M 17,1034.3622 l 3,0 -1,2 -1,0 z" inkscape:connector-curvature="0" style="color:#c8c8c8;opacity:1;fill:currentColor;fill-opacity:1;stroke:currentColor;stroke-width:0;stroke-miterlimit:4;stroke-dasharray:none"/>
  </g>
</svg>
