<?xml version='1.0' encoding='UTF-8' standalone='no'?>
<!-- Created with Inkscape (http://www.inkscape.org/) -->
<svg xmlns:sodipodi="http://sodipodi.sourceforge.net/DTD/sodipodi-0.dtd" height="22" inkscape:export-filename="/home/rob/.kde4/share/icons/nmfnms/48x48/apps/utilities-terminal.png" width="22" version="1.1" inkscape:version="0.91 r13725" xmlns:svg="http://www.w3.org/2000/svg" sodipodi:docname="ktorrent.svg" xmlns:rdf="http://www.w3.org/1999/02/22-rdf-syntax-ns#" sodipodi:version="0.32" inkscape:export-ydpi="67.5" id="svg2816" inkscape:export-xdpi="67.5" xmlns:cc="http://creativecommons.org/ns#" inkscape:output_extension="org.inkscape.output.svg.inkscape" xmlns:inkscape="http://www.inkscape.org/namespaces/inkscape" xmlns="http://www.w3.org/2000/svg" xmlns:dc="http://purl.org/dc/elements/1.1/">
  <defs id="defs2818">
    <style type="text/css" id="current-color-scheme"><![CDATA[
.ColorScheme-Text{ color:#c8c8c8; }
]]></style>
    <inkscape:perspective sodipodi:type="inkscape:persp3d" inkscape:vp_z="64 : 32 : 1" inkscape:persp3d-origin="32 : 21.333333 : 1" inkscape:vp_x="0 : 32 : 1" id="perspective2824" inkscape:vp_y="0 : 1000 : 0"/>
  </defs>
  <sodipodi:namedview inkscape:window-x="38" inkscape:current-layer="layer1" inkscape:window-y="0" inkscape:window-height="1080" bordercolor="#666666" showguides="true" inkscape:grid-bbox="true" inkscape:guide-bbox="true" inkscape:window-width="1882" borderopacity="1.0" inkscape:window-maximized="1" inkscape:pageshadow="2" id="base" pagecolor="#ffffff" inkscape:zoom="16" inkscape:cx="19.388735" inkscape:document-units="px" inkscape:cy="4.5920673" showgrid="true" inkscape:pageopacity="0.0">
    <inkscape:grid enabled="true" visible="true" empspacing="4" type="xygrid" id="grid2826" snapvisiblegridlinesonly="true"/>
    <sodipodi:guide orientation="1,0" position="31,14" id="guide4177"/>
    <sodipodi:guide orientation="1,0" position="28,5" id="guide4179"/>
    <sodipodi:guide orientation="1,0" position="34,6" id="guide4181"/>
  </sodipodi:namedview>
  <metadata id="metadata2821">
    <rdf:RDF>
      <cc:Work rdf:about="">
        <dc:format>image/svg+xml</dc:format>
        <dc:type rdf:resource="http://purl.org/dc/dcmitype/StillImage"/>
        <dc:title/>
      </cc:Work>
    </rdf:RDF>
  </metadata>
  <g inkscape:label="Layer 1" id="layer1" inkscape:groupmode="layer" style="opacity:1" transform="translate(0,-42)">
    <path sodipodi:nodetypes="ccssssssscccccsssssssc" class="ColorScheme-Text" id="path4175" d="M 6.0058594,0.9921875 4.0039062,1.0117187 c 0.026024,1.2462871 -0.3771985,1.6827107 -0.8671874,2.4160157 -0.4899891,0.733306 -1.1672803,1.8122822 -1.171875,3.5195312 -0.00265,0.986364 0.3655935,1.8306134 0.8574218,2.4433594 0.4918284,0.612746 1.0732529,1.032388 1.578125,1.412109 0.5048722,0.379721 0.933972,0.718109 1.1933594,1.046875 0.2593874,0.328767 0.3858969,0.608504 0.3730469,1.125 C 5.93135,14.399366 5.6022806,14.80155 5.109375,15.513672 4.7205314,16.07545 4.217449,16.84912 3.9941406,18 l -2,0 2.9765625,3 2.9765625,-3 -1.8574218,0 C 6.2363591,17.490821 6.4741464,17.15745 6.8007812,16.685547 7.3085355,15.951973 7.9779356,14.854303 8.0234375,13.025391 8.0478941,12.042379 7.6924942,11.191483 7.2070312,10.576172 6.7215684,9.9608609 6.1429568,9.5409053 5.6367188,9.1601562 5.1304806,8.7794082 4.6954263,8.4394536 4.4257812,8.1035156 4.1561363,7.7675776 4.0181254,7.475482 4.0195312,6.953125 4.0228755,5.71054 4.3491383,5.3134595 4.8457031,4.5703125 5.3422679,3.8271665 6.0415594,2.7018735 6.0058594,0.9921875 Z" inkscape:connector-curvature="0" style="font-style:normal;font-variant:normal;font-weight:normal;font-stretch:normal;font-size:medium;line-height:normal;font-family:sans-serif;text-indent:0;text-align:start;text-decoration:none;text-decoration-line:none;text-decoration-style:solid;text-decoration-color:#000000;letter-spacing:normal;word-spacing:normal;text-transform:none;direction:ltr;block-progression:tb;writing-mode:lr-tb;baseline-shift:baseline;text-anchor:start;white-space:normal;clip-rule:nonzero;display:inline;overflow:visible;visibility:visible;opacity:1;isolation:auto;mix-blend-mode:normal;color-interpolation:sRGB;color-interpolation-filters:linearRGB;solid-color:#000000;solid-opacity:1;fill:currentColor;fill-opacity:1;fill-rule:evenodd;stroke:none;stroke-width:2.05604196;stroke-linecap:butt;stroke-linejoin:miter;stroke-miterlimit:4;stroke-dasharray:none;stroke-dashoffset:0;stroke-opacity:1;color-rendering:auto;image-rendering:auto;shape-rendering:auto;text-rendering:auto;enable-background:accumulate" transform="translate(0,42)"/>
    <path sodipodi:nodetypes="ccssssssscccccssssscsc" class="ColorScheme-Text" id="path4196" d="m 12.007718,43.013207 -2.020986,-0.0045 c 0.026024,1.246287 -0.3600243,1.685743 -0.8500132,2.419048 -0.4899891,0.733306 -1.1672803,1.812283 -1.171875,3.519532 -0.00265,0.986364 0.3655935,1.830613 0.8574218,2.443359 0.4918284,0.612746 1.0732529,1.032388 1.5781254,1.412109 0.504872,0.379721 0.933972,0.718109 1.193359,1.046875 0.259387,0.328767 0.385897,0.608504 0.373047,1.125 -0.03545,1.424756 -0.364516,1.82694 -0.857422,2.539062 C 10.720531,58.07545 10.217449,58.84912 9.9941406,60 l -2,0 2.9765624,3 2.976563,-3 -1.857422,0 c 0.146515,-0.509179 0.384302,-0.84255 0.710937,-1.314453 0.507755,-0.733574 1.177155,-1.831244 1.222657,-3.660156 0.02446,-0.983012 -0.330944,-1.833908 -0.816407,-2.449219 -0.485463,-0.615311 -1.064074,-1.035267 -1.570312,-1.416016 -0.506238,-0.380748 -0.941293,-0.720702 -1.210938,-1.05664 -0.269645,-0.335938 -0.407656,-0.628034 -0.40625,-1.150391 0.0033,-1.242585 0.329607,-1.639666 0.826172,-2.382813 0.496565,-0.743146 1.197715,-1.847419 1.162015,-3.557105 z" inkscape:connector-curvature="0" style="font-style:normal;font-variant:normal;font-weight:normal;font-stretch:normal;font-size:medium;line-height:normal;font-family:sans-serif;text-indent:0;text-align:start;text-decoration:none;text-decoration-line:none;text-decoration-style:solid;text-decoration-color:#000000;letter-spacing:normal;word-spacing:normal;text-transform:none;direction:ltr;block-progression:tb;writing-mode:lr-tb;baseline-shift:baseline;text-anchor:start;white-space:normal;clip-rule:nonzero;display:inline;overflow:visible;visibility:visible;opacity:1;isolation:auto;mix-blend-mode:normal;color-interpolation:sRGB;color-interpolation-filters:linearRGB;solid-color:#000000;solid-opacity:1;fill:currentColor;fill-opacity:1;fill-rule:evenodd;stroke:none;stroke-width:2.05604196;stroke-linecap:butt;stroke-linejoin:miter;stroke-miterlimit:4;stroke-dasharray:none;stroke-dashoffset:0;stroke-opacity:1;color-rendering:auto;image-rendering:auto;shape-rendering:auto;text-rendering:auto;enable-background:accumulate"/>
    <path sodipodi:nodetypes="ccscssssscccccssssscsc" class="ColorScheme-Text" id="path4198" d="m 18.029297,43.007812 -2.017579,-0.0039 c 0.02602,1.246287 -0.38501,1.690523 -0.874999,2.423828 -0.489989,0.733306 -1.16728,1.812283 -1.171875,3.519532 -0.0026,0.986364 0.365593,1.830613 0.857422,2.443359 0.491828,0.612746 1.073252,1.032388 1.578125,1.412109 0.504872,0.379721 0.933972,0.718109 1.193359,1.046875 0.259387,0.328767 0.385897,0.608504 0.373047,1.125 -0.03545,1.424756 -0.364516,1.82694 -0.857422,2.539062 C 16.720531,58.07545 16.217449,58.84912 15.994141,60 l -2,0 2.976562,3 2.976563,-3 -1.857422,0 c 0.146515,-0.509179 0.384302,-0.84255 0.710937,-1.314453 0.507755,-0.733574 1.177155,-1.831244 1.222657,-3.660156 0.02446,-0.983012 -0.330944,-1.833908 -0.816407,-2.449219 -0.485463,-0.615311 -1.064074,-1.035267 -1.570312,-1.416016 -0.506238,-0.380748 -0.941293,-0.720702 -1.210938,-1.05664 -0.269645,-0.335938 -0.407656,-0.628034 -0.40625,-1.150391 0.0033,-1.242585 0.329607,-1.639666 0.826172,-2.382813 0.496565,-0.743146 1.219294,-1.852814 1.183594,-3.5625 z" inkscape:connector-curvature="0" style="font-style:normal;font-variant:normal;font-weight:normal;font-stretch:normal;font-size:medium;line-height:normal;font-family:sans-serif;text-indent:0;text-align:start;text-decoration:none;text-decoration-line:none;text-decoration-style:solid;text-decoration-color:#000000;letter-spacing:normal;word-spacing:normal;text-transform:none;direction:ltr;block-progression:tb;writing-mode:lr-tb;baseline-shift:baseline;text-anchor:start;white-space:normal;clip-rule:nonzero;display:inline;overflow:visible;visibility:visible;opacity:1;isolation:auto;mix-blend-mode:normal;color-interpolation:sRGB;color-interpolation-filters:linearRGB;solid-color:#000000;solid-opacity:1;fill:currentColor;fill-opacity:1;fill-rule:evenodd;stroke:none;stroke-width:2.05604196;stroke-linecap:butt;stroke-linejoin:miter;stroke-miterlimit:4;stroke-dasharray:none;stroke-dashoffset:0;stroke-opacity:1;color-rendering:auto;image-rendering:auto;shape-rendering:auto;text-rendering:auto;enable-background:accumulate"/>
  </g>
</svg>
