<?xml version='1.0' encoding='UTF-8' standalone='no'?>
<svg xmlns="http://www.w3.org/2000/svg" xmlns:cc="http://creativecommons.org/ns#" xmlns:inkscape="http://www.inkscape.org/namespaces/inkscape" sodipodi:docname="mari.svg" xmlns:sodipodi="http://sodipodi.sourceforge.net/DTD/sodipodi-0.dtd" version="1.1" xmlns:dc="http://purl.org/dc/elements/1.1/" inkscape:version="0.91 r13725" id="svg2" xmlns:svg="http://www.w3.org/2000/svg" xmlns:rdf="http://www.w3.org/1999/02/22-rdf-syntax-ns#" height="22" width="22">
  <sodipodi:namedview inkscape:window-x="30" inkscape:current-layer="svg2" inkscape:window-y="0" inkscape:window-height="1080" gridtolerance="10" guidetolerance="10" bordercolor="#666666" inkscape:window-width="1890" borderopacity="1" inkscape:window-maximized="1" inkscape:pageshadow="2" id="namedview11" pagecolor="#ffffff" inkscape:zoom="20.85965" inkscape:cx="15.658108" inkscape:cy="15.108553" showgrid="false" inkscape:pageopacity="0" objecttolerance="10"/>
  <defs id="defs4">
    <style type="text/css" id="current-color-scheme"><![CDATA[
.ColorScheme-Text{ color:#c8c8c8; }
]]></style>
  </defs>
  <metadata id="metadata7">
    <rdf:RDF>
      <cc:Work rdf:about="">
        <dc:format>image/svg+xml</dc:format>
        <dc:type rdf:resource="http://purl.org/dc/dcmitype/StillImage"/>
        <dc:title/>
      </cc:Work>
    </rdf:RDF>
  </metadata>
  <g id="layer1" transform="matrix(0.15625,0,0,0.15625,1,-143.43159)">
    <g id="g4056" transform="matrix(0.4,0,0,0.4,4.8,570.61731)">
      <circle cy="1044.3622" class="ColorScheme-Text" r="160" id="path4054" cx="148" style="fill:currentColor;fill-opacity:0.25098039;stroke:none;stroke-width:0.80500001;stroke-miterlimit:4;stroke-dasharray:none"/>
      <path class="ColorScheme-Text" id="path4052" d="M 118.54001,1183.5901 C 64.065576,1172.0972 20.69026,1128.1106 9.287166,1072.7976 c -3.9145748,-18.9884 -3.1908588,-45.2631 1.761051,-63.9354 13.129836,-49.50905 51.388789,-87.62239 102.051203,-101.66285 8.67491,-2.40415 13.99154,-2.84748 34.90058,-2.91019 28.60045,-0.0858 38.34088,1.85194 59.49681,11.836 21.66044,10.22216 40.02015,24.9498 53.95262,43.27928 8.73709,11.49446 20.49797,35.43614 23.82034,48.49116 14.38856,56.5388 -5.4995,114.7996 -51.00969,149.4296 -17.86875,13.5968 -38.16115,22.7254 -59.52752,26.7785 -15.00507,2.8464 -41.41052,2.605 -56.19255,-0.5136 z m -24.40668,-47.2613 c 5.71664,-5.7166 6.15277,-12.4644 1.270051,-19.65 -3.68904,-5.4289 -6.2897,-6.4921 -12.120134,-4.9549 -11.409333,3.0079 -15.859055,16.8829 -8.033796,25.0507 5.662378,5.9103 12.693835,5.7443 18.883879,-0.4458 z m 53.84755,3.2103 c 4.6851,-2.5074 5.6277,-9.0562 2.75125,-19.1147 -2.83657,-9.9189 -2.19404,-14.3292 2.44972,-16.8145 6.12375,-3.2773 17.36286,-0.6286 23.07632,5.4385 6.70726,7.1223 17.07516,3.8869 17.07516,-5.3285 0,-5.4159 1.87166,-8.1911 5.5244,-8.1911 3.05551,0 6.4756,-5.0107 6.4756,-9.4873 0,-3.6348 2.05018,-5.1793 6.8747,-5.1793 1.46113,0 6.1163,3.3 10.34484,7.3333 8.17496,7.7976 12.40118,9.1124 14.81182,4.6081 1.23074,-2.2997 0.83438,-3.3083 -2.53793,-6.4585 -2.19804,-2.0533 -8.23327,-5.9597 -13.4116,-8.6808 -5.24695,-2.7572 -9.41516,-5.8282 -9.41516,-6.9368 0,-1.0942 1.92651,-3.0114 4.28113,-4.2607 2.35463,-1.2492 6.63483,-4.5063 9.51156,-7.238 2.87674,-2.7317 6.38435,-5.333 7.7947,-5.7806 3.26033,-1.0348 2.59954,-5.0614 -0.93603,-5.7038 -1.45825,-0.265 -3.93563,-1.6647 -5.50528,-3.1105 -1.68785,-1.5547 -5.90111,-3.0423 -10.31185,-3.6408 -8.94028,-1.2133 -12.59364,-4.1568 -13.69316,-11.0328 -0.45018,-2.8153 -2.54108,-7.8349 -4.64646,-11.1547 -6.42376,-10.1292 -4.79594,-16.1119 6.12526,-22.51218 3.29876,-1.9332 6.57798,-4.59909 7.28716,-5.92419 1.93992,-3.62477 0.20969,-8.04489 -4.00156,-10.22261 -5.03542,-2.60392 -8.67291,-1.03209 -14.81764,6.40297 -3.8994,4.71821 -6.04786,6.12527 -10.42038,6.82447 -4.66796,0.74643 -6.35932,0.31027 -11.08782,-2.8593 -3.38776,-2.27086 -5.75599,-4.97002 -6.02859,-6.871 -0.82623,-5.76196 1.20845,-12.11794 5.17972,-16.18049 8.71165,-8.91189 0.78543,-21.0157 -10.28698,-15.70883 -5.77789,2.76927 -7.40384,7.35083 -5.04182,14.20664 1.5577,4.52128 1.64748,6.84766 0.44808,11.61095 l -1.49995,5.95681 -6.59604,0 c -7.21107,0 -11.75405,-1.75872 -11.75405,-4.55032 0,-0.98441 -0.9,-2.53677 -2,-3.44968 -1.1,-0.91292 -2,-2.97171 -2,-4.57509 0,-6.74953 -7.46138,-10.63021 -11.90156,-6.19003 -3.05646,3.05646 -2.5987,5.46532 2.12848,11.20075 3.47288,4.2136 4.18061,10.23103 1.20329,10.23103 -1.04671,0 -5.77053,2.01584 -10.49737,4.47964 -12.89269,6.72012 -14.874074,6.95122 -20.996344,2.44885 -2.867956,-2.10912 -7.733019,-6.93085 -10.81125,-10.71496 -5.968547,-7.33721 -6.548327,-7.63957 -10.546238,-5.49995 -3.300353,1.7663 -3.27201,4.65147 0.08765,8.92259 1.466667,1.86457 2.666667,5.07082 2.666667,7.125 0,2.92168 1.088646,4.35371 5,6.5771 2.75,1.56323 6.060284,4.27813 7.356186,6.03313 2.034282,2.7549 2.138058,3.8897 0.759591,8.3065 l -1.596595,5.1157 -6.092924,-0.9097 c -3.351109,-0.5002 -8.091407,-1.7286 -10.533996,-2.7297 -4.044731,-1.6577 -4.609945,-1.5892 -6.333333,0.7677 -2.219067,3.0347 -2.25775,3.4358 -0.58618,6.0781 0.8905,1.4076 3.587722,2 9.106516,2 9.02656,0 12.254068,1.9508 12.254068,7.4067 0,4.3183 -1.410339,4.9931 -14.963716,7.1601 -12.007896,1.9199 -10.589851,4.8253 3.067336,6.2846 5.304735,0.5668 10.078839,1.5071 10.609121,2.0896 0.530283,0.5824 1.264004,5.0622 1.630492,9.9551 0.653086,8.7191 0.59661,8.9138 -2.838445,9.7876 -1.927633,0.4904 -7.912152,1.119 -13.29893,1.3971 -17.022733,0.8786 -29.712669,9.2839 -24.144951,15.9926 2.432722,2.9312 5.519586,2.339 11.770839,-2.2582 4.708734,-3.4628 7.270447,-4.2978 14.849156,-4.8401 5.037306,-0.3604 10.159819,-0.2711 11.383365,0.1984 2.076993,0.797 2.076846,1.0792 -0.0023,4.2523 -1.224767,1.8692 -2.039768,4.7131 -1.811113,6.3197 0.355753,2.4997 1.467596,3.0174 7.706292,3.5878 7.872513,0.7199 7.527931,0.299 9.958893,12.1646 0.901015,4.3979 7.004243,7.1614 13.065293,5.916 9.24644,-1.8999 23.90359,-2.3956 25.43896,-0.8602 0.97976,0.9798 1.38657,5.8333 1.13988,13.5994 -0.51968,16.3605 3.18387,21.7771 11.75396,17.1905 z m 63.34555,-18.1921 c 3.66237,-1.4054 5.07073,-7.0134 2.67826,-10.6648 -3.73242,-5.6964 -12.67136,-3.2149 -12.67136,3.5176 0,2.8949 0.9523,4.4272 3.66667,5.8997 4.44248,2.4101 3.68559,2.2609 6.32643,1.2475 z m 56.84532,-44.7171 c 1.5783,-2.4894 1.44609,-3.2927 -0.93366,-5.6725 -2.47357,-2.4736 -10.0226,-2.7774 -12.30476,-0.4952 -2.07058,2.0706 -2.04116,5.4142 0.0667,7.5758 2.06904,2.1219 11.57827,1.1053 13.17175,-1.4081 z m -21.45179,-7.5428 c 6.26731,-5.0749 -0.732,-14.7078 -7.47604,-10.289 -4.11548,2.6966 -4.2518,7.8736 -0.28057,10.6551 3.73529,2.6163 4.09442,2.5994 7.75661,-0.3661 z M 52.579863,1044.8952 c 4.33126,-1.6468 4.54714,-6.2434 0.38234,-8.141 -6.784524,-3.0912 -14.204699,4.3652 -7.962207,8.0012 2.944248,1.7148 3.414323,1.7235 7.579867,0.1398 z m 208.486807,-0.2997 c 2.53529,-2.5353 1.94394,-8.7888 -0.97902,-10.3531 -4.25113,-2.2751 -7.89674,-1.5778 -10.21026,1.9531 -2.02322,3.0878 -2.02322,3.5788 0,6.6667 2.3797,3.6319 8.36373,4.5589 11.18928,1.7333 z M 50.46452,1017.0153 c 4.466018,-2.8302 -2.201347,-10.003 -7.910421,-8.51 -3.695218,0.9663 -3.38368,6.776 0.445897,8.3153 3.866659,1.5542 5.261843,1.5906 7.464524,0.1947 z m 158.60215,-7.0865 c 2.75126,-2.7512 1.84634,-6.2873 -1.84619,-7.2141 -4.41011,-1.1069 -7.86092,2.0291 -6.601,5.9988 0.99504,3.1351 5.83157,3.8309 8.44719,1.2153 z m 25.75148,-5.1477 c 3.64352,-1.95 5.41549,-7.13081 3.84852,-11.25226 -1.53566,-4.03907 -5.08344,-4.29583 -9.65627,-0.69884 -4.25657,3.34822 -5.24355,7.10595 -2.78741,10.6126 2.14592,3.0637 4.64453,3.4528 8.59516,1.3385 z m -19.00466,-33.27089 c 5.13138,-5.13137 6.07784,-8.25057 4.21564,-13.8931 -4.65129,-14.09354 -25.36246,-10.33099 -25.36246,4.60755 0,4.50913 0.78726,6.30303 4.14101,9.4359 5.65889,5.2862 11.62199,5.23348 17.00581,-0.15035 z M 110.54231,952.96724 c 1.10383,-0.69881 1.92682,-3.57087 2.00001,-6.97959 0.10933,-5.09609 -0.24939,-5.84508 -2.98561,-6.23263 -1.71047,-0.24226 -4.26047,0.60073 -5.66667,1.87332 -6.159214,5.57402 -0.22339,15.69172 6.65227,11.3389 z m 18.77889,-7.42379 c 2.37665,-2.86368 0.58449,-10.98659 -2.6505,-12.01333 -6.81505,-2.16302 -10.66289,6.00653 -5.33737,11.33205 3.17263,3.17262 5.73861,3.39147 7.98787,0.68128 z" inkscape:connector-curvature="0" style="fill:currentColor;stroke-width:1.33333337"/>
    </g>
  </g>
</svg>
