<?xml version="1.0" encoding="UTF-8" standalone="no"?>
<!-- Created with Inkscape (http://www.inkscape.org/) -->

<svg
   xmlns:dc="http://purl.org/dc/elements/1.1/"
   xmlns:cc="http://creativecommons.org/ns#"
   xmlns:rdf="http://www.w3.org/1999/02/22-rdf-syntax-ns#"
   xmlns:svg="http://www.w3.org/2000/svg"
   xmlns="http://www.w3.org/2000/svg"
   xmlns:sodipodi="http://sodipodi.sourceforge.net/DTD/sodipodi-0.dtd"
   xmlns:inkscape="http://www.inkscape.org/namespaces/inkscape"
   sodipodi:docname="midi.svg"
   version="1.1"
   inkscape:version="0.91 r13725"
   id="svg2"
   inkscape:output_extension="org.inkscape.output.svg.inkscape"
   height="22"
   sodipodi:version="0.32"
   width="22">
  <metadata
     id="metadata10">
    <rdf:RDF>
      <cc:Work
         rdf:about="">
        <dc:format>image/svg+xml</dc:format>
        <dc:type
           rdf:resource="http://purl.org/dc/dcmitype/StillImage" />
        <dc:title></dc:title>
      </cc:Work>
    </rdf:RDF>
  </metadata>
  <sodipodi:namedview
     inkscape:window-x="30"
     inkscape:current-layer="layer4"
     inkscape:window-y="0"
     inkscape:window-height="1080"
     gridtolerance="10.0"
     guidetolerance="10.0"
     bordercolor="#666666"
     inkscape:window-width="1890"
     borderopacity="1.0"
     inkscape:window-maximized="1"
     inkscape:pageshadow="2"
     id="base"
     pagecolor="#ffffff"
     inkscape:zoom="7.7187501"
     inkscape:cx="20.83808"
     inkscape:cy="17.664102"
     showgrid="true"
     inkscape:pageopacity="0.0"
     objecttolerance="10.0">
    <inkscape:grid
       type="xygrid"
       id="grid4160" />
  </sodipodi:namedview>
  <defs
     id="defs4">
    <style
       type="text/css"
       id="current-color-scheme"><![CDATA[
.ColorScheme-Text{ color:#c8c8c8; }

.ColorScheme-{ color:#eff0f1; }

.ColorScheme-NegativeText{ color:#da4453; }

.ColorScheme-PositiveText{ color:#27ae60; }

.ColorScheme-NeutralText{ color:#f67400; }
]]></style>
    <inkscape:perspective
       sodipodi:type="inkscape:persp3d"
       inkscape:vp_z="128 : 64 : 1"
       inkscape:persp3d-origin="64 : 42.666667 : 1"
       inkscape:vp_x="0 : 64 : 1"
       id="perspective12"
       inkscape:vp_y="0 : 1000 : 0" />
  </defs>
  <g
     id="layer1"
     inkscape:groupmode="layer"
     transform="translate(0,-106)" />
  <g
     id="layer2"
     inkscape:groupmode="layer"
     style="opacity:1"
     transform="translate(0,-106)" />
  <g
     id="layer3"
     inkscape:groupmode="layer"
     style="opacity:1"
     transform="translate(0,-106)" />
  <g
     id="layer4"
     inkscape:groupmode="layer"
     style="opacity:1"
     transform="translate(0,-106)">
    <path
       class="ColorScheme-Text"
       style="fill:currentColor"
       d="m 10.975607,107.00428 a 9.9827081,10.025254 0 0 0 -9.98279585,10.02524 9.9827081,10.025254 0 0 0 9.98279585,10.02524 9.9827081,10.025254 0 0 0 9.98267,-10.02524 9.9827081,10.025254 0 0 0 -9.98267,-10.02524 z m -0.01696,3.03482 a 6.9642883,6.9221993 0 0 1 6.964325,6.92212 6.9642883,6.9221993 0 0 1 -5.362298,6.72814 l 0,-2.46569 -3.1364998,0 0,2.4835 a 6.9642883,6.9221993 0 0 1 -5.4297225,-6.74595 6.9642883,6.9221993 0 0 1 6.9641973,-6.92212 z m 0.03378,0.95482 a 1.2309758,1.2446319 0 0 0 -1.2309965,1.24451 1.2309758,1.2446319 0 0 0 1.2309965,1.24465 1.2309758,1.2446319 0 0 0 1.23099,-1.24465 1.2309758,1.2446319 0 0 0 -1.23099,-1.24451 z m 3.018466,1.398 a 1.2309758,1.2446319 0 0 0 -1.230991,1.24465 1.2309758,1.2446319 0 0 0 1.230991,1.24465 1.2309758,1.2446319 0 0 0 1.230996,-1.24465 1.2309758,1.2446319 0 0 0 -1.230996,-1.24465 z m -6.0199841,0.0511 a 1.2309758,1.2446319 0 0 0 -1.2309969,1.24466 1.2309758,1.2446319 0 0 0 1.2309969,1.24464 1.2309758,1.2446319 0 0 0 1.2309906,-1.24464 1.2309758,1.2446319 0 0 0 -1.2309906,-1.24466 z m -1.4333983,2.69382 a 1.2309758,1.2446319 0 0 0 -1.2309906,1.24465 1.2309758,1.2446319 0 0 0 1.2309906,1.24465 1.2309758,1.2446319 0 0 0 1.23099,-1.24465 1.2309758,1.2446319 0 0 0 -1.23099,-1.24465 z m 8.8530074,0.0342 a 1.2309758,1.2446319 0 0 0 -1.230997,1.24465 1.2309758,1.2446319 0 0 0 1.230997,1.24465 1.2309758,1.2446319 0 0 0 1.230863,-1.24465 1.2309758,1.2446319 0 0 0 -1.230863,-1.24465 z"
       id="path4192"
       inkscape:connector-curvature="0" />
  </g>
</svg>
