<?xml version='1.0' encoding='UTF-8' standalone='no'?>
<!-- Created with Inkscape (http://www.inkscape.org/) -->
<svg xmlns="http://www.w3.org/2000/svg" xmlns:cc="http://creativecommons.org/ns#" xmlns:inkscape="http://www.inkscape.org/namespaces/inkscape" sodipodi:docname="monodevelop_Logo.svg" xmlns:sodipodi="http://sodipodi.sourceforge.net/DTD/sodipodi-0.dtd" version="1.0" xmlns:dc="http://purl.org/dc/elements/1.1/" inkscape:version="0.91 r13725" id="svg2469" xmlns:svg="http://www.w3.org/2000/svg" xmlns:xlink="http://www.w3.org/1999/xlink" inkscape:output_extension="org.inkscape.output.svg.inkscape" xmlns:rdf="http://www.w3.org/1999/02/22-rdf-syntax-ns#" height="22" sodipodi:version="0.32" width="22">
  <defs id="defs2471">
    <style type="text/css" id="current-color-scheme"><![CDATA[
.ColorScheme-Text{ color:#c8c8c8; }
]]></style>
    <linearGradient id="linearGradient7675" inkscape:collect="always">
      <stop offset="0" id="stop7677" style="stop-color:#ffffff;stop-opacity:1;"/>
      <stop offset="1" id="stop7679" style="stop-color:#72cf98;stop-opacity:0.56862748"/>
    </linearGradient>
    <linearGradient x2="-865.21399" gradientUnits="userSpaceOnUse" xlink:href="#linearGradient7675" y1="-181.71875" id="linearGradient3627" y2="-150.96249" inkscape:collect="always" x1="-868.685"/>
    <filter id="filter7817" inkscape:collect="always">
      <feGaussianBlur stdDeviation="0.73794995" id="feGaussianBlur7819" inkscape:collect="always"/>
    </filter>
    <linearGradient id="linearGradient7985">
      <stop offset="0" id="stop7987" style="stop-color:#80a6d8;stop-opacity:1;"/>
      <stop offset="0.29166666" id="stop7991" style="stop-color:#42699a;stop-opacity:1;"/>
      <stop offset="1" id="stop7989" style="stop-color:#99b8e1;stop-opacity:1;"/>
    </linearGradient>
  </defs>
  <sodipodi:namedview inkscape:window-x="30" height="48px" inkscape:current-layer="layer1" inkscape:window-y="0" inkscape:window-height="1080" width="48px" gridtolerance="10000" guidetolerance="10" bordercolor="#666666" inkscape:window-width="1890" borderopacity="1.0" inkscape:window-maximized="1" inkscape:pageshadow="2" id="base" pagecolor="#ffffff" inkscape:zoom="11.2" inkscape:cx="12.683105" inkscape:document-units="px" inkscape:cy="15.382061" showgrid="true" inkscape:pageopacity="0.0" objecttolerance="10">
    <inkscape:grid type="xygrid" id="grid4149"/>
  </sodipodi:namedview>
  <metadata id="metadata2474">
    <rdf:RDF>
      <cc:Work rdf:about="">
        <dc:format>image/svg+xml</dc:format>
        <dc:type rdf:resource="http://purl.org/dc/dcmitype/StillImage"/>
        <dc:title/>
      </cc:Work>
    </rdf:RDF>
  </metadata>
  <g inkscape:label="Layer 1" id="layer1" inkscape:groupmode="layer" transform="translate(0,-26)">
    <path class="ColorScheme-Text" id="path3603" d="m 18.063868,28.721285 c -1.271598,0.522163 -5.348857,2.221753 -5.450524,2.264187 -1.140827,-0.93167 -2.624807,-1.655233 -4.1616386,-1.737117 -3.7279034,-0.234433 -7.1565856,3.076552 -7.1672667,6.749154 -0.1636575,3.306436 1.3455785,6.363934 2.7088742,9.285291 1.1405368,-0.475837 5.2874935,-2.204488 5.3920595,-2.248242 1.1196736,0.935684 2.5534866,1.625512 4.0482516,1.733574 3.668189,0.307794 7.07747,-2.86087 7.263823,-6.447086 0.266263,-3.35463 -1.279924,-6.458438 -2.578657,-9.458028 -0.01891,-0.0468 -0.03605,-0.09493 -0.05492,-0.141733 z M 7.9662692,30.875629 c 1.1821771,-1.37e-4 2.3004318,0.439643 3.1960818,1.090459 0,0 9.07e-4,8.84e-4 9.07e-4,8.84e-4 0.0012,8.71e-4 0.0024,0.0018 0.0035,0.0027 0.124164,0.0904 0.243674,0.184596 0.358762,0.28258 0.0022,0.0019 0.0049,0.0034 0.0071,0.0053 0.0094,0.0081 0.01808,0.01669 0.02746,0.0248 0.10166,0.08792 0.20036,0.177243 0.294097,0.270178 0.03135,0.03099 0.05993,0.0633 0.09036,0.09478 0.06885,0.07147 0.137195,0.143277 0.201084,0.217029 0.04246,0.04886 0.08118,0.09909 0.121358,0.14882 0.05117,0.06355 0.102393,0.126575 0.149706,0.19134 0.04073,0.05556 0.07738,0.111996 0.115159,0.168308 0.03766,0.05633 0.07613,0.112261 0.110728,0.169194 0.04482,0.07345 0.08448,0.147263 0.124017,0.221458 0.02179,0.04106 0.04454,0.08192 0.06467,0.12313 0.03996,0.0815 0.07485,0.162675 0.108071,0.24449 0.01504,0.03719 0.0307,0.07442 0.04429,0.111615 0.03263,0.08883 0.05909,0.177254 0.08327,0.265749 0.0074,0.02719 0.01558,0.05437 0.02215,0.0815 0.02283,0.09368 0.03951,0.186499 0.05227,0.279037 0.0021,0.01557 0.007,0.03142 0.0089,0.04695 1.242768,0.333548 2.349411,1.509165 2.356313,3.140274 0.0088,2.085378 -2.603716,2.289348 -3.262519,1.758377 -0.255899,-0.206228 -0.24767,-0.614854 -0.02126,-0.541244 1.406632,0.458055 2.275571,-0.444073 2.211036,-1.342035 -0.0084,-0.116429 -0.02252,-0.228547 -0.04252,-0.33573 -5.4e-5,-2.9e-4 5.5e-5,-5.9e-4 0,-9.07e-4 -0.08029,-0.429489 -0.253771,-0.783243 -0.515554,-1.053255 -0.130937,-0.134965 -0.284161,-0.248327 -0.458861,-0.340159 -3.36e-4,-1.77e-4 -5.44e-4,-7.26e-4 -9.07e-4,-9.07e-4 -0.08709,-0.04574 -0.179509,-0.08586 -0.277266,-0.120473 -0.117443,0.977698 -0.526525,1.991682 -1.473138,2.591058 -0.398395,0.252256 -0.890503,0.432077 -1.499714,0.501381 3.16e-4,8.16e-4 5.9e-4,0.0018 9.08e-4,0.0027 0.01772,0.04652 0.04323,0.09519 0.06378,0.142619 0.03937,0.0907 0.08254,0.18207 0.132875,0.274608 0.05278,0.09716 0.10706,0.194472 0.172737,0.291438 0.07354,0.108573 0.158065,0.216212 0.248919,0.321557 0.01963,0.02271 0.04065,0.04485 0.06112,0.06732 0.08951,0.09845 0.185196,0.194779 0.291438,0.287009 0.0053,0.0046 0.0097,0.0096 0.01506,0.01417 0.111948,0.096 0.236198,0.185862 0.36762,0.271951 0.02802,0.01834 0.05698,0.03622 0.08593,0.05403 0.125412,0.07722 0.258075,0.150437 0.401282,0.216143 0.01529,0.007 0.0288,0.01528 0.04429,0.02215 0.0012,5.44e-4 0.0023,0.0012 0.0035,0.0018 0.150903,0.06671 0.315105,0.123142 0.486322,0.174508 0.07295,0.02189 0.146468,0.04325 0.223229,0.06201 0.02776,0.0068 0.05501,0.01402 0.08327,0.02037 0.130845,0.02942 0.26559,0.05565 0.407483,0.0753 1.148818,0.159054 2.101108,-0.18498 2.796571,-0.859257 0.695472,-0.674401 1.08649,-1.37211 1.143609,-2.515763 0.05908,-1.183179 -0.199478,-1.876799 -0.907092,-3.429056 -0.252752,-0.554559 -0.958292,-1.672901 -1.505028,-2.793028 l 2.372258,-0.992132 c 0.804477,1.947513 1.871083,3.663474 1.894794,6.843938 0.02449,3.285882 -2.794049,5.413197 -5.021781,5.413319 -0.164696,2.8e-5 -0.328024,-0.0085 -0.489865,-0.0248 -9.07e-4,-9.3e-5 -0.0017,-7.71e-4 -0.0027,-9.07e-4 -0.07376,-0.0075 -0.145767,-0.02118 -0.218801,-0.03189 -0.08995,-0.01319 -0.180602,-0.02376 -0.269292,-0.04164 -0.07477,-0.01507 -0.147673,-0.03666 -0.221458,-0.05492 -0.08292,-0.02053 -0.166493,-0.03851 -0.248033,-0.06289 -0.07867,-0.02351 -0.154811,-0.0528 -0.232088,-0.07973 -0.076,-0.02651 -0.153133,-0.05095 -0.227659,-0.08061 -0.08202,-0.03261 -0.160837,-0.07096 -0.240946,-0.107185 -0.06351,-0.02876 -0.128236,-0.05501 -0.190454,-0.08593 -0.09191,-0.0456 -0.180389,-0.09614 -0.269293,-0.146162 -0.04758,-0.02682 -0.09684,-0.05082 -0.143505,-0.07884 -0.09192,-0.05508 -0.17936,-0.11509 -0.267521,-0.174509 -0.04201,-0.02837 -0.08557,-0.05486 -0.126674,-0.08416 -0.09017,-0.06413 -0.175716,-0.131975 -0.26132,-0.200197 -0.03253,-0.02598 -0.06649,-0.05054 -0.09833,-0.07707 -0.09627,-0.08004 -0.18765,-0.163438 -0.277265,-0.248033 -0.01787,-0.0169 -0.03645,-0.03342 -0.05404,-0.05049 -0.09782,-0.0947 -0.190148,-0.19219 -0.279037,-0.291439 -0.0071,-0.0079 -0.01514,-0.0151 -0.02215,-0.02303 -0.0934,-0.105502 -0.180543,-0.212984 -0.263092,-0.322443 -0.0018,-0.0024 -0.0035,-0.0047 -0.0053,-0.0071 C 9.535301,40.753211 9.456859,40.639041 9.3844592,40.523222 9.2388791,40.290335 9.1203621,40.053117 9.0301264,39.815442 8.9850074,39.696602 8.9475884,39.578432 8.9176261,39.460224 8.8876601,39.342008 8.8660011,39.224911 8.8520741,39.108548 7.6082075,38.775988 6.5000105,37.598849 6.4931035,35.966503 6.4842635,33.881062 9.0968202,33.6781 9.755623,34.209012 c 0.255904,0.206227 0.247661,0.614031 0.02126,0.540357 -1.4066369,-0.457995 -2.275572,0.444901 -2.211037,1.342922 0.067356,0.936806 0.5138703,1.577851 1.3039447,1.854046 0.0818,-0.681821 0.2970699,-1.379379 0.7449843,-1.945287 0.01351,-0.01719 0.02682,-0.03444 0.04075,-0.05138 0.04494,-0.05427 0.09238,-0.107105 0.141733,-0.158564 0.02482,-0.02604 0.05109,-0.05091 0.07707,-0.07618 0.04515,-0.04366 0.09038,-0.08725 0.139076,-0.128446 0.04575,-0.03889 0.09537,-0.07509 0.14439,-0.111614 0.04973,-0.0369 0.09922,-0.07376 0.152364,-0.108072 0.07737,-0.05016 0.157786,-0.09752 0.242718,-0.141733 0.03593,-0.01865 0.0743,-0.03562 0.111614,-0.05315 0.0746,-0.03514 0.151796,-0.06794 0.232089,-0.09833 0.03865,-0.01461 0.07782,-0.02907 0.117815,-0.04252 0.0897,-0.03021 0.18328,-0.0565 0.279923,-0.08061 0.03639,-0.0091 0.07157,-0.01928 0.108957,-0.02746 0.135224,-0.02956 0.275561,-0.05463 0.424314,-0.07175 -0.04247,-0.108203 -0.0922,-0.219042 -0.14882,-0.331301 -0.131036,-0.258417 -0.298003,-0.520217 -0.524413,-0.768902 -0.04544,-0.04995 -0.093,-0.09937 -0.142618,-0.147934 -0.0313,-0.03054 -0.06442,-0.06049 -0.09744,-0.09036 -0.0404,-0.03667 -0.081,-0.07343 -0.124016,-0.108957 -0.0468,-0.03846 -0.09618,-0.07561 -0.146163,-0.112501 -0.0345,-0.02561 -0.06847,-0.0514 -0.104528,-0.07618 -0.07331,-0.05007 -0.150441,-0.09728 -0.230316,-0.143505 -0.01566,-0.0091 -0.03015,-0.01938 -0.04606,-0.02835 -0.09903,-0.05537 -0.202609,-0.107364 -0.311812,-0.155906 -0.0025,-0.0011 -0.0046,-0.0024 -0.0071,-0.0035 -5.9e-4,-2.58e-4 -0.0012,-6.35e-4 -0.0018,-9.07e-4 -0.345818,-0.152661 -0.7431045,-0.269092 -1.1985309,-0.332187 -0.5403456,-0.07478 -1.0358083,-0.03415 -1.4828826,0.09567 -0.026718,0.0079 -0.055136,0.0127 -0.081497,0.02126 -0.4674989,0.151732 -0.8782555,0.407846 -1.2259915,0.744985 -0.6954583,0.674337 -1.0909141,1.364833 -1.1480381,2.508676 -0.059079,1.183115 0.1994785,1.877689 0.9070918,3.429942 0.070948,0.155615 0.1829832,0.363208 0.3118129,0.595279 l 0,0.0089 c 0.2300127,0.414171 0.5231041,0.92392 0.816737,1.47048 0.127538,0.234184 0.2540497,0.472174 0.3738212,0.717525 l -0.00177,9.07e-4 c 7.711e-4,0.0015 0.0019,0.0029 0.00268,0.0044 L 4.8437245,43.139936 C 4.0392433,41.192591 2.9726239,39.47643 2.948917,36.296034 c -6.7e-6,-9.07e-4 6.4e-6,-0.0018 0,-0.0027 -9.3e-6,-0.0012 9.1e-6,-0.0023 0,-0.0035 -0.00151,-0.203258 0.00806,-0.401998 0.027461,-0.596166 0.2941818,-2.944749 2.8999543,-4.817788 4.9898914,-4.818026 z m 4.0411658,5.055443 c -0.09565,0.0072 -0.186941,0.02066 -0.274608,0.03809 -0.02914,0.0058 -0.05587,0.0144 -0.08415,0.02126 -0.05374,0.01302 -0.106998,0.02587 -0.157678,0.04252 -0.03556,0.01168 -0.06956,0.02563 -0.103643,0.03898 -0.04465,0.0175 -0.08894,0.03562 -0.131102,0.05581 -0.0266,0.01273 -0.05233,0.02613 -0.07795,0.03986 -0.04667,0.02502 -0.09203,0.05161 -0.135532,0.07972 -0.0228,0.01474 -0.04538,0.02965 -0.06732,0.04518 -0.03951,0.02795 -0.07659,0.05741 -0.113387,0.0877 -0.0222,0.01826 -0.04521,0.03588 -0.06644,0.05492 -0.01718,0.01543 -0.03216,0.03282 -0.04872,0.04872 -0.0899,0.0863 -0.174072,0.17719 -0.246261,0.274608 -0.06101,0.08233 -0.110261,0.169808 -0.15945,0.256891 -0.04425,0.07843 -0.08345,0.157386 -0.118701,0.237403 -0.01956,0.04439 -0.04066,0.08851 -0.05758,0.132875 -0.03267,0.08576 -0.05816,0.170567 -0.0815,0.254234 -0.01099,0.03945 -0.02552,0.08016 -0.03455,0.118701 -0.02742,0.117165 -0.04784,0.230261 -0.05846,0.333959 0.851241,-0.06316 1.371275,-0.555343 1.675108,-1.106404 l 0,-0.0018 c 0.144018,-0.260482 0.238517,-0.532932 0.294097,-0.781304 0.0092,-0.04398 0.01722,-0.08717 0.02391,-0.129331 0.0082,-0.04742 0.01872,-0.09622 0.02392,-0.140848 6.7e-5,-6.35e-4 -6.7e-5,-0.0011 0,-0.0018 z" inkscape:connector-curvature="0" style="fill:currentColor;fill-opacity:1;fill-rule:evenodd;stroke:currentColor;stroke-width:0.5442552;stroke-linecap:butt;stroke-linejoin:miter;stroke-miterlimit:4;stroke-dasharray:none;stroke-opacity:1"/>
    <path sodipodi:type="inkscape:offset" inkscape:original="M -875.375 -181.59375 C -880.28683 -181.59319 -886.49153 -176.90112 -886.4375 -169.65625 C -886.38523 -162.64396 -884.05497 -158.85618 -882.28125 -154.5625 L -877.03125 -156.75 C -878.23675 -159.21943 -879.78646 -161.68394 -880.34375 -162.90625 C -881.90393 -166.32873 -882.474 -167.86017 -882.34375 -170.46875 C -882.2178 -172.99075 -881.37713 -174.54443 -879.84375 -176.03125 C -878.31034 -177.51793 -876.18923 -178.2568 -873.65625 -177.90625 C -868.29177 -177.16305 -866.56552 -173.10293 -866.4375 -171.125 C -866.33213 -169.49819 -867.50361 -165.49174 -871.625 -165.6875 C -874.48212 -165.82345 -876.0881 -167.40721 -876.28125 -170.09375 C -876.42354 -172.07375 -874.50765 -174.07232 -871.40625 -173.0625 C -870.90705 -172.90006 -870.8733 -173.79529 -871.4375 -174.25 C -872.89006 -175.42058 -878.64445 -174.97309 -878.625 -170.375 C -878.60697 -166.11394 -875.1985 -163.2691 -871.90625 -163.25 C -865.01125 -163.20942 -863.65725 -168.65233 -863.90625 -172.40625 C -864.18214 -176.56594 -869.42819 -181.59444 -875.375 -181.59375 z " class="ColorScheme-Text" xlink:href="#path3497" inkscape:radius="0" id="path3605" inkscape:href="#path3497" d="m -875.375,-181.59375 c -4.91183,5.6e-4 -11.11653,4.69263 -11.0625,11.9375 0.0523,7.01229 2.38253,10.80007 4.15625,15.09375 l 5.25,-2.1875 c -1.2055,-2.46943 -2.75521,-4.93394 -3.3125,-6.15625 -1.56018,-3.42248 -2.13025,-4.95392 -2,-7.5625 0.12595,-2.522 0.96662,-4.07568 2.5,-5.5625 1.53341,-1.48668 3.65452,-2.22555 6.1875,-1.875 5.36448,0.7432 7.09073,4.80332 7.21875,6.78125 0.10537,1.62681 -1.06611,5.63326 -5.1875,5.4375 -2.85712,-0.13595 -4.4631,-1.71971 -4.65625,-4.40625 -0.14229,-1.98 1.7736,-3.97857 4.875,-2.96875 0.4992,0.16244 0.53295,-0.73279 -0.0312,-1.1875 -1.45256,-1.17058 -7.20695,-0.72309 -7.1875,3.875 0.018,4.26106 3.4265,7.1059 6.71875,7.125 6.895,0.0406 8.249,-5.40233 8,-9.15625 -0.27589,-4.15969 -5.52194,-9.18819 -11.46875,-9.1875 z" style="opacity:0.26785715;fill:currentColor;fill-opacity:1;fill-rule:evenodd;stroke:none;stroke-width:0.85000002;stroke-linecap:butt;stroke-linejoin:miter;stroke-miterlimit:4;stroke-dasharray:none;stroke-opacity:1;filter:url(#filter7817)" transform="translate(0,1)"/>
    <path sodipodi:type="inkscape:offset" inkscape:original="M -853.125 -186.34375 C -855.92871 -185.19245 -864.90084 -181.46856 -865.125 -181.375 C -867.64034 -183.42918 -870.92402 -185.00696 -874.3125 -185.1875 C -882.53199 -185.70439 -890.10145 -178.41003 -890.125 -170.3125 C -890.48585 -163.02231 -887.16211 -156.2849 -884.15625 -149.84375 C -881.64153 -150.8929 -872.48055 -154.71603 -872.25 -154.8125 C -869.78127 -152.74947 -866.63948 -151.20701 -863.34375 -150.96875 C -855.25598 -150.29011 -847.72338 -157.28044 -847.3125 -165.1875 C -846.72546 -172.58395 -850.13649 -179.41761 -853 -186.03125 C -853.0417 -186.13443 -853.08336 -186.24056 -853.125 -186.34375 z " xlink:href="#path3493" inkscape:radius="-1.3299524" id="path3615" inkscape:href="#path3493" d="m -853.85352,-184.60156 c -3.51597,1.45042 -10.61696,4.39352 -10.75976,4.45312 a 1.3300854,1.3300854 0 0 1 -1.35352,-0.19726 c -2.33454,-1.90653 -5.39304,-3.35261 -8.41601,-3.51368 a 1.3300854,1.3300854 0 0 1 -0.0137,0 c -7.38625,-0.46449 -14.3773,6.27974 -14.39844,13.55079 a 1.3300854,1.3300854 0 0 1 -0.002,0.0625 c -0.3186,6.43675 2.50673,12.58628 5.34571,18.66797 3.33574,-1.39188 10.50799,-4.38583 10.6875,-4.46094 a 1.3300854,1.3300854 0 0 1 1.36719,0.20508 c 2.29298,1.91616 5.2038,3.32618 8.14843,3.53906 a 1.3300854,1.3300854 0 0 1 0.0156,0 c 7.2609,0.60926 14.22252,-5.85455 14.5918,-12.96094 a 1.3300854,1.3300854 0 0 1 0.002,-0.0371 c 0.52504,-6.61524 -2.43756,-12.95044 -5.21485,-19.30859 z" style="opacity:0.4107143;fill:none;fill-opacity:1;fill-rule:evenodd;stroke:url(#linearGradient3627);stroke-width:1.20000005;stroke-linecap:butt;stroke-linejoin:miter;stroke-miterlimit:4;stroke-dasharray:none;stroke-opacity:1"/>
    <rect x="-1.8457031e-06" id="rect3617" height="48" width="48" style="opacity:0.2;fill:none;fill-opacity:1;stroke:none;stroke-width:2.17700005;stroke-miterlimit:4;stroke-dasharray:none;stroke-opacity:1" y="2.9296871e-08"/>
  </g>
</svg>
