<?xml version='1.0' encoding='UTF-8' standalone='no'?>
<!-- Created with Inkscape (http://www.inkscape.org/) -->
<svg xmlns="http://www.w3.org/2000/svg" xmlns:cc="http://creativecommons.org/ns#" xmlns:inkscape="http://www.inkscape.org/namespaces/inkscape" sodipodi:docname="musescore.svg" xmlns:sodipodi="http://sodipodi.sourceforge.net/DTD/sodipodi-0.dtd" version="1.1" xmlns:dc="http://purl.org/dc/elements/1.1/" inkscape:version="0.91 r13725" id="svg2816" xmlns:svg="http://www.w3.org/2000/svg" inkscape:output_extension="org.inkscape.output.svg.inkscape" xmlns:rdf="http://www.w3.org/1999/02/22-rdf-syntax-ns#" height="22" sodipodi:version="0.32" width="22">
  <defs id="defs2818">
    <style type="text/css" id="current-color-scheme"><![CDATA[
.ColorScheme-Text{ color:#c8c8c8; }
]]></style>
    <inkscape:perspective sodipodi:type="inkscape:persp3d" inkscape:vp_z="64 : 32 : 1" inkscape:persp3d-origin="32 : 21.333333 : 1" inkscape:vp_x="0 : 32 : 1" id="perspective2824" inkscape:vp_y="0 : 1000 : 0"/>
    <inkscape:perspective sodipodi:type="inkscape:persp3d" inkscape:vp_z="64 : 32 : 1" inkscape:persp3d-origin="32 : 21.333333 : 1" inkscape:vp_x="0 : 32 : 1" id="perspective2824-8" inkscape:vp_y="0 : 1000 : 0"/>
    <inkscape:perspective sodipodi:type="inkscape:persp3d" inkscape:vp_z="1 : 0.5 : 1" inkscape:persp3d-origin="0.5 : 0.33333333 : 1" inkscape:vp_x="0 : 0.5 : 1" id="perspective2824-5" inkscape:vp_y="0 : 1000 : 0"/>
  </defs>
  <sodipodi:namedview inkscape:object-paths="false" inkscape:snap-smooth-nodes="false" inkscape:window-x="38" inkscape:current-layer="layer1" inkscape:window-y="0" inkscape:snap-intersection-paths="false" inkscape:window-height="1080" bordercolor="#666666" inkscape:grid-bbox="true" inkscape:window-width="1882" inkscape:snap-midpoints="false" borderopacity="1.0" inkscape:snap-global="true" inkscape:window-maximized="1" inkscape:pageshadow="2" id="base" pagecolor="#ffffff" inkscape:zoom="16" inkscape:cx="-4.0679088" inkscape:document-units="px" inkscape:cy="1.9221349" inkscape:object-nodes="false" showgrid="true" inkscape:pageopacity="0.0">
    <inkscape:grid enabled="true" visible="true" empspacing="4" type="xygrid" id="grid2826" snapvisiblegridlinesonly="true"/>
  </sodipodi:namedview>
  <metadata id="metadata2821">
    <rdf:RDF>
      <cc:Work rdf:about="">
        <dc:format>image/svg+xml</dc:format>
        <dc:type rdf:resource="http://purl.org/dc/dcmitype/StillImage"/>
        <dc:title/>
      </cc:Work>
    </rdf:RDF>
  </metadata>
  <g inkscape:label="Layer 1" id="layer1" inkscape:groupmode="layer" transform="translate(0,-42)">
    <path sodipodi:nodetypes="sscscsssssscccssccscccccsssccsssscccssccccccssssssscssssscccccssscssscssccsss" id="path2385" d="m 16.122531,44.386719 c 1.034709,0 1.895143,0.247665 2.54676,0.75956 0.651619,0.511894 1.076142,1.27701 1.290756,2.261305 0.07423,0.340394 0.145044,0.544401 0.03724,0.789347 -0.0539,0.122465 -0.182593,0.221202 -0.295385,0.255669 -0.112792,0.0343 -0.21678,0.03723 -0.3351,0.03723 -0.209805,0 -0.417489,-0.05014 -0.565947,-0.193614 -0.148458,-0.143473 -0.198578,-0.34554 -0.198578,-0.551053 2e-6,-0.627982 -0.248644,-1.095414 -0.64786,-1.43969 -0.399219,-0.344276 -0.957645,-0.555983 -1.543942,-0.605662 -1.172594,-0.09936 -2.408727,0.423875 -2.785055,1.655643 -0.163955,0.536642 -0.379422,0.91237 -0.71488,1.077284 -0.08387,0.04125 -0.184393,0.06698 -0.292903,0.05213 -0.108497,-0.01486 -0.213159,-0.07486 -0.280491,-0.153898 -0.134639,-0.158063 -0.166309,-0.352629 -0.166309,-0.595734 0,-1.859324 1.811652,-3.348519 3.951699,-3.348519 z m 0.198578,2.497116 c 0.154331,0.02226 0.296706,0.0864 0.407085,0.191131 0.220738,0.209466 0.293392,0.537451 0.225882,0.88119 -0.06405,0.326179 -0.306123,0.560614 -0.578358,0.672682 -0.272237,0.112092 -0.621397,0.108699 -0.861332,-0.126593 -0.238805,-0.234166 -0.283844,-0.569469 -0.2234,-0.861332 0.06043,-0.291867 0.234296,-0.581742 0.548572,-0.699987 0.160899,-0.06051 0.32722,-0.07934 0.481551,-0.05709 z M 4.8979181,49.591941 c 0.4945335,-3.73e-4 0.8463697,0.02792 1.1691269,0.151415 0.3227573,0.123496 0.5849596,0.332966 0.9035292,0.645378 0.2878154,0.282246 0.4581855,0.405636 0.5088558,0.434389 0.00865,-0.01178 8.078e-4,-0.002 0.012417,-0.02234 0.3395053,-0.594935 1.105556,-0.942446 1.9460573,-1.107071 0.840504,-0.164626 1.775623,-0.134572 2.504562,0.191131 0.602397,0.269158 1.036855,0.660771 1.28331,1.305649 0.24645,0.644877 0.334761,1.522897 0.377298,2.864486 0.05053,1.593845 0.100948,2.448976 0.228365,2.919094 0.127408,0.470121 0.277407,0.571959 0.719845,0.836509 0.911666,0.545095 1.78104,0.544294 2.708105,-0.0099 0.572082,-0.34204 0.868137,-0.668787 1.069838,-1.372669 0.201698,-0.703882 0.273045,-1.793638 0.273045,-3.542132 0,-1.396138 0.0074,-2.154268 0.0695,-2.60137 0.03107,-0.223548 0.06194,-0.383536 0.196096,-0.521267 0.06708,-0.06887 0.167503,-0.115935 0.253187,-0.129075 0.08567,-0.01319 0.153019,-0.0045 0.215954,0.0074 0.133502,0.02565 0.307793,0.116928 0.402119,0.26808 0.09431,0.151155 0.13535,0.325558 0.16631,0.580841 0.06189,0.510564 0.07198,1.358177 0.07198,2.876896 0,1.492205 -0.01594,2.367031 -0.08688,2.978668 -0.07094,0.611637 -0.214446,0.972417 -0.439353,1.347847 -0.447491,0.746984 -1.216269,1.314471 -2.075139,1.638267 -0.858873,0.323799 -1.812849,0.40914 -2.648532,0.146452 -1.009107,-0.317206 -1.696274,-0.727929 -2.080103,-1.499264 -0.383827,-0.771335 -0.476587,-1.836058 -0.476587,-3.509864 0,-1.044748 -0.01835,-1.670454 -0.08191,-2.072655 -0.06357,-0.4022 -0.153067,-0.571109 -0.340065,-0.80424 -0.571929,-0.713025 -1.425697,-0.884978 -2.3779697,-0.441836 -0.6260835,0.29135 -0.9329172,0.565143 -1.1443048,1.25104 -0.2113876,0.685897 -0.278009,1.800397 -0.278009,3.63894 0,1.348391 0.065768,2.103199 0.054609,2.574064 -0.00558,0.235432 -0.021506,0.419083 -0.1489333,0.585806 C 7.7268259,59.36736 7.5198487,59.41413 7.3354678,59.424043 7.227702,59.429762 7.1223012,59.426585 7.015261,59.384328 6.9082142,59.342038 6.808832,59.256965 6.7496564,59.160911 6.6313036,58.968757 6.618379,58.757439 6.6106519,58.473334 6.5951889,57.905122 6.6600915,57.014159 6.6354741,55.574098 6.610911,54.137015 6.5740968,53.235386 6.5063986,52.645075 6.4387012,52.054766 6.3458465,51.795608 6.2035673,51.582683 5.831553,51.025945 5.1853481,50.817661 4.5032446,50.91993 c -0.6821036,0.10228 -1.3706584,0.527354 -1.757414,1.231183 -0.2844215,0.517596 -0.3981603,1.324498 -0.4468001,3.785389 -0.025564,1.293607 -0.019119,2.094996 -0.06702,2.606335 -0.02395,0.255668 -0.056364,0.440514 -0.1489334,0.605662 -0.092568,0.165158 -0.3013633,0.280491 -0.4765868,0.280491 -0.1826248,0 -0.3978807,-0.04388 -0.5287135,-0.210988 C 0.946945,59.05089 0.9354393,58.865848 0.92884334,58.627233 c -0.0132135,-0.47723 0.0498904,-1.246088 0.0521272,-2.618746 0.002148,-1.34135 0.0242068,-2.197271 0.0943248,-2.834699 0.070119,-0.637429 0.1956083,-1.061776 0.3946735,-1.491816 0.6267051,-1.35386 1.8376858,-2.088827 3.4279501,-2.090031 z" inkscape:connector-curvature="0" style="color:#c8c8c8;opacity:1;fill:currentColor;fill-opacity:1;stroke:none;stroke-width:3;stroke-miterlimit:4;stroke-dasharray:none;stroke-dashoffset:0;stroke-opacity:1"/>
  </g>
</svg>
