<?xml version='1.0' encoding='UTF-8' standalone='no'?>
<!-- Created with Inkscape (http://www.inkscape.org/) -->
<svg xmlns="http://www.w3.org/2000/svg" xmlns:cc="http://creativecommons.org/ns#" xmlns:inkscape="http://www.inkscape.org/namespaces/inkscape" sodipodi:docname="necrodancer.svg" xmlns:sodipodi="http://sodipodi.sourceforge.net/DTD/sodipodi-0.dtd" version="1.0" xmlns:dc="http://purl.org/dc/elements/1.1/" inkscape:version="0.91 r13725" id="svg4776" xmlns:svg="http://www.w3.org/2000/svg" inkscape:output_extension="org.inkscape.output.svg.inkscape" xmlns:rdf="http://www.w3.org/1999/02/22-rdf-syntax-ns#" height="22" sodipodi:version="0.32" width="22">
  <metadata id="metadata4781">
    <rdf:RDF>
      <cc:Work rdf:about="">
        <dc:format>image/svg+xml</dc:format>
        <dc:type rdf:resource="http://purl.org/dc/dcmitype/StillImage"/>
        <dc:title/>
      </cc:Work>
    </rdf:RDF>
  </metadata>
  <defs id="defs4779">
    <style type="text/css" id="current-color-scheme"><![CDATA[
.ColorScheme-Text{ color:#c8c8c8; }
]]></style>
    <inkscape:perspective sodipodi:type="inkscape:persp3d" inkscape:vp_z="744.09448 : 526.18109 : 1" inkscape:persp3d-origin="372.04724 : 350.78739 : 1" inkscape:vp_x="0 : 526.18109 : 1" id="perspective4783" inkscape:vp_y="0 : 1000 : 0"/>
  </defs>
  <sodipodi:namedview inkscape:window-x="38" inkscape:current-layer="svg4776" inkscape:window-y="0" inkscape:window-height="1080" gridtolerance="10.0" guidetolerance="10.0" bordercolor="#666666" inkscape:window-width="1882" borderopacity="1.0" inkscape:window-maximized="1" inkscape:pageshadow="2" id="base" pagecolor="#ffffff" inkscape:zoom="1.8046875" inkscape:cx="60.954563" inkscape:cy="67.15016" showgrid="true" inkscape:pageopacity="0.0" objecttolerance="10.0">
    <inkscape:grid type="xygrid" id="grid4135"/>
  </sodipodi:namedview>
  <path class="ColorScheme-Text" id="path4136" d="M 8 2 L 8 3 L 6 3 L 6 4 L 4 4 L 4 5 L 3 5 L 3 6 L 2 6 L 2 8 L 1 8 L 1 13 L 2 13 L 2 14 L 3 14 L 3 15 L 4 15 L 4 19 L 5 19 L 5 20 L 7 20 L 7 18 L 8 18 L 8 20 L 10 20 L 10 18 L 12 18 L 12 20 L 14 20 L 14 18 L 15 18 L 15 16 L 16 16 L 16 15 L 18 15 L 18 14 L 19 14 L 19 13 L 20 13 L 20 11 L 21 11 L 21 7 L 20 7 L 20 5 L 19 5 L 19 4 L 18 4 L 18 3 L 15 3 L 15 2 L 8 2 z M 11 7 L 14 7 L 14 8 L 15 8 L 15 12 L 14 12 L 14 13 L 10 13 L 10 8 L 11 8 L 11 7 z M 3 8 L 5 8 L 5 9 L 6 9 L 6 10 L 5 10 L 5 12 L 6 12 L 6 13 L 4 13 L 4 12 L 3 12 L 3 8 z M 7 14 L 9 14 L 9 15 L 10 15 L 10 16 L 6 16 L 6 15 L 7 15 L 7 14 z " style="fill:currentColor;fill-rule:evenodd;stroke:none;stroke-width:1px;stroke-linecap:butt;stroke-linejoin:miter;stroke-opacity:1"/>
  <rect x="11" class="ColorScheme-Text" ry="0" id="rect4152" height="3" width="2" style="opacity:1;fill:currentColor;fill-opacity:1;stroke:none;stroke-width:2;stroke-linecap:square;stroke-linejoin:round;stroke-miterlimit:4;stroke-dasharray:none" y="9"/>
</svg>
