<?xml version='1.0' encoding='UTF-8' standalone='no'?>
<!-- Created with Inkscape (http://www.inkscape.org/) -->
<svg xmlns="http://www.w3.org/2000/svg" xmlns:cc="http://creativecommons.org/ns#" xmlns:inkscape="http://www.inkscape.org/namespaces/inkscape" sodipodi:docname="meter.svg" xmlns:sodipodi="http://sodipodi.sourceforge.net/DTD/sodipodi-0.dtd" version="1.1" xmlns:dc="http://purl.org/dc/elements/1.1/" inkscape:version="0.48.4 r9939" id="svg2816" xmlns:svg="http://www.w3.org/2000/svg" inkscape:output_extension="org.inkscape.output.svg.inkscape" xmlns:rdf="http://www.w3.org/1999/02/22-rdf-syntax-ns#" height="64px" sodipodi:version="0.32" width="64px">
  <defs id="defs2818">
    <style type="text/css" id="current-color-scheme"><![CDATA[
.ColorScheme-Text{ color:#c8c8c8; }
]]></style>
    <inkscape:perspective sodipodi:type="inkscape:persp3d" inkscape:vp_z="64 : 32 : 1" inkscape:persp3d-origin="32 : 21.333333 : 1" inkscape:vp_x="0 : 32 : 1" id="perspective2824" inkscape:vp_y="0 : 1000 : 0"/>
    <inkscape:perspective sodipodi:type="inkscape:persp3d" inkscape:vp_z="64 : 32 : 1" inkscape:persp3d-origin="32 : 21.333333 : 1" inkscape:vp_x="0 : 32 : 1" id="perspective2824-8" inkscape:vp_y="0 : 1000 : 0"/>
    <inkscape:perspective sodipodi:type="inkscape:persp3d" inkscape:vp_z="1 : 0.5 : 1" inkscape:persp3d-origin="0.5 : 0.33333333 : 1" inkscape:vp_x="0 : 0.5 : 1" id="perspective2824-5" inkscape:vp_y="0 : 1000 : 0"/>
  </defs>
  <sodipodi:namedview inkscape:window-x="40" inkscape:current-layer="layer1" inkscape:window-y="0" inkscape:window-height="1080" bordercolor="#666666" inkscape:grid-bbox="true" inkscape:window-width="1880" borderopacity="1.0" inkscape:snap-global="false" inkscape:window-maximized="1" inkscape:pageshadow="2" id="base" pagecolor="#ffffff" inkscape:zoom="10.9375" inkscape:cx="24.326948" inkscape:document-units="px" inkscape:cy="37.955189" showgrid="true" inkscape:pageopacity="0.0">
    <inkscape:grid enabled="true" visible="true" empspacing="4" type="xygrid" id="grid2826" snapvisiblegridlinesonly="true"/>
  </sodipodi:namedview>
  <metadata id="metadata2821">
    <rdf:RDF>
      <cc:Work rdf:about="">
        <dc:format>image/svg+xml</dc:format>
        <dc:type rdf:resource="http://purl.org/dc/dcmitype/StillImage"/>
        <dc:title/>
      </cc:Work>
    </rdf:RDF>
  </metadata>
  <g inkscape:label="Layer 1" id="layer1" inkscape:groupmode="layer">
    <path class="ColorScheme-Text" id="rect2998" d="M 9.0625 0.09375 C 4.09866 0.09375 0.09375 4.09866 0.09375 9.0625 L 0.09375 55.125 C 0.09375 60.08884 4.09866 64.09375 9.0625 64.09375 L 55.3125 64.09375 C 60.27634 64.09375 64.28125 60.08884 64.28125 55.125 L 64.28125 9.0625 C 64.28125 4.09866 60.27634 0.09375 55.3125 0.09375 L 9.0625 0.09375 z M 4.5625 9.03125 L 6.59375 9.03125 C 6.7773008 9.03125 6.9521444 9.0585577 7.125 9.09375 C 6.5162346 9.2863785 6.09375 9.8883851 6.09375 10.5625 L 6.09375 33.90625 C 6.09375 34.739878 6.760123 35.4375 7.59375 35.4375 L 9.25 35.4375 L 9.25 52.84375 C 9.25 54.312157 8.0621573 55.5 6.59375 55.5 L 4.5625 55.5 C 3.0940927 55.5 1.90625 54.312157 1.90625 52.84375 L 1.90625 11.6875 C 1.90625 10.219092 3.0940927 9.03125 4.5625 9.03125 z M 13.28125 9.03125 L 15.3125 9.03125 C 15.526643 9.03125 15.738448 9.077632 15.9375 9.125 C 15.344505 9.326633 14.90625 9.8996065 14.90625 10.5625 L 14.90625 33.90625 C 14.90625 34.739878 15.572624 35.4375 16.40625 35.4375 L 17.96875 35.4375 L 17.96875 52.84375 C 17.96875 54.312157 16.780907 55.5 15.3125 55.5 L 13.28125 55.5 C 11.812843 55.5 10.625 54.312157 10.625 52.84375 L 10.625 35.4375 L 11.9375 35.4375 C 12.771128 35.4375 13.40625 34.739878 13.40625 33.90625 L 13.40625 10.5625 C 13.40625 9.9510428 13.052674 9.423385 12.53125 9.1875 C 12.773256 9.1151638 13.015102 9.03125 13.28125 9.03125 z M 22.09375 9.03125 L 24.125 9.03125 C 25.593406 9.03125 26.78125 10.219092 26.78125 11.6875 L 26.78125 52.84375 C 26.78125 54.312157 25.593406 55.5 24.125 55.5 L 22.09375 55.5 C 20.625342 55.5 19.46875 54.312157 19.46875 52.84375 L 19.46875 35.4375 L 20.75 35.4375 C 21.583626 35.4375 22.25 34.739878 22.25 33.90625 L 22.25 10.5625 C 22.25 9.9510428 21.865174 9.423385 21.34375 9.1875 C 21.585756 9.1151638 21.8276 9.03125 22.09375 9.03125 z M 30.9375 9.03125 L 32.96875 9.03125 C 33.181429 9.03125 33.364554 9.078125 33.5625 9.125 C 32.969504 9.326633 32.5625 9.8996065 32.5625 10.5625 L 32.5625 33.90625 C 32.5625 34.739878 33.228872 35.4375 34.0625 35.4375 L 35.625 35.4375 L 35.625 52.84375 C 35.625 54.312157 34.437157 55.5 32.96875 55.5 L 30.9375 55.5 C 29.469094 55.5 28.28125 54.312157 28.28125 52.84375 L 28.28125 11.6875 C 28.28125 10.219092 29.469094 9.03125 30.9375 9.03125 z M 39.75 9.03125 L 41.78125 9.03125 C 41.995392 9.03125 42.207198 9.077632 42.40625 9.125 C 41.813255 9.326633 41.375 9.8996065 41.375 10.5625 L 41.375 33.90625 C 41.375 34.739878 42.041373 35.4375 42.875 35.4375 L 44.4375 35.4375 L 44.4375 52.84375 C 44.4375 54.312157 43.249657 55.5 41.78125 55.5 L 39.75 55.5 C 38.281593 55.5 37.09375 54.312157 37.09375 52.84375 L 37.09375 35.4375 L 38.40625 35.4375 C 39.239877 35.4375 39.875 34.739878 39.875 33.90625 L 39.875 10.5625 C 39.875 9.9510428 39.521424 9.423385 39 9.1875 C 39.242006 9.1151638 39.483852 9.03125 39.75 9.03125 z M 48.5625 9.03125 L 50.59375 9.03125 C 50.807893 9.03125 51.019699 9.077632 51.21875 9.125 C 50.625754 9.326633 50.1875 9.8996065 50.1875 10.5625 L 50.1875 33.90625 C 50.1875 34.739878 50.885122 35.4375 51.71875 35.4375 L 53.25 35.4375 L 53.25 52.84375 C 53.25 54.312157 52.062156 55.5 50.59375 55.5 L 48.5625 55.5 C 47.094093 55.5 45.90625 54.312157 45.90625 52.84375 L 45.90625 35.4375 L 47.21875 35.4375 C 48.052377 35.4375 48.71875 34.739878 48.71875 33.90625 L 48.71875 10.5625 C 48.71875 9.9510428 48.333924 9.423385 47.8125 9.1875 C 48.054506 9.1151638 48.296351 9.03125 48.5625 9.03125 z M 57.40625 9.03125 L 59.4375 9.03125 C 60.905907 9.03125 62.09375 10.219093 62.09375 11.6875 L 62.09375 52.84375 C 62.09375 54.312157 60.905907 55.5 59.4375 55.5 L 57.40625 55.5 C 55.937843 55.5 54.75 54.312157 54.75 52.84375 L 54.75 11.6875 C 54.75 10.219093 55.937843 9.03125 57.40625 9.03125 z " style="fill:currentColor;fill-opacity:0.5;stroke:none"/>
    <rect x="6.0805755" class="ColorScheme-Text" ry="1.5047419" id="rect3024" height="26.377256" width="7.3404598" style="fill:currentColor;fill-opacity:1;stroke:none" y="9.0426245"/>
    <rect x="14.903244" class="ColorScheme-Text" ry="1.5047419" id="rect3026" height="26.377256" width="7.3404598" style="fill:currentColor;fill-opacity:1;stroke:none" y="9.0426245"/>
    <rect x="32.54858" class="ColorScheme-Text" ry="1.5047419" id="rect3028" height="26.377256" width="7.3404598" style="fill:currentColor;fill-opacity:1;stroke:none" y="9.0426245"/>
    <rect x="41.371246" class="ColorScheme-Text" ry="1.5047419" id="rect3030" height="26.377256" width="7.3404598" style="fill:currentColor;fill-opacity:1;stroke:none" y="9.0426245"/>
    <rect x="50.182697" class="ColorScheme-Text" ry="1.5047419" id="rect3099" height="26.377256" width="7.3404598" style="fill:currentColor;fill-opacity:1;stroke:none" y="9.0426245"/>
  </g>
</svg>
