<?xml version='1.0' encoding='UTF-8' standalone='no'?>
<!-- Created with Inkscape (http://www.inkscape.org/) -->
<svg xmlns="http://www.w3.org/2000/svg" xmlns:cc="http://creativecommons.org/ns#" xmlns:inkscape="http://www.inkscape.org/namespaces/inkscape" sodipodi:docname="piano_inv.svg" xmlns:sodipodi="http://sodipodi.sourceforge.net/DTD/sodipodi-0.dtd" version="1.1" xmlns:dc="http://purl.org/dc/elements/1.1/" inkscape:version="0.91 r13725" id="svg2816" xmlns:svg="http://www.w3.org/2000/svg" inkscape:output_extension="org.inkscape.output.svg.inkscape" xmlns:rdf="http://www.w3.org/1999/02/22-rdf-syntax-ns#" height="22" sodipodi:version="0.32" width="22">
  <defs id="defs2818">
    <style type="text/css" id="current-color-scheme"><![CDATA[
.ColorScheme-Text{ color:#c8c8c8; }
]]></style>
    <inkscape:perspective sodipodi:type="inkscape:persp3d" inkscape:vp_z="64 : 32 : 1" inkscape:persp3d-origin="32 : 21.333333 : 1" inkscape:vp_x="0 : 32 : 1" id="perspective2824" inkscape:vp_y="0 : 1000 : 0"/>
    <inkscape:perspective sodipodi:type="inkscape:persp3d" inkscape:vp_z="64 : 32 : 1" inkscape:persp3d-origin="32 : 21.333333 : 1" inkscape:vp_x="0 : 32 : 1" id="perspective2824-8" inkscape:vp_y="0 : 1000 : 0"/>
    <inkscape:perspective sodipodi:type="inkscape:persp3d" inkscape:vp_z="1 : 0.5 : 1" inkscape:persp3d-origin="0.5 : 0.33333333 : 1" inkscape:vp_x="0 : 0.5 : 1" id="perspective2824-5" inkscape:vp_y="0 : 1000 : 0"/>
  </defs>
  <sodipodi:namedview inkscape:window-x="30" inkscape:current-layer="g4146" inkscape:window-y="0" inkscape:window-height="1080" bordercolor="#666666" inkscape:grid-bbox="true" inkscape:window-width="1890" inkscape:snap-grids="true" borderopacity="1.0" inkscape:snap-global="true" inkscape:window-maximized="1" inkscape:pageshadow="2" id="base" pagecolor="#ffffff" inkscape:zoom="1.2741477" inkscape:cx="95.382371" inkscape:document-units="px" inkscape:cy="-28.909366" showgrid="true" inkscape:pageopacity="0.0">
    <inkscape:grid enabled="true" visible="true" empspacing="4" type="xygrid" id="grid2826" snapvisiblegridlinesonly="true"/>
  </sodipodi:namedview>
  <metadata id="metadata2821">
    <rdf:RDF>
      <cc:Work rdf:about="">
        <dc:format>image/svg+xml</dc:format>
        <dc:type rdf:resource="http://purl.org/dc/dcmitype/StillImage"/>
        <dc:title/>
      </cc:Work>
    </rdf:RDF>
  </metadata>
  <g inkscape:label="Layer 1" id="layer1" inkscape:groupmode="layer" transform="translate(0,-42)">
    <g id="g4146" transform="translate(0.90625,-1.1229615)">
      <path class="ColorScheme-Text" id="rect4156" d="M 4 1 C 2.3380008 1 1 2.3380008 1 4 L 1 18 C 1 19.661999 2.3380008 21 4 21 L 18 21 C 19.661999 21 21 19.661999 21 18 L 21 4 C 21 2.3380008 19.661999 1 18 1 L 4 1 z M 2 4 L 4 4 L 4 12 L 2 12 L 2 4 z M 5 4 L 7 4 L 7 12 L 5 12 L 5 4 z M 11 4 L 13 4 L 13 12 L 11 12 L 11 4 z M 14 4 L 16 4 L 16 12 L 14 12 L 14 4 z M 17 4 L 19 4 L 19 12 L 17 12 L 17 4 z " style="fill:currentColor;fill-opacity:0.25098039;stroke:none" transform="translate(-0.90625,43.122962)"/>
      <path class="ColorScheme-Text" id="rect4158" d="M 0.97070312 4 L 0.97070312 18 L 2.9707031 18 L 2.9707031 12 L 2 12 L 2 4 L 0.97070312 4 z M 4 4 L 4 12 L 3.9648438 12 L 3.9648438 18 L 5.9648438 18 L 5.9648438 12 L 5 12 L 5 4 L 4 4 z M 7 4 L 7 12 L 6.9707031 12 L 6.9707031 18 L 8.9707031 18 L 8.9707031 4 L 7 4 z M 9.9648438 4 L 9.9648438 18 L 11.964844 18 L 11.964844 12 L 11 12 L 11 4 L 9.9648438 4 z M 13 4 L 13 12 L 12.970703 12 L 12.970703 18 L 14.970703 18 L 14.970703 12 L 14 12 L 14 4 L 13 4 z M 16 4 L 16 12 L 15.964844 12 L 15.964844 18 L 17.964844 18 L 17.964844 12 L 17 12 L 17 4 L 16 4 z M 19 4 L 19 12 L 18.970703 12 L 18.970703 18 L 20.970703 18 L 20.970703 4 L 19 4 z " style="fill:currentColor;fill-opacity:1;stroke:none" transform="translate(-0.90625,43.122962)"/>
    </g>
  </g>
</svg>
