<?xml version="1.0" encoding="UTF-8" standalone="no"?>
<!-- Created with Inkscape (http://www.inkscape.org/) -->

<svg
   xmlns:dc="http://purl.org/dc/elements/1.1/"
   xmlns:cc="http://creativecommons.org/ns#"
   xmlns:rdf="http://www.w3.org/1999/02/22-rdf-syntax-ns#"
   xmlns:svg="http://www.w3.org/2000/svg"
   xmlns="http://www.w3.org/2000/svg"
   xmlns:sodipodi="http://sodipodi.sourceforge.net/DTD/sodipodi-0.dtd"
   xmlns:inkscape="http://www.inkscape.org/namespaces/inkscape"
   sodipodi:docname="reactor.svg"
   version="1.1"
   inkscape:version="0.91 r13725"
   id="svg2"
   inkscape:output_extension="org.inkscape.output.svg.inkscape"
   height="22"
   sodipodi:version="0.32"
   width="22">
  <metadata
     id="metadata10">
    <rdf:RDF>
      <cc:Work
         rdf:about="">
        <dc:format>image/svg+xml</dc:format>
        <dc:type
           rdf:resource="http://purl.org/dc/dcmitype/StillImage" />
        <dc:title></dc:title>
      </cc:Work>
    </rdf:RDF>
  </metadata>
  <sodipodi:namedview
     inkscape:window-x="30"
     inkscape:current-layer="layer4"
     inkscape:window-y="0"
     inkscape:window-height="1080"
     gridtolerance="10.0"
     guidetolerance="10.0"
     bordercolor="#666666"
     inkscape:window-width="1890"
     borderopacity="1.0"
     inkscape:window-maximized="1"
     inkscape:pageshadow="2"
     id="base"
     pagecolor="#ffffff"
     inkscape:zoom="15.4375"
     inkscape:cx="4.8054547"
     inkscape:cy="10.224844"
     showgrid="true"
     inkscape:pageopacity="0.0"
     objecttolerance="10.0">
    <inkscape:grid
       type="xygrid"
       id="grid4160" />
  </sodipodi:namedview>
  <defs
     id="defs4">
    <style
       type="text/css"
       id="current-color-scheme"><![CDATA[
.ColorScheme-Text{ color:#c8c8c8; }

.ColorScheme-{ color:#eff0f1; }

.ColorScheme-NegativeText{ color:#da4453; }

.ColorScheme-PositiveText{ color:#27ae60; }

.ColorScheme-NeutralText{ color:#f67400; }
]]></style>
    <inkscape:perspective
       sodipodi:type="inkscape:persp3d"
       inkscape:vp_z="128 : 64 : 1"
       inkscape:persp3d-origin="64 : 42.666667 : 1"
       inkscape:vp_x="0 : 64 : 1"
       id="perspective12"
       inkscape:vp_y="0 : 1000 : 0" />
  </defs>
  <g
     id="layer1"
     inkscape:groupmode="layer"
     transform="translate(0,-106)" />
  <g
     id="layer2"
     inkscape:groupmode="layer"
     style="opacity:1"
     transform="translate(0,-106)" />
  <g
     id="layer3"
     inkscape:groupmode="layer"
     style="opacity:1"
     transform="translate(0,-106)" />
  <g
     id="layer4"
     inkscape:groupmode="layer"
     style="opacity:1"
     transform="translate(0,-106)">
    <path
       class="ColorScheme-Text"
       style="fill:currentColor"
       d="m 2.2032265,125.22114 c -0.049603,-0.079 -0.3243261,-0.5491 -0.6104976,-1.04455 l -0.5203143,-0.9008 0.3205275,-0.28692 c 0.1762928,-0.15781 0.7440345,-0.67597 1.2616613,-1.15145 0.5176204,-0.47549 0.9622162,-0.86403 0.9879894,-0.86341 0.025773,6.3e-4 0.1380382,0.25537 0.2494807,0.56614 0.3406687,0.94999 1.01429,2.04895 1.591016,2.59563 0.106533,0.10098 0.1936963,0.21482 0.1936963,0.25296 0,0.0636 -0.6585214,0.25781 -2.4799878,0.73112 -0.3798464,0.0986 -0.7385033,0.19423 -0.7970124,0.21227 -0.067018,0.0207 -0.1397455,-0.0204 -0.1965591,-0.11099 z m 17.1919735,0.0439 c -0.138126,-0.048 -0.36415,-0.11433 -0.502276,-0.14746 -0.225051,-0.054 -2.159938,-0.58803 -2.432573,-0.6714 -0.08986,-0.0274 -0.03252,-0.12542 0.319209,-0.54511 0.235819,-0.2814 0.518412,-0.64357 0.627983,-0.80486 0.280924,-0.41349 0.682092,-1.25662 0.834582,-1.75403 0.07114,-0.23208 0.153201,-0.42196 0.182345,-0.42196 0.107644,0 2.508745,2.33015 2.503105,2.42915 -0.0074,0.12902 -1.133323,1.96507 -1.218452,1.98684 -0.03453,0.009 -0.175796,-0.0232 -0.313923,-0.0712 z M 9.5367963,125.1447 c -1.4987103,-0.38534 -2.7410274,-1.19074 -3.6234449,-2.34912 -0.3992342,-0.52408 -0.888639,-1.52069 -1.059087,-2.15667 -0.1672579,-0.62407 -0.2299859,-1.86812 -0.1222665,-2.42488 0.2685489,-1.38807 0.8176491,-2.42822 1.7889256,-3.38877 0.8383238,-0.82903 1.8552759,-1.40572 2.9857172,-1.6931 0.6514023,-0.16559 2.4106733,-0.16821 3.0136563,-0.005 1.989271,0.54018 3.440157,1.70352 4.266816,3.42118 1.133085,2.35435 0.648657,5.05065 -1.24307,6.91882 -0.580933,0.5737 -1.174316,0.96984 -1.979,1.32122 -0.870118,0.37996 -1.2884,0.46222 -2.457398,0.48329 -0.885003,0.016 -1.071944,7.9e-4 -1.5708487,-0.12748 z m 2.4053937,-1.69429 c 0.67308,-0.13259 1.631958,-0.61025 2.133681,-1.06292 0.976386,-0.88092 1.459205,-1.95612 1.457009,-3.24463 -0.0034,-2.00269 -1.245167,-3.61265 -3.263722,-4.23149 -0.384643,-0.11794 -0.608871,-0.1438 -1.224298,-0.14126 -0.901636,0.004 -1.3656877,0.10817 -2.07659,0.4673 -1.6965317,0.8571 -2.6760642,2.65351 -2.421925,4.44167 0.086146,0.60614 0.1806624,0.9 0.4755674,1.47856 0.6036919,1.18439 1.8962366,2.10225 3.3009256,2.34404 0.364879,0.0629 1.169501,0.0373 1.619352,-0.0513 z m -1.399605,-2.27234 c -0.6572089,-0.172 -1.1946381,-0.60725 -1.4641662,-1.18581 -0.2206057,-0.47355 -0.2318629,-1.20216 -0.025581,-1.65578 0.2649445,-0.5826 0.6913399,-0.95995 1.3255072,-1.17307 0.991267,-0.33312 2.102281,0.13382 2.579161,1.08399 0.165695,0.33016 0.190633,0.44675 0.190633,0.89123 0,0.44449 -0.02493,0.56107 -0.190633,0.89121 -0.349232,0.69584 -1.034758,1.14138 -1.812563,1.17802 -0.227707,0.0107 -0.498766,-0.002 -0.602361,-0.0297 z m -1.6025367,-9.20592 c -0.0027,-0.15118 0.7723685,-3.14546 0.835116,-3.22614 0.086819,-0.11163 2.3260257,-0.11163 2.4161217,0 0.0347,0.043 0.206744,0.64075 0.382333,1.32838 0.175589,0.68763 0.361747,1.3903 0.413681,1.56149 0.05192,0.17119 0.07405,0.33046 0.04915,0.35397 -0.02489,0.0236 -0.257166,-0.002 -0.516151,-0.0553 -0.833753,-0.17334 -2.5265988,-0.12973 -3.4374516,0.0885 -0.093511,0.0224 -0.1417864,0.005 -0.1427973,-0.0511 z"
       id="path4276"
       inkscape:connector-curvature="0" />
  </g>
</svg>
