<?xml version='1.0' encoding='UTF-8' standalone='no'?>
<!-- Created with Inkscape (http://www.inkscape.org/) -->
<svg xmlns="http://www.w3.org/2000/svg" xmlns:cc="http://creativecommons.org/ns#" xmlns:inkscape="http://www.inkscape.org/namespaces/inkscape" sodipodi:docname="semantik.svg" xmlns:sodipodi="http://sodipodi.sourceforge.net/DTD/sodipodi-0.dtd" version="1.1" xmlns:dc="http://purl.org/dc/elements/1.1/" inkscape:version="0.91 r13725" id="svg2816" xmlns:svg="http://www.w3.org/2000/svg" inkscape:output_extension="org.inkscape.output.svg.inkscape" xmlns:rdf="http://www.w3.org/1999/02/22-rdf-syntax-ns#" height="22" sodipodi:version="0.32" width="22">
  <defs id="defs2818">
    <style type="text/css" id="current-color-scheme"><![CDATA[
.ColorScheme-Text{ color:#c8c8c8; }
]]></style>
    <inkscape:perspective sodipodi:type="inkscape:persp3d" inkscape:vp_z="64 : 32 : 1" inkscape:persp3d-origin="32 : 21.333333 : 1" inkscape:vp_x="0 : 32 : 1" id="perspective2824" inkscape:vp_y="0 : 1000 : 0"/>
    <inkscape:perspective sodipodi:type="inkscape:persp3d" inkscape:vp_z="64 : 32 : 1" inkscape:persp3d-origin="32 : 21.333333 : 1" inkscape:vp_x="0 : 32 : 1" id="perspective2824-8" inkscape:vp_y="0 : 1000 : 0"/>
    <inkscape:perspective sodipodi:type="inkscape:persp3d" inkscape:vp_z="1 : 0.5 : 1" inkscape:persp3d-origin="0.5 : 0.33333333 : 1" inkscape:vp_x="0 : 0.5 : 1" id="perspective2824-5" inkscape:vp_y="0 : 1000 : 0"/>
  </defs>
  <sodipodi:namedview inkscape:window-x="30" inkscape:current-layer="layer1" inkscape:window-y="0" inkscape:window-height="1080" bordercolor="#666666" inkscape:grid-bbox="true" inkscape:window-width="1890" borderopacity="1.0" inkscape:snap-global="false" inkscape:window-maximized="1" inkscape:pageshadow="2" id="base" pagecolor="#ffffff" inkscape:zoom="7.7339804" inkscape:cx="28.277022" inkscape:document-units="px" inkscape:cy="17.746997" showgrid="true" inkscape:pageopacity="0.0">
    <inkscape:grid enabled="true" visible="true" empspacing="4" type="xygrid" id="grid2826" snapvisiblegridlinesonly="true"/>
  </sodipodi:namedview>
  <metadata id="metadata2821">
    <rdf:RDF>
      <cc:Work rdf:about="">
        <dc:format>image/svg+xml</dc:format>
        <dc:type rdf:resource="http://purl.org/dc/dcmitype/StillImage"/>
        <dc:title/>
      </cc:Work>
    </rdf:RDF>
  </metadata>
  <g inkscape:label="Layer 1" id="layer1" inkscape:groupmode="layer" transform="translate(0,-42)">
    <path class="ColorScheme-Text" id="path3004" d="m 13.600939,43.394366 -1.042254,1.793428 -1.690141,2.83568 -1.7183099,-2.873239 -1.079812,-1.746479 0.065728,2.046948 0.1690141,4.215963 -3.859155,-1.399061 -1.9530516,-0.694836 1.370892,1.549296 2.2723005,2.629108 -3.0892019,0.732394 -2.04694833,0.469484 2.00938963,0.544601 3.7652581,1.070423 -2.5070421,3.239436 -1.2488263,1.624413 1.8967135,-0.807512 3.4553991,-1.492957 -0.2910797,3.40845 -0.1690141,2.065728 1.1455399,-1.727699 2.1126761,-3.117371 2.131455,3.12676 1.14554,1.680751 -0.169014,-2.028169 -0.338028,-3.727699 3.408451,1.42723 1.887324,0.788732 -1.267606,-1.624413 -2.460094,-3.107981 3.530517,-1.014084 L 21,52.690141 l -2,-0.469483 -3.380282,-0.760564 2.366197,-2.741784 1.323944,-1.539906 -1.915493,0.694836 -3.971831,1.455399 0.103286,-3.840376 0.07512,-2.093897 z m -4.3192494,4.065728 0.9671364,1.605634 -0.638498,1.070423 -0.2253519,-0.08451 -0.1032865,-2.591549 z m 3.1361504,0.0094 -0.07512,2.244131 -0.375587,0.140845 -0.488263,-0.807511 0.938967,-1.577465 z m 3.42723,2.103286 -1.399061,1.624413 -1.070422,-0.244131 0.0094,-0.478873 2.460094,-0.901409 z m -9.8122065,0.413146 2.3192488,0.816901 0.018778,0.413146 -1.0422534,0.244131 -1.2957746,-1.474178 z m 4.8356805,0.103286 0.422536,0.704225 0.234741,0.384977 0.422536,-0.178404 0.356807,-0.131455 -0.01878,0.488263 0,0.441314 0.422536,0.103287 0.948356,0.206573 -0.347417,0.403755 -0.30047,0.338029 0.262911,0.338028 0.403756,0.507042 -0.647888,0.187793 -0.431924,0.140846 0.06573,0.450704 0.05634,0.685446 -0.441314,-0.187794 -0.422536,-0.197183 -0.234741,0.366197 -0.469484,0.694836 -0.30047,-0.441314 -0.244131,-0.375587 -0.403756,0.169014 -0.6291081,0.2723 0.056338,-0.732394 0.056338,-0.441315 -0.4507072,-0.122074 -0.6666666,-0.187794 0.1690141,-0.215962 0.3004694,-0.356808 -0.2910798,-0.319249 -0.6197181,-0.713615 0.9107979,-0.206572 0.4225353,-0.112677 -0.00939,-0.431924 -0.018778,-0.431925 0.2253521,0.07512 0.413146,0.169014 0.234742,-0.403756 0.56338,-0.938967 z m 3.962442,2.28169 1.943662,0.431925 -1.990611,0.57277 -0.394366,-0.497652 0.441315,-0.507043 z M 6.9248822,52.652583 7.6291074,53.469485 7.4788727,53.666668 5.2535205,53.03756 6.9248822,52.652583 Z m 7.4741788,1.962442 1.455399,1.849765 -2.018779,-0.845071 -0.07512,-0.82629 0.638498,-0.178404 z m -6.525822,0.262911 0.6760561,0.197182 -0.075117,0.854461 -2.1032865,0.901408 1.5023476,-1.953051 z m 4.413146,1.239436 0.544601,0.225352 0.197183,2.262911 -1.211268,-1.793427 0.469484,-0.694836 z m -2.075118,0.225352 0.30047,0.450704 -1.1830989,1.765259 0.1502347,-1.896714 0.7323942,-0.319249 z" inkscape:connector-curvature="0" style="font-style:normal;font-variant:normal;font-weight:normal;font-stretch:normal;font-size:medium;line-height:normal;font-family:Sans;-inkscape-font-specification:Sans;text-indent:0;text-align:start;text-decoration:none;text-decoration-line:none;letter-spacing:normal;word-spacing:normal;text-transform:none;direction:ltr;block-progression:tb;writing-mode:lr-tb;baseline-shift:baseline;text-anchor:start;display:inline;overflow:visible;visibility:visible;fill:currentColor;fill-opacity:1;stroke:none;stroke-width:1;marker:none;enable-background:accumulate"/>
  </g>
</svg>
