<?xml version='1.0' encoding='UTF-8' standalone='no'?>
<!-- Created with Inkscape (http://www.inkscape.org/) -->
<svg xmlns="http://www.w3.org/2000/svg" xmlns:cc="http://creativecommons.org/ns#" xmlns:inkscape="http://www.inkscape.org/namespaces/inkscape" sodipodi:docname="start-here.svg" xmlns:sodipodi="http://sodipodi.sourceforge.net/DTD/sodipodi-0.dtd" version="1.1" xmlns:dc="http://purl.org/dc/elements/1.1/" inkscape:version="0.91 r13725" id="svg2816" xmlns:svg="http://www.w3.org/2000/svg" inkscape:output_extension="org.inkscape.output.svg.inkscape" xmlns:rdf="http://www.w3.org/1999/02/22-rdf-syntax-ns#" height="22" sodipodi:version="0.32" width="22">
  <defs id="defs2818">
    <style type="text/css" id="current-color-scheme"><![CDATA[
.ColorScheme-Text{ color:#c8c8c8; }
]]></style>
    <inkscape:perspective sodipodi:type="inkscape:persp3d" inkscape:vp_z="64 : 32 : 1" inkscape:persp3d-origin="32 : 21.333333 : 1" inkscape:vp_x="0 : 32 : 1" id="perspective2824" inkscape:vp_y="0 : 1000 : 0"/>
  </defs>
  <sodipodi:namedview inkscape:window-x="30" inkscape:current-layer="layer1" inkscape:window-y="0" inkscape:window-height="1080" bordercolor="#666666" inkscape:grid-bbox="true" inkscape:window-width="1890" borderopacity="1.0" inkscape:snap-global="false" inkscape:window-maximized="1" inkscape:pageshadow="2" id="base" pagecolor="#ffffff" inkscape:zoom="16" inkscape:cx="15.284705" inkscape:document-units="px" inkscape:cy="10.840411" showgrid="true" inkscape:pageopacity="0.0">
    <inkscape:grid enabled="true" visible="true" empspacing="4" type="xygrid" id="grid2826" snapvisiblegridlinesonly="true"/>
  </sodipodi:namedview>
  <metadata id="metadata2821">
    <rdf:RDF>
      <cc:Work rdf:about="">
        <dc:format>image/svg+xml</dc:format>
        <dc:type rdf:resource="http://purl.org/dc/dcmitype/StillImage"/>
        <dc:title/>
      </cc:Work>
    </rdf:RDF>
  </metadata>
  <g inkscape:label="Layer 1" id="layer1" inkscape:groupmode="layer" transform="translate(0,-42)">
    <path class="ColorScheme-Text" id="path4147" d="M 11 1 A 10 10 0 0 0 1 11 A 10 10 0 0 0 11 21 A 10 10 0 0 0 21 11 A 10 10 0 0 0 11 1 z M 14.410156 3.71875 C 15.17547 3.71875 15.785156 4.328436 15.785156 5.09375 C 15.785156 5.7185194 15.376152 6.2339916 14.810547 6.4042969 C 14.80935 6.4046572 14.807839 6.4039397 14.806641 6.4042969 C 14.680452 6.4419164 14.549379 6.46875 14.410156 6.46875 C 14.25801 6.46875 14.114793 6.4391563 13.978516 6.3945312 C 13.956138 6.3872175 13.933949 6.3814502 13.912109 6.3730469 C 13.786791 6.3248081 13.672415 6.2583999 13.568359 6.1777344 C 13.546815 6.1610756 13.526341 6.1448452 13.505859 6.1269531 C 13.406421 6.0400144 13.318767 5.9405246 13.248047 5.828125 C 13.236114 5.8092041 13.227814 5.7890755 13.216797 5.7695312 C 13.14934 5.6497741 13.095663 5.5220726 13.066406 5.3828125 C 13.065793 5.3798966 13.063095 5.377923 13.0625 5.375 C 13.044088 5.2845109 13.035156 5.1900752 13.035156 5.09375 C 13.035156 4.328436 13.644842 3.71875 14.410156 3.71875 z M 11 5 C 11.353172 5 11.698498 5.034541 12.035156 5.09375 C 12.035156 6.399504 13.104402 7.46875 14.410156 7.46875 C 14.830629 7.46875 15.220835 7.3482389 15.564453 7.1542969 C 16.347875 8.0842319 16.871803 9.2396024 16.974609 10.519531 L 14.953125 10.519531 C 14.715339 8.5310854 13.056043 7 11 7 C 10.435959 7 9.9011456 7.1166408 9.4160156 7.3242188 L 8.4179688 5.5957031 C 9.2019177 5.2185311 10.075372 5 11 5 z M 7.5546875 6.0996094 L 8.5605469 7.84375 C 7.6158309 8.57318 7 9.704909 7 11 C 7 12.307149 7.6260625 13.449343 8.5859375 14.177734 L 7.5996094 15.935547 C 6.5894824 15.236375 5.807531 14.233508 5.375 13.064453 C 6.076491 12.650367 6.5546875 11.894233 6.5546875 11.025391 C 6.5546875 10.150958 6.0702761 9.3907226 5.3613281 8.9785156 C 5.7843501 7.8100616 6.5548675 6.8056974 7.5546875 6.0996094 z M 4.1796875 9.6503906 C 4.5341158 9.6503906 4.8511785 9.7855279 5.09375 10.001953 C 5.1640689 10.064693 5.2291261 10.132946 5.2851562 10.208984 C 5.336673 10.278897 5.3803143 10.354221 5.4179688 10.433594 C 5.421296 10.440479 5.4264729 10.446175 5.4296875 10.453125 C 5.4305318 10.454985 5.4308043 10.45712 5.4316406 10.458984 C 5.4688412 10.54191 5.4991623 10.627789 5.5195312 10.71875 C 5.5201381 10.721405 5.5208931 10.723903 5.5214844 10.726562 C 5.5214844 10.726562 5.5214844 10.728516 5.5214844 10.728516 C 5.5421594 10.824108 5.5546875 10.923162 5.5546875 11.025391 C 5.5546875 11.125431 5.5432591 11.222698 5.5234375 11.316406 C 5.5231679 11.317651 5.5237105 11.31907 5.5234375 11.320312 C 5.520671 11.333217 5.5148395 11.344661 5.5117188 11.357422 C 5.4921296 11.437524 5.4663772 11.514176 5.4335938 11.587891 C 5.4327594 11.589738 5.4324828 11.591907 5.4316406 11.59375 C 5.4285078 11.60071 5.4231662 11.606385 5.4199219 11.613281 C 5.3828967 11.69198 5.3397031 11.766467 5.2890625 11.835938 C 5.2339543 11.911535 5.170747 11.980349 5.1015625 12.042969 C 4.858156 12.26328 4.5376562 12.400391 4.1796875 12.400391 C 3.4143737 12.400391 2.8046875 11.790704 2.8046875 11.025391 C 2.8046875 10.260077 3.4143737 9.6503906 4.1796875 9.6503906 z M 14.949219 11.519531 L 16.972656 11.519531 C 16.862627 12.786187 16.340218 13.928462 15.5625 14.849609 C 15.219417 14.656471 14.829689 14.537109 14.410156 14.537109 C 13.106388 14.537109 12.038356 15.603202 12.035156 16.90625 C 11.698181 16.96556 11.353494 17 11 17 C 10.095449 17 9.239621 16.791614 8.46875 16.429688 L 9.4453125 14.689453 C 9.9224715 14.888996 10.447584 15 11 15 C 13.04263 15 14.69437 13.488949 14.949219 11.519531 z M 14.410156 15.537109 C 14.549379 15.537109 14.680452 15.563944 14.806641 15.601562 C 15.374117 15.770741 15.785156 16.286019 15.785156 16.912109 C 15.785156 17.677423 15.17547 18.287109 14.410156 18.287109 C 13.644842 18.287109 13.035156 17.677423 13.035156 16.912109 C 13.035156 16.814257 13.045468 16.718768 13.064453 16.626953 C 13.095105 16.478718 13.152893 16.342827 13.226562 16.216797 C 13.23292 16.205909 13.237496 16.194283 13.244141 16.183594 C 13.316992 16.066479 13.407916 15.962701 13.511719 15.873047 C 13.529056 15.858077 13.546363 15.844171 13.564453 15.830078 C 13.669366 15.748223 13.78544 15.681572 13.912109 15.632812 C 13.933923 15.624427 13.956163 15.618626 13.978516 15.611328 C 14.114793 15.566703 14.25801 15.537109 14.410156 15.537109 z " style="fill:currentColor;fill-opacity:1;stroke:none;stroke-width:1.53846157;stroke-miterlimit:4;stroke-dasharray:none" transform="translate(0,42)"/>
  </g>
</svg>
