<?xml version='1.0' encoding='UTF-8' standalone='no'?>
<!-- Created with Inkscape (http://www.inkscape.org/) -->
<svg xmlns="http://www.w3.org/2000/svg" xmlns:cc="http://creativecommons.org/ns#" xmlns:inkscape="http://www.inkscape.org/namespaces/inkscape" sodipodi:docname="steam.svg" xmlns:sodipodi="http://sodipodi.sourceforge.net/DTD/sodipodi-0.dtd" version="1.1" xmlns:dc="http://purl.org/dc/elements/1.1/" inkscape:version="0.91 r13725" id="svg2816" xmlns:svg="http://www.w3.org/2000/svg" inkscape:output_extension="org.inkscape.output.svg.inkscape" xmlns:rdf="http://www.w3.org/1999/02/22-rdf-syntax-ns#" height="22" sodipodi:version="0.32" width="22">
  <defs id="defs2818">
    <style type="text/css" id="current-color-scheme"><![CDATA[
.ColorScheme-Text{ color:#c8c8c8; }

.ColorScheme-{ color:#eff0f1; }

.ColorScheme-NegativeText{ color:#da4453; }

.ColorScheme-PositiveText{ color:#27ae60; }

.ColorScheme-NeutralText{ color:#f67400; }
]]></style>
    <inkscape:perspective sodipodi:type="inkscape:persp3d" inkscape:vp_z="64 : 32 : 1" inkscape:persp3d-origin="32 : 21.333333 : 1" inkscape:vp_x="0 : 32 : 1" id="perspective2824" inkscape:vp_y="0 : 1000 : 0"/>
    <inkscape:perspective sodipodi:type="inkscape:persp3d" inkscape:vp_z="64 : 32 : 1" inkscape:persp3d-origin="32 : 21.333333 : 1" inkscape:vp_x="0 : 32 : 1" id="perspective2824-8" inkscape:vp_y="0 : 1000 : 0"/>
    <inkscape:perspective sodipodi:type="inkscape:persp3d" inkscape:vp_z="1 : 0.5 : 1" inkscape:persp3d-origin="0.5 : 0.33333333 : 1" inkscape:vp_x="0 : 0.5 : 1" id="perspective2824-5" inkscape:vp_y="0 : 1000 : 0"/>
  </defs>
  <sodipodi:namedview inkscape:window-x="30" inkscape:current-layer="layer1" inkscape:window-y="0" inkscape:window-height="1080" bordercolor="#666666" inkscape:grid-bbox="true" inkscape:window-width="1890" borderopacity="1.0" inkscape:snap-global="false" inkscape:window-maximized="1" inkscape:pageshadow="2" id="base" pagecolor="#ffffff" inkscape:zoom="5.46875" inkscape:cx="26.460719" inkscape:document-units="px" inkscape:cy="18.132344" showgrid="true" inkscape:pageopacity="0.0">
    <inkscape:grid enabled="true" visible="true" empspacing="4" type="xygrid" id="grid2826" snapvisiblegridlinesonly="true"/>
  </sodipodi:namedview>
  <metadata id="metadata2821">
    <rdf:RDF>
      <cc:Work rdf:about="">
        <dc:format>image/svg+xml</dc:format>
        <dc:type rdf:resource="http://purl.org/dc/dcmitype/StillImage"/>
        <dc:title/>
      </cc:Work>
    </rdf:RDF>
  </metadata>
  <g inkscape:label="Layer 1" id="layer1" inkscape:groupmode="layer" transform="translate(0,-42)">
    <path class="ColorScheme-Text" id="path3883" d="m 16.648854,44.160819 c -2.225255,0 -4.063644,1.676874 -4.321813,3.83292 l -0.02933,-0.04889 -3.9991437,6.02316 c -0.5719308,0.02828 -1.111605,0.174532 -1.5937908,0.420448 L 3.5954139,51.973327 C 3.3306643,51.767035 3.0249427,51.651892 2.7154067,51.631102 c -0.5158934,-0.03465 -1.0369431,0.182916 -1.3786779,0.625783 -0.54677569,0.708586 -0.41266303,1.71835 0.2933357,2.268463 l 3.0506915,2.385797 c -0.081657,0.316287 -0.1271121,0.645534 -0.1271121,0.987563 0,2.178504 1.761973,3.940477 3.9404765,3.940477 2.1785036,0 3.9502546,-1.761973 3.9502546,-3.940477 0,-0.234695 -0.01925,-0.461105 -0.05867,-0.68445 l 4.849817,-4.370702 -0.02933,-0.01956 C 19.343239,52.548355 21,50.72368 21,48.511961 c 0,-2.40194 -1.949206,-4.351146 -4.351146,-4.351146 z m 0,1.23201 c 1.720459,0 3.119136,1.398677 3.119136,3.119136 0,1.72046 -1.398677,3.119137 -3.119136,3.119137 -1.72046,0 -3.109359,-1.398677 -3.109359,-3.119137 0,-1.720459 1.388899,-3.119136 3.109359,-3.119136 z m -0.03911,1.300455 c -1.027807,0 -1.857793,0.829986 -1.857793,1.857793 0,1.027807 0.829986,1.857793 1.857793,1.857793 1.027807,0 1.857793,-0.829986 1.857793,-1.857793 0,-1.027807 -0.829986,-1.857793 -1.857793,-1.857793 z m -8.1156236,8.575181 c 1.4523354,0 2.6302436,1.177908 2.6302436,2.630243 0,1.452336 -1.1779082,2.630244 -2.6302436,2.630244 -1.4523353,0 -2.6302436,-1.177908 -2.6302436,-2.630244 0,-0.0235 -6.258e-4,-0.04509 0,-0.06844 l 1.3297886,1.036453 c 0.7059988,0.550113 1.7119095,0.425029 2.2586851,-0.283558 0.5467756,-0.708586 0.422441,-1.728127 -0.2835579,-2.27824 L 7.9172268,55.327132 c 0.1861082,-0.04178 0.3781991,-0.05867 0.5768936,-0.05867 z" inkscape:connector-curvature="0" style="fill:currentColor;stroke:none"/>
  </g>
</svg>
