<?xml version='1.0' encoding='UTF-8' standalone='no'?>
<!-- Created with Inkscape (http://www.inkscape.org/) -->
<svg xmlns:sodipodi="http://sodipodi.sourceforge.net/DTD/sodipodi-0.dtd" height="22" inkscape:export-filename="/home/rob/.kde4/share/icons/nmfnms/48x48/actions/document-open.png" width="22" version="1.1" inkscape:version="0.91 r13725" xmlns:svg="http://www.w3.org/2000/svg" sodipodi:docname="stepmania.svg" xmlns:rdf="http://www.w3.org/1999/02/22-rdf-syntax-ns#" sodipodi:version="0.32" inkscape:export-ydpi="67.5" id="svg2816" inkscape:export-xdpi="67.5" xmlns:cc="http://creativecommons.org/ns#" inkscape:output_extension="org.inkscape.output.svg.inkscape" xmlns:inkscape="http://www.inkscape.org/namespaces/inkscape" xmlns="http://www.w3.org/2000/svg" xmlns:dc="http://purl.org/dc/elements/1.1/">
  <defs id="defs2818">
    <style type="text/css" id="current-color-scheme"><![CDATA[
.ColorScheme-Text{ color:#c8c8c8; }

.ColorScheme-{ color:#eff0f1; }

.ColorScheme-NegativeText{ color:#da4453; }

.ColorScheme-PositiveText{ color:#27ae60; }

.ColorScheme-NeutralText{ color:#f67400; }
]]></style>
    <inkscape:perspective sodipodi:type="inkscape:persp3d" inkscape:vp_z="64 : 32 : 1" inkscape:persp3d-origin="32 : 21.333333 : 1" inkscape:vp_x="0 : 32 : 1" id="perspective2824" inkscape:vp_y="0 : 1000 : 0"/>
  </defs>
  <sodipodi:namedview inkscape:window-x="30" inkscape:current-layer="layer1" inkscape:window-y="0" inkscape:window-height="1080" bordercolor="#666666" inkscape:grid-bbox="true" inkscape:window-width="1890" borderopacity="1.0" inkscape:window-maximized="1" inkscape:pageshadow="2" id="base" pagecolor="#ffffff" inkscape:zoom="14.230367" inkscape:cx="-4.6974455" inkscape:document-units="px" inkscape:cy="3.0042323" showgrid="true" inkscape:pageopacity="0.0">
    <inkscape:grid enabled="true" visible="true" empspacing="4" type="xygrid" id="grid2826" snapvisiblegridlinesonly="true"/>
  </sodipodi:namedview>
  <metadata id="metadata2821">
    <rdf:RDF>
      <cc:Work rdf:about="">
        <dc:format>image/svg+xml</dc:format>
        <dc:type rdf:resource="http://purl.org/dc/dcmitype/StillImage"/>
        <dc:title/>
      </cc:Work>
    </rdf:RDF>
  </metadata>
  <g inkscape:label="Layer 1" id="layer1" inkscape:groupmode="layer" style="opacity:1" transform="translate(0,-42)">
    <g id="g4138" transform="translate(1,-1.1684961)">
      <path class="ColorScheme-Text" id="path3194" d="m 10,44.137307 c -5.5228475,0 -10,4.477152 -10,10 0,5.522847 4.4771525,10 10,10 5.522848,0 10,-4.477153 10,-10 0,-5.522848 -4.477152,-10 -10,-10 z" inkscape:connector-curvature="0" style="fill:#c8c8c8;fill-opacity:0.1254902;fill-rule:nonzero;stroke:none"/>
      <path sodipodi:nodetypes="cssssssssssccccccccccsccscsccccccccccccsssssssccccssccsssssssssccscccssscsssssccsscc" class="ColorScheme-Text" id="path3188" d="m 17.848347,44.612504 c -0.284496,0 -1.122725,0.607932 -1.849102,1.342333 -0.989666,1.000599 -2.411964,2.225619 -2.654503,2.286492 -0.29884,0.075 -0.663621,-0.151733 -0.859696,-0.530901 -0.326401,-0.631189 -1.150078,-1.000673 -1.484108,-0.666641 -0.297023,0.297022 0.05645,1.200273 0.609328,1.562536 0.367281,0.240651 0.449887,0.651994 0.226237,1.104031 -0.236777,0.478569 -1.127691,1.338097 -1.481092,1.426795 -0.290565,0.07293 -0.7302401,-0.08579 -2.3166563,-0.829532 C 7.5078541,50.058722 6.8834369,49.695031 6.6511734,49.499201 6.1529441,49.079122 5.2698347,48.547239 4.7658737,48.365004 4.5067156,48.271292 4.3614744,48.199052 4.3073691,48.096538 c -0.00981,-0.0024 -0.020353,-0.0066 -0.030162,-0.009 -0.00903,-0.0022 -0.018119,0.0023 -0.02715,0 -0.00981,-0.0024 -0.020353,-0.0066 -0.030162,-0.009 -0.00621,-0.0016 -0.012778,0.0035 -0.018097,0 -0.00753,-0.005 -0.013591,-0.0161 -0.021116,-0.02111 -0.00532,-0.0035 -0.012381,0.0029 -0.018097,0 -0.00404,-0.002 -0.00466,-0.0079 -0.00905,-0.009 -0.0093,-0.0023 -0.020756,0.0019 -0.030162,0 -0.00701,-0.0014 -0.011044,-0.0079 -0.018097,-0.009 -0.012616,-0.0021 -0.026425,0 -0.039214,0 -0.00318,0 -0.00595,7.5e-4 -0.00905,0 -0.096923,-0.02423 0.00608,0.0045 -0.039215,-0.0181 -0.00294,-0.0014 -0.029572,0 -0.036198,0 l -0.039214,0 -0.00905,0 c -0.00318,0 -0.00619,-0.0014 -0.00905,0 -0.00404,0.002 -0.00778,0.0076 -0.012066,0.009 -0.011606,0.0039 -0.044247,-0.0033 -0.057313,0 -0.00694,0.0017 -0.011316,0.0068 -0.018097,0.009 -0.00427,0.0014 -0.046117,6.87e-4 -0.048264,0 -0.00678,-0.0022 -0.011316,-0.0068 -0.018097,-0.009 -0.00895,-0.003 -0.039397,0.003 -0.048263,0 -0.0043,-0.0014 -0.00501,-0.007 -0.00905,-0.009 -0.072916,-0.03646 -0.00652,-0.0039 -0.039214,-0.01207 -0.00981,-0.0024 -0.020775,-0.0053 -0.030162,-0.009 -0.00575,-0.0023 -0.00948,-0.0064 -0.015084,-0.009 -0.00153,0 -0.00444,6.3e-5 -0.00603,0 -0.11653,-0.0046 -0.4772875,-0.178095 -0.8114303,-0.389126 C 1.930619,47.045986 1.7805712,47.035219 1.088805,47.484489 c -0.69861193,0.453716 -0.84461438,0.61942 -0.84461438,0.959241 0,0.373834 0.40877698,0.684546 1.00147128,0.76317 0.5236088,0.06946 1.2371853,0.489942 1.5474542,0.910976 0.168443,0.228577 0.1680924,0.273849 -0.024131,1.300103 -0.4649453,2.482255 0.048578,5.182819 1.3634483,7.185255 1.6566738,2.522974 4.2779738,3.982607 7.1882716,4.002868 0.16132,0.0011 0.338477,-0.0046 0.518834,-0.01207 l 0,-0.241318 c -0.149873,0.0061 -0.295908,0.01035 -0.422307,0.009 C 7.4032056,62.320252 4.1138981,59.628308 3.094773,55.54726 2.8826735,54.697915 2.8758946,51.880605 3.0827058,51.079853 c 0.1086086,-0.420522 0.1488011,-0.508925 0.3016476,-0.503752 0.021834,7.5e-4 0.045462,0.0022 0.072396,0.006 0.3464378,0.0498 0.6936322,0.249422 1.2035753,0.690774 0.2478418,0.214506 0.6305987,0.481985 0.8506472,0.594247 0.22005,0.11226 0.6827787,0.497704 1.0286196,0.85668 0.3458413,0.358974 0.8116772,0.742569 1.0346529,0.853663 0.684565,0.341074 1.3904337,1.127893 1.894349,2.10852 0.5292791,1.029986 0.7913816,1.267318 1.8129046,1.640965 0.392753,0.143658 0.910373,0.38364 1.149278,0.533917 0.238906,0.150276 0.618079,0.319693 0.844615,0.37706 0.226535,0.05737 0.436445,0.141566 0.464537,0.187021 0.04623,0.07481 0.124056,1.432501 0.168924,2.932018 0.161099,0.866219 0.112141,1.198137 0.162889,1.909432 0.0431,0.618789 0.07409,0.705874 0.289582,0.81445 0.311468,0.156934 0.785209,0.158945 0.998455,0.003 0.190496,-0.139294 0.201006,-0.241481 0.108593,-1.179444 -0.131122,-1.198496 0.344176,-1.432828 0.663626,-1.861168 0.06139,-0.09933 0.46435,-2.456466 0.597263,-3.493083 0.07041,-0.549167 0.138764,-0.638377 0.971307,-1.306136 0.59168,-0.474571 0.750165,-1.047451 0.458504,-1.66208 -0.200111,-0.421704 -0.644822,-0.702357 -1.113081,-0.70284 -0.516224,-4.69e-4 -0.790526,-0.301887 -1.076883,-1.176427 -0.133295,-0.407083 -0.377185,-0.924589 -0.53995,-1.149279 -0.221153,-0.305294 -0.295615,-0.512908 -0.295615,-0.823499 0,-0.382087 0.05038,-0.464028 0.612346,-1.022586 0.336202,-0.334164 0.79068,-0.873727 1.01052,-1.200559 0.546653,-0.812705 1.305211,-1.576515 1.580636,-1.589685 0.122898,-0.0059 0.324053,-0.001 0.446439,0.009 0.305037,0.02507 0.69379,-0.249197 0.69379,-0.48867 0,-0.31294 -0.174452,-0.576072 -0.8054,-1.221675 -0.404261,-0.413654 -0.662241,-0.603301 -0.823499,-0.603301 z" inkscape:connector-curvature="0" style="fill:currentColor"/>
    </g>
  </g>
</svg>
