<?xml version='1.0' encoding='UTF-8' standalone='no'?>
<!-- Created with Inkscape (http://www.inkscape.org/) -->
<svg id="svg2" xmlns:rdf="http://www.w3.org/1999/02/22-rdf-syntax-ns#" sodipodi:docname="substance_designer2.svg" inkscape:version="0.91 r13725" width="22" xmlns:cc="http://creativecommons.org/ns#" xmlns:svg="http://www.w3.org/2000/svg" xmlns:inkscape="http://www.inkscape.org/namespaces/inkscape" height="22" xmlns:sodipodi="http://sodipodi.sourceforge.net/DTD/sodipodi-0.dtd" xmlns="http://www.w3.org/2000/svg" xmlns:dc="http://purl.org/dc/elements/1.1/" version="1.1" viewBox="0 0 22 22">
  <defs id="defs4">
    <style id="current-color-scheme" type="text/css"><![CDATA[
.ColorScheme-Text{ color:#c8c8c8; }
]]></style>
  </defs>
  <sodipodi:namedview inkscape:cx="-69.53615" inkscape:window-height="1080" inkscape:window-y="0" inkscape:cy="-23.960892" id="base" units="px" showgrid="false" inkscape:document-units="px" borderopacity="1.0" pagecolor="#ffffff" inkscape:zoom="3.959798" inkscape:pageshadow="2" inkscape:window-x="30" inkscape:window-width="1890" inkscape:window-maximized="1" inkscape:pageopacity="0.0" bordercolor="#666666" inkscape:current-layer="layer1"/>
  <metadata id="metadata7">
    <rdf:RDF>
      <cc:Work rdf:about="">
        <dc:format>image/svg+xml</dc:format>
        <dc:type rdf:resource="http://purl.org/dc/dcmitype/StillImage"/>
        <dc:title/>
      </cc:Work>
    </rdf:RDF>
  </metadata>
  <g id="layer1" inkscape:label="Layer 1" inkscape:groupmode="layer" transform="translate(0,-1030.3622)">
    <path id="path4899" inkscape:connector-curvature="0" class="ColorScheme-Text" d="m 4.3849966,1048.1748 c -0.4549981,-0.2469 -0.4648603,-0.3221 -0.4648603,-3.5402 l 0,-2.9484 -1.7996339,0 c -1.98629771,0 -2.10735611,-0.026 -2.05923006,-0.4458 0.04573918,-0.3988 0.24181293,-0.4391 2.14464826,-0.4404 l 1.7142157,0 0,-2.986 0,-2.9859 0.2760581,-0.3013 0.2760583,-0.3014 3.0717033,-0.024 3.071705,-0.024 0,-1.8057 c 0,-1.5339 0.01907,-1.8247 0.126765,-1.9323 0.16843,-0.1685 0.382568,-0.1603 0.546418,0.021 0.115778,0.1279 0.133506,0.3849 0.133506,1.936 l 0,1.7885 2.906674,0 c 3.097091,0 3.244493,0.017 3.587178,0.4006 0.154309,0.173 0.16234,0.3124 0.184311,3.1976 l 0.02297,3.0167 1.753961,0 c 1.456914,0 1.784326,0.022 1.93325,0.1256 0.23014,0.1612 0.24382,0.5603 0.02325,0.6783 -0.09404,0.051 -0.863308,0.084 -1.936054,0.084 l -1.780022,0 0,2.912 c 0,3.2036 -0.01885,3.3412 -0.490885,3.5854 -0.344218,0.178 -12.9131093,0.1696 -13.2419928,-0.01 z m 9.0537424,-2.8318 2.343694,-1.3446 -0.02215,-1.249 -0.02214,-1.249 -0.443679,-0.1417 c -0.244024,-0.078 -1.730623,-0.5456 -3.303555,-1.0393 -1.572931,-0.4937 -2.8696845,-0.9075 -2.8816746,-0.9195 -0.011988,-0.012 0.4137659,-0.2669 0.9461236,-0.5666 l 0.967924,-0.545 1.510407,0.8776 c 1.262321,0.7335 1.514354,0.9106 1.534448,1.0785 0.02369,0.198 0.293079,0.3168 1.528835,0.6741 l 0.181506,0.052 -6.55e-4,-1.2357 -6.54e-4,-1.2355 -2.379085,-1.3604 -2.379087,-1.3602 -2.3790859,1.3602 -2.3790856,1.3604 -6.542e-4,1.2529 -6.541e-4,1.253 1.7142157,0.5351 c 3.5971341,1.1228 4.8517531,1.5216 4.8822401,1.5521 0.0372,0.037 -1.726855,1.094 -1.826184,1.094 -0.03732,0 -0.74242,-0.3821 -1.5668924,-0.8492 -1.3184582,-0.7469 -1.5020892,-0.8756 -1.5243565,-1.0685 -0.026479,-0.2294 0.039514,-0.1989 -1.5378581,-0.7096 -0.1303192,-0.042 -0.1411708,0.05 -0.1411708,1.1977 l 0,1.2434 2.3192318,1.3379 c 1.2755786,0.7358 2.363568,1.3404 2.417755,1.3435 0.05419,0.01 1.153183,-0.5996 2.442215,-1.3391 z" style="fill:currentColor"/>
  </g>
</svg>
