<?xml version='1.0' encoding='UTF-8' standalone='no'?>
<!-- Created with Inkscape (http://www.inkscape.org/) -->
<svg xmlns:inkscape="http://www.inkscape.org/namespaces/inkscape" viewBox="0 0 22 22" width="22" xmlns:cc="http://creativecommons.org/ns#" height="22" xmlns:svg="http://www.w3.org/2000/svg" inkscape:version="0.91 r13725" xmlns:rdf="http://www.w3.org/1999/02/22-rdf-syntax-ns#" id="svg2" version="1.1" xmlns:dc="http://purl.org/dc/elements/1.1/" xmlns:sodipodi="http://sodipodi.sourceforge.net/DTD/sodipodi-0.dtd" xmlns="http://www.w3.org/2000/svg" sodipodi:docname="substance_painter.svg">
  <defs id="defs4">
    <style id="current-color-scheme" type="text/css"><![CDATA[
.ColorScheme-Text{ color:#c8c8c8; }
]]></style>
  </defs>
  <sodipodi:namedview bordercolor="#666666" inkscape:cy="-4.979" inkscape:pageshadow="2" borderopacity="1.0" inkscape:pageopacity="0.0" inkscape:document-units="px" inkscape:cx="-14.587941" inkscape:window-height="1080" inkscape:current-layer="layer1" inkscape:window-y="0" id="base" inkscape:window-x="30" inkscape:window-maximized="1" pagecolor="#ffffff" inkscape:zoom="5.6" inkscape:window-width="1890" showgrid="false" units="px"/>
  <metadata id="metadata7">
    <rdf:RDF>
      <cc:Work rdf:about="">
        <dc:format>image/svg+xml</dc:format>
        <dc:type rdf:resource="http://purl.org/dc/dcmitype/StillImage"/>
        <dc:title/>
      </cc:Work>
    </rdf:RDF>
  </metadata>
  <g inkscape:groupmode="layer" transform="translate(0,-1030.3622)" id="layer1" inkscape:label="Layer 1">
    <path class="ColorScheme-Text" style="fill:currentColor" d="m 18.330861,1050.7912 c -1.56754,-0.6848 -1.62857,-2.827 -0.1008,-3.5384 0.61237,-0.2851 1.07884,-0.2765 1.68592,0.031 1.15591,0.5861 1.44093,2.0135 0.59455,2.9774 -0.15563,0.1773 -0.44576,0.3963 -0.64472,0.4867 -0.42186,0.1916 -1.14807,0.2119 -1.53495,0.043 z m -10.0172296,-0.1445 c -1.7826,-0.398 -2.92998,-1.0483 -4.12239,-2.3362 -0.84415,-0.9117 -1.37322,-1.8511 -1.7597,-3.1245 -0.23629,-0.7785 -0.23264,-3.1946 0.006,-3.9708 0.41675,-1.3555 1.01501,-2.3707 1.94443,-3.2997 1.50376,-1.5029 3.30428,-2.2504 5.42073,-2.2504 2.4471296,0 4.6153996,1.0597 6.0904296,2.9766 3.05567,3.9711 1.41312,9.7801 -3.29283,11.6454 -0.73331,0.2907 -2.08777,0.5405 -2.8740196,0.53 -0.37987,0 -1.01555,-0.082 -1.41263,-0.1704 z m 3.9707996,-2.8498 c 0.79416,-0.4567 1.73939,-1.0015 2.1005,-1.2108 l 0.65658,-0.3806 -0.0249,-1.3537 -0.0249,-1.3538 -0.36098,-0.1184 c -0.19854,-0.065 -1.07167,-0.3422 -1.94028,-0.6157 -0.86861,-0.2735 -2.32091,-0.7314 -3.2273296,-1.0176 l -1.64805,-0.5204 0.97121,-0.5683 c 0.53416,-0.3125 1.01181,-0.5655 1.06144,-0.5622 0.0496,0 0.8009296,0.4203 1.6695396,0.9266 1.32214,0.7706 1.58366,0.9575 1.60607,1.1475 0.0238,0.2021 0.12487,0.2589 0.91843,0.5163 0.49041,0.159 0.91598,0.2892 0.94572,0.2892 0.0297,0 0.0428,-0.6168 0.0291,-1.3707 l -0.0249,-1.3707 -2.3915,-1.3777 c -1.31533,-0.7577 -2.47864,-1.4248 -2.58515,-1.4823 -0.1699496,-0.092 -0.3632996,-0.01 -1.5792996,0.7032 -0.7621,0.4442 -1.92345,1.1087 -2.58078,1.4767 l -1.19513,0.669 0.0219,1.3854 0.0219,1.3855 0.36098,0.1173 c 0.19854,0.064 0.828,0.2645 1.39881,0.4445 0.5708,0.1799 1.28148,0.4041 1.57929,0.4982 0.29781,0.094 1.21154,0.3797 2.0305196,0.6348 0.81897,0.255 1.54942,0.484 1.62322,0.5087 0.0811,0.027 -0.25777,0.2742 -0.85733,0.625 -0.54533,0.319 -1.0175696,0.5704 -1.0494196,0.5586 -0.0319,-0.012 -0.77201,-0.4274 -1.64479,-0.9238 -1.41184,-0.8029 -1.58712,-0.9283 -1.58907,-1.1366 -0.002,-0.2164 -0.0694,-0.2558 -0.88858,-0.5189 -0.48752,-0.1566 -0.91499,-0.2848 -0.94993,-0.2848 -0.0349,0 -0.0523,0.6162 -0.0386,1.3692 l 0.0249,1.3691 2.56612,1.4707 2.56612,1.4707 0.5022196,-0.2845 c 0.27622,-0.1565 1.15199,-0.6581 1.94615,-1.1147 z M 1.3946214,1049.7 c -0.29314,-0.1646 -0.47581005,-0.6528 -0.3588,-0.9589 0.1736,-0.4541 0.61559,-0.6756 1.05727,-0.5298 0.56541,0.1866 0.76092,0.8628 0.37716,1.3045 -0.2509,0.2887 -0.74029,0.3726 -1.07563,0.1842 z m 7.76844,-15.6846 c -0.38008,-0.2561 -0.53053,-0.5449 -0.53224,-1.0218 -0.004,-1.0916 1.4020896,-1.5939 2.1092596,-0.7535 0.33447,0.3975 0.38499,0.8102 0.15656,1.2787 -0.33435,0.6858 -1.1192496,0.9106 -1.7335796,0.4966 z" id="path4147" inkscape:connector-curvature="0"/>
  </g>
</svg>
