<?xml version='1.0' encoding='UTF-8' standalone='no'?>
<!-- Created with Inkscape (http://www.inkscape.org/) -->
<svg xmlns="http://www.w3.org/2000/svg" xmlns:cc="http://creativecommons.org/ns#" xmlns:inkscape="http://www.inkscape.org/namespaces/inkscape" sodipodi:docname="unity-editor-icon.svg" xmlns:sodipodi="http://sodipodi.sourceforge.net/DTD/sodipodi-0.dtd" version="1.1" xmlns:dc="http://purl.org/dc/elements/1.1/" inkscape:version="0.91 r13725" id="svg2" xmlns:svg="http://www.w3.org/2000/svg" viewBox="0 0 22 22" xmlns:rdf="http://www.w3.org/1999/02/22-rdf-syntax-ns#" height="22" width="22">
  <defs id="defs4">
    <style type="text/css" id="current-color-scheme"><![CDATA[
.ColorScheme-Text{ color:#c8c8c8; }
]]></style>
  </defs>
  <sodipodi:namedview inkscape:window-x="38" inkscape:current-layer="layer1" inkscape:window-y="0" inkscape:window-height="1080" bordercolor="#666666" inkscape:window-width="1882" borderopacity="1.0" inkscape:window-maximized="1" units="px" inkscape:pageshadow="2" id="base" pagecolor="#ffffff" inkscape:zoom="15.529126" inkscape:cx="-5.8466146" inkscape:document-units="px" inkscape:cy="7.9685036" showgrid="true" inkscape:pageopacity="0.0">
    <inkscape:grid type="xygrid" id="grid4149"/>
  </sodipodi:namedview>
  <metadata id="metadata7">
    <rdf:RDF>
      <cc:Work rdf:about="">
        <dc:format>image/svg+xml</dc:format>
        <dc:type rdf:resource="http://purl.org/dc/dcmitype/StillImage"/>
        <dc:title/>
      </cc:Work>
    </rdf:RDF>
  </metadata>
  <g inkscape:label="Layer 1" id="layer1" inkscape:groupmode="layer" transform="translate(0,-1030.3622)">
    <path class="ColorScheme-Text" id="path4147" d="m 14.76184,1050.3088 c -3.28511,-0.8646 -4.05523,-1.0808 -4.12133,-1.1565 -0.0447,-0.052 -0.3297,-0.5154 -0.63331,-1.0314 l -0.55201,-0.9381 -1.24555,-0.012 -1.24554,-0.012 -2.98205,-2.9118 L 1,1041.3366 l 2.98943,-2.8871 2.98942,-2.8871 1.22164,0 1.22165,0 0.59957,-1.0448 c 0.32976,-0.5747 0.61265,-1.0528 0.62865,-1.0625 0.0322,-0.02 7.92642,-2.0544 8.0616,-2.0781 0.0773,-0.014 0.18241,0.3364 1.18641,3.9493 l 1.10163,3.9643 -0.6077,1.0206 c -0.33423,0.5613 -0.6077,1.0348 -0.6077,1.0522 0,0.018 0.27329,0.4953 0.60731,1.0621 0.55866,0.948 0.6043,1.0414 0.56985,1.1668 -0.0206,0.075 -0.5007,1.825 -1.06692,3.8889 -0.56621,2.064 -1.04376,3.7838 -1.06121,3.8218 -0.0277,0.06 -0.55182,-0.067 -4.07179,-0.9942 z m 1.14886,-1.964 c -0.0455,-0.076 -0.86578,-1.4554 -1.82287,-3.0649 l -1.74017,-2.9263 -3.53395,-0.033 c -1.94368,-0.018 -3.54254,-0.024 -3.55303,-0.013 -0.0105,0.011 0.97258,1.027 2.18461,2.2596 l 2.20368,2.2408 0.42722,0.1138 c 0.23497,0.062 1.64579,0.4379 3.13515,0.8343 1.48936,0.3964 2.7246,0.7221 2.74499,0.7234 0.0204,10e-4 -1.4e-4,-0.059 -0.0456,-0.1358 z m 2.60977,-3.984 0.86776,-3.0201 -0.85837,-2.9968 c -0.66699,-2.3285 -0.86982,-2.9845 -0.90972,-2.9423 -0.0444,0.046 -3.36599,5.5591 -3.50899,5.8232 -0.0481,0.089 0.10378,0.3647 1.72901,3.1418 0.97995,1.6744 1.78866,3.0375 1.79714,3.0293 0.008,-0.01 0.4059,-1.3742 0.88317,-3.0351 z m -4.41997,-6.9683 c 0.96948,-1.666 1.75372,-3.0378 1.74275,-3.0485 -0.011,-0.011 -1.4132,0.3261 -3.11605,0.7482 l -3.09611,0.7677 -2.24807,2.1949 c -1.23645,1.2072 -2.23255,2.2101 -2.21358,2.2286 0.0289,0.029 1.27964,0.052 6.75345,0.1321 l 0.41493,0.01 1.76268,-3.0291 z" inkscape:connector-curvature="0" style="fill:currentColor"/>
  </g>
</svg>
