<?xml version='1.0' encoding='UTF-8' standalone='no'?>
<!-- Created with Inkscape (http://www.inkscape.org/) -->
<svg xmlns="http://www.w3.org/2000/svg" xmlns:cc="http://creativecommons.org/ns#" xmlns:inkscape="http://www.inkscape.org/namespaces/inkscape" sodipodi:docname="wings3d.svg" xmlns:sodipodi="http://sodipodi.sourceforge.net/DTD/sodipodi-0.dtd" version="1.1" xmlns:dc="http://purl.org/dc/elements/1.1/" inkscape:version="0.91 r13725" id="svg2816" xmlns:svg="http://www.w3.org/2000/svg" inkscape:output_extension="org.inkscape.output.svg.inkscape" xmlns:rdf="http://www.w3.org/1999/02/22-rdf-syntax-ns#" height="22" sodipodi:version="0.32" width="22">
  <defs id="defs2818">
    <style type="text/css" id="current-color-scheme"><![CDATA[
.ColorScheme-Text{ color:#c8c8c8; }
]]></style>
    <inkscape:perspective sodipodi:type="inkscape:persp3d" inkscape:vp_z="64 : 32 : 1" inkscape:persp3d-origin="32 : 21.333333 : 1" inkscape:vp_x="0 : 32 : 1" id="perspective2824" inkscape:vp_y="0 : 1000 : 0"/>
    <inkscape:perspective sodipodi:type="inkscape:persp3d" inkscape:vp_z="64 : 32 : 1" inkscape:persp3d-origin="32 : 21.333333 : 1" inkscape:vp_x="0 : 32 : 1" id="perspective2824-8" inkscape:vp_y="0 : 1000 : 0"/>
    <inkscape:perspective sodipodi:type="inkscape:persp3d" inkscape:vp_z="1 : 0.5 : 1" inkscape:persp3d-origin="0.5 : 0.33333333 : 1" inkscape:vp_x="0 : 0.5 : 1" id="perspective2824-5" inkscape:vp_y="0 : 1000 : 0"/>
  </defs>
  <sodipodi:namedview inkscape:window-x="30" inkscape:current-layer="layer1" inkscape:window-y="0" inkscape:window-height="1080" bordercolor="#666666" inkscape:grid-bbox="true" inkscape:window-width="1890" borderopacity="1.0" inkscape:snap-global="false" inkscape:window-maximized="1" inkscape:pageshadow="2" id="base" pagecolor="#ffffff" inkscape:zoom="7.7339804" inkscape:cx="-0.78906557" inkscape:document-units="px" inkscape:cy="12.247766" showgrid="true" inkscape:pageopacity="0.0">
    <inkscape:grid enabled="true" visible="true" empspacing="4" type="xygrid" id="grid2826" snapvisiblegridlinesonly="true"/>
  </sodipodi:namedview>
  <metadata id="metadata2821">
    <rdf:RDF>
      <cc:Work rdf:about="">
        <dc:format>image/svg+xml</dc:format>
        <dc:type rdf:resource="http://purl.org/dc/dcmitype/StillImage"/>
        <dc:title/>
      </cc:Work>
    </rdf:RDF>
  </metadata>
  <g inkscape:label="Layer 1" id="layer1" inkscape:groupmode="layer" transform="translate(0,-42)">
    <path sodipodi:nodetypes="cccssssssccssccccsccsssssscccsscsssc" class="ColorScheme-Text" id="path2998" d="m 5.0135563,45.783734 c -0.026383,6.57e-4 -0.05184,0.0056 -0.076795,0.0086 -0.0045,5.31e-4 -0.00951,-5.94e-4 -0.01396,0 -0.5945676,0.0035 -1.5501537,0.821231 -2.3666524,2.095501 -1.0049228,1.568332 -1.91130865,5.268779 -1.4172003,5.751849 0.4941086,0.483069 1.3058808,-1.760324 2.3108023,-3.328656 0.2966269,-0.462932 1.2146374,-2.019641 1.6196561,-2.061008 0.4077485,-0.04165 0.8201288,0.785212 1.1170039,1.310766 0.2968747,0.525555 0.5692361,2.059805 0.5600014,2.661814 -0.013294,0.866611 -0.1025343,1.096886 -0.1326446,1.79368 -0.00219,0.05039 -0.00545,0.0995 -0.00698,0.155222 -0.00794,0.138458 -0.013963,0.281459 -0.013963,0.422549 0,3.103646 1.9543817,5.622498 4.3632973,5.622498 2.107802,0 3.865526,-1.9315 4.272541,-4.492824 0.02384,-0.140855 0.04038,-0.286601 0.05585,-0.431173 0.0043,-0.04028 0.01032,-0.08017 0.01396,-0.120728 0.002,-0.02585 0.0052,-0.05166 0.007,-0.07761 0.0149,-0.188936 0.02095,-0.37517 0.02095,-0.569148 0,-0.209024 -0.01065,-0.417834 -0.02793,-0.620889 -0.0019,-0.02911 -0.0049,-0.05002 -0.007,-0.07761 -0.03755,-0.505526 -0.10026,-0.789146 -0.111701,-1.534975 -0.0092,-0.602011 0.336923,-2.13626 0.633797,-2.661815 0.296875,-0.525554 0.709256,-1.352412 1.117004,-1.310765 0.405018,0.04136 1.323029,1.606699 1.619656,2.06963 1.004921,1.568333 1.816694,3.803103 2.310802,3.320033 0.494109,-0.48307 -0.412277,-4.183516 -1.417198,-5.751849 -0.8165,-1.27427 -1.772085,-2.092013 -2.366654,-2.095501 -0.0045,-5.93e-4 -0.0095,5.31e-4 -0.01395,0 -0.02495,-0.003 -0.05041,-0.008 -0.07679,-0.0086 -0.604696,-0.015 -1.575303,0.567519 -2.485334,1.560846 -0.492934,0.538052 -0.852036,1.058593 -1.361349,1.043439 -0.341611,-0.01016 -0.620394,-0.06483 -0.893603,-0.120728 -0.393518,-0.149911 -0.811407,-0.232834 -1.242667,-0.232834 -0.865521,0 -1.3275274,0.251681 -2.1432522,0.275951 -0.5093234,0.01515 -0.868426,-0.496766 -1.3613596,-1.034818 -0.9100338,-0.993326 -1.8806416,-1.57585 -2.4853379,-1.560847 z" inkscape:connector-curvature="0" style="fill:currentColor;fill-opacity:1;stroke:none"/>
  </g>
</svg>
