<?xml version='1.0' encoding='UTF-8' standalone='no'?>
<!-- Created with Inkscape (http://www.inkscape.org/) -->
<svg xmlns:sodipodi="http://sodipodi.sourceforge.net/DTD/sodipodi-0.dtd" height="22" inkscape:export-filename="/home/rob/.kde4/share/icons/nmfnms/48x48/apps/utilities-terminal.png" width="22" version="1.1" inkscape:version="0.91 r13725" xmlns:svg="http://www.w3.org/2000/svg" sodipodi:docname="yakuake.svg" xmlns:rdf="http://www.w3.org/1999/02/22-rdf-syntax-ns#" sodipodi:version="0.32" inkscape:export-ydpi="67.5" id="svg2816" inkscape:export-xdpi="67.5" xmlns:cc="http://creativecommons.org/ns#" inkscape:output_extension="org.inkscape.output.svg.inkscape" xmlns:inkscape="http://www.inkscape.org/namespaces/inkscape" xmlns="http://www.w3.org/2000/svg" xmlns:dc="http://purl.org/dc/elements/1.1/">
  <defs id="defs2818">
    <style type="text/css" id="current-color-scheme"><![CDATA[
.ColorScheme-Text{ color:#c8c8c8; }
]]></style>
    <inkscape:perspective sodipodi:type="inkscape:persp3d" inkscape:vp_z="64 : 32 : 1" inkscape:persp3d-origin="32 : 21.333333 : 1" inkscape:vp_x="0 : 32 : 1" id="perspective2824" inkscape:vp_y="0 : 1000 : 0"/>
  </defs>
  <sodipodi:namedview inkscape:window-x="38" inkscape:current-layer="layer1" inkscape:window-y="0" inkscape:window-height="1080" bordercolor="#666666" inkscape:grid-bbox="true" inkscape:window-width="1882" borderopacity="1.0" inkscape:snap-global="false" inkscape:window-maximized="1" inkscape:pageshadow="2" id="base" pagecolor="#ffffff" inkscape:zoom="24.4375" inkscape:cx="3.3401806" inkscape:document-units="px" inkscape:cy="12.353689" showgrid="true" inkscape:pageopacity="0.0">
    <inkscape:grid enabled="true" visible="true" empspacing="4" type="xygrid" id="grid2826" snapvisiblegridlinesonly="true"/>
  </sodipodi:namedview>
  <metadata id="metadata2821">
    <rdf:RDF>
      <cc:Work rdf:about="">
        <dc:format>image/svg+xml</dc:format>
        <dc:type rdf:resource="http://purl.org/dc/dcmitype/StillImage"/>
        <dc:title/>
      </cc:Work>
    </rdf:RDF>
  </metadata>
  <g inkscape:label="Layer 1" id="layer1" inkscape:groupmode="layer" style="opacity:1" transform="translate(0,-42)">
    <path id="rect4142" d="M 2,43.082031 2,56 c 0,0.554 0.446,1 1,1 l 16,0 c 0.554,0 1,-0.446 1,-1 l 0,-12.917969 -18,0 z" inkscape:connector-curvature="0" style="opacity:1;fill:#c8c8c8;fill-opacity:0.12446355;stroke:currentColor;stroke-width:0;stroke-linecap:round;stroke-linejoin:round;stroke-miterlimit:4;stroke-dasharray:none"/>
    <path sodipodi:nodetypes="cssssssccsscccccccsccssccss" class="ColorScheme-Text" id="rect4807" d="m 15.931671,54.103987 c 0,0.478468 -0.407441,0.86366 -0.915579,0.86366 l -7.8616014,0 c -0.5081382,0 -0.9155804,-0.385192 -0.9155804,-0.86366 l 0,-0.215915 c 0,-0.478467 0.4074422,-0.86366 0.9155804,-0.86366 l 7.8616014,0 c 0.508138,0 0.915579,0.385193 0.915579,0.86366 0,0 -0.0063,0.22076 0,0.215915 z M 4.9171706,43.881764 c 0.2252415,0 0.4538582,0.08724 0.6264491,0.256399 L 9.281667,47.80197 c 0.0023,0.0022 0.0047,0.0046 0.0069,0.0067 0.04022,0.0403 0.07268,0.0829 0.103261,0.128199 0.0018,0.0026 0.0051,0.0041 0.0069,0.0067 0.03006,0.04558 0.05531,0.09255 0.07572,0.141696 0.04277,0.09995 0.06625,0.20388 0.06884,0.310378 7.3e-5,0.0046 0,0.009 0,0.01349 1.9e-5,0.0022 0,0.0045 0,0.0067 0,0.220769 -0.08212,0.444845 -0.25471,0.614009 l -3.7449305,3.663804 c -0.3451835,0.338328 -0.9008334,0.338328 -1.2460161,0 -0.3451827,-0.338328 -0.3451827,-0.88294 0,-1.221269 L 7.4160491,48.415934 4.2906847,45.359389 c -0.3451827,-0.338328 -0.3451827,-0.882942 0,-1.22127 0.1725918,-0.169163 0.4012085,-0.256399 0.62645,-0.256399 z" inkscape:connector-curvature="0" style="fill:currentColor;fill-opacity:1;stroke:none;stroke-width:1.16250002;stroke-linecap:round;stroke-linejoin:round;stroke-miterlimit:4;stroke-dasharray:none;stroke-opacity:1"/>
    <path sodipodi:nodetypes="cssssccsssscc" class="ColorScheme-Text" id="rect4137" d="M 1,43.082031 1,57.14578 c 0,1.108 0.892,2 2,2 l 16,0 c 1.108,0 2,-0.892 2,-2 l 0,-14.063749 -1,0 L 20,56 c 0,0.554 -0.446,1 -1,1 L 3,57 C 2.446,57 2,56.554 2,56 L 2,43.082031 Z" inkscape:connector-curvature="0" style="opacity:1;fill:currentColor;fill-opacity:1;stroke:currentColor;stroke-width:0;stroke-linecap:round;stroke-linejoin:round;stroke-miterlimit:4;stroke-dasharray:none"/>
  </g>
</svg>
