<?xml version='1.0' encoding='UTF-8' standalone='no'?>
<!-- Created with Inkscape (http://www.inkscape.org/) -->
<svg xmlns="http://www.w3.org/2000/svg" xmlns:cc="http://creativecommons.org/ns#" xmlns:inkscape="http://www.inkscape.org/namespaces/inkscape" sodipodi:docname="yoshimi.svg" xmlns:sodipodi="http://sodipodi.sourceforge.net/DTD/sodipodi-0.dtd" version="1.1" xmlns:dc="http://purl.org/dc/elements/1.1/" inkscape:version="0.91 r13725" id="svg2816" xmlns:svg="http://www.w3.org/2000/svg" inkscape:output_extension="org.inkscape.output.svg.inkscape" xmlns:rdf="http://www.w3.org/1999/02/22-rdf-syntax-ns#" height="22" sodipodi:version="0.32" width="22">
  <defs id="defs2818">
    <style type="text/css" id="current-color-scheme"><![CDATA[
.ColorScheme-Text{ color:#c8c8c8; }
]]></style>
    <inkscape:perspective sodipodi:type="inkscape:persp3d" inkscape:vp_z="64 : 32 : 1" inkscape:persp3d-origin="32 : 21.333333 : 1" inkscape:vp_x="0 : 32 : 1" id="perspective2824" inkscape:vp_y="0 : 1000 : 0"/>
    <inkscape:perspective sodipodi:type="inkscape:persp3d" inkscape:vp_z="64 : 32 : 1" inkscape:persp3d-origin="32 : 21.333333 : 1" inkscape:vp_x="0 : 32 : 1" id="perspective2824-8" inkscape:vp_y="0 : 1000 : 0"/>
    <inkscape:perspective sodipodi:type="inkscape:persp3d" inkscape:vp_z="1 : 0.5 : 1" inkscape:persp3d-origin="0.5 : 0.33333333 : 1" inkscape:vp_x="0 : 0.5 : 1" id="perspective2824-5" inkscape:vp_y="0 : 1000 : 0"/>
  </defs>
  <sodipodi:namedview inkscape:object-paths="true" inkscape:snap-smooth-nodes="true" inkscape:window-x="38" inkscape:current-layer="layer1" inkscape:window-y="0" inkscape:snap-intersection-paths="true" inkscape:window-height="1080" bordercolor="#666666" inkscape:grid-bbox="true" inkscape:window-width="1882" inkscape:snap-midpoints="true" borderopacity="1.0" inkscape:snap-global="true" inkscape:window-maximized="1" inkscape:pageshadow="2" id="base" pagecolor="#ffffff" inkscape:zoom="30.935922" inkscape:cx="12.824857" inkscape:document-units="px" inkscape:cy="10.876374" inkscape:object-nodes="true" showgrid="true" inkscape:pageopacity="0.0">
    <inkscape:grid enabled="true" visible="true" empspacing="4" type="xygrid" id="grid2826" snapvisiblegridlinesonly="true"/>
  </sodipodi:namedview>
  <metadata id="metadata2821">
    <rdf:RDF>
      <cc:Work rdf:about="">
        <dc:format>image/svg+xml</dc:format>
        <dc:type rdf:resource="http://purl.org/dc/dcmitype/StillImage"/>
        <dc:title/>
      </cc:Work>
    </rdf:RDF>
  </metadata>
  <g inkscape:label="Layer 1" id="layer1" inkscape:groupmode="layer" transform="translate(0,-42)">
    <path class="ColorScheme-Text" id="path4183" d="M 4.7929688 0.91796875 L 1.9941406 2 L 2.7675781 4 L 1 4 L 1 21 L 21 21 L 21 4 L 19.232422 4 L 20.005859 2 L 17.207031 0.91796875 L 16.015625 4 L 5.984375 4 L 4.7929688 0.91796875 z M 2 5 L 20 5 L 20 20 L 2 20 L 2 5 z " style="opacity:1;fill:currentColor;fill-opacity:1;stroke:none;stroke-width:2;stroke-linecap:square;stroke-linejoin:round;stroke-miterlimit:4;stroke-dasharray:none" transform="translate(0,42)"/>
    <path class="ColorScheme-Text" id="path4179" d="M 7,49 A 3,1.5 0 0 0 4,50.5 3,1.5 0 0 0 7,52 3,1.5 0 0 0 10,50.5 3,1.5 0 0 0 7,49 Z m 0,0.75 A 1,0.75 0 0 1 8,50.5 1,0.75 0 0 1 7,51.25 1,0.75 0 0 1 6,50.5 1,0.75 0 0 1 7,49.75 Z" inkscape:connector-curvature="0" style="opacity:1;fill:currentColor;fill-opacity:1;stroke:none;stroke-width:2;stroke-linecap:square;stroke-linejoin:round;stroke-miterlimit:4;stroke-dasharray:none"/>
    <path class="ColorScheme-Text" id="path4175" d="M 3 12 L 3 19 L 19 19 L 19 12 L 3 12 z M 4 13 L 6 13 L 6 15 L 4 15 L 4 13 z M 7 13 L 9 13 L 9 15 L 7 15 L 7 13 z M 10 13 L 12 13 L 12 15 L 10 15 L 10 13 z M 13 13 L 15 13 L 15 15 L 13 15 L 13 13 z M 16 13 L 18 13 L 18 15 L 16 15 L 16 13 z M 4 16 L 6 16 L 6 18 L 4 18 L 4 16 z M 7 16 L 9 16 L 9 18 L 7 18 L 7 16 z M 10 16 L 12 16 L 12 18 L 10 18 L 10 16 z M 13 16 L 15 16 L 15 18 L 13 18 L 13 16 z M 16 16 L 18 16 L 18 18 L 16 18 L 16 16 z " style="opacity:1;fill:currentColor;fill-opacity:1;stroke:none;stroke-width:2;stroke-linecap:square;stroke-linejoin:round;stroke-miterlimit:4;stroke-dasharray:none" transform="translate(0,42)"/>
    <path class="ColorScheme-Text" id="path4189" d="m 15,49 a 3,1.5 0 0 0 -3,1.5 3,1.5 0 0 0 3,1.5 3,1.5 0 0 0 3,-1.5 3,1.5 0 0 0 -3,-1.5 z m 0,0.75 a 1,0.75 0 0 1 1,0.75 1,0.75 0 0 1 -1,0.75 1,0.75 0 0 1 -1,-0.75 1,0.75 0 0 1 1,-0.75 z" inkscape:connector-curvature="0" style="opacity:1;fill:currentColor;fill-opacity:1;stroke:none;stroke-width:2;stroke-linecap:square;stroke-linejoin:round;stroke-miterlimit:4;stroke-dasharray:none"/>
  </g>
</svg>
