<?xml version="1.0" encoding="UTF-8" standalone="no"?>
<!-- Created with Inkscape (http://www.inkscape.org/) -->

<svg
   xmlns:dc="http://purl.org/dc/elements/1.1/"
   xmlns:cc="http://creativecommons.org/ns#"
   xmlns:rdf="http://www.w3.org/1999/02/22-rdf-syntax-ns#"
   xmlns:svg="http://www.w3.org/2000/svg"
   xmlns="http://www.w3.org/2000/svg"
   xmlns:sodipodi="http://sodipodi.sourceforge.net/DTD/sodipodi-0.dtd"
   xmlns:inkscape="http://www.inkscape.org/namespaces/inkscape"
   inkscape:version="0.91 r13725"
   sodipodi:docname="claudia.svg"
   sodipodi:version="0.32"
   width="16"
   height="16"
   inkscape:output_extension="org.inkscape.output.svg.inkscape"
   id="svg2"
   version="1.0">
  <defs
     id="defs4">
    <style
       type="text/css"
       id="current-color-scheme"><![CDATA[
.ColorScheme-Text{ color:#c8c8c8; }
]]></style>
    <inkscape:perspective
       sodipodi:type="inkscape:persp3d"
       inkscape:persp3d-origin="372.04724 : 350.78739 : 1"
       inkscape:vp_z="744.09448 : 526.18109 : 1"
       inkscape:vp_x="0 : 526.18109 : 1"
       id="perspective10"
       inkscape:vp_y="0 : 1000 : 0" />
  </defs>
  <sodipodi:namedview
     borderopacity="1.0"
     inkscape:window-x="38"
     inkscape:document-units="px"
     inkscape:window-y="0"
     pagecolor="#ffffff"
     inkscape:zoom="22.627417"
     showgrid="true"
     inkscape:pageopacity="0.0"
     showguides="false"
     inkscape:window-maximized="1"
     bordercolor="#666666"
     inkscape:pageshadow="2"
     inkscape:current-layer="layer2"
     id="base"
     inkscape:window-height="1080"
     inkscape:cx="17.246774"
     inkscape:window-width="1882"
     inkscape:cy="5.9589229">
    <inkscape:grid
       visible="true"
       type="xygrid"
       enabled="true"
       id="grid2383" />
  </sodipodi:namedview>
  <metadata
     id="metadata7">
    <rdf:RDF>
      <cc:Work
         rdf:about="">
        <dc:format>image/svg+xml</dc:format>
        <dc:type
           rdf:resource="http://purl.org/dc/dcmitype/StillImage" />
        <dc:title></dc:title>
      </cc:Work>
    </rdf:RDF>
  </metadata>
  <g
     inkscape:groupmode="layer"
     inkscape:label="Capa 1"
     id="layer1"
     transform="translate(0,-112)" />
  <g
     inkscape:groupmode="layer"
     id="layer2"
     transform="translate(0,-112)"
     style="opacity:1">
    <path
       id="path4145"
       inkscape:connector-curvature="0"
       sodipodi:nodetypes="ccccsccc"
       d="m 10.027729,113.02167 0,6.60462 c -0.5494307,-0.30494 -1.2615407,-0.47393 -2.0000007,-0.47461 -1.6564866,0 -2.9994801,0.82976 -3.0000001,1.85352 5.2e-4,1.02376 1.3435135,1.85352 3.0000001,1.85352 1.6564873,0 2.9994807,-0.82976 3.0000007,-1.85352 l 0,-7.98353 z"
       style="color:#c8c8c8;opacity:1;fill:currentColor;fill-opacity:1;stroke:none;stroke-width:2;stroke-linecap:round;stroke-linejoin:round;stroke-miterlimit:4;stroke-dasharray:none"
       class="ColorScheme-Text" />
    <path
       id="path4150"
       inkscape:connector-curvature="0"
       sodipodi:nodetypes="ccccccccccccccccccccccccc"
       d="m 4.4111962,122.41145 c -1.5013005,0.37717 -2.3854636,0.9671 -2.3886719,1.59375 0.00561,0.84772 1.6139121,1.60217 4.0136719,1.88281 l 0,1.05274 0.9882811,-0.70703 0.986328,-0.70899 -0.986328,-0.70898 -0.9882811,-0.70899 0,0.81641 C 4.2062888,124.76474 3.0219933,124.404 3.0225243,124.0052 c 0.00183,-0.32728 0.8042699,-0.63366 2.1484375,-0.82031 -0.2930615,-0.21349 -0.5604063,-0.46768 -0.7597656,-0.77344 z m 7.2343758,0.002 c -0.199246,0.30514 -0.467173,0.55834 -0.759766,0.77149 1.339651,0.18716 2.137478,0.49343 2.136719,0.82026 -0.0032,0.39627 -1.175998,0.75478 -2.990234,0.91406 l 0,-0.8125 -1.0039077,0.70899 -1.001953,0.70898 1.001953,0.70899 1.0039077,0.70703 0,-1.05469 c 2.388495,-0.28303 3.985665,-1.03588 3.990234,-1.88086 -0.0023,-0.62528 -0.881704,-1.21423 -2.376953,-1.5918 z"
       style="opacity:1;fill:#c8c8c8;fill-opacity:1;stroke:none;stroke-width:0;stroke-linecap:round;stroke-linejoin:round;stroke-miterlimit:4;stroke-dasharray:none" />
  </g>
</svg>
