<?xml version="1.0" encoding="UTF-8" standalone="no"?>
<!-- Created with Inkscape (http://www.inkscape.org/) -->

<svg
   xmlns:dc="http://purl.org/dc/elements/1.1/"
   xmlns:cc="http://creativecommons.org/ns#"
   xmlns:rdf="http://www.w3.org/1999/02/22-rdf-syntax-ns#"
   xmlns:svg="http://www.w3.org/2000/svg"
   xmlns="http://www.w3.org/2000/svg"
   xmlns:sodipodi="http://sodipodi.sourceforge.net/DTD/sodipodi-0.dtd"
   xmlns:inkscape="http://www.inkscape.org/namespaces/inkscape"
   inkscape:version="0.91 r13725"
   sodipodi:docname="claudia-launcher.svg"
   sodipodi:version="0.32"
   width="16"
   height="16"
   inkscape:output_extension="org.inkscape.output.svg.inkscape"
   id="svg2"
   version="1.0">
  <defs
     id="defs4">
    <style
       type="text/css"
       id="current-color-scheme"><![CDATA[
.ColorScheme-Text{ color:#c8c8c8; }
]]></style>
    <inkscape:perspective
       sodipodi:type="inkscape:persp3d"
       inkscape:persp3d-origin="372.04724 : 350.78739 : 1"
       inkscape:vp_z="744.09448 : 526.18109 : 1"
       inkscape:vp_x="0 : 526.18109 : 1"
       id="perspective10"
       inkscape:vp_y="0 : 1000 : 0" />
  </defs>
  <sodipodi:namedview
     borderopacity="1.0"
     inkscape:window-x="38"
     inkscape:document-units="px"
     inkscape:window-y="0"
     pagecolor="#ffffff"
     inkscape:zoom="32"
     showgrid="true"
     inkscape:pageopacity="0.0"
     showguides="false"
     inkscape:window-maximized="1"
     bordercolor="#666666"
     inkscape:pageshadow="2"
     inkscape:current-layer="layer2"
     id="base"
     inkscape:window-height="1080"
     inkscape:cx="13.366956"
     inkscape:window-width="1882"
     inkscape:cy="10.35613">
    <inkscape:grid
       visible="true"
       type="xygrid"
       enabled="true"
       id="grid2383" />
  </sodipodi:namedview>
  <metadata
     id="metadata7">
    <rdf:RDF>
      <cc:Work
         rdf:about="">
        <dc:format>image/svg+xml</dc:format>
        <dc:type
           rdf:resource="http://purl.org/dc/dcmitype/StillImage" />
        <dc:title></dc:title>
      </cc:Work>
    </rdf:RDF>
  </metadata>
  <g
     inkscape:groupmode="layer"
     inkscape:label="Capa 1"
     id="layer1"
     transform="translate(0,-112)" />
  <g
     inkscape:groupmode="layer"
     id="layer2"
     transform="translate(0,-112)"
     style="opacity:1">
    <path
       id="path4150"
       inkscape:connector-curvature="0"
       d="m 4.4199219,122.4375 a 6,2 0 0 0 -2.3886719,1.59375 6,2 0 0 0 4.0136719,1.88281 l 0,1.05274 0.9882811,-0.70703 0.986328,-0.70899 -0.986328,-0.70898 -0.9882811,-0.70899 0,0.81641 A 5,1 0 0 1 3.03125,124.03125 5,1 0 0 1 5.1796875,123.21094 C 4.886626,122.99745 4.6192812,122.74326 4.4199219,122.4375 Z m 7.2343751,0.002 c -0.199246,0.30514 -0.467173,0.55834 -0.759766,0.77149 a 5,1 0 0 1 2.136719,0.82026 5,1 0 0 1 -2.990234,0.91406 l 0,-0.8125 -1.003907,0.70899 -1.001953,0.70898 1.001953,0.70899 1.003907,0.70703 0,-1.05469 a 6,2 0 0 0 3.990234,-1.88086 6,2 0 0 0 -2.376953,-1.5918 z"
       style="opacity:1;fill:#c8c8c8;fill-opacity:1;stroke:none;stroke-width:0;stroke-linecap:round;stroke-linejoin:round;stroke-miterlimit:4;stroke-dasharray:none" />
    <path
       id="path4191"
       inkscape:connector-curvature="0"
       sodipodi:nodetypes="cccccccc"
       d="m 6.03125,123.0625 4,0 0,-7.03125 2,0 -4,-3 -4,3 2,0 z"
       style="color:#c8c8c8;fill:currentColor;fill-rule:evenodd;stroke:none;stroke-width:1px;stroke-linecap:butt;stroke-linejoin:miter;stroke-opacity:1"
       class="ColorScheme-Text" />
  </g>
</svg>
