<?xml version="1.0" encoding="UTF-8" standalone="no"?>
<!-- Created with Inkscape (http://www.inkscape.org/) -->

<svg
   xmlns:dc="http://purl.org/dc/elements/1.1/"
   xmlns:cc="http://creativecommons.org/ns#"
   xmlns:rdf="http://www.w3.org/1999/02/22-rdf-syntax-ns#"
   xmlns:svg="http://www.w3.org/2000/svg"
   xmlns="http://www.w3.org/2000/svg"
   xmlns:sodipodi="http://sodipodi.sourceforge.net/DTD/sodipodi-0.dtd"
   xmlns:inkscape="http://www.inkscape.org/namespaces/inkscape"
   width="22"
   inkscape:export-xdpi="90"
   version="1.1"
   height="22"
   inkscape:version="0.91 r13725"
   id="svg5453"
   inkscape:export-filename="/home/uri/Iconos de KDE/Novo/apps/preferences/preferences-system-network-sharing.png"
   inkscape:export-ydpi="90"
   sodipodi:docname="applications-mathematics.svg">
  <defs
     id="defs5455">
    <style
       id="current-color-scheme"
       type="text/css"><![CDATA[
.ColorScheme-Text{ color:#c8c8c8; }
]]></style>
  </defs>
  <sodipodi:namedview
     fit-margin-right="0"
     inkscape:showpageshadow="false"
     inkscape:document-units="px"
     fit-margin-bottom="0"
     bordercolor="#666666"
     borderlayer="true"
     inkscape:window-y="0"
     showguides="true"
     borderopacity="1.0"
     inkscape:window-maximized="1"
     inkscape:window-height="1080"
     inkscape:pageshadow="2"
     inkscape:snap-smooth-nodes="true"
     fit-margin-left="0"
     inkscape:cx="-2.7017021"
     fit-margin-top="0"
     inkscape:window-x="30"
     inkscape:cy="10.528935"
     inkscape:pageopacity="0"
     inkscape:current-layer="layer1"
     inkscape:snap-nodes="true"
     inkscape:zoom="15.999999"
     id="base"
     inkscape:object-nodes="true"
     inkscape:object-paths="true"
     inkscape:snap-intersection-paths="true"
     inkscape:window-width="1890"
     pagecolor="#ffffff"
     showgrid="true">
    <inkscape:grid
       id="grid4063"
       type="xygrid" />
  </sodipodi:namedview>
  <metadata
     id="metadata5458">
    <rdf:RDF>
      <cc:Work
         rdf:about="">
        <dc:format>image/svg+xml</dc:format>
        <dc:type
           rdf:resource="http://purl.org/dc/dcmitype/StillImage" />
        <dc:title></dc:title>
      </cc:Work>
    </rdf:RDF>
  </metadata>
  <g
     inkscape:label="Capa 1"
     inkscape:groupmode="layer"
     transform="translate(-384.57143,-525.798)"
     id="layer1">
    <path
       style="fill:currentColor;fill-rule:evenodd;stroke:none;stroke-width:1px;stroke-linecap:butt;stroke-linejoin:miter;stroke-opacity:1"
       class="ColorScheme-Text"
       d="m 405.57143,527.798 -20,15 20,0 z m -2,4 0,9 -12,0 z"
       inkscape:connector-curvature="0"
       sodipodi:nodetypes="cccccccc"
       id="path4142" />
    <g
       style="color:#c8c8c8;font-style:normal;font-variant:normal;font-weight:normal;font-stretch:normal;font-size:6.53609753px;line-height:125%;font-family:'Ubuntu Mono';-inkscape-font-specification:'Ubuntu Mono';letter-spacing:0px;word-spacing:0px;fill:currentColor;fill-opacity:1;stroke:none;stroke-width:1px;stroke-linecap:butt;stroke-linejoin:miter;stroke-opacity:1"
       id="text4147">
      <path
         d="m 396.16725,546.29955 q 0.20262,0 0.35949,-0.0131 0.1634,-0.0131 0.26798,-0.0327 l 0,-0.90198 q -0.10458,-0.0327 -0.25491,-0.0523 -0.14379,-0.0196 -0.30719,-0.0196 -0.15034,0 -0.29413,0.0261 -0.14379,0.0196 -0.25491,0.0784 -0.11111,0.0588 -0.18301,0.15686 -0.0719,0.0915 -0.0719,0.2353 0,0.29413 0.19608,0.41178 0.20262,0.11111 0.54249,0.11111 z m -0.0523,-2.71902 q 0.33987,0 0.56864,0.085 0.2353,0.085 0.37909,0.2353 0.14379,0.15033 0.20262,0.36602 0.0588,0.2157 0.0588,0.4706 l 0,1.89547 q -0.18954,0.0327 -0.50328,0.0784 -0.30719,0.0457 -0.634,0.0457 -0.24837,0 -0.48367,-0.0457 -0.2353,-0.0392 -0.41831,-0.1438 -0.18301,-0.11111 -0.29412,-0.30066 -0.11112,-0.18955 -0.11112,-0.48367 0,-0.26144 0.11112,-0.43792 0.11765,-0.18301 0.29412,-0.29412 0.18301,-0.11112 0.41178,-0.15687 0.23529,-0.0523 0.47059,-0.0523 0.32027,0 0.62747,0.0719 l 0,-0.15033 q 0,-0.13726 -0.0327,-0.26145 -0.0262,-0.13072 -0.11111,-0.2353 -0.0784,-0.10457 -0.22223,-0.1634 -0.13726,-0.0654 -0.35949,-0.0654 -0.28105,0 -0.4902,0.0392 -0.20916,0.0392 -0.32027,0.0784 l -0.0654,-0.44445 q 0.11111,-0.0523 0.36602,-0.0915 0.26144,-0.0392 0.55557,-0.0392 z"
         style=""
         id="path4149" />
    </g>
    <g
       style="color:#c8c8c8;font-style:normal;font-variant:normal;font-weight:normal;font-stretch:normal;font-size:6.53609753px;line-height:125%;font-family:'Ubuntu Mono';-inkscape-font-specification:'Ubuntu Mono';letter-spacing:0px;word-spacing:0px;fill:currentColor;fill-opacity:1;stroke:none;stroke-width:1px;stroke-linecap:butt;stroke-linejoin:miter;stroke-opacity:1"
       id="text4151">
      <path
         d="m 392.96468,532.88939 q 0,-0.41177 0.13072,-0.71243 0.13072,-0.30066 0.35949,-0.49675 0.22876,-0.19608 0.52942,-0.28758 0.3072,-0.0981 0.65361,-0.0981 0.22223,0 0.43792,0.0327 0.22222,0.0261 0.4706,0.10457 l -0.12419,0.46407 q -0.21569,-0.0784 -0.3987,-0.098 -0.17648,-0.0261 -0.35949,-0.0261 -0.2353,0 -0.44445,0.0654 -0.20916,0.0588 -0.36602,0.19608 -0.15033,0.13073 -0.24184,0.34642 -0.0915,0.20915 -0.0915,0.50981 0,0.28759 0.085,0.49675 0.085,0.20261 0.2353,0.33987 0.15686,0.13072 0.37255,0.19609 0.21569,0.0654 0.47714,0.0654 0.20915,0 0.3987,-0.0196 0.19608,-0.0262 0.42485,-0.10458 l 0.0784,0.45099 q -0.22876,0.085 -0.46406,0.11765 -0.2353,0.0392 -0.50982,0.0392 -0.36602,0 -0.67322,-0.098 -0.30066,-0.10458 -0.52289,-0.30066 -0.21569,-0.19609 -0.33987,-0.49021 -0.11765,-0.30066 -0.11765,-0.69283 z"
         style=""
         id="path4143" />
    </g>
    <g
       style="color:#c8c8c8;font-style:normal;font-variant:normal;font-weight:normal;font-stretch:normal;font-size:6.53609753px;line-height:125%;font-family:'Ubuntu Mono';-inkscape-font-specification:'Ubuntu Mono';letter-spacing:0px;word-spacing:0px;fill:currentColor;fill-opacity:1;stroke:none;stroke-width:1px;stroke-linecap:butt;stroke-linejoin:miter;stroke-opacity:1"
       id="text4155">
      <path
         d="m 400.63366,536.82513 q 0.0981,-0.0588 0.28106,-0.11765 0.18954,-0.0654 0.41831,-0.0654 0.30719,0 0.54903,0.11765 0.24183,0.11765 0.40524,0.3268 0.16994,0.20916 0.25491,0.50328 0.0915,0.28759 0.0915,0.64054 0,0.36602 -0.10458,0.66015 -0.10457,0.29412 -0.29412,0.50328 -0.18955,0.20261 -0.45753,0.31373 -0.26798,0.11111 -0.59478,0.11111 -0.35949,0 -0.64054,-0.0523 -0.28105,-0.0523 -0.45099,-0.10457 l 0,-4.35305 0.54249,-0.0915 0,1.60788 z m 0,2.45104 q 0.12419,0.0327 0.24838,0.0523 0.12418,0.0131 0.2353,0.0131 0.45099,0 0.70589,-0.27452 0.25491,-0.28105 0.25491,-0.83662 0,-0.2353 -0.0457,-0.43792 -0.0457,-0.20915 -0.14379,-0.35295 -0.0981,-0.15033 -0.25491,-0.2353 -0.15033,-0.085 -0.36602,-0.085 -0.18955,0 -0.36603,0.0784 -0.17647,0.0719 -0.26798,0.15686 l 0,1.92162 z"
         style=""
         id="path4146" />
    </g>
  </g>
</svg>
