<?xml version='1.0' encoding='UTF-8' standalone='no'?>
<!-- Created with Inkscape (http://www.inkscape.org/) -->
<svg xmlns="http://www.w3.org/2000/svg" inkscape:export-ydpi="90" xmlns:dc="http://purl.org/dc/elements/1.1/" inkscape:export-xdpi="90" sodipodi:docname="applications-games.svg" xmlns:cc="http://creativecommons.org/ns#" id="svg5453" version="1.1" inkscape:export-filename="/home/uri/Iconos de KDE/Novo/apps/preferences/preferences-system-network-sharing.png" width="22" xmlns:svg="http://www.w3.org/2000/svg" xmlns:sodipodi="http://sodipodi.sourceforge.net/DTD/sodipodi-0.dtd" inkscape:version="0.91 r13725" xmlns:inkscape="http://www.inkscape.org/namespaces/inkscape" height="22" xmlns:rdf="http://www.w3.org/1999/02/22-rdf-syntax-ns#">
  <defs id="defs5455">
    <style id="current-color-scheme" type="text/css"><![CDATA[
.ColorScheme-Text{ color:#c8c8c8; }
]]></style>
  </defs>
  <sodipodi:namedview borderlayer="true" inkscape:window-maximized="1" inkscape:window-y="0" fit-margin-top="0" inkscape:cx="12.372249" id="base" inkscape:pageopacity="0" inkscape:pageshadow="2" showguides="true" fit-margin-left="0" inkscape:document-units="px" inkscape:window-width="1882" fit-margin-bottom="0" inkscape:showpageshadow="false" inkscape:window-x="38" borderopacity="1.0" inkscape:zoom="11.313708" bordercolor="#666666" pagecolor="#ffffff" showgrid="true" inkscape:current-layer="layer1" fit-margin-right="0" inkscape:window-height="1080" inkscape:cy="-19.997651">
    <inkscape:grid id="grid4063" type="xygrid"/>
  </sodipodi:namedview>
  <metadata id="metadata5458">
    <rdf:RDF>
      <cc:Work rdf:about="">
        <dc:format>image/svg+xml</dc:format>
        <dc:type rdf:resource="http://purl.org/dc/dcmitype/StillImage"/>
        <dc:title/>
      </cc:Work>
    </rdf:RDF>
  </metadata>
  <g inkscape:label="Capa 1" inkscape:groupmode="layer" id="layer1" transform="translate(-384.57143,-525.798)">
    <path d="M 11.101562 1 A 10 10 0 0 0 7.1992188 1.75 A 10 10 0 0 0 1.0605469 12.103516 A 10 10 0 0 0 9.3203125 20.857422 A 10 10 0 0 0 20.011719 15.333984 L 11 11 L 18.841797 4.7949219 A 10 10 0 0 0 11.101562 1 z M 7.25 4.75 A 1.8749998 1.8749998 0 0 1 9.125 6.625 A 1.8749998 1.8749998 0 0 1 7.25 8.5 A 1.8749998 1.8749998 0 0 1 5.375 6.625 A 1.8749998 1.8749998 0 0 1 7.25 4.75 z " class="ColorScheme-Text" id="path4155" style="opacity:1;fill:currentColor;fill-opacity:1;stroke:none;stroke-width:1;stroke-linecap:round;stroke-linejoin:round;stroke-miterlimit:4;stroke-dasharray:none" transform="translate(384.57143,525.798)"/>
  </g>
</svg>
