<?xml version='1.0' encoding='UTF-8' standalone='no'?>
<!-- Created with Inkscape (http://www.inkscape.org/) -->
<svg xmlns="http://www.w3.org/2000/svg" inkscape:export-ydpi="90" xmlns:dc="http://purl.org/dc/elements/1.1/" inkscape:export-xdpi="90" sodipodi:docname="applications-graphics.svg" xmlns:cc="http://creativecommons.org/ns#" id="svg5453" version="1.1" inkscape:export-filename="/home/uri/Iconos de KDE/Novo/apps/preferences/preferences-system-network-sharing.png" width="22" xmlns:svg="http://www.w3.org/2000/svg" xmlns:sodipodi="http://sodipodi.sourceforge.net/DTD/sodipodi-0.dtd" inkscape:version="0.91 r13725" xmlns:inkscape="http://www.inkscape.org/namespaces/inkscape" height="22" xmlns:rdf="http://www.w3.org/1999/02/22-rdf-syntax-ns#">
  <defs id="defs5455">
    <style id="current-color-scheme" type="text/css"><![CDATA[
.ColorScheme-Text{ color:#c8c8c8; }
]]></style>
  </defs>
  <sodipodi:namedview borderlayer="true" inkscape:window-maximized="1" inkscape:window-y="0" fit-margin-top="0" inkscape:cx="8.5155708" id="base" inkscape:pageopacity="0" inkscape:pageshadow="2" showguides="true" fit-margin-left="0" inkscape:document-units="px" inkscape:window-width="1882" fit-margin-bottom="0" inkscape:showpageshadow="false" inkscape:window-x="38" borderopacity="1.0" inkscape:zoom="1" bordercolor="#666666" pagecolor="#ffffff" showgrid="true" inkscape:current-layer="layer1" fit-margin-right="0" inkscape:window-height="1080" inkscape:cy="9.0137559">
    <inkscape:grid id="grid4063" type="xygrid"/>
  </sodipodi:namedview>
  <metadata id="metadata5458">
    <rdf:RDF>
      <cc:Work rdf:about="">
        <dc:format>image/svg+xml</dc:format>
        <dc:type rdf:resource="http://purl.org/dc/dcmitype/StillImage"/>
        <dc:title/>
      </cc:Work>
    </rdf:RDF>
  </metadata>
  <g inkscape:label="Capa 1" inkscape:groupmode="layer" id="layer1" transform="translate(-384.57143,-525.798)">
    <path d="M 10.992188 1.9238281 A 10.008233 9.0108347 0 0 0 0.984375 10.933594 A 10.008233 9.0108347 0 0 0 10.992188 19.945312 A 10.008233 9.0108347 0 0 0 21 10.933594 A 10.008233 9.0108347 0 0 0 10.992188 1.9238281 z M 10.992188 2.8378906 A 8.9917669 8.0956678 0 0 1 11.779297 2.8730469 A 8.9917669 8.0956678 0 0 1 12.15625 2.9160156 A 8.9917669 8.0956678 0 0 1 12.667969 2.984375 A 8.9917669 8.0956678 0 0 1 13.060547 3.0644531 A 8.9917669 8.0956678 0 0 1 13.521484 3.1699219 A 8.9917669 8.0956678 0 0 1 13.978516 3.3066406 A 8.9917669 8.0956678 0 0 1 14.353516 3.4296875 A 8.9917669 8.0956678 0 0 1 14.8125 3.6152344 A 8.9917669 8.0956678 0 0 1 15.173828 3.7714844 A 8.9917669 8.0956678 0 0 1 15.580078 3.9824219 A 8.9917669 8.0956678 0 0 1 15.960938 4.1914062 A 8.9917669 8.0956678 0 0 1 16.314453 4.4199219 A 8.9917669 8.0956678 0 0 1 16.6875 4.6738281 A 8.9917669 8.0956678 0 0 1 17.017578 4.9375 A 8.9917669 8.0956678 0 0 1 17.339844 5.2070312 A 8.9917669 8.0956678 0 0 1 17.675781 5.5332031 A 8.9917669 8.0956678 0 0 1 17.941406 5.8046875 A 8.9917669 8.0956678 0 0 1 18.232422 6.1484375 A 8.9917669 8.0956678 0 0 1 18.478516 6.4570312 A 8.9917669 8.0956678 0 0 1 18.728516 6.8261719 A 8.9917669 8.0956678 0 0 1 18.9375 7.1542969 A 8.9917669 8.0956678 0 0 1 19.130859 7.5136719 A 8.9917669 8.0956678 0 0 1 19.324219 7.9003906 A 8.9917669 8.0956678 0 0 1 19.472656 8.2695312 A 8.9917669 8.0956678 0 0 1 19.613281 8.6503906 A 8.9917669 8.0956678 0 0 1 19.730469 9.0644531 A 8.9917669 8.0956678 0 0 1 19.822266 9.4335938 A 8.9917669 8.0956678 0 0 1 19.890625 9.8398438 A 8.9917669 8.0956678 0 0 1 19.947266 10.253906 A 8.9917669 8.0956678 0 0 1 19.984375 10.933594 A 8.9917669 8.0956678 0 0 1 19.947266 11.613281 A 8.9917669 8.0956678 0 0 1 19.890625 12.027344 A 8.9917669 8.0956678 0 0 1 19.822266 12.433594 A 8.9917669 8.0956678 0 0 1 19.730469 12.802734 A 8.9917669 8.0956678 0 0 1 19.613281 13.216797 A 8.9917669 8.0956678 0 0 1 19.472656 13.597656 A 8.9917669 8.0956678 0 0 1 19.324219 13.966797 A 8.9917669 8.0956678 0 0 1 19.130859 14.353516 A 8.9917669 8.0956678 0 0 1 18.9375 14.712891 A 8.9917669 8.0956678 0 0 1 18.728516 15.041016 A 8.9917669 8.0956678 0 0 1 18.478516 15.410156 A 8.9917669 8.0956678 0 0 1 18.232422 15.71875 A 8.9917669 8.0956678 0 0 1 17.941406 16.0625 A 8.9917669 8.0956678 0 0 1 17.675781 16.333984 A 8.9917669 8.0956678 0 0 1 17.339844 16.660156 A 8.9917669 8.0956678 0 0 1 17.017578 16.929688 A 8.9917669 8.0956678 0 0 1 16.6875 17.193359 A 8.9917669 8.0956678 0 0 1 16.314453 17.447266 A 8.9917669 8.0956678 0 0 1 15.960938 17.675781 A 8.9917669 8.0956678 0 0 1 15.580078 17.884766 A 8.9917669 8.0956678 0 0 1 15.173828 18.095703 A 8.9917669 8.0956678 0 0 1 14.8125 18.251953 A 8.9917669 8.0956678 0 0 1 14.353516 18.4375 A 8.9917669 8.0956678 0 0 1 13.978516 18.560547 A 8.9917669 8.0956678 0 0 1 13.521484 18.697266 A 8.9917669 8.0956678 0 0 1 13.060547 18.802734 A 8.9917669 8.0956678 0 0 1 12.667969 18.882812 A 8.9917669 8.0956678 0 0 1 12.15625 18.951172 A 8.9917669 8.0956678 0 0 1 11.779297 18.994141 A 8.9917669 8.0956678 0 0 1 10.992188 19.029297 A 8.9917669 8.0956678 0 0 1 10.205078 18.994141 A 8.9917669 8.0956678 0 0 1 9.828125 18.951172 A 8.9917669 8.0956678 0 0 1 9.3164062 18.882812 A 8.9917669 8.0956678 0 0 1 8.9238281 18.802734 A 8.9917669 8.0956678 0 0 1 8.4628906 18.697266 A 8.9917669 8.0956678 0 0 1 8.0058594 18.560547 A 8.9917669 8.0956678 0 0 1 7.6308594 18.4375 A 8.9917669 8.0956678 0 0 1 7.171875 18.251953 A 8.9917669 8.0956678 0 0 1 6.8105469 18.095703 A 8.9917669 8.0956678 0 0 1 6.4042969 17.884766 A 8.9917669 8.0956678 0 0 1 6.0234375 17.675781 A 8.9917669 8.0956678 0 0 1 5.6699219 17.447266 A 8.9917669 8.0956678 0 0 1 5.296875 17.193359 A 8.9917669 8.0956678 0 0 1 4.9667969 16.929688 A 8.9917669 8.0956678 0 0 1 4.6445312 16.660156 A 8.9917669 8.0956678 0 0 1 4.3085938 16.333984 A 8.9917669 8.0956678 0 0 1 4.0429688 16.0625 A 8.9917669 8.0956678 0 0 1 3.7519531 15.71875 A 8.9917669 8.0956678 0 0 1 3.5058594 15.410156 A 8.9917669 8.0956678 0 0 1 3.2558594 15.041016 A 8.9917669 8.0956678 0 0 1 3.046875 14.712891 A 8.9917669 8.0956678 0 0 1 2.8535156 14.353516 A 8.9917669 8.0956678 0 0 1 2.6601562 13.966797 A 8.9917669 8.0956678 0 0 1 2.5117188 13.597656 A 8.9917669 8.0956678 0 0 1 2.3710938 13.216797 A 8.9917669 8.0956678 0 0 1 2.2539062 12.802734 A 8.9917669 8.0956678 0 0 1 2.1621094 12.433594 A 8.9917669 8.0956678 0 0 1 2.09375 12.027344 A 8.9917669 8.0956678 0 0 1 2.0371094 11.613281 A 8.9917669 8.0956678 0 0 1 2 10.933594 A 8.9917669 8.0956678 0 0 1 2.0371094 10.253906 A 8.9917669 8.0956678 0 0 1 2.09375 9.8398438 A 8.9917669 8.0956678 0 0 1 2.1621094 9.4335938 A 8.9917669 8.0956678 0 0 1 2.2539062 9.0644531 A 8.9917669 8.0956678 0 0 1 2.3710938 8.6503906 A 8.9917669 8.0956678 0 0 1 2.5117188 8.2695312 A 8.9917669 8.0956678 0 0 1 2.6601562 7.9003906 A 8.9917669 8.0956678 0 0 1 2.8535156 7.5136719 A 8.9917669 8.0956678 0 0 1 3.046875 7.1542969 A 8.9917669 8.0956678 0 0 1 3.2558594 6.8261719 A 8.9917669 8.0956678 0 0 1 3.5058594 6.4570312 A 8.9917669 8.0956678 0 0 1 3.7519531 6.1484375 A 8.9917669 8.0956678 0 0 1 4.0429688 5.8046875 A 8.9917669 8.0956678 0 0 1 4.3085938 5.5332031 A 8.9917669 8.0956678 0 0 1 4.6445312 5.2070312 A 8.9917669 8.0956678 0 0 1 4.9667969 4.9375 A 8.9917669 8.0956678 0 0 1 5.296875 4.6738281 A 8.9917669 8.0956678 0 0 1 5.6699219 4.4199219 A 8.9917669 8.0956678 0 0 1 6.0234375 4.1914062 A 8.9917669 8.0956678 0 0 1 6.4042969 3.9824219 A 8.9917669 8.0956678 0 0 1 6.8105469 3.7714844 A 8.9917669 8.0956678 0 0 1 7.171875 3.6152344 A 8.9917669 8.0956678 0 0 1 7.6308594 3.4296875 A 8.9917669 8.0956678 0 0 1 8.0058594 3.3066406 A 8.9917669 8.0956678 0 0 1 8.4628906 3.1699219 A 8.9917669 8.0956678 0 0 1 8.9238281 3.0644531 A 8.9917669 8.0956678 0 0 1 9.3164062 2.984375 A 8.9917669 8.0956678 0 0 1 9.828125 2.9160156 A 8.9917669 8.0956678 0 0 1 10.205078 2.8730469 A 8.9917669 8.0956678 0 0 1 10.992188 2.8378906 z " class="ColorScheme-Text" id="path4136" style="opacity:1;fill:currentColor;fill-opacity:1;stroke:none;stroke-width:1;stroke-linecap:round;stroke-linejoin:round;stroke-miterlimit:4;stroke-dasharray:none" transform="translate(384.57143,525.798)"/>
    <path d="M 10.992188 2.8378906 A 8.9917669 8.0956678 0 0 0 2 10.933594 A 8.9917669 8.0956678 0 0 0 10.992188 19.029297 A 8.9917669 8.0956678 0 0 0 19.984375 10.933594 A 8.9917669 8.0956678 0 0 0 10.992188 2.8378906 z M 15.865234 9.203125 C 16.674516 9.2849081 17.298828 10.14039 17.298828 11.007812 C 17.298828 11.999142 16.501096 12.796875 15.509766 12.796875 C 15.509766 12.796875 12.342689 11.94667 10.724609 11.96875 C 9.3266294 11.98785 6.6132812 12.796875 6.6132812 12.796875 C 5.6414112 12.992325 4.8242188 11.999142 4.8242188 11.007812 C 4.8242188 10.016472 5.6219513 9.2167969 6.6132812 9.2167969 C 6.6132812 9.2167969 9.3239894 10.064034 10.724609 10.083984 C 12.344959 10.107084 15.509766 9.2167969 15.509766 9.2167969 C 15.631699 9.1947156 15.749623 9.1914417 15.865234 9.203125 z " class="ColorScheme-Text" id="ellipse4143" style="opacity:1;fill:currentColor;fill-opacity:0.57081544;stroke:none;stroke-width:1;stroke-linecap:round;stroke-linejoin:round;stroke-miterlimit:4;stroke-dasharray:none" transform="translate(384.57143,525.798)"/>
    <path d="M 7.203125 4.4238281 A 0.98049977 0.845177 0 0 0 6.5996094 4.6132812 C 4.9307594 5.7515312 3.7565194 7.3791863 3.3496094 9.1914062 C 2.4913794 13.013686 5.3201069 16.971473 9.8730469 17.695312 C 13.850007 18.327593 17.961072 16.126024 18.669922 12.589844 C 19.278042 9.5562038 16.995357 6.4233444 13.341797 5.9277344 C 10.97978 5.6073193 8.5688671 6.5701659 7.3867188 8.2949219 C 8.0099088 8.4186914 8.6465907 8.682538 9.2871094 8.9023438 C 10.120464 7.9423541 11.593472 7.4015555 13.039062 7.5976562 C 13.689463 7.6858836 14.274468 7.9059063 14.785156 8.2128906 C 15.232659 8.1605215 15.672726 8.1866512 16.099609 8.3574219 C 17.131809 8.7703419 18.125 9.5384294 18.125 11.005859 C 18.125 12.414345 17.210444 13.178063 16.220703 13.59375 C 15.116812 15.385099 12.632564 16.415715 10.226562 16.033203 C 8.5295102 15.7634 7.1409715 14.879917 6.2480469 13.703125 C 6.1732723 13.684636 6.0976735 13.682308 6.0234375 13.654297 C 4.9832975 13.261817 3.9960938 12.473269 3.9960938 11.005859 C 3.9960938 9.7520811 4.7269234 9.0189045 5.5839844 8.5761719 C 6.0319179 7.5472724 6.8086596 6.6235055 7.8144531 5.9375 A 0.98049977 0.845177 0 0 0 7.203125 4.4238281 z M 12.248047 8.8046875 C 11.769222 8.823835 11.327889 8.9552588 10.943359 9.1875 C 11.484974 9.1573751 12.029987 9.0082447 12.574219 8.828125 C 12.465138 8.8208564 12.360593 8.8001857 12.248047 8.8046875 z M 10.001953 12.826172 C 9.3224625 12.996768 8.6453733 13.312528 7.9785156 13.539062 C 8.7018598 14.223326 9.6738506 14.712958 10.845703 14.818359 C 12.1577 14.936361 13.493913 14.497388 14.365234 13.681641 C 13.660952 13.508479 12.942211 13.194177 12.220703 12.964844 C 11.860066 13.106443 11.452278 13.174958 11.048828 13.138672 C 10.664737 13.104125 10.313488 12.991688 10.001953 12.826172 z " class="ColorScheme-Text" id="path4150" style="font-style:normal;font-variant:normal;font-weight:normal;font-stretch:normal;font-size:medium;line-height:normal;font-family:sans-serif;text-indent:0;text-align:start;text-decoration:none;text-decoration-line:none;text-decoration-style:solid;text-decoration-color:#000000;letter-spacing:normal;word-spacing:normal;text-transform:none;direction:ltr;block-progression:tb;writing-mode:lr-tb;baseline-shift:baseline;text-anchor:start;white-space:normal;clip-rule:nonzero;display:inline;overflow:visible;visibility:visible;opacity:1;isolation:auto;mix-blend-mode:normal;color-interpolation:sRGB;color-interpolation-filters:linearRGB;solid-color:#000000;solid-opacity:1;fill:currentColor;fill-opacity:0.34334765;fill-rule:evenodd;stroke:none;stroke-width:2;stroke-linecap:round;stroke-linejoin:miter;stroke-miterlimit:4;stroke-dasharray:none;stroke-dashoffset:0;stroke-opacity:1;color-rendering:auto;image-rendering:auto;shape-rendering:auto;text-rendering:auto;enable-background:accumulate" transform="translate(384.57143,525.798)"/>
    <path d="M 15.458984 8.2011719 C 13.945661 8.0447101 12.308793 9.2247063 10.720703 9.2070312 C 9.1298931 9.1893113 7.5070275 7.7830119 6.0234375 8.3574219 C 4.9867075 8.7588119 3.9960938 9.5384294 3.9960938 11.005859 C 3.9960938 12.473269 4.9832975 13.261817 6.0234375 13.654297 C 7.5418175 14.227217 9.1760381 12.722431 10.798828 12.707031 C 12.593428 12.690001 14.426579 14.303777 16.099609 13.654297 C 17.135979 13.251977 18.125 12.473269 18.125 11.005859 C 18.125 9.5384294 17.131809 8.7703419 16.099609 8.3574219 C 15.888956 8.2731519 15.675173 8.2235236 15.458984 8.2011719 z M 15.865234 9.203125 C 16.674516 9.2849081 17.298828 10.14039 17.298828 11.007812 C 17.298828 11.999142 16.501096 12.796875 15.509766 12.796875 C 15.509766 12.796875 12.342689 11.94667 10.724609 11.96875 C 9.3266294 11.98785 6.6132812 12.796875 6.6132812 12.796875 C 5.6414112 12.992325 4.8242188 11.999142 4.8242188 11.007812 C 4.8242188 10.016472 5.6219513 9.2167969 6.6132812 9.2167969 C 6.6132812 9.2167969 9.3239894 10.064034 10.724609 10.083984 C 12.344959 10.107084 15.509766 9.2167969 15.509766 9.2167969 C 15.631699 9.1947156 15.749623 9.1914417 15.865234 9.203125 z " class="ColorScheme-Text" id="path4148" style="opacity:1;fill:currentColor;fill-opacity:1;stroke:none;stroke-width:1;stroke-linecap:round;stroke-linejoin:round;stroke-miterlimit:4;stroke-dasharray:none" transform="translate(384.57143,525.798)"/>
  </g>
</svg>
