<?xml version='1.0' encoding='UTF-8' standalone='no'?>
<!-- Created with Inkscape (http://www.inkscape.org/) -->
<svg xmlns="http://www.w3.org/2000/svg" xmlns:dc="http://purl.org/dc/elements/1.1/" sodipodi:docname="applications-internet.svg" xmlns:cc="http://creativecommons.org/ns#" id="svg4260" version="1.1" width="22" xmlns:svg="http://www.w3.org/2000/svg" xmlns:sodipodi="http://sodipodi.sourceforge.net/DTD/sodipodi-0.dtd" inkscape:version="0.91 r13725" xmlns:inkscape="http://www.inkscape.org/namespaces/inkscape" viewBox="0 0 22 22" height="22" xmlns:rdf="http://www.w3.org/1999/02/22-rdf-syntax-ns#">
  <metadata id="metadata4266">
    <rdf:RDF>
      <cc:Work rdf:about="">
        <dc:format>image/svg+xml</dc:format>
        <dc:type rdf:resource="http://purl.org/dc/dcmitype/StillImage"/>
        <dc:title/>
      </cc:Work>
    </rdf:RDF>
  </metadata>
  <defs id="defs4264">
    <style id="current-color-scheme" type="text/css"><![CDATA[
.ColorScheme-Text{ color:#c8c8c8; }
]]></style>
  </defs>
  <sodipodi:namedview inkscape:window-maximized="1" inkscape:window-y="0" inkscape:cx="-29.322666" id="namedview4262" inkscape:pageopacity="0" inkscape:pageshadow="2" objecttolerance="10" gridtolerance="10" inkscape:window-width="1882" guidetolerance="10" inkscape:window-x="38" inkscape:zoom="5.9" borderopacity="1" bordercolor="#666666" showgrid="false" pagecolor="#ffffff" inkscape:current-layer="g4824" inkscape:window-height="1080" inkscape:cy="-12.337785"/>
  <g id="g4824" transform="matrix(0.07138698,0,0,0.07138698,-11.546175,-11.526081)">
    <path d="M 14.703125 1.7519531 L 12.511719 1.9238281 C 12.511719 1.9238281 15.86598 3.5669624 17.611328 7.0234375 C 17.638787 7.0778177 17.657042 7.1276245 17.683594 7.1816406 A 9.1084958 6.3499227 0 0 0 19.269531 5.2617188 C 17.147162 2.5187874 14.703125 1.7519531 14.703125 1.7519531 z M 8.3710938 1.7753906 C 7.8609641 1.7657655 7.0704925 1.803621 6.1464844 2.265625 C 4.944923 2.8664056 3.2963547 4.1838001 2.4355469 5.6953125 A 9.1084958 6.3499227 0 0 0 3.9570312 7.3203125 C 4.4827929 6.2679584 5.2744115 4.9652623 6.3515625 4.0117188 C 8.4391362 2.1637023 9.4316406 1.9921875 9.4316406 1.9921875 C 9.4316406 1.9921875 9.19192 1.7871094 8.78125 1.7871094 C 8.6785825 1.7871094 8.5411369 1.778599 8.3710938 1.7753906 z M 11.400391 2.5507812 L 11.34375 9.40625 A 9.1084958 6.3499227 0 0 0 16.496094 7.9902344 C 16.251661 7.4630889 15.983173 6.9539135 15.660156 6.5097656 C 13.861502 4.0366161 12.181524 2.9578134 11.400391 2.5507812 z M 10.400391 2.6367188 C 9.3339869 3.2441164 6.4494127 5.0767312 5.359375 7.84375 C 5.3186596 7.9471044 5.290221 8.0458571 5.2519531 8.1484375 A 9.1084958 6.3499227 0 0 0 10.34375 9.4257812 L 10.400391 2.6367188 z M 20.046875 6.4296875 A 10.486753 7.310766 0 0 1 18.162109 8.2324219 C 19.331686 11.095714 19.253906 13.216797 19.253906 13.216797 C 19.253906 13.216797 20.279888 12.293568 20.587891 11.814453 C 20.895893 11.335338 20.896484 11.095703 20.896484 11.095703 C 20.896484 11.095703 21.42527 8.9437748 20.046875 6.4296875 z M 1.8476562 6.9570312 C 1.0143748 9.1185378 1.046875 11.095703 1.046875 11.095703 C 1.046875 11.095703 0.91031845 11.334824 1.5605469 12.224609 C 2.2107745 13.114395 2.7246094 13.183594 2.7246094 13.183594 C 2.7246094 13.183594 2.6553167 13.114481 2.6210938 12.15625 C 2.5868712 11.19802 3.203125 9.0761719 3.203125 9.0761719 C 3.203125 9.0761719 3.3121535 8.7808465 3.4824219 8.3671875 A 10.486753 7.310766 0 0 1 1.8476562 6.9570312 z M 16.914062 8.9765625 A 10.486753 7.310766 0 0 1 11.335938 10.373047 L 11.291016 15.796875 C 14.917146 15.558159 18.056641 14.175781 18.056641 14.175781 C 18.056641 14.175781 17.835853 11.489376 16.914062 8.9765625 z M 4.9003906 9.1542969 C 4.0265234 11.970877 4.0253906 14.244141 4.0253906 14.244141 C 4.0253906 14.244141 7.3556646 15.79941 10.291016 15.839844 L 10.335938 10.380859 A 10.486753 7.310766 0 0 1 4.9003906 9.1542969 z " class="ColorScheme-Text" id="path4810" style="fill:currentColor;fill-rule:evenodd;stroke:currentColor;stroke-width:0.07138698px;stroke-linecap:butt;stroke-linejoin:miter;stroke-opacity:1" transform="matrix(14.008157,0,0,14.008157,161.74063,161.45915)"/>
    <path d="M 17.611328 15.990234 C 17.611328 15.990234 16.379043 17.358013 11.587891 17.666016 C 11.523577 17.67015 11.469761 17.664614 11.40625 17.667969 L 11.40625 20.855469 C 13.897063 20.876763 15.796875 19.71875 15.796875 19.71875 C 15.796875 19.71875 16.242179 19.480143 17.029297 18.179688 C 17.816415 16.879232 17.611328 15.990234 17.611328 15.990234 z M 4.2304688 16.091797 C 4.2304688 16.091797 5.2229043 19.001354 5.8046875 19.480469 C 6.3496004 19.929221 7.9566088 20.552202 10.40625 20.798828 L 10.40625 17.681641 C 6.3904632 17.641961 4.2304688 16.091797 4.2304688 16.091797 z " class="ColorScheme-Text" id="path4812" style="fill:currentColor;fill-rule:evenodd;stroke:none;stroke-width:1px;stroke-linecap:butt;stroke-linejoin:miter;stroke-opacity:1" transform="matrix(14.008157,0,0,14.008157,161.74063,161.45915)"/>
    <path d="m 179.77291,343.73424 c 0,0 6.95122,14.98108 10.90622,19.29563 8.503,9.27601 11.62532,10.42683 11.62532,10.42683 0,0 -0.95879,7.19091 3.83515,19.17577 4.79395,11.98487 17.97729,27.20564 17.97729,27.20564 0,0 -17.37804,-19.29563 -27.56517,-36.79352 -9.03133,-15.51263 -16.77881,-39.31035 -16.77881,-39.31035 z" class="ColorScheme-Text" id="path4814" style="fill:currentColor;fill-rule:evenodd;stroke:none;stroke-width:1px;stroke-linecap:butt;stroke-linejoin:miter;stroke-opacity:1" sodipodi:nodetypes="cscscsc" inkscape:connector-curvature="0"/>
    <path d="m 428.47458,374.23729 c 0,0 10.84745,-8.47458 16.10169,-16.61017 5.25424,-8.1356 7.28814,-16.61017 7.28814,-16.61017 0,0 -1.86441,13.38983 -6.77966,24.23729 -4.91526,10.84745 -9.887,21.61786 -16.77966,31.01695 -7.45763,10.16949 -22.0339,24.23728 -22.0339,24.23728 0,0 15.76271,-18.98305 17.62712,-26.10169 1.8644,-7.11864 4.57627,-20.16949 4.57627,-20.16949 z" class="ColorScheme-Text" id="path4816" style="fill:currentColor;fill-rule:evenodd;stroke:none;stroke-width:1px;stroke-linecap:butt;stroke-linejoin:miter;stroke-opacity:1" sodipodi:nodetypes="cscsscsc" inkscape:connector-curvature="0"/>
    <path d="m 292.0339,180.16949 22.20339,1.35593 25.42373,-2.0339 c 0,0 -6.77966,-2.03389 -22.54238,-2.20339 -15.76271,-0.16949 -25.08474,2.88136 -25.08474,2.88136 z" class="ColorScheme-Text" id="path4822" style="fill:currentColor;fill-rule:evenodd;stroke:none;stroke-width:1px;stroke-linecap:butt;stroke-linejoin:miter;stroke-opacity:1" inkscape:connector-curvature="0"/>
  </g>
</svg>
