<?xml version='1.0' encoding='UTF-8' standalone='no'?>
<!-- Created with Inkscape (http://www.inkscape.org/) -->
<svg xmlns="http://www.w3.org/2000/svg" xmlns:dc="http://purl.org/dc/elements/1.1/" sodipodi:docname="applications-utilities.svg" xmlns:cc="http://creativecommons.org/ns#" id="svg5453" version="1.1" width="22" xmlns:svg="http://www.w3.org/2000/svg" xmlns:sodipodi="http://sodipodi.sourceforge.net/DTD/sodipodi-0.dtd" inkscape:version="0.91 r13725" xmlns:inkscape="http://www.inkscape.org/namespaces/inkscape" viewBox="0 0 22 22" height="22" xmlns:rdf="http://www.w3.org/1999/02/22-rdf-syntax-ns#">
  <defs id="defs5455">
    <style id="current-color-scheme" type="text/css"><![CDATA[
.ColorScheme-Text{ color:#c8c8c8; }
]]></style>
  </defs>
  <sodipodi:namedview borderlayer="true" inkscape:snap-nodes="true" inkscape:window-maximized="1" inkscape:window-y="0" fit-margin-top="0" inkscape:cx="9.1398177" inkscape:object-nodes="true" id="base" inkscape:pageopacity="0" inkscape:pageshadow="2" showguides="true" fit-margin-left="0" inkscape:document-units="px" showborder="true" gridtolerance="10000" inkscape:window-width="1882" inkscape:snap-bbox="true" fit-margin-bottom="0" inkscape:showpageshadow="false" guidetolerance="10000" inkscape:window-x="38" borderopacity="1.0" inkscape:zoom="1" pagecolor="#ffffff" bordercolor="#666666" showgrid="true" inkscape:current-layer="layer1" inkscape:bbox-nodes="true" fit-margin-right="0" inkscape:window-height="1080" inkscape:cy="16.647759">
    <inkscape:grid id="grid4063" type="xygrid"/>
    <sodipodi:guide orientation="32,0" id="guide4625" position="4.2167969e-05,32.000026"/>
    <sodipodi:guide orientation="0,31.999969" id="guide4627" position="4.2167969e-05,2.6367188e-05"/>
    <sodipodi:guide orientation="-32,0" id="guide4629" position="32.000012,2.6367188e-05"/>
    <sodipodi:guide orientation="0,-31.999969" id="guide4631" position="32.000012,32.000026"/>
    <sodipodi:guide orientation="28,0" id="guide4633" position="2,26"/>
    <sodipodi:guide orientation="0,27.999969" id="guide4635" position="2.0000422,2.0000264"/>
    <sodipodi:guide orientation="-28,0" id="guide4637" position="30,17"/>
    <sodipodi:guide orientation="0,-27.999969" id="guide4639" position="30.000012,30.000026"/>
    <sodipodi:guide orientation="14,0" id="guide4429" position="9,17"/>
    <sodipodi:guide orientation="0,14.000031" id="guide4431" position="9.0000117,10.000271"/>
    <sodipodi:guide orientation="-14,0" id="guide4433" position="23.000042,10.000271"/>
    <sodipodi:guide orientation="0,-14.000031" id="guide4435" position="23.000042,24.000271"/>
  </sodipodi:namedview>
  <metadata id="metadata5458">
    <rdf:RDF>
      <cc:Work rdf:about="">
        <dc:format>image/svg+xml</dc:format>
        <dc:type rdf:resource="http://purl.org/dc/dcmitype/StillImage"/>
        <dc:title/>
      </cc:Work>
    </rdf:RDF>
  </metadata>
  <g inkscape:label="Capa 1" inkscape:groupmode="layer" id="layer1" transform="translate(-384.57143,-525.798)">
    <path d="M 7.875 1 C 6.83624 1 6 2.0515619 6 3.3574219 L 6 5.7148438 C 6 5.8147227 6.0275535 5.903595 6.0371094 6 L 7.25 6 L 7.25 3.3574219 C 7.25 2.9221319 7.52874 2.5722656 7.875 2.5722656 L 14.125 2.5722656 C 14.47126 2.5722656 14.75 2.9221319 14.75 3.3574219 L 14.75 6 L 15.962891 6 C 15.972446 5.903595 16 5.8147227 16 5.7148438 L 16 3.3574219 C 16 2.0515619 15.16376 1 14.125 1 L 7.875 1 z " class="ColorScheme-Text" id="rect4357" style="opacity:1;fill:currentColor;fill-opacity:1;stroke:none;stroke-width:0.1;stroke-linecap:square;stroke-linejoin:miter;stroke-miterlimit:4;stroke-dasharray:none;stroke-dashoffset:0;stroke-opacity:1" transform="translate(384.57143,525.798)"/>
    <path d="m 3,5 -2,2 0,2 2,0 0,-2 5,0 0,2 6,0 0,-2 5,0 0,2 2,0 0,-2 -2,-2 z M 4,8 4,9 7,9 7,8 Z m 11,0 0,1 3,0 0,-1 z m -14,2 0,9.166016 20,0 L 21,10 l -2,0 0,2 -5,0 0,-2 -6,0 0,2 -5,0 0,-2 z m 3,0 0,1 3,0 0,-1 z m 11,0 0,1 3,0 0,-1 z" class="ColorScheme-Text" id="rect4177" style="opacity:1;fill:currentColor;fill-opacity:1;stroke:none;stroke-width:0.1;stroke-linecap:square;stroke-linejoin:miter;stroke-miterlimit:4;stroke-dasharray:none;stroke-dashoffset:0;stroke-opacity:1" transform="translate(384.57143,525.798)" sodipodi:nodetypes="cccccccccccccccccccccccccccccccccccccccccccccccc" inkscape:connector-curvature="0"/>
    <rect class="ColorScheme-Text" id="rect4187" width="19.999973" x="385.57144" style="opacity:1;fill:currentColor;fill-opacity:1;stroke:none;stroke-width:0.1;stroke-linecap:square;stroke-linejoin:miter;stroke-miterlimit:4;stroke-dasharray:none;stroke-dashoffset:0;stroke-opacity:1" height="0.99998701" y="545.79797"/>
  </g>
</svg>
